<?xml version="1.0" standalone="no"?>
<!DOCTYPE svg PUBLIC "-//W3C//DTD SVG 20010904//EN"
 "http://www.w3.org/TR/2001/REC-SVG-20010904/DTD/svg10.dtd">
<svg version="1.0" xmlns="http://www.w3.org/2000/svg"
 width="225.000000pt" height="225.000000pt" viewBox="0 0 225.000000 225.000000"
 preserveAspectRatio="xMidYMid meet">

<g transform="translate(0.000000,225.000000) scale(0.100000,-0.100000)"
fill="#000000" stroke="none">
<path d="M945 2136 c-186 -31 -346 -105 -495 -228 -172 -141 -279 -312 -332
-525 -31 -129 -31 -316 1 -438 13 -49 29 -94 34 -100 7 -7 7 -3 3 10 -36 98
-54 298 -37 416 48 330 253 606 562 753 136 65 228 87 389 93 251 10 436 -42
635 -177 199 -136 342 -341 411 -590 28 -99 25 -347 -4 -454 -25 -91 -97 -247
-147 -320 -33 -47 -33 -48 -5 -16 74 84 145 234 175 370 98 441 -123 899 -534
1105 -188 95 -451 135 -656 101z"/>
<path d="M740 1999 c0 -20 4 -29 13 -27 18 7 20 45 3 51 -12 5 -16 -1 -16 -24z"/>
<path d="M653 1967 c1 -15 7 -28 12 -28 6 0 11 13 12 28 2 24 1 25 -6 8 l-8
-20 -6 20 c-4 14 -5 11 -4 -8z"/>
<path d="M581 1923 c-1 -18 3 -33 9 -33 11 0 25 48 16 57 -3 4 -6 -5 -7 -18
l-1 -24 -8 25 c-8 24 -8 23 -9 -7z"/>
<path d="M715 1910 c3 -5 11 -10 16 -10 6 0 7 5 4 10 -3 6 -11 10 -16 10 -6 0
-7 -4 -4 -10z"/>
<path d="M770 1911 c0 -5 -9 -13 -20 -16 -29 -9 -25 -23 5 -17 14 2 25 10 25
17 0 7 6 16 13 18 7 3 5 6 -5 6 -10 1 -18 -3 -18 -8z"/>
<path d="M490 1874 c0 -7 6 -15 13 -17 10 -4 10 -6 0 -6 -18 -1 -16 -31 2 -31
10 0 15 10 15 33 0 23 -5 34 -15 34 -8 0 -15 -6 -15 -13z"/>
<path d="M635 1870 c3 -5 11 -10 16 -10 6 0 7 5 4 10 -3 6 -11 10 -16 10 -6 0
-7 -4 -4 -10z"/>
<path d="M673 1860 c-17 -9 -44 -25 -59 -35 -25 -16 -28 -16 -36 -1 -14 26
-27 18 -15 -8 14 -28 48 -31 59 -4 4 9 23 20 42 23 22 5 36 14 39 26 3 10 4
18 4 18 -1 -1 -16 -9 -34 -19z"/>
<path d="M740 1824 c0 -14 4 -23 10 -19 6 3 10 15 10 26 0 10 -4 19 -10 19 -5
0 -10 -12 -10 -26z"/>
<path d="M424 1800 c0 -19 6 -35 11 -35 6 0 11 16 12 35 1 35 1 35 -6 5 l-8
-30 -5 30 c-5 28 -6 28 -4 -5z"/>
<path d="M667 1813 c-10 -10 -8 -103 2 -103 5 0 8 25 8 55 0 30 -1 55 -2 55
-1 0 -5 -3 -8 -7z"/>
<path d="M2000 1770 c6 -11 13 -20 16 -20 2 0 0 9 -6 20 -6 11 -13 20 -16 20
-2 0 0 -9 6 -20z"/>
<path d="M226 1763 c-6 -14 -5 -15 5 -6 7 7 10 15 7 18 -3 3 -9 -2 -12 -12z"/>
<path d="M477 1759 c6 -6 9 -17 6 -25 -9 -25 53 -12 64 14 13 26 6 28 -20 5
-18 -17 -19 -17 -28 0 -6 9 -15 17 -21 17 -9 0 -9 -3 -1 -11z"/>
<path d="M586 1763 c-3 -3 -5 -25 -5 -47 l2 -41 8 35 c6 29 7 25 5 -22 -1 -32
1 -58 6 -58 11 0 10 127 -1 134 -4 3 -11 3 -15 -1z"/>
<path d="M740 1730 c0 -5 5 -10 10 -10 6 0 10 5 10 10 0 6 -4 10 -10 10 -5 0
-10 -4 -10 -10z"/>
<path d="M344 1690 c0 -25 6 -45 11 -45 6 0 11 20 11 45 l2 45 -7 -40 -7 -40
-6 40 -5 40 1 -45z"/>
<path d="M390 1696 c0 -2 7 -6 15 -10 8 -3 15 -1 15 4 0 6 -7 10 -15 10 -8 0
-15 -2 -15 -4z"/>
<path d="M450 1685 c-7 -8 -19 -15 -26 -15 -8 0 -14 -4 -14 -9 0 -15 46 0 58
20 14 22 0 26 -18 4z"/>
<path d="M500 1653 c0 -35 3 -44 10 -33 13 20 13 80 0 80 -5 0 -10 -21 -10
-47z"/>
<path d="M705 1662 c-20 -20 26 -31 54 -13 9 6 4 10 -18 13 -17 3 -33 2 -36 0z"/>
<path d="M153 1648 c-6 -7 -16 -31 -23 -53 -7 -22 -23 -59 -36 -82 -13 -23
-24 -55 -24 -72 0 -16 -5 -42 -11 -58 -17 -42 -42 -303 -29 -303 3 0 6 -26 7
-57 2 -87 7 -113 22 -122 8 -6 9 -10 2 -12 -7 -3 -6 -14 5 -34 8 -16 13 -38
10 -49 -6 -23 49 -136 67 -136 8 0 7 -4 -3 -10 -13 -8 -13 -12 0 -33 8 -13 24
-38 35 -56 11 -18 34 -50 50 -71 102 -129 128 -158 164 -179 22 -14 45 -35 51
-47 7 -12 38 -34 69 -49 31 -15 65 -36 77 -47 12 -10 52 -30 89 -43 37 -14 73
-29 79 -34 6 -5 40 -14 74 -21 35 -6 76 -16 90 -22 24 -9 108 -17 207 -20 68
-2 195 12 236 26 24 9 56 16 70 16 14 0 56 13 92 30 37 16 73 30 80 30 8 0 32
13 55 30 23 16 62 39 87 51 25 12 53 31 63 43 9 12 38 36 64 54 26 18 52 41
58 52 6 10 33 45 60 76 28 31 50 62 50 67 0 6 13 31 29 56 36 56 110 238 118
289 3 20 11 55 18 78 8 22 14 69 15 105 1 35 1 78 2 94 1 56 -13 180 -26 230
-33 121 -38 137 -42 132 -3 -3 5 -45 18 -94 31 -118 33 -378 5 -488 -23 -87
-67 -195 -79 -195 -5 0 -6 -4 -3 -10 9 -14 -45 -101 -57 -93 -6 3 -8 1 -5 -4
4 -6 0 -13 -8 -17 -8 -3 -15 -16 -15 -30 0 -14 -10 -33 -23 -43 -13 -10 -29
-29 -36 -41 -10 -19 -15 -21 -27 -11 -12 10 -13 9 -8 -6 6 -14 4 -16 -6 -10
-8 5 -11 4 -7 -2 8 -13 -63 -84 -76 -76 -6 3 -7 1 -3 -5 7 -12 -54 -65 -129
-110 -82 -50 -203 -97 -321 -126 -153 -36 -356 -37 -490 -3 -49 13 -99 23
-112 22 -12 -1 -22 2 -22 7 0 4 -9 8 -21 8 -11 0 -18 4 -15 9 4 5 -2 7 -12 5
-9 -3 -28 -1 -42 5 -14 5 -18 10 -10 10 18 1 -25 32 -100 70 -30 16 -75 48
-98 72 -35 34 -46 40 -54 28 -8 -12 -9 -12 -5 1 2 9 -24 44 -61 84 -121 130
-210 295 -257 477 -18 72 -21 112 -20 240 1 173 18 260 79 407 34 82 37 93 19
70z m467 -1433 c7 -8 8 -15 2 -15 -5 0 -15 7 -22 15 -7 8 -8 15 -2 15 5 0 15
-7 22 -15z"/>
<path d="M788 1653 c7 -3 16 -2 19 1 4 3 -2 6 -13 5 -11 0 -14 -3 -6 -6z"/>
<path d="M2091 1630 c14 -31 19 -36 19 -24 0 6 -7 19 -16 30 -14 18 -14 18 -3
-6z"/>
<path d="M422 1600 c0 -19 2 -27 5 -17 2 9 2 25 0 35 -3 9 -5 1 -5 -18z"/>
<path d="M770 1619 c0 -5 19 -9 42 -9 49 0 47 5 -4 13 -21 3 -38 2 -38 -4z"/>
<path d="M443 1580 c0 -25 2 -35 4 -22 2 12 2 32 0 45 -2 12 -4 2 -4 -23z"/>
<path d="M620 1588 c-19 -31 -28 -69 -13 -55 9 10 43 87 37 87 -2 0 -13 -15
-24 -32z"/>
<path d="M1837 1588 c17 -7 35 -16 39 -20 4 -5 12 -8 18 -8 19 0 -30 29 -60
34 -29 6 -29 6 3 -6z"/>
<path d="M323 1566 c14 -30 50 -29 64 2 14 27 12 27 -18 2 l-23 -21 -8 21 c-4
11 -12 20 -17 20 -5 0 -4 -10 2 -24z"/>
<path d="M682 1578 c-7 -7 -12 -18 -12 -25 0 -7 -9 -27 -20 -45 -11 -18 -20
-44 -19 -58 l1 -25 8 25 c6 21 47 107 56 119 2 2 10 -2 19 -9 10 -8 15 -9 15
-2 0 19 -35 33 -48 20z"/>
<path d="M760 1586 c0 -2 7 -9 15 -16 9 -7 15 -8 15 -2 0 5 -7 12 -15 16 -8 3
-15 4 -15 2z"/>
<path d="M1386 1484 c-15 -59 -25 -108 -23 -111 3 -2 16 44 31 103 15 59 25
108 23 111 -3 2 -16 -44 -31 -103z"/>
<path d="M1719 1550 c-65 -53 -137 -217 -175 -395 -20 -93 -28 -243 -15 -280
9 -27 10 -25 5 15 -19 160 68 489 164 615 32 42 44 50 74 53 33 3 39 0 54 -29
25 -49 15 -263 -19 -384 -27 -98 -29 -126 -3 -48 46 139 68 344 46 425 -18 65
-73 76 -131 28z"/>
<path d="M1271 1547 c-30 -11 -50 -22 -44 -24 6 -2 35 7 64 21 66 30 54 31
-20 3z"/>
<path d="M790 1538 c0 -14 30 -22 41 -11 7 7 2 12 -15 15 -14 3 -26 1 -26 -4z"/>
<path d="M500 1514 c0 -14 4 -23 9 -20 5 3 7 15 4 26 -7 28 -13 25 -13 -6z"/>
<path d="M437 1523 c-4 -3 -7 -13 -7 -22 1 -13 3 -13 11 2 11 19 8 33 -4 20z"/>
<path d="M356 1511 c-4 -7 -5 -15 -2 -18 9 -9 19 4 14 18 -4 11 -6 11 -12 0z"/>
<path d="M591 1513 c-1 -8 -8 -10 -18 -6 -15 6 -16 5 -3 -9 16 -18 35 -8 27
14 -4 9 -6 9 -6 1z"/>
<path d="M1083 1504 c2 -3 33 -9 68 -14 69 -10 81 -21 74 -65 -4 -24 -3 -26 4
-10 15 32 12 64 -6 73 -20 10 -149 25 -140 16z"/>
<path d="M684 1467 c3 -10 6 -22 6 -27 0 -16 32 -19 58 -6 19 10 33 11 45 5
11 -7 17 -6 17 1 0 18 -31 24 -64 12 -28 -11 -33 -10 -49 10 -15 18 -18 19
-13 5z"/>
<path d="M1975 1363 c-1 -162 -50 -305 -155 -445 -140 -190 -332 -209 -397
-40 -19 50 -25 185 -11 272 6 37 5 41 -4 20 -6 -14 -13 -73 -16 -132 -7 -170
32 -260 127 -289 145 -43 319 98 420 341 43 106 64 281 43 358 -4 13 -7 -26
-7 -85z"/>
<path d="M489 1439 c-1 -8 0 -18 1 -24 1 -5 2 -21 2 -33 1 -24 8 -25 49 -8 11
5 20 -4 34 -34 12 -27 23 -39 33 -35 7 3 16 5 18 5 2 0 4 8 4 18 0 15 -2 15
-10 2 -9 -13 -12 -12 -26 5 -8 11 -18 32 -21 48 -6 27 -26 36 -38 16 -11 -16
-28 -5 -32 21 -4 28 -12 39 -14 19z"/>
<path d="M795 1400 c-3 -5 1 -10 9 -10 9 0 16 5 16 10 0 6 -4 10 -9 10 -6 0
-13 -4 -16 -10z"/>
<path d="M633 1385 c-9 -24 1 -27 15 -5 8 13 8 20 2 20 -6 0 -13 -7 -17 -15z"/>
<path d="M730 1390 c0 -6 7 -10 15 -10 8 0 15 2 15 4 0 2 -7 6 -15 10 -8 3
-15 1 -15 -4z"/>
<path d="M315 1380 c-3 -6 1 -7 9 -4 18 7 21 14 7 14 -6 0 -13 -4 -16 -10z"/>
<path d="M1297 1143 c-31 -121 -56 -235 -56 -254 2 -34 2 -34 6 -4 3 17 29
126 59 244 30 118 53 219 51 225 -2 5 -29 -90 -60 -211z"/>
<path d="M365 1340 c-4 -6 -16 -8 -27 -4 -17 5 -18 3 -9 -15 15 -28 25 -26 39
4 11 25 9 35 -3 15z"/>
<path d="M1202 1330 c0 -14 2 -19 5 -12 2 6 2 18 0 25 -3 6 -5 1 -5 -13z"/>
<path d="M700 1318 c0 -9 5 -20 10 -23 13 -8 13 5 0 25 -8 13 -10 13 -10 -2z"/>
<path d="M530 1300 c-8 -5 -11 -12 -7 -16 4 -4 13 -2 19 4 15 15 7 24 -12 12z"/>
<path d="M270 1254 c-30 -11 -32 -13 -10 -13 14 -1 32 3 40 9 24 15 8 17 -30
4z"/>
<path d="M543 1233 c-7 -3 -13 -9 -13 -14 0 -12 37 -12 44 0 7 11 -14 20 -31
14z"/>
<path d="M349 1217 c6 -8 8 -17 4 -20 -3 -4 5 -7 19 -7 14 0 28 7 32 15 4 12
0 14 -19 9 -15 -4 -25 -2 -25 5 0 6 -5 11 -11 11 -8 0 -9 -4 0 -13z"/>
<path d="M1161 1174 c-7 -30 -11 -57 -8 -60 2 -2 9 21 16 52 7 30 11 57 8 60
-2 2 -9 -21 -16 -52z"/>
<path d="M1421 1214 c0 -11 3 -14 6 -6 3 7 2 16 -1 19 -3 4 -6 -2 -5 -13z"/>
<path d="M2100 1138 c0 -271 -121 -517 -346 -704 -74 -62 -100 -72 -166 -66
-39 3 -58 1 -58 -7 0 -7 21 -11 53 -12 l52 -1 -82 -39 c-138 -66 -222 -83
-408 -84 -88 0 -187 4 -220 9 -39 5 -57 5 -50 -1 21 -21 105 -34 240 -40 119
-4 154 -2 234 16 216 48 411 166 552 334 70 83 152 245 180 352 20 77 39 315
25 315 -3 0 -6 -33 -6 -72z"/>
<path d="M333 1107 c12 -19 24 -30 25 -25 6 15 -6 36 -27 48 -19 10 -19 9 2
-23z"/>
<path d="M590 1060 c0 -6 4 -9 8 -6 5 3 26 -11 47 -29 21 -19 47 -37 57 -41
10 -3 21 -17 24 -32 11 -46 71 -86 71 -47 0 8 -3 12 -7 10 -10 -6 -50 34 -50
50 0 8 -19 27 -42 42 -24 16 -47 33 -53 39 -15 18 -55 28 -55 14z"/>
<path d="M1112 978 c-12 -50 -21 -93 -18 -95 2 -2 14 37 26 87 12 50 21 93 18
95 -2 2 -14 -37 -26 -87z"/>
<path d="M1771 1033 c-1 -6 -4 -20 -7 -30 -5 -17 -5 -17 6 0 6 10 9 23 6 30
-3 9 -5 9 -5 0z"/>
<path d="M540 1021 c0 -16 56 -76 61 -65 3 5 -10 24 -28 42 -18 19 -33 29 -33
23z"/>
<path d="M216 995 c-22 -34 -19 -45 4 -17 16 19 23 21 40 12 12 -6 31 -10 43
-7 19 3 18 4 -8 11 -16 4 -37 11 -47 16 -12 7 -20 3 -32 -15z"/>
<path d="M413 1003 c-3 -10 -8 -21 -10 -25 -2 -5 0 -8 5 -8 5 0 12 9 15 20 4
17 9 19 30 11 18 -7 28 -6 35 2 8 9 0 13 -29 15 -30 2 -41 -2 -46 -15z"/>
<path d="M813 967 c-36 -12 -47 -39 -13 -30 11 3 23 9 26 14 3 5 14 9 25 9 11
0 17 5 14 10 -7 11 -8 11 -52 -3z"/>
<path d="M351 946 c-14 -15 -19 -26 -12 -31 6 -3 11 -2 11 3 0 4 9 18 20 30
12 12 17 22 12 22 -5 0 -19 -11 -31 -24z"/>
<path d="M160 930 c0 -5 5 -10 10 -10 6 0 10 5 10 10 0 6 -4 10 -10 10 -5 0
-10 -4 -10 -10z"/>
<path d="M640 931 c0 -6 5 -11 10 -11 6 0 10 -6 10 -14 0 -8 4 -17 9 -20 5 -3
8 5 7 18 0 13 -3 22 -5 20 -2 -2 -10 1 -18 7 -9 9 -13 8 -13 0z"/>
<path d="M170 903 c0 -10 61 -45 67 -39 5 5 -47 46 -58 46 -5 0 -9 -3 -9 -7z"/>
<path d="M310 885 c-17 -10 -20 -14 -9 -15 9 0 22 7 29 15 15 18 12 18 -20 0z"/>
<path d="M770 872 c0 -16 28 -34 34 -23 4 6 -3 15 -14 21 -11 6 -20 7 -20 2z"/>
<path d="M838 823 c7 -3 16 -2 19 1 4 3 -2 6 -13 5 -11 0 -14 -3 -6 -6z"/>
<path d="M1892 800 c1 -8 -3 -24 -7 -34 -6 -13 -4 -21 3 -24 7 -2 12 -12 12
-23 0 -15 7 -19 35 -19 19 0 35 5 35 10 0 6 -12 10 -27 10 -24 1 -26 2 -12 13
11 8 14 18 8 32 -6 17 -8 17 -8 3 -1 -19 -31 -26 -31 -8 0 6 4 10 8 10 4 0 9
10 9 22 2 16 0 19 -6 9 -7 -11 -10 -11 -14 0 -5 11 -6 11 -5 -1z"/>
<path d="M741 784 c0 -11 3 -14 6 -6 3 7 2 16 -1 19 -3 4 -6 -2 -5 -13z"/>
<path d="M904 761 c-17 -17 27 -21 251 -21 197 0 255 3 255 13 0 9 -57 12
-251 12 -138 0 -253 -2 -255 -4z"/>
<path d="M368 733 c7 -3 16 -2 19 1 4 3 -2 6 -13 5 -11 0 -14 -3 -6 -6z"/>
<path d="M1271 661 c-8 -6 -9 -11 -3 -15 6 -3 14 -1 17 5 9 14 2 20 -14 10z"/>
<path d="M1340 651 c-5 -11 -10 -28 -9 -38 0 -11 5 -7 11 12 6 17 16 33 22 37
8 5 7 8 -1 8 -7 0 -17 -9 -23 -19z"/>
<path d="M1387 649 c8 -29 17 -30 29 -4 10 20 8 23 -11 23 -17 0 -21 -5 -18
-19z"/>
<path d="M1447 650 c3 -11 7 -20 9 -20 2 0 4 9 4 20 0 11 -4 20 -9 20 -5 0 -7
-9 -4 -20z"/>
<path d="M1477 663 c-13 -13 -7 -21 13 -16 11 3 17 9 14 14 -6 11 -18 12 -27
2z"/>
<path d="M1582 658 c-6 -6 -12 -21 -12 -32 0 -19 2 -18 13 4 16 32 42 33 41 2
0 -16 2 -20 10 -12 7 7 7 16 0 28 -14 22 -36 26 -52 10z"/>
<path d="M409 647 c6 -8 8 -17 4 -20 -3 -4 -2 -7 4 -7 17 0 23 13 12 27 -6 7
-16 13 -21 13 -7 0 -6 -5 1 -13z"/>
<path d="M1211 644 c0 -11 3 -14 6 -6 3 7 2 16 -1 19 -3 4 -6 -2 -5 -13z"/>
<path d="M1512 640 c-7 -11 -21 -20 -32 -20 -12 0 -20 -7 -20 -17 0 -9 3 -13
6 -10 4 3 18 -3 32 -13 13 -11 30 -20 36 -20 6 0 0 9 -14 19 -24 19 -24 20 -6
40 10 11 16 25 14 31 -1 5 -9 1 -16 -10z"/>
<path d="M1312 609 c-2 -36 9 -49 43 -49 17 0 45 27 45 43 0 6 -7 2 -15 -10
-8 -12 -23 -20 -32 -18 -10 2 -21 4 -25 4 -4 1 -9 16 -11 34 l-4 32 -1 -36z"/>
<path d="M1651 628 c-1 -22 -48 -58 -67 -51 -8 3 -17 16 -20 29 -6 22 -24 25
-24 3 0 -14 38 -49 54 -49 26 0 69 44 63 65 -4 16 -5 16 -6 3z"/>
<path d="M592 600 c0 -19 2 -27 5 -17 2 9 2 25 0 35 -3 9 -5 1 -5 -18z"/>
<path d="M1243 620 c-13 -5 -23 -15 -23 -22 0 -9 3 -9 11 -1 6 6 18 9 25 6 8
-3 14 1 14 11 0 9 -1 16 -2 15 -2 0 -13 -4 -25 -9z"/>
<path d="M1015 590 c-34 -14 -64 -48 -74 -87 -15 -52 -7 -52 13 1 32 84 124
112 149 46 14 -38 22 -38 36 1 14 39 14 60 1 37 -9 -15 -13 -15 -38 -2 -30 15
-57 17 -87 4z"/>
<path d="M1264 581 c-5 -6 -27 -11 -49 -14 l-40 -4 47 -1 c26 -1 50 3 53 9 9
14 1 21 -11 10z"/>
<path d="M487 561 c4 -16 13 -21 37 -20 30 0 30 1 7 10 -14 5 -30 14 -37 20
-9 8 -11 5 -7 -10z"/>
<path d="M1430 570 c-11 -7 -7 -10 18 -10 20 0 31 4 27 10 -8 13 -26 13 -45 0z"/>
<path d="M350 549 c0 -5 5 -7 10 -4 6 3 10 8 10 11 0 2 -4 4 -10 4 -5 0 -10
-5 -10 -11z"/>
<path d="M1160 510 c20 -13 33 -13 25 0 -3 6 -14 10 -23 10 -15 0 -15 -2 -2
-10z"/>
<path d="M1208 496 c-3 -14 -1 -23 3 -20 5 3 9 12 9 20 0 8 9 14 20 14 11 0
20 -4 20 -10 0 -5 7 -10 15 -10 8 0 15 6 15 13 0 8 -15 14 -39 15 -34 2 -39 0
-43 -22z"/>
<path d="M1325 506 c15 -11 19 -26 18 -72 l0 -59 12 40 12 40 27 -52 c21 -43
31 -53 51 -53 31 0 32 12 3 25 -12 6 -34 30 -49 55 -14 25 -32 44 -39 42 -7
-2 -10 3 -7 11 6 17 -11 37 -32 37 -11 0 -10 -3 4 -14z"/>
<path d="M1448 504 c25 -17 27 -34 8 -87 -9 -25 -10 -37 -3 -34 6 2 16 27 23
57 7 30 20 60 30 67 16 11 16 13 2 13 -9 0 -20 -5 -24 -11 -4 -8 -9 -8 -17 0
-6 6 -18 11 -26 11 -11 0 -9 -5 7 -16z"/>
<path d="M1526 498 c-5 -20 9 -34 19 -18 3 5 16 15 27 21 20 11 21 9 14 -29
-3 -22 -9 -48 -13 -58 -4 -11 -2 -15 4 -11 6 4 13 24 17 46 3 22 9 47 12 55 5
14 0 16 -34 14 -29 -2 -42 -8 -46 -20z"/>
<path d="M1616 454 c-9 -37 -14 -69 -11 -72 3 -3 5 -3 6 -1 15 81 59 166 59
115 0 -21 21 -31 31 -15 16 26 9 34 -30 37 l-38 2 -17 -66z"/>
<path d="M577 482 c2 -10 15 -18 29 -18 14 -1 24 -1 22 0 -55 35 -56 36 -51
18z"/>
<path d="M875 481 c-10 -31 5 -69 37 -96 16 -14 34 -25 40 -25 6 0 -1 9 -16
21 -34 27 -59 75 -51 99 4 11 4 20 1 20 -2 0 -7 -9 -11 -19z"/>
<path d="M1884 478 l-19 -23 23 19 c21 18 27 26 19 26 -2 0 -12 -10 -23 -22z"/>
<path d="M430 480 c0 -5 5 -10 11 -10 5 0 7 5 4 10 -3 6 -8 10 -11 10 -2 0 -4
-4 -4 -10z"/>
<path d="M1256 453 c-4 -5 -20 -8 -34 -8 -23 0 -27 -5 -29 -30 -2 -27 -2 -28
7 -7 9 22 40 31 40 12 0 -19 18 -10 23 12 7 25 4 32 -7 21z"/>
<path d="M650 433 c0 -16 16 -28 39 -31 14 -1 23 -1 20 1 -25 19 -59 36 -59
30z"/>
<path d="M1110 401 c-10 -25 -19 -31 -54 -35 -84 -11 -90 -13 -41 -15 71 -1
90 6 103 41 15 41 9 48 -8 9z"/>
<path d="M510 410 c0 -5 5 -10 11 -10 5 0 7 5 4 10 -3 6 -8 10 -11 10 -2 0 -4
-4 -4 -10z"/>
<path d="M1270 390 c-9 -16 -21 -20 -68 -20 -91 0 -98 -18 -9 -22 43 -1 77 0
77 4 0 4 12 3 28 -2 15 -5 36 -8 47 -6 11 3 27 5 35 6 8 1 -1 6 -20 10 -19 5
-46 6 -59 3 -22 -5 -23 -3 -17 21 8 31 1 34 -14 6z"/>
<path d="M727 380 c3 -11 9 -20 15 -20 5 0 4 9 -2 20 -6 11 -12 20 -14 20 -2
0 -2 -9 1 -20z"/>
<path d="M766 375 c-3 -8 -1 -15 4 -15 6 0 10 7 10 15 0 8 -2 15 -4 15 -2 0
-6 -7 -10 -15z"/>
<path d="M595 360 c3 -5 8 -10 11 -10 2 0 4 5 4 10 0 6 -5 10 -11 10 -5 0 -7
-4 -4 -10z"/>
</g>
</svg>
