<?xml version="1.0" standalone="no"?>
<!DOCTYPE svg PUBLIC "-//W3C//DTD SVG 20010904//EN"
 "http://www.w3.org/TR/2001/REC-SVG-20010904/DTD/svg10.dtd">
<svg version="1.0" xmlns="http://www.w3.org/2000/svg"
 width="225.000000pt" height="225.000000pt" viewBox="0 0 225.000000 225.000000"
 preserveAspectRatio="xMidYMid meet">

<g transform="translate(0.000000,225.000000) scale(0.100000,-0.100000)"
fill="#000000" stroke="none">
<path d="M946 2134 c-115 -21 -175 -41 -224 -74 -24 -16 -68 -36 -97 -45 -100
-29 -254 -161 -346 -296 -83 -122 -119 -211 -124 -301 -2 -39 -12 -82 -23
-105 -22 -43 -40 -129 -25 -120 6 4 12 -31 16 -86 3 -51 11 -104 16 -118 9
-19 9 -16 4 16 -14 79 -7 237 11 280 10 22 22 72 26 111 16 129 98 280 227
415 80 83 155 135 240 166 36 13 78 32 92 41 88 60 206 85 413 87 93 0 162 -2
155 -7 -8 -5 -3 -8 12 -8 29 0 138 -37 165 -56 10 -7 23 -11 30 -8 18 6 101
-22 88 -30 -8 -4 14 -21 55 -42 171 -86 327 -271 404 -477 11 -29 17 -39 14
-24 -4 19 -2 26 5 22 5 -3 10 -27 10 -53 0 -34 -3 -43 -10 -32 -19 30 -11 -13
12 -60 17 -36 23 -72 28 -185 l7 -140 -1 137 c-1 166 15 170 25 5 l7 -112 -2
125 c-2 114 -4 129 -26 165 -18 29 -26 61 -31 111 -10 124 -93 271 -234 410
-102 102 -170 147 -262 174 -40 11 -85 32 -102 45 -85 72 -354 105 -555 69z"/>
<path d="M1548 1998 c5 -5 16 -8 23 -6 8 3 3 7 -10 11 -17 4 -21 3 -13 -5z"/>
<path d="M763 1950 c1 -14 7 -25 12 -25 6 0 11 11 13 25 2 18 0 21 -6 11 -8
-11 -11 -11 -16 0 -3 8 -4 3 -3 -11z"/>
<path d="M683 1921 c3 -36 27 -39 26 -4 0 24 -2 25 -8 8 l-8 -20 -6 20 c-5 16
-5 15 -4 -4z"/>
<path d="M627 1876 c-5 -15 -6 -31 -3 -34 8 -8 18 25 14 45 -3 13 -6 10 -11
-11z"/>
<path d="M752 1866 c14 -10 15 -15 5 -26 -10 -10 -8 -12 6 -6 10 3 23 6 29 6
6 0 -1 9 -15 20 -14 11 -29 20 -34 20 -4 0 0 -6 9 -14z"/>
<path d="M800 1870 c-9 -6 -10 -10 -3 -10 6 0 15 5 18 10 8 12 4 12 -15 0z"/>
<path d="M546 1817 c-5 -15 -6 -31 -2 -34 11 -11 18 5 14 34 l-4 28 -8 -28z"/>
<path d="M668 1833 c6 -2 12 -10 12 -18 0 -7 11 -12 25 -12 14 0 23 2 21 5 -3
3 -1 11 5 19 14 16 -3 17 -19 1 -9 -9 -15 -9 -24 0 -7 7 -17 12 -22 11 -6 0
-5 -3 2 -6z"/>
<path d="M762 1780 c0 -19 2 -27 5 -17 2 9 2 25 0 35 -3 9 -5 1 -5 -18z"/>
<path d="M595 1790 c3 -5 11 -10 16 -10 6 0 7 5 4 10 -3 6 -11 10 -16 10 -6 0
-7 -4 -4 -10z"/>
<path d="M628 1782 c-34 -21 -36 -31 -5 -25 13 3 29 13 35 24 14 23 7 23 -30
1z"/>
<path d="M470 1760 c0 -16 5 -30 10 -30 6 0 10 14 10 30 0 17 -4 30 -10 30 -5
0 -10 -13 -10 -30z"/>
<path d="M690 1733 c0 -29 4 -53 9 -53 12 0 12 72 0 90 -6 10 -9 -2 -9 -37z"/>
<path d="M520 1725 c6 -8 9 -19 6 -24 -4 -5 6 -9 23 -9 20 1 31 7 34 19 3 11
1 19 -4 19 -5 0 -9 -4 -9 -10 0 -16 -27 -12 -34 5 -3 8 -11 15 -17 15 -8 0 -8
-4 1 -15z"/>
<path d="M620 1670 c0 -38 4 -70 9 -70 5 0 9 32 10 70 0 39 -4 70 -9 70 -6 0
-10 -31 -10 -70z"/>
<path d="M770 1700 c0 -5 5 -10 11 -10 5 0 7 5 4 10 -3 6 -8 10 -11 10 -2 0
-4 -4 -4 -10z"/>
<path d="M394 1660 c1 -56 20 -60 23 -5 1 37 1 37 -6 10 l-8 -30 -5 35 c-5 30
-5 29 -4 -10z"/>
<path d="M540 1576 c0 -64 4 -106 10 -106 6 0 10 40 10 99 0 56 -4 103 -10
106 -6 4 -10 -32 -10 -99z"/>
<path d="M447 1659 c6 -6 9 -17 7 -24 -8 -20 40 -6 54 16 14 22 10 24 -19 7
-17 -10 -23 -10 -26 0 -3 6 -10 12 -16 12 -8 0 -8 -3 0 -11z"/>
<path d="M730 1629 c0 -5 11 -9 25 -9 33 0 33 15 0 16 -14 1 -25 -2 -25 -7z"/>
<path d="M470 1540 c0 -40 4 -70 10 -70 6 0 10 30 10 70 0 40 -4 70 -10 70 -6
0 -10 -30 -10 -70z"/>
<path d="M818 1593 c12 -2 30 -2 40 0 9 3 -1 5 -23 4 -22 0 -30 -2 -17 -4z"/>
<path d="M645 1551 c-8 -17 -12 -31 -7 -31 10 0 35 50 28 57 -2 3 -12 -9 -21
-26z"/>
<path d="M373 1545 c7 -13 20 -22 32 -22 12 0 25 9 32 22 8 19 8 22 -3 18 -8
-3 -14 -9 -14 -14 0 -5 -7 -9 -15 -9 -8 0 -15 4 -15 9 0 5 -6 11 -14 14 -11 4
-11 1 -3 -18z"/>
<path d="M691 1510 c-17 -33 -31 -68 -31 -78 0 -15 27 35 51 96 7 19 12 21 29
12 13 -7 20 -7 20 -1 0 6 -9 15 -19 21 -17 9 -23 3 -50 -50z"/>
<path d="M1725 1509 c-64 -71 -139 -266 -149 -390 l-5 -64 10 55 c25 140 96
319 154 388 35 42 77 43 102 5 23 -35 22 -183 -2 -297 -9 -43 -15 -80 -12 -82
2 -2 12 31 23 74 13 54 19 112 19 195 0 113 -1 120 -24 138 -38 31 -74 25
-116 -22z"/>
<path d="M830 1510 c0 -5 5 -10 10 -10 6 0 10 5 10 10 0 6 -4 10 -10 10 -5 0
-10 -4 -10 -10z"/>
<path d="M390 1490 c0 -11 7 -20 15 -20 8 0 15 9 15 20 0 11 -7 20 -15 20 -8
0 -15 -9 -15 -20z"/>
<path d="M1155 1481 c-22 -11 -52 -31 -68 -46 -15 -14 -32 -23 -37 -20 -6 3
-10 2 -10 -4 0 -22 18 -19 53 10 73 60 155 75 214 39 19 -11 35 -31 39 -47 10
-46 12 -49 13 -18 2 86 -107 131 -204 86z"/>
<path d="M717 1442 c7 -30 28 -38 58 -22 13 7 31 10 39 7 9 -4 16 -2 16 3 0
16 -37 21 -64 9 -23 -11 -28 -10 -41 7 -13 18 -14 18 -8 -4z"/>
<path d="M1471 1434 c0 -11 3 -14 6 -6 3 7 2 16 -1 19 -3 4 -6 -2 -5 -13z"/>
<path d="M83 1395 c0 -27 2 -38 4 -22 2 15 2 37 0 50 -2 12 -4 0 -4 -28z"/>
<path d="M533 1398 c2 -38 6 -48 19 -48 9 0 20 5 23 10 11 17 19 11 38 -30 18
-39 39 -45 51 -13 5 13 4 14 -8 4 -11 -10 -17 -7 -30 11 -9 12 -16 30 -16 40
0 25 -18 31 -37 12 -16 -15 -18 -14 -29 22 l-12 39 1 -47z"/>
<path d="M1970 1337 c0 -215 -154 -478 -305 -523 -31 -8 -66 -13 -79 -10 -49
12 -90 51 -112 106 l-22 55 -11 -30 c-28 -75 -35 -91 -44 -103 -8 -10 -65 -12
-259 -10 -162 2 -247 0 -245 -7 2 -6 99 -11 256 -13 l252 -2 16 37 c8 21 19
49 25 62 8 23 9 23 31 -20 61 -121 205 -120 324 2 109 111 172 261 180 427 3
56 3 102 -1 102 -3 0 -6 -33 -6 -73z"/>
<path d="M665 1379 c-11 -17 1 -21 15 -4 8 9 8 15 2 15 -6 0 -14 -5 -17 -11z"/>
<path d="M362 1371 c-11 -7 -11 -9 0 -13 7 -3 19 1 26 8 10 11 10 14 0 14 -7
0 -19 -4 -26 -9z"/>
<path d="M1352 1335 c0 -16 2 -22 5 -12 2 9 2 23 0 30 -3 6 -5 -1 -5 -18z"/>
<path d="M411 1336 c-7 -8 -19 -12 -26 -10 -10 4 -12 0 -8 -15 3 -12 9 -21 13
-21 5 0 11 -8 13 -17 3 -10 5 -4 6 13 0 16 6 35 13 42 6 6 9 14 6 17 -3 3 -11
-1 -17 -9z"/>
<path d="M65 1329 c-4 -6 -5 -12 -2 -15 2 -3 7 2 10 11 7 17 1 20 -8 4z"/>
<path d="M1441 1286 c-30 -61 -146 -184 -254 -268 -44 -35 -94 -76 -111 -92
l-31 -28 30 17 c60 36 201 152 270 222 65 66 132 169 123 191 -1 5 -14 -14
-27 -42z"/>
<path d="M580 1301 c0 -7 -4 -9 -10 -6 -5 3 -10 1 -10 -4 0 -6 4 -11 9 -11 13
0 25 20 17 27 -3 4 -6 1 -6 -6z"/>
<path d="M355 1271 c-5 -15 -15 -21 -38 -21 -23 0 -28 -3 -20 -11 17 -17 61
-2 68 22 4 11 5 23 2 26 -3 2 -8 -5 -12 -16z"/>
<path d="M600 1280 c-13 -8 -12 -10 3 -10 9 0 17 5 17 10 0 12 -1 12 -20 0z"/>
<path d="M2205 1200 c12 -145 -23 -323 -97 -483 -22 -49 -34 -64 -41 -55 -6 9
-7 7 -3 -6 9 -26 -58 -107 -82 -100 -14 5 -15 4 -2 -5 12 -8 10 -15 -18 -44
-17 -18 -32 -38 -32 -45 0 -7 -4 -11 -9 -10 -5 2 -10 -1 -11 -7 -3 -18 -34
-46 -46 -41 -7 3 -15 -6 -19 -21 -3 -14 -8 -23 -10 -21 -3 3 -25 -14 -49 -37
-24 -23 -56 -49 -72 -57 -16 -8 -49 -26 -74 -40 -141 -79 -263 -108 -480 -113
-234 -6 -318 12 -515 106 -122 58 -221 130 -280 202 -16 21 -60 71 -96 112
-46 51 -82 105 -117 177 -61 122 -89 221 -108 372 l-13 111 4 -95 c4 -79 15
-142 50 -290 2 -8 4 -15 5 -15 1 0 4 -13 6 -30 3 -16 26 -70 50 -120 33 -65
59 -102 95 -134 27 -24 56 -59 65 -77 41 -86 248 -237 416 -303 148 -59 221
-71 433 -67 169 3 200 7 275 29 131 39 232 91 346 177 32 25 71 53 85 62 15 9
37 34 49 54 13 20 44 59 69 87 25 27 45 53 44 58 -2 5 6 13 17 19 11 6 18 14
16 19 -3 4 4 14 15 21 21 16 27 36 7 24 -8 -4 -10 -3 -5 2 5 5 14 9 20 9 19 0
66 107 94 212 29 112 44 358 24 403 -9 20 -10 13 -6 -40z"/>
<path d="M42 1220 c0 -14 2 -19 5 -12 2 6 2 18 0 25 -3 6 -5 1 -5 -13z"/>
<path d="M385 1220 c-3 -5 1 -10 9 -10 9 0 16 5 16 10 0 6 -4 10 -9 10 -6 0
-13 -4 -16 -10z"/>
<path d="M570 1220 c0 -5 6 -10 14 -10 8 0 18 5 21 10 3 6 -3 10 -14 10 -12 0
-21 -4 -21 -10z"/>
<path d="M410 1206 l-35 -13 28 -5 c17 -3 34 0 43 9 26 26 18 28 -36 9z"/>
<path d="M1466 1195 c-3 -9 -6 -24 -5 -33 0 -9 5 -4 10 12 9 32 6 48 -5 21z"/>
<path d="M383 1106 c14 -21 23 -28 25 -19 2 8 -4 23 -14 34 -28 31 -35 22 -11
-15z"/>
<path d="M1445 1075 c-4 -36 -5 -68 -2 -71 2 -3 8 25 12 61 4 37 5 69 2 72 -3
2 -8 -25 -12 -62z"/>
<path d="M627 1073 c-12 -11 -7 -23 7 -17 8 3 28 -7 44 -23 17 -15 42 -36 56
-46 14 -10 26 -24 26 -32 0 -18 35 -55 51 -55 6 0 -3 16 -20 35 -17 20 -31 42
-31 50 0 7 -17 24 -37 36 -21 13 -45 31 -55 41 -19 19 -30 22 -41 11z"/>
<path d="M1563 990 c0 -36 2 -50 4 -32 2 17 2 47 0 65 -2 17 -4 3 -4 -33z"/>
<path d="M535 1030 c-4 -6 -21 -8 -39 -4 -24 4 -35 2 -39 -8 -6 -18 58 -18 90
0 19 10 24 9 40 -11 24 -31 111 -88 118 -78 2 5 -8 14 -24 21 -16 6 -46 29
-68 51 -38 38 -66 49 -78 29z"/>
<path d="M269 998 c-11 -22 -11 -22 7 -7 13 11 25 14 39 9 11 -5 27 -9 35 -9
13 0 13 1 0 8 -8 5 -27 11 -42 15 -22 5 -30 2 -39 -16z"/>
<path d="M2142 995 c0 -16 2 -22 5 -12 2 9 2 23 0 30 -3 6 -5 -1 -5 -18z"/>
<path d="M416 969 c-14 -11 -26 -26 -26 -32 0 -7 7 -4 14 5 7 10 23 21 36 26
13 5 19 12 13 15 -6 4 -22 -3 -37 -14z"/>
<path d="M847 979 c-9 -5 -21 -8 -26 -4 -5 3 -12 1 -15 -4 -11 -17 25 -21 50
-5 35 24 29 35 -9 13z"/>
<path d="M2106 954 c-4 -20 -5 -38 -3 -40 3 -3 8 11 11 32 4 20 5 38 3 40 -3
3 -8 -11 -11 -32z"/>
<path d="M560 969 c0 -5 5 -7 10 -4 6 3 10 8 10 11 0 2 -4 4 -10 4 -5 0 -10
-5 -10 -11z"/>
<path d="M2131 944 c0 -11 3 -14 6 -6 3 7 2 16 -1 19 -3 4 -6 -2 -5 -13z"/>
<path d="M253 900 c30 -24 95 -27 123 -4 18 14 18 15 -6 8 -42 -13 -74 -12
-95 2 -31 22 -51 17 -22 -6z"/>
<path d="M2011 894 c0 -11 3 -14 6 -6 3 7 2 16 -1 19 -3 4 -6 -2 -5 -13z"/>
<path d="M2121 894 c0 -11 3 -14 6 -6 3 7 2 16 -1 19 -3 4 -6 -2 -5 -13z"/>
<path d="M806 875 c4 -8 10 -15 15 -15 4 0 6 7 3 15 -4 8 -10 15 -15 15 -4 0
-6 -7 -3 -15z"/>
<path d="M1986 824 c-51 -133 -160 -278 -280 -368 -71 -53 -74 -55 -109 -44
-27 8 -43 8 -59 0 -20 -9 -15 -11 32 -11 l55 -1 -50 -30 c-82 -49 -219 -88
-360 -104 -46 -5 -200 5 -285 18 -31 5 -30 4 10 -10 63 -22 273 -30 363 -14
289 52 539 239 663 496 25 52 44 100 42 106 -2 6 -12 -11 -22 -38z"/>
<path d="M1870 831 c0 -7 -4 -10 -8 -7 -4 2 -9 -4 -9 -15 -1 -10 2 -19 7 -19
11 0 24 39 16 47 -3 4 -6 1 -6 -6z"/>
<path d="M470 790 c0 -22 3 -40 8 -40 4 0 6 18 4 40 -2 22 -6 40 -8 40 -2 0
-4 -18 -4 -40z"/>
<path d="M1862 758 c11 -11 28 -18 41 -15 20 4 20 4 -2 6 -24 1 -24 2 -6 15
18 13 17 14 -17 14 -36 0 -36 0 -16 -20z"/>
<path d="M1244 688 c-4 -7 -4 -10 1 -6 4 4 15 2 23 -5 12 -10 14 -9 11 2 -7
20 -26 25 -35 9z"/>
<path d="M1337 693 c-4 -3 -7 -15 -7 -25 0 -11 -4 -17 -9 -13 -6 3 -9 -7 -8
-22 2 -24 7 -28 31 -28 16 0 32 7 36 15 4 8 14 29 22 47 15 30 15 32 -2 30
-10 -1 -18 -4 -18 -7 4 -42 -4 -69 -23 -75 -32 -11 -39 6 -19 48 16 33 15 48
-3 30z"/>
<path d="M1442 659 c7 -25 14 -36 18 -28 6 8 11 5 19 -10 7 -12 21 -21 34 -20
16 1 17 3 5 6 -9 2 -24 15 -33 29 -9 14 -20 22 -25 19 -6 -4 -10 5 -10 19 0
14 -4 26 -9 26 -5 0 -4 -18 1 -41z"/>
<path d="M1461 683 c0 -11 3 -13 6 -5 2 6 9 10 14 6 5 -3 9 0 9 5 0 6 -7 11
-15 11 -8 0 -15 -8 -14 -17z"/>
<path d="M1562 688 c-7 -7 -11 -21 -11 -32 1 -21 1 -21 6 -1 3 11 10 26 15 33
13 15 6 16 -10 0z"/>
<path d="M1600 685 c0 -8 4 -15 10 -15 5 0 7 7 4 15 -4 8 -8 15 -10 15 -2 0
-4 -7 -4 -15z"/>
<path d="M457 678 c7 -8 10 -17 7 -20 -2 -3 7 -5 21 -5 14 0 25 0 23 1 -2 1
-16 10 -33 21 -21 13 -26 14 -18 3z"/>
<path d="M550 674 c0 -8 5 -12 10 -9 6 4 8 11 5 16 -9 14 -15 11 -15 -7z"/>
<path d="M1496 674 c-4 -9 -4 -19 -1 -22 2 -3 7 3 11 12 4 9 4 19 1 22 -2 3
-7 -3 -11 -12z"/>
<path d="M403 645 c0 -22 2 -30 4 -17 2 12 2 30 0 40 -3 9 -5 -1 -4 -23z"/>
<path d="M1533 650 c2 -28 7 -36 29 -44 22 -8 32 -6 48 9 11 10 20 24 20 32 0
8 -10 2 -24 -14 -20 -23 -28 -26 -43 -17 -10 6 -21 24 -25 40 -6 27 -6 27 -5
-6z"/>
<path d="M1245 650 c-19 -8 -19 -9 3 -9 12 -1 22 4 22 9 0 6 -1 10 -2 9 -2 0
-12 -4 -23 -9z"/>
<path d="M2035 630 c3 -5 8 -10 11 -10 2 0 4 5 4 10 0 6 -5 10 -11 10 -5 0 -7
-4 -4 -10z"/>
<path d="M995 598 c-19 -18 -37 -46 -40 -63 -5 -25 -3 -24 13 11 24 50 56 74
99 74 32 0 68 -33 57 -52 -3 -4 -1 -8 4 -8 11 0 26 49 17 58 -3 3 -5 -3 -6
-14 0 -17 -1 -17 -16 4 -25 35 -84 31 -128 -10z"/>
<path d="M1270 621 c0 -6 -19 -12 -42 -14 l-43 -4 48 -1 c36 -2 47 2 47 13 0
8 -2 15 -5 15 -3 0 -5 -4 -5 -9z"/>
<path d="M630 610 c0 -5 5 -10 10 -10 6 0 10 5 10 10 0 6 -4 10 -10 10 -5 0
-10 -4 -10 -10z"/>
<path d="M1423 603 c9 -2 25 -2 35 0 9 3 1 5 -18 5 -19 0 -27 -2 -17 -5z"/>
<path d="M405 590 c-3 -5 -1 -10 4 -10 6 0 11 5 11 10 0 6 -2 10 -4 10 -3 0
-8 -4 -11 -10z"/>
<path d="M492 580 c0 -14 2 -19 5 -12 2 6 2 18 0 25 -3 6 -5 1 -5 -13z"/>
<path d="M540 583 c0 -5 12 -9 27 -10 19 -1 22 1 12 8 -17 11 -39 12 -39 2z"/>
<path d="M701 568 c-1 -16 4 -28 9 -28 12 0 12 8 0 35 -8 18 -9 17 -9 -7z"/>
<path d="M1166 552 c6 -4 14 -14 17 -22 4 -10 6 -8 6 8 1 15 -5 22 -16 22 -11
0 -14 -3 -7 -8z"/>
<path d="M1214 545 c-4 -9 -4 -19 0 -22 3 -4 6 1 6 10 0 22 39 23 47 1 5 -13
7 -13 14 -2 14 21 11 24 -26 26 -25 2 -37 -2 -41 -13z"/>
<path d="M1324 549 c15 -10 17 -19 11 -66 -5 -39 -3 -53 4 -49 6 4 11 20 11
37 0 41 11 36 40 -19 19 -35 31 -48 50 -49 24 -3 24 -2 4 8 -11 6 -34 33 -49
60 -16 27 -32 49 -36 49 -4 0 -9 9 -12 20 -3 11 -13 20 -24 20 -17 -1 -17 -1
1 -11z"/>
<path d="M1433 549 c14 -8 17 -54 5 -75 -3 -5 -2 -18 2 -29 6 -17 8 -16 14 9
4 15 4 37 0 48 -4 14 -2 18 5 14 6 -4 11 -1 11 8 0 8 7 19 16 24 12 7 5 9 -26
9 -29 0 -38 -3 -27 -8z"/>
<path d="M1535 550 c-4 -6 -11 -8 -16 -5 -5 4 -9 -4 -9 -16 0 -20 2 -21 18 -7
9 8 26 20 37 26 20 11 20 11 -2 12 -12 0 -25 -5 -28 -10z"/>
<path d="M1601 523 c-19 -78 -22 -98 -15 -91 3 4 12 31 19 60 13 58 37 76 49
36 7 -22 7 -22 16 -3 12 27 12 43 0 25 -6 -10 -10 -11 -10 -2 0 6 -11 12 -25
12 -20 0 -26 -7 -34 -37z"/>
<path d="M480 521 c0 -25 6 -27 13 -6 4 8 2 17 -3 20 -6 4 -10 -3 -10 -14z"/>
<path d="M771 524 c0 -11 3 -14 6 -6 3 7 2 16 -1 19 -3 4 -6 -2 -5 -13z"/>
<path d="M1572 520 c0 -14 2 -19 5 -12 2 6 2 18 0 25 -3 6 -5 1 -5 -13z"/>
<path d="M1884 509 c-1 -33 12 -30 18 4 3 13 0 24 -6 24 -6 0 -11 -13 -12 -28z"/>
<path d="M901 508 c-3 -68 46 -108 132 -108 59 0 87 7 87 21 0 4 -14 3 -31 -3
-78 -27 -162 12 -179 83 -7 31 -8 32 -9 7z"/>
<path d="M550 487 c0 -20 4 -37 10 -37 5 0 7 14 3 33 -8 45 -13 47 -13 4z"/>
<path d="M620 512 c0 -4 9 -8 19 -8 11 0 17 4 15 8 -3 4 -12 8 -20 8 -8 0 -14
-4 -14 -8z"/>
<path d="M1233 492 c-18 -2 -33 -8 -33 -14 0 -5 7 -7 15 -4 9 3 18 -1 21 -9 9
-22 21 -18 27 7 4 12 5 22 4 23 -1 0 -17 -1 -34 -3z"/>
<path d="M1561 474 c0 -11 3 -14 6 -6 3 7 2 16 -1 19 -3 4 -6 -2 -5 -13z"/>
<path d="M690 453 c0 -5 11 -8 24 -8 13 0 22 3 19 8 -2 4 -13 7 -24 7 -10 0
-19 -3 -19 -7z"/>
<path d="M630 425 c0 -14 4 -25 9 -25 4 0 6 11 3 25 -2 14 -6 25 -8 25 -2 0
-4 -11 -4 -25z"/>
<path d="M1270 432 c0 -7 -11 -12 -25 -12 -14 0 -25 -4 -25 -10 0 -17 47 -11
54 6 4 9 4 19 1 22 -3 3 -5 0 -5 -6z"/>
<path d="M702 395 c0 -16 2 -22 5 -12 2 9 2 23 0 30 -3 6 -5 -1 -5 -18z"/>
<path d="M780 416 c0 -2 7 -6 15 -10 8 -3 15 -1 15 4 0 6 -7 10 -15 10 -8 0
-15 -2 -15 -4z"/>
<path d="M1145 410 c-15 -7 -10 -9 22 -8 23 1 40 5 37 10 -7 10 -33 9 -59 -2z"/>
<path d="M1294 409 c-13 -5 -3 -8 29 -8 26 -1 47 1 47 3 0 8 -58 12 -76 5z"/>
</g>
</svg>
