<?xml version="1.0" standalone="no"?>
<!DOCTYPE svg PUBLIC "-//W3C//DTD SVG 20010904//EN"
 "http://www.w3.org/TR/2001/REC-SVG-20010904/DTD/svg10.dtd">
<svg version="1.0" xmlns="http://www.w3.org/2000/svg"
 width="740.000000pt" height="394.000000pt" viewBox="0 0 740.000000 394.000000"
 preserveAspectRatio="xMidYMid meet">

<g transform="translate(0.000000,394.000000) scale(0.100000,-0.100000)"
fill="#000000" stroke="none">
<path d="M970 3515 l0 -265 390 0 c215 0 393 -1 398 -2 4 -2 8 117 10 265 l2
267 -400 0 -400 0 0 -265z m410 169 c0 -16 -16 -19 -25 -4 -8 13 4 32 16 25 5
-4 9 -13 9 -21z m-90 -19 c0 -8 -4 -15 -9 -15 -13 0 -22 16 -14 24 11 11 23 6
23 -9z m180 -6 c0 -5 -7 -9 -15 -9 -15 0 -20 12 -9 23 8 8 24 -1 24 -14z
m-240 -60 c0 -5 -7 -9 -15 -9 -15 0 -20 12 -9 23 8 8 24 -1 24 -14z m300 -4
c-7 -8 -14 -15 -15 -15 -2 0 -5 7 -9 15 -4 10 1 15 16 15 17 0 18 -2 8 -15z
m-328 -80 c0 -5 -5 -11 -11 -13 -6 -2 -11 4 -11 13 0 9 5 15 11 13 6 -2 11 -8
11 -13z m358 -6 c0 -5 -7 -9 -15 -9 -15 0 -20 12 -9 23 8 8 24 -1 24 -14z
m-330 -90 c0 -5 -7 -9 -15 -9 -15 0 -20 12 -9 23 8 8 24 -1 24 -14z m302 6 c0
-5 -5 -11 -11 -13 -6 -2 -11 4 -11 13 0 9 5 15 11 13 6 -2 11 -8 11 -13z
m-242 -70 c0 -9 -6 -12 -15 -9 -8 4 -15 10 -15 15 0 5 7 9 15 9 8 0 15 -7 15
-15z m180 0 c0 -8 -4 -15 -9 -15 -13 0 -22 16 -14 24 11 11 23 6 23 -9z m-90
-21 c0 -17 -22 -14 -28 4 -2 7 3 12 12 12 9 0 16 -7 16 -16z"/>
<path d="M485 3735 c-36 -37 -55 -101 -55 -181 0 -41 2 -45 23 -42 20 3 23 10
28 74 5 69 27 124 49 124 6 0 10 14 10 30 0 39 -15 38 -55 -5z"/>
<path d="M810 3740 c0 -10 9 -24 19 -29 26 -14 41 -62 48 -152 9 -115 -3 -202
-33 -234 -19 -21 -27 -24 -44 -15 -30 16 -42 46 -49 124 -5 62 -8 71 -26 71
-18 0 -20 -6 -18 -63 3 -114 42 -182 106 -182 70 0 107 80 110 235 2 116 -15
193 -50 236 -29 34 -63 39 -63 9z"/>
<path d="M2050 3690 c0 -45 2 -50 23 -50 35 0 46 13 45 50 -1 38 -11 50 -45
50 -21 0 -23 -5 -23 -50z m45 20 c3 -5 -1 -10 -10 -10 -9 0 -13 5 -10 10 3 6
8 10 10 10 2 0 7 -4 10 -10z m5 -40 c0 -5 -7 -10 -15 -10 -8 0 -15 5 -15 10 0
6 7 10 15 10 8 0 15 -4 15 -10z"/>
<path d="M2163 3728 c-48 -23 -21 -88 36 -88 31 0 25 18 -6 22 -22 2 -28 8
-28 28 0 20 6 26 28 28 15 2 25 8 22 13 -8 11 -24 11 -52 -3z"/>
<path d="M2253 3733 c-20 -4 -23 -11 -23 -49 0 -42 1 -44 30 -44 17 0 30 5 30
10 0 6 -9 10 -20 10 -11 0 -20 5 -20 10 0 6 9 10 20 10 11 0 20 5 20 10 0 6
-9 10 -20 10 -11 0 -20 5 -20 10 0 6 9 10 20 10 11 0 20 5 20 10 0 6 -3 9 -7
9 -5 -1 -18 -4 -30 -6z"/>
<path d="M2384 3714 c-12 -46 -1 -69 34 -72 18 -2 32 1 32 7 0 6 -9 11 -20 11
-27 0 -25 18 3 23 l22 4 -22 8 c-29 9 -30 25 -2 25 11 0 17 4 14 10 -11 18
-55 7 -61 -16z"/>
<path d="M2498 3728 c-52 -18 -30 -88 27 -88 9 0 13 5 10 10 -3 6 -15 10 -26
10 -32 0 -22 52 11 60 14 3 20 8 15 12 -6 3 -22 1 -37 -4z"/>
<path d="M2721 3732 c-6 -2 -11 -24 -11 -48 0 -42 1 -44 30 -44 17 0 30 5 30
10 0 6 -9 10 -20 10 -11 0 -20 5 -20 10 0 6 9 10 20 10 27 0 25 18 -2 23 l-23
4 23 8 c12 4 22 11 22 16 0 8 -26 9 -49 1z"/>
<path d="M2790 3731 c0 -5 9 -11 21 -13 l21 -3 -21 -27 c-12 -14 -21 -31 -21
-37 0 -14 57 -15 65 -1 3 6 -3 10 -14 10 -26 0 -26 5 -1 37 11 14 18 28 16 32
-7 11 -66 12 -66 2z"/>
<path d="M2880 3690 c0 -46 2 -50 24 -50 28 0 40 14 42 50 1 33 -13 50 -42 50
-22 0 -24 -4 -24 -50z m40 20 c0 -5 -4 -10 -10 -10 -5 0 -10 5 -10 10 0 6 5
10 10 10 6 0 10 -4 10 -10z m0 -40 c0 -5 -4 -10 -10 -10 -5 0 -10 5 -10 10 0
6 5 10 10 10 6 0 10 -4 10 -10z"/>
<path d="M4333 3725 c-34 -7 -81 -22 -105 -33 l-44 -19 7 -67 c3 -37 9 -69 11
-71 3 -3 31 6 64 19 261 106 457 -10 372 -220 -51 -127 -160 -253 -396 -458
l-102 -89 0 -87 c0 -97 10 -117 51 -102 13 5 166 7 341 6 358 -2 326 -11 324
87 l-1 54 -253 5 -253 5 140 133 c164 155 255 265 308 371 36 72 38 81 38 171
0 79 -4 102 -22 136 -44 82 -124 140 -225 164 -59 13 -181 11 -255 -5z m-16
-31 c-3 -3 -12 -4 -19 -1 -8 3 -5 6 6 6 11 1 17 -2 13 -5z m-61 -28 c0 -14 -3
-23 -7 -20 -6 3 -6 22 0 42 3 10 7 -2 7 -22z m418 16 c3 -5 -1 -9 -9 -9 -8 0
-12 4 -9 9 3 4 7 8 9 8 2 0 6 -4 9 -8z m-467 -54 c-3 -8 -6 -5 -6 6 -1 11 2
17 5 13 3 -3 4 -12 1 -19z m561 -34 c-4 -3 -12 5 -18 18 -12 22 -12 22 6 6 10
-10 15 -20 12 -24z m-478 1 c5 3 10 1 10 -4 0 -6 -7 -11 -15 -11 -8 0 -18 -1
-22 -2 -3 -2 -7 5 -9 15 -2 14 0 16 11 7 8 -7 19 -9 25 -5z m295 -5 c10 -11
16 -20 13 -20 -3 0 -13 9 -23 20 -10 11 -16 20 -13 20 3 0 13 -9 23 -20z m215
-36 c0 -8 -19 -13 -24 -6 -3 5 1 9 9 9 8 0 15 -2 15 -3z m-54 -49 c-1 -8 -5
-17 -8 -21 -5 -4 -4 16 1 34 3 9 9 -1 7 -13z m-52 -3 c2 -4 -5 -9 -17 -9 -17
-2 -19 0 -7 7 18 12 18 12 24 2z m136 -67 c0 -14 -6 -25 -12 -25 -10 0 -10 -2
0 -8 9 -7 9 -20 -4 -62 -9 -30 -23 -64 -31 -75 -13 -19 -14 -18 -7 10 4 17 10
32 14 35 13 8 29 79 20 85 -7 4 -7 27 0 45 1 3 2 8 1 13 0 4 4 7 9 7 6 0 10
-11 10 -25z m-124 -20 c1 -8 -2 -13 -6 -10 -5 3 -13 -3 -19 -12 -6 -10 -11
-13 -11 -7 0 6 3 14 8 18 4 4 8 12 8 17 3 20 4 22 11 15 4 -3 8 -13 9 -21z
m41 18 c-4 -3 -2 -11 3 -18 7 -8 5 -12 -4 -12 -8 0 -12 7 -11 16 5 22 4 21 12
21 3 0 3 -3 0 -7z m2 -99 c-6 -7 -15 -11 -21 -8 -5 3 -4 12 3 20 6 7 15 11 21
8 5 -3 4 -12 -3 -20z m-43 -68 c0 -14 -3 -23 -7 -20 -6 3 -6 22 0 42 3 10 7
-2 7 -22z m-77 -20 c-7 -14 -16 -26 -20 -26 -5 0 0 13 9 29 20 36 27 34 11 -3z
m120 -41 c-11 -18 -27 -36 -35 -39 -8 -3 -13 -9 -10 -14 2 -4 -18 -32 -46 -62
-28 -30 -45 -48 -39 -39 13 19 5 29 -22 29 -14 0 -17 -4 -10 -12 5 -7 8 -19 7
-25 -1 -7 -2 -18 -3 -25 0 -6 -7 -3 -15 7 -8 11 -12 24 -9 29 3 5 0 7 -8 4 -8
-3 -15 -10 -15 -16 -1 -7 -3 -14 -4 -17 -1 -3 -3 -8 -4 -12 -3 -17 -25 -47
-26 -36 0 7 -7 10 -16 6 -14 -5 -14 -8 -1 -20 13 -13 18 -13 41 2 14 10 26 21
26 26 0 5 5 9 12 9 6 0 3 -10 -8 -21 -21 -24 -171 -159 -224 -202 -26 -21 -31
-30 -22 -39 14 -14 42 -20 42 -9 0 9 149 11 154 2 2 -3 77 -5 165 -5 l161 2 0
-54 0 -53 -235 1 c-129 1 -235 4 -235 8 0 14 13 19 30 10 13 -7 22 -5 31 7 8
9 9 14 2 10 -13 -8 -12 18 2 30 4 4 5 3 1 -4 -3 -6 -2 -14 3 -17 5 -3 11 0 14
8 3 8 -1 17 -9 20 -9 3 -13 10 -9 15 9 15 -12 22 -23 8 -13 -15 -13 -29 -1
-44 7 -7 6 -14 -1 -18 -12 -7 -32 3 -26 14 3 4 -6 7 -19 7 -13 0 -22 -3 -19
-7 2 -4 0 -10 -5 -14 -6 -3 -8 -12 -4 -20 3 -10 -2 -15 -16 -15 -12 0 -21 5
-21 11 0 5 -4 8 -8 5 -5 -3 -9 1 -9 9 0 8 3 13 6 12 3 -1 6 3 6 8 0 6 -3 9 -6
8 -8 -3 -5 65 4 73 4 4 -1 16 -10 27 -10 11 -13 17 -6 14 14 -9 28 9 14 18 -5
3 -8 14 -6 25 5 25 -12 35 -31 20 -12 -10 -12 -16 -2 -29 11 -14 11 -14 -2 -4
-19 15 -38 4 -34 -20 2 -14 -1 -15 -10 -8 -15 13 -28 3 -19 -13 11 -17 12 -37
2 -30 -5 3 -6 11 -3 17 5 8 3 9 -4 2 -6 -5 -13 -41 -15 -80 l-3 -70 -2 81 -2
81 98 88 c122 111 281 270 313 313 20 26 25 28 25 13 0 -11 -3 -18 -7 -15 -4
2 -19 -12 -33 -31 -15 -19 -26 -35 -24 -36 17 -5 101 -3 104 3 3 5 10 6 15 2
12 -7 51 25 44 37 -3 4 3 14 12 21 24 18 41 49 37 71 -2 14 1 16 11 7 11 -9
10 -17 -6 -45z m-495 -420 c3 -8 1 -14 -3 -12 -5 1 -9 -2 -10 -8 -1 -5 4 -10
11 -10 6 0 12 -6 14 -13 1 -7 0 -8 -3 -2 -3 8 -9 7 -19 -1 -8 -6 -14 -10 -15
-8 -6 31 -6 40 2 45 5 3 7 10 4 15 -4 5 -2 9 3 9 6 0 12 -7 16 -15z m-49 -76
c-4 -5 -2 -9 4 -9 5 0 13 5 16 10 4 6 11 8 16 4 5 -3 6 -10 3 -16 -5 -8 -1 -9
10 -5 10 4 15 3 11 -3 -4 -6 -18 -8 -33 -5 -14 2 -31 0 -37 -5 -9 -7 -11 -2
-9 18 3 35 2 34 14 27 6 -4 8 -11 5 -16z m221 -4 c-1 -8 -5 -17 -8 -21 -5 -4
-4 16 1 34 3 9 9 -1 7 -13z m-178 -47 c-2 -7 2 -12 8 -11 6 1 11 -5 11 -12 0
-11 -4 -12 -14 -4 -8 8 -13 8 -13 1 0 -11 -25 -10 -37 2 -4 4 -3 7 2 6 18 -4
35 0 34 8 -2 12 1 22 6 22 3 0 4 -6 3 -12z m120 -18 c-9 -13 -14 -16 -20 -7
-8 13 10 39 23 31 5 -3 3 -14 -3 -24z"/>
<path d="M4480 3059 c-25 -26 -45 -52 -45 -58 0 -15 13 -24 25 -16 8 5 8 11
-1 21 -11 13 -6 18 14 15 5 -1 6 2 3 7 -3 5 1 9 8 9 7 0 13 -6 13 -13 0 -7 -5
-12 -10 -11 -5 1 -11 -6 -12 -15 -3 -14 1 -16 13 -9 16 9 25 11 38 11 4 0 1 7
-6 15 -7 8 -9 15 -5 15 4 0 2 6 -4 13 -8 11 -6 18 8 31 14 13 21 14 27 5 5 -8
3 -10 -6 -4 -9 6 -11 4 -5 -5 5 -8 4 -11 -1 -7 -6 3 -10 -5 -10 -18 0 -13 4
-21 8 -19 5 3 6 9 3 14 -7 11 22 33 35 25 6 -3 8 -10 5 -15 -3 -5 -1 -11 4
-14 10 -7 9 20 -2 30 -4 4 -2 13 3 19 8 9 4 12 -12 11 -13 -1 -27 1 -33 5 -5
4 -30 -15 -55 -42z"/>
<path d="M4635 3101 c-3 -6 -13 -7 -23 -4 -18 7 -17 5 9 -15 13 -10 19 -9 28
2 8 9 8 16 2 20 -5 4 -12 2 -16 -3z"/>
<path d="M4374 2958 c-22 -24 -53 -54 -68 -67 -17 -15 -23 -27 -17 -35 4 -6 7
-19 6 -28 -2 -10 1 -21 6 -24 6 -4 6 -11 -1 -19 -7 -8 -7 -15 -1 -19 5 -4 16
3 24 14 7 11 16 18 19 15 2 -3 15 6 28 20 13 14 21 28 17 31 -10 10 -38 -17
-30 -29 4 -6 1 -7 -7 -2 -9 5 -11 4 -6 -3 5 -8 2 -10 -8 -6 -19 7 -22 25 -4
22 13 -3 18 20 9 37 -3 6 -7 18 -8 29 -2 13 1 17 12 12 11 -4 14 -2 9 7 -5 8
-2 7 9 -2 13 -10 14 -17 6 -27 -8 -9 -5 -16 12 -24 17 -10 23 -9 30 1 4 7 3
19 -2 25 -7 8 -6 14 1 19 6 3 8 10 5 15 -3 5 -1 11 5 15 6 4 8 11 4 16 -4 6
-11 6 -20 -2 -7 -6 -12 -14 -10 -18 3 -4 -4 -7 -15 -7 -18 0 -18 2 -5 12 9 6
12 14 8 18 -4 4 0 6 8 4 9 -2 14 3 12 12 -3 10 2 9 18 -5 12 -11 19 -27 17
-37 -3 -9 -2 -19 2 -21 3 -2 1 -2 -6 -1 -16 4 -26 -13 -13 -21 6 -4 8 -12 4
-18 -3 -7 6 3 21 21 15 18 31 30 36 27 5 -4 6 1 3 10 -5 11 -2 14 12 9 16 -6
15 -3 -5 19 -20 23 -41 28 -41 11 0 -3 4 -3 8 0 10 6 9 -40 -1 -50 -3 -4 -5 2
-3 13 3 11 -6 32 -17 47 l-22 27 -41 -43z m-62 -80 c-8 -8 -8 -15 -1 -24 7 -8
6 -14 -2 -20 -7 -4 -9 -3 -5 4 3 6 2 14 -4 17 -11 7 4 35 18 35 3 0 1 -5 -6
-12z"/>
<path d="M4345 2881 c2 -9 4 -18 5 -21 1 -3 2 -9 1 -13 -1 -5 3 -6 9 -2 8 5 8
11 1 19 -7 8 -7 16 0 23 6 6 5 10 -5 10 -7 0 -12 -7 -11 -16z"/>
<path d="M4299 2728 c-7 -25 -5 -39 7 -49 10 -8 11 -15 4 -24 -8 -10 -7 -15 2
-21 7 -4 10 -4 6 1 -4 4 -3 15 4 22 9 11 9 16 -1 22 -17 11 3 18 40 16 14 -1
26 4 26 10 0 6 -12 11 -26 10 -14 -1 -34 2 -43 7 -10 5 -18 7 -19 6z m31 -23
c0 -2 -6 -5 -13 -8 -8 -3 -14 1 -14 8 0 7 6 11 14 8 7 -3 13 -6 13 -8z"/>
<path d="M4486 2722 c-4 -4 -12 -8 -17 -8 -5 -1 -12 -2 -15 -3 -4 0 -1 -7 5
-15 8 -10 6 -19 -9 -39 -12 -15 -15 -24 -8 -23 7 1 14 5 15 10 0 5 9 13 18 18
13 8 14 12 3 26 -11 13 -11 14 1 7 10 -6 12 -4 6 6 -6 11 -5 12 6 2 16 -16 33
-17 23 -1 -5 7 -3 8 6 3 10 -6 7 -12 -10 -25 -37 -28 -33 -45 10 -45 21 0 36
3 34 7 -9 14 17 19 33 7 20 -18 114 -19 120 -2 3 7 9 10 14 7 5 -3 7 -9 5 -13
-6 -9 92 -6 101 3 4 3 0 6 -9 6 -8 0 -15 7 -15 15 0 8 7 15 14 15 8 0 13 8 11
18 -3 14 -14 17 -65 17 -53 1 -61 -2 -58 -17 2 -10 0 -20 -5 -23 -5 -3 -6 -13
-3 -23 6 -14 4 -15 -9 -4 -16 13 -18 35 -5 48 14 14 7 24 -15 20 -24 -3 -31
-22 -16 -43 13 -17 -10 -27 -28 -13 -11 10 -12 16 -3 27 17 20 4 28 -55 29
-29 0 -57 4 -63 7 -6 4 -13 3 -17 -1z m134 -21 c2 -1 -1 -6 -8 -13 -9 -9 -8
-16 4 -29 13 -15 14 -17 1 -15 -8 1 -22 8 -31 15 -13 11 -19 11 -32 0 -18 -14
-52 -20 -59 -8 -3 4 7 14 20 23 14 9 24 20 21 24 -4 6 61 8 84 3z m50 -6 c-5
-7 -9 -14 -7 -16 1 -2 0 -3 -2 -1 -11 7 -7 29 5 29 9 0 11 -4 4 -12z m83 -5
c4 0 6 4 3 8 -3 5 7 8 22 6 36 -3 36 -2 25 -16 -6 -7 -9 -20 -8 -29 3 -19 -45
-19 -68 -1 -7 7 -18 8 -22 4 -5 -4 -4 0 1 8 5 8 9 18 10 23 1 4 2 10 3 14 0 4
6 2 13 -5 7 -7 16 -12 21 -12z m-79 -38 c3 -5 -1 -9 -9 -9 -8 0 -12 4 -9 9 3
4 7 8 9 8 2 0 6 -4 9 -8z"/>
<path d="M4543 2688 c-16 -27 -12 -40 8 -23 10 10 16 22 13 26 -7 12 -11 11
-21 -3z"/>
<path d="M4584 2683 c1 -7 8 -19 16 -26 12 -10 12 -9 2 4 -8 10 -8 19 -1 26 6
6 5 10 -5 10 -7 0 -13 -6 -12 -14z"/>
<path d="M4724 2685 c1 -8 8 -21 16 -28 12 -10 12 -9 2 4 -6 9 -9 18 -6 21 3
3 1 9 -4 12 -6 3 -9 -1 -8 -9z"/>
<path d="M4759 2683 c-6 -7 -10 -13 -8 -14 31 -6 40 -7 35 -2 -3 4 -1 11 4 18
7 8 5 12 -5 12 -9 0 -20 -6 -26 -14z"/>
<path d="M5193 3726 c-185 -60 -280 -259 -276 -576 2 -233 49 -377 154 -475
32 -29 72 -56 89 -60 16 -4 27 -11 24 -16 -4 -6 36 -9 105 -8 61 1 111 4 111
8 0 3 20 14 45 24 93 39 175 163 211 322 25 113 26 341 0 450 -37 161 -112
272 -213 317 -59 26 -191 34 -250 14z m212 -16 c13 -6 15 -9 5 -9 -8 0 -22 4
-30 9 -18 12 -2 12 25 0z m73 -43 l22 -23 -25 0 c-17 0 -21 3 -15 11 6 7 5 16
-2 23 -7 7 -10 12 -7 12 3 0 15 -10 27 -23z m-146 -22 c2 -21 0 -35 -7 -35 -9
0 -11 18 -6 63 2 19 9 4 13 -28z m35 8 c-4 -3 -2 -11 3 -18 7 -8 5 -12 -4 -12
-8 0 -12 7 -11 16 5 22 4 21 12 21 3 0 3 -3 0 -7z m173 -38 c13 -14 21 -25 18
-25 -2 0 -15 11 -28 25 -13 14 -21 25 -18 25 2 0 15 -11 28 -25z m-271 1 c-2
-2 -20 -11 -39 -20 l-35 -17 25 20 c14 11 31 21 39 21 8 0 12 -2 10 -4z m137
-37 c3 -6 -5 -3 -20 6 -14 10 -26 19 -26 22 0 7 39 -17 46 -28z m-376 -18
c-25 -36 -39 -42 -18 -8 8 12 18 28 22 35 5 7 10 11 13 8 3 -3 -5 -19 -17 -35z
m350 10 c36 -26 78 -114 96 -201 23 -109 15 -380 -14 -468 -46 -142 -130 -199
-225 -153 -91 45 -129 149 -133 371 -3 177 12 281 52 366 25 53 70 97 109 107
32 8 88 -2 115 -22z m164 -12 c-3 -5 -10 -7 -15 -3 -5 3 -7 10 -3 15 3 5 10 7
15 3 5 -3 7 -10 3 -15z m-518 -54 c-1 -8 -5 -17 -8 -21 -5 -4 -4 16 1 34 3 9
9 -1 7 -13z m58 -33 c3 -5 -1 -9 -9 -9 -8 0 -12 4 -9 9 3 4 7 8 9 8 2 0 6 -4
9 -8z m32 -33 c-9 -19 -15 -29 -16 -22 0 15 22 64 27 60 2 -2 -3 -19 -11 -38z
m389 -29 c-1 -17 -6 -34 -10 -38 -5 -4 -5 1 -2 10 3 10 2 20 -4 24 -6 4 -6 11
2 20 16 19 17 18 14 -16z m120 21 c-3 -5 -1 -12 5 -16 5 -3 10 -14 9 -23 0
-14 -2 -13 -9 3 -5 11 -9 16 -9 12 -1 -5 -6 -5 -11 -2 -8 5 -7 11 1 21 13 16
23 19 14 5z m-658 -23 c-3 -8 -6 -5 -6 6 -1 11 2 17 5 13 3 -3 4 -12 1 -19z
m600 7 c0 -8 -4 -12 -9 -9 -5 3 -6 10 -3 15 9 13 12 11 12 -6z m-610 -62 c-3
-10 -5 -4 -5 12 0 17 2 24 5 18 2 -7 2 -21 0 -30z m138 0 c-4 -10 -7 -39 -6
-64 2 -26 -1 -49 -6 -52 -4 -3 -8 23 -8 58 0 35 4 61 9 57 5 -3 6 5 3 18 -4
16 -3 20 5 12 6 -6 7 -19 3 -29z m-109 -6 c0 -13 -6 -24 -13 -24 -6 0 -9 5 -5
11 4 6 7 14 8 19 5 26 10 23 10 -6z m39 -4 c-2 -10 -4 -19 -4 -21 -1 -2 -6 0
-11 3 -8 5 -7 11 1 21 15 18 18 18 14 -3z m600 0 c-2 -10 -4 -19 -4 -21 -1 -2
-6 0 -11 3 -8 5 -7 11 1 21 15 18 18 18 14 -3z m-58 -8 c0 -8 -4 -12 -9 -9 -5
3 -6 10 -3 15 9 13 12 11 12 -6z m91 -160 c0 -154 -6 -129 -10 45 -2 74 -1
122 3 105 4 -16 7 -84 7 -150z m-145 145 c3 -11 1 -20 -4 -20 -5 0 -9 9 -9 20
0 11 2 20 4 20 2 0 6 -9 9 -20z m63 -55 c1 -8 -1 -17 -5 -19 -4 -3 -7 6 -7 19
0 25 8 25 12 0z m60 2 c0 -13 -5 -24 -12 -24 -13 0 -13 15 -1 35 11 17 13 15
13 -11z m-699 -164 c-2 -32 -3 -8 -3 52 0 61 1 87 3 58 2 -29 2 -78 0 -110z
m57 119 c3 -5 -1 -9 -9 -9 -8 0 -12 4 -9 9 3 4 7 8 9 8 2 0 6 -4 9 -8z m83
-24 c-3 -8 -6 -5 -6 6 -1 11 2 17 5 13 3 -3 4 -12 1 -19z m451 -135 c1 5 7 5
12 2 7 -4 7 -12 2 -18 -7 -11 -8 -29 -2 -42 1 -3 3 -10 4 -17 0 -6 7 -13 15
-16 8 -3 11 0 7 6 -3 6 -3 13 2 16 9 5 10 65 1 81 -8 16 -5 35 6 35 6 0 11
-13 11 -30 1 -16 3 -32 4 -35 1 -3 3 -27 4 -55 0 -27 4 -50 9 -50 4 0 11 0 16
0 14 0 20 37 8 49 -6 6 -7 11 -3 11 5 0 3 6 -3 14 -7 8 -8 17 -3 20 6 3 16 -1
23 -10 10 -12 9 -28 -5 -87 -54 -231 -183 -344 -376 -329 -51 4 -140 36 -140
51 0 4 -21 22 -46 40 -25 18 -43 35 -40 38 3 4 16 -3 29 -15 13 -12 27 -22 32
-22 5 0 1 6 -10 13 -12 10 -14 16 -7 21 7 4 12 2 12 -4 0 -6 5 -8 10 -5 14 9
2 26 -15 23 -8 -2 -13 2 -12 7 1 6 6 9 11 7 14 -5 36 19 29 32 -4 6 1 5 10 -3
13 -10 15 -17 6 -27 -11 -13 -5 -18 14 -15 5 1 5 -4 1 -10 -4 -7 -1 -10 7 -7
20 7 18 31 -3 46 -10 7 -16 17 -13 22 3 4 -2 13 -10 20 -8 7 -13 16 -10 20 3
5 1 11 -5 15 -6 4 -8 10 -5 15 3 5 1 11 -4 14 -5 3 -7 16 -4 29 5 22 4 22 -15
-3 -20 -24 -20 -46 -1 -34 5 3 9 2 8 -3 -4 -22 2 -34 14 -27 6 4 9 3 4 -1 -9
-11 -48 -14 -42 -4 3 4 -3 13 -13 20 -9 7 -14 9 -10 5 8 -10 -9 -36 -23 -36
-11 0 -7 23 6 32 6 5 6 8 -1 8 -18 0 -37 -27 -24 -35 6 -3 8 -11 4 -16 -3 -5
-2 -8 3 -7 4 2 9 -1 11 -7 2 -5 -1 -11 -7 -13 -13 -4 -34 45 -25 59 3 5 0 9
-5 9 -6 0 -11 4 -11 8 0 5 17 8 38 8 21 -1 35 3 32 9 -3 6 -16 10 -30 10 -16
1 -24 6 -22 15 2 11 -1 10 -12 -3 -12 -15 -15 -11 -25 44 -7 33 -10 63 -7 66
2 3 8 -12 11 -33 9 -55 14 -66 24 -60 5 3 7 19 6 36 -1 17 1 33 6 36 5 3 7 10
3 15 -3 5 -9 7 -14 4 -5 -3 -12 0 -16 6 -4 7 -3 9 3 6 18 -11 36 18 20 32 -8
6 -16 8 -20 5 -3 -3 -4 1 -3 10 2 17 25 45 27 33 1 -4 3 -16 4 -27 1 -11 3
-23 4 -27 0 -4 8 2 17 13 15 18 15 17 1 -7 -15 -26 -13 -39 5 -39 5 0 6 5 3
10 -4 6 -1 9 7 8 7 -2 12 3 10 10 -1 8 2 11 7 8 5 -4 14 1 20 11 8 15 10 12
15 -17 6 -43 5 -70 -4 -65 -4 2 -5 18 -2 35 3 19 0 30 -7 30 -7 0 -9 -5 -6
-10 4 -6 1 -9 -6 -8 -16 4 -19 -22 -6 -39 5 -7 6 -13 2 -13 -4 0 -3 -6 2 -12
6 -7 9 -21 8 -31 -2 -10 2 -16 8 -14 7 2 11 14 11 26 -1 19 9 21 12 3 0 -4 4
-14 8 -23 4 -9 6 -20 4 -25 -6 -22 56 -126 90 -152 20 -15 38 -30 40 -33 1 -3
29 -2 62 2 41 5 71 15 94 32 18 15 37 23 41 19 5 -4 5 -1 1 6 -4 7 3 29 16 50
24 39 24 39 28 75 2 21 2 21 9 -3 4 -14 4 -30 -1 -37 -6 -8 -2 -15 11 -23 12
-6 21 -8 21 -5 0 13 -6 20 -15 17 -5 -2 -1 6 9 17 18 19 15 26 -8 22 -5 -1 -3
6 5 15 8 9 14 29 14 43 0 14 4 31 8 38 4 6 3 14 -2 18 -5 3 -8 14 -6 25 2 12
0 18 -6 15 -5 -4 -7 -10 -5 -14 3 -4 1 -13 -5 -21 -6 -11 -9 -8 -9 13 0 15 3
27 8 27 4 0 7 37 6 82 l-1 83 7 -80 c3 -44 7 -76 8 -72z m48 111 c0 -13 -2
-22 -5 -19 -3 3 -6 17 -7 31 0 13 2 22 5 19 3 -3 6 -17 7 -31z m-580 11 c-1
-8 -5 -17 -8 -21 -5 -4 -4 16 1 34 3 9 9 -1 7 -13z m639 6 c3 -5 2 -12 -3 -15
-5 -3 -9 1 -9 9 0 17 3 19 12 6z m-580 -20 c3 -5 2 -12 -3 -15 -5 -3 -9 1 -9
9 0 17 3 19 12 6z m22 -28 c-3 -10 -5 -4 -5 12 0 17 2 24 5 18 2 -7 2 -21 0
-30z m-84 -9 c1 -4 -8 -9 -20 -10 -13 -2 -23 1 -23 7 0 5 4 8 9 4 5 -3 13 0
16 6 7 10 15 7 18 -7z m642 -38 c0 -19 -5 -39 -9 -43 -5 -4 -6 -3 -3 3 4 7 0
17 -8 24 -14 11 -14 15 1 31 10 11 18 19 19 19 1 0 1 -15 0 -34z m-125 -145
c0 -6 -4 -13 -10 -16 -5 -3 -10 1 -10 9 0 9 5 16 10 16 6 0 10 -4 10 -9z
m-452 -113 c-2 -7 8 -13 24 -13 15 0 33 -6 40 -13 9 -9 6 -11 -11 -7 -19 3
-21 2 -11 -10 9 -11 9 -15 1 -15 -21 0 -26 -2 -39 -12 -10 -9 -10 -14 0 -26
12 -14 10 -14 -12 -1 -45 25 -47 39 -8 60 13 7 18 7 14 1 -3 -6 -1 -14 6 -18
7 -4 10 -4 6 1 -4 4 -3 14 3 21 8 10 5 12 -15 8 -28 -5 -33 5 -14 24 15 15 19
15 16 0z"/>
<path d="M4975 3091 c-3 -5 -2 -12 3 -15 5 -3 9 1 9 9 0 17 -3 19 -12 6z"/>
<path d="M4998 3018 c9 -11 10 -18 2 -23 -8 -5 -7 -11 2 -23 7 -9 8 -13 3 -10
-7 4 -11 -6 -11 -27 0 -27 4 -32 20 -29 11 2 25 -1 32 -7 8 -6 14 -7 18 0 4 5
2 12 -3 16 -5 3 -8 14 -6 25 2 11 -1 22 -6 25 -5 4 -7 10 -4 15 3 5 1 11 -5
15 -6 4 -7 11 -4 17 4 7 2 8 -5 4 -6 -4 -20 -2 -29 6 -15 12 -16 11 -4 -4z
m42 -63 c5 3 7 -3 5 -12 -1 -10 3 -25 9 -33 8 -12 6 -11 -9 1 -11 9 -27 14
-35 12 -13 -4 -13 -3 0 6 11 8 11 11 2 11 -10 0 -10 3 0 14 7 8 15 10 16 5 2
-5 7 -7 12 -4z"/>
<path d="M5579 2995 c-1 -3 -2 -9 -3 -14 -2 -18 -16 -24 -29 -12 -11 9 -14 6
-12 -17 1 -17 7 -26 16 -24 8 2 10 0 6 -5 -5 -4 -13 -8 -18 -8 -5 0 -10 -4
-11 -10 -2 -5 8 -10 22 -10 14 0 26 6 26 13 3 23 4 24 19 12 16 -14 10 -34 -7
-24 -6 4 -8 2 -4 -4 4 -6 -3 -9 -19 -8 -28 4 -53 -18 -35 -29 6 -3 7 -12 3
-18 -4 -7 -8 -15 -9 -19 -1 -5 -2 -11 -3 -14 0 -3 -12 8 -26 23 -14 15 -25 24
-24 18 1 -5 0 -13 -1 -17 -1 -5 -4 -12 -5 -18 -1 -5 -4 -12 -5 -15 -1 -3 -3
-11 -4 -17 0 -7 -10 -13 -21 -13 -11 0 -20 -6 -20 -13 0 -6 -4 -12 -8 -11 -4
0 -19 -7 -33 -15 -13 -9 -24 -14 -24 -10 0 4 -6 2 -12 -3 -15 -12 -87 -11
-106 1 -8 4 -11 3 -10 -5 2 -6 -2 -13 -9 -16 -8 -3 -11 3 -8 15 2 11 -5 28
-16 38 -11 10 -20 14 -19 9 2 -6 1 -13 0 -17 -2 -8 -6 -22 -9 -34 0 -3 -12 8
-25 23 -19 22 -22 31 -13 43 11 13 10 13 -6 1 -12 -9 -14 -17 -7 -26 5 -6 7
-15 3 -19 -15 -15 -9 -36 18 -62 16 -15 32 -24 36 -21 3 4 15 -1 26 -10 11
-10 17 -12 13 -5 -4 6 -2 12 3 12 17 0 26 -4 24 -12 -3 -8 18 -5 35 5 14 9 35
0 28 -12 -3 -4 1 -8 9 -8 7 0 12 8 10 18 -2 10 1 21 6 25 6 4 6 11 -2 20 -6 8
-7 14 -2 14 5 0 16 -9 25 -19 14 -17 14 -20 0 -34 -13 -14 -13 -15 4 -12 10 2
21 4 24 5 3 1 8 2 13 1 13 -2 2 24 -12 30 -10 4 -11 8 -4 12 6 4 22 -2 36 -13
l25 -20 59 50 c32 27 67 64 77 82 15 25 16 30 4 20 -10 -8 -19 -9 -22 -4 -6
10 22 27 37 23 5 -1 6 3 3 8 -4 5 -2 12 4 16 6 4 8 11 5 16 -4 5 0 9 7 9 10 0
9 3 -2 10 -12 8 -12 10 3 16 22 8 22 26 -2 41 -13 8 -18 21 -16 42 2 26 -2 43
-6 26z m6 -125 c3 -6 -4 -10 -17 -10 -18 0 -20 2 -8 10 19 12 18 12 25 0z
m-26 -51 c-21 -17 -28 -28 -20 -33 6 -4 8 -13 4 -19 -4 -7 -8 -16 -8 -22 0 -5
-9 -9 -19 -7 -10 2 -15 -1 -12 -6 3 -6 -13 -26 -36 -46 -31 -27 -44 -33 -55
-25 -7 6 -11 15 -8 19 3 5 1 11 -5 15 -5 3 -10 1 -10 -5 0 -6 -4 -9 -9 -5 -5
3 -13 1 -16 -5 -5 -8 -11 -7 -21 1 -14 12 -9 33 6 24 5 -3 11 -1 15 4 3 6 13
7 22 4 12 -5 14 -3 8 8 -4 8 -5 11 0 7 11 -11 36 12 28 26 -3 6 -2 7 3 3 5 -5
9 -14 9 -19 0 -6 5 -13 12 -15 6 -2 10 4 8 14 -1 10 0 23 4 28 3 6 6 13 7 18
1 4 3 9 4 12 2 5 5 15 9 31 0 3 6 2 11 -1 8 -5 7 -11 -1 -21 -10 -12 -8 -14
10 -11 21 3 53 27 37 27 -5 0 -3 6 3 14 7 8 21 14 32 13 18 -1 16 -5 -12 -28z
m-364 -107 c-1 -9 2 -22 7 -29 10 -12 -8 -13 -27 -1 -6 4 -17 3 -25 -3 -8 -5
-10 -9 -5 -10 64 -7 88 -2 86 17 -1 4 17 9 38 9 22 0 38 -2 35 -6 -2 -4 0 -11
6 -14 8 -5 8 -11 1 -19 -6 -7 -7 -17 -3 -22 4 -4 -1 -2 -10 5 -14 10 -21 11
-32 2 -10 -9 -16 -8 -26 4 -9 11 -17 12 -30 5 -12 -6 -21 -7 -25 0 -3 5 -11 7
-18 4 -17 -6 -62 42 -48 51 6 3 8 11 5 17 -4 7 -2 8 5 4 6 -4 9 -11 6 -16 -3
-4 2 -10 10 -14 13 -5 28 7 31 27 1 4 2 10 3 13 3 14 19 -8 16 -24z"/>
<path d="M5545 2830 c-3 -6 1 -7 9 -4 18 7 21 14 7 14 -6 0 -13 -4 -16 -10z"/>
<path d="M5476 2779 c2 -4 0 -10 -5 -13 -5 -4 -8 -14 -6 -24 1 -9 -2 -23 -8
-29 -10 -14 -28 -17 -26 -5 3 19 -2 23 -16 12 -8 -7 -12 -17 -8 -24 4 -6 8
-14 8 -18 0 -5 5 -7 10 -5 6 1 9 6 7 11 -2 5 4 6 12 3 13 -5 51 26 58 48 2 6
9 9 16 9 7 -1 11 1 8 4 -3 3 -1 11 5 19 13 15 14 15 -28 17 -17 1 -30 -1 -27
-5z m48 -8 c-3 -3 -10 -7 -15 -7 -5 -1 -13 -2 -18 -3 -6 0 -8 -10 -6 -20 2
-11 -6 -27 -18 -38 -21 -18 -21 -18 -7 1 8 11 15 28 15 38 0 10 6 22 13 27 15
9 45 11 36 2z m-97 -66 c0 -8 -4 -12 -9 -9 -5 3 -6 10 -3 15 9 13 12 11 12 -6z"/>
<path d="M5365 2700 c-4 -6 -11 -7 -17 -4 -7 4 -8 2 -4 -5 6 -9 11 -9 22 0 14
11 18 19 10 19 -3 0 -8 -5 -11 -10z"/>
<path d="M5175 2701 c-3 -5 -2 -12 3 -15 5 -3 9 1 9 9 0 17 -3 19 -12 6z"/>
<path d="M5234 2673 c1 -7 7 -18 14 -25 9 -9 13 -7 18 6 5 12 10 14 19 6 8 -7
16 -7 19 -2 3 6 -1 15 -8 21 -11 9 -17 8 -28 -8 -8 -12 -18 -18 -21 -14 -4 3
-2 11 3 18 7 8 5 12 -4 12 -8 0 -13 -6 -12 -14z"/>
<path d="M5050 2876 c0 -2 8 -10 18 -17 15 -13 16 -12 3 4 -13 16 -21 21 -21
13z"/>
<path d="M5615 3101 c-3 -5 -2 -12 3 -15 5 -3 9 1 9 9 0 17 -3 19 -12 6z"/>
<path d="M5032 2781 c2 -7 7 -12 11 -12 12 1 9 15 -3 20 -7 2 -11 -2 -8 -8z"/>
<path d="M6080 3731 c-195 -63 -302 -294 -287 -621 8 -173 50 -310 124 -406
50 -67 156 -114 253 -114 248 0 388 218 383 595 -2 156 -21 255 -68 351 -66
136 -158 197 -300 201 -44 1 -91 -1 -105 -6z m136 -13 c3 -4 -1 -5 -10 -4 -8
1 -18 5 -22 8 -3 4 1 5 10 4 8 -1 18 -5 22 -8z m51 -4 c-3 -3 -12 -4 -19 -1
-8 3 -5 6 6 6 11 1 17 -2 13 -5z m68 -24 c3 -6 -1 -7 -9 -4 -18 7 -21 14 -7
14 6 0 13 -4 16 -10z m-360 -47 c-2 -10 -4 -19 -4 -21 -1 -2 -6 0 -11 3 -8 5
-7 11 1 21 15 18 18 18 14 -3z m426 -10 l24 -28 -30 25 c-16 14 -32 26 -34 28
-2 1 0 2 6 2 5 0 20 -12 34 -27z m-198 -20 c-13 -2 -33 -2 -45 0 -13 2 -3 4
22 4 25 0 35 -2 23 -4z m142 -2 c3 -5 2 -12 -3 -15 -5 -3 -9 1 -9 9 0 17 3 19
12 6z m-308 -8 c-4 -3 -1 -13 6 -22 11 -14 10 -14 -5 -2 -16 12 -16 31 -1 31
4 0 3 -3 0 -7z m73 -8 c-14 -8 -29 -14 -35 -14 -5 0 1 6 15 14 14 8 30 14 35
14 6 0 -1 -6 -15 -14z m150 4 c0 -6 7 -9 15 -5 16 6 16 -14 0 -26 -6 -4 -1
-16 11 -30 92 -104 115 -503 39 -684 -34 -82 -111 -133 -178 -119 -111 25
-167 164 -167 420 0 135 8 198 37 290 35 109 99 162 178 150 25 -3 47 -10 50
-16 4 -5 11 -9 17 -9 6 0 3 9 -7 20 -10 11 -13 20 -7 20 7 0 12 -5 12 -11z
m-355 -40 c-5 -16 -4 -19 5 -14 9 6 11 4 5 -4 -10 -18 -27 2 -19 22 9 25 17
21 9 -4z m140 -18 c-3 -6 -11 -11 -17 -11 -6 0 -6 6 2 15 14 17 26 13 15 -4z
m349 11 c3 -5 -1 -9 -9 -9 -8 0 -12 4 -9 9 3 4 7 8 9 8 2 0 6 -4 9 -8z m63
-47 c0 -8 -4 -12 -9 -9 -5 3 -6 10 -3 15 9 13 12 11 12 -6z m-446 -18 c-10 -9
-11 -8 -5 6 3 10 9 15 12 12 3 -3 0 -11 -7 -18z m416 17 c-8 -9 -47 -13 -51
-6 -2 4 9 8 25 8 17 1 28 0 26 -2z m61 -19 c-3 -3 -9 2 -12 12 -6 14 -5 15 5
6 7 -7 10 -15 7 -18z m-135 0 c-3 -9 -8 -14 -10 -11 -3 3 -2 9 2 15 9 16 15
13 8 -4z m47 -21 c11 -12 11 -15 0 -12 -9 2 -14 -6 -15 -19 0 -12 -4 -25 -9
-30 -5 -5 -6 -3 -2 5 4 7 2 12 -6 12 -9 0 -9 3 2 10 8 5 11 10 6 10 -5 0 -3 6
3 13 6 8 8 17 4 20 -3 4 -4 7 -1 7 3 0 11 -7 18 -16z m54 -35 c-3 -5 -10 -7
-15 -3 -5 3 -7 10 -3 15 3 5 10 7 15 3 5 -3 7 -10 3 -15z m-570 2 c3 -5 -2
-15 -12 -22 -15 -12 -16 -12 -5 2 7 9 10 19 6 22 -3 4 -4 7 0 7 3 0 8 -4 11
-9z m62 -6 c-1 -8 -5 -17 -8 -21 -5 -4 -4 16 1 34 3 9 9 -1 7 -13z m479 -4 c3
-5 2 -12 -3 -15 -5 -3 -9 1 -9 9 0 17 3 19 12 6z m31 -37 c2 -12 -1 -13 -12
-3 -7 6 -11 16 -8 21 7 11 17 3 20 -18z m56 -27 c-7 -8 -8 -18 -4 -23 4 -4 -1
-2 -10 5 -19 14 -25 26 -8 16 6 -3 13 1 16 10 4 9 9 14 12 11 3 -3 0 -12 -6
-19z m-631 0 c-7 -7 -7 -15 0 -24 7 -7 9 -13 5 -13 -3 0 -9 0 -13 0 -4 0 -8
10 -8 23 -1 14 4 24 12 24 9 0 10 -4 4 -10z m585 -21 c1 -7 -4 -13 -11 -13 -7
0 -11 7 -10 16 2 9 4 18 4 20 2 8 15 -10 17 -23z m-639 -8 c-3 -8 -6 -5 -6 6
-1 11 2 17 5 13 3 -3 4 -12 1 -19z m560 -30 c-2 -13 -4 -5 -4 17 -1 22 1 32 4
23 2 -10 2 -28 0 -40z m140 30 c-3 -8 -6 -5 -6 6 -1 11 2 17 5 13 3 -3 4 -12
1 -19z m-52 -118 c-1 -63 2 -90 14 -103 8 -10 11 -18 6 -17 -21 5 -27 -1 -16
-14 8 -10 9 -16 1 -21 -19 -12 0 -26 21 -15 11 6 17 15 14 20 -3 5 -1 12 5 15
8 5 7 12 -2 23 -10 12 -10 14 0 8 8 -5 12 0 12 16 0 13 -6 30 -12 37 -9 10
-10 12 -1 7 9 -5 13 10 16 51 2 37 4 21 5 -44 1 -57 -1 -103 -6 -103 -4 0 -8
-19 -8 -42 0 -24 -3 -62 -7 -84 -8 -56 -57 -174 -73 -181 -8 -3 -12 -9 -9 -13
3 -5 -11 -26 -31 -46 -32 -34 -37 -37 -45 -21 -14 25 -32 22 -19 -3 11 -21 5
-44 -10 -35 -4 3 -13 -2 -20 -11 -7 -8 -19 -13 -26 -10 -7 3 -16 1 -20 -5 -3
-6 -21 -8 -40 -6 -19 3 -34 1 -34 -4 0 -6 -6 -4 -14 3 -8 8 -10 15 -4 19 7 4
6 9 -1 13 -13 8 -34 -2 -27 -13 3 -4 1 -12 -3 -19 -5 -8 -13 -8 -32 2 -13 7
-30 11 -36 9 -6 -2 -14 1 -18 6 -3 6 -14 11 -24 11 -10 0 -25 8 -32 17 -12 15
-12 16 3 10 10 -3 20 -1 24 5 4 6 3 8 -4 4 -6 -3 -13 -2 -17 4 -4 6 -11 8 -16
4 -12 -7 -81 44 -74 56 2 4 -1 13 -9 19 -15 12 -16 28 -3 48 4 6 3 14 -2 18
-5 3 -14 -3 -20 -12 -6 -10 -11 -16 -11 -13 0 3 -4 20 -9 38 -6 20 -6 30 0 27
5 -4 9 -15 9 -26 0 -11 4 -18 8 -15 8 4 9 56 2 64 -1 1 -3 15 -4 30 0 16 -7
36 -14 45 -7 8 -9 18 -4 21 10 6 10 46 -1 63 -4 6 -1 17 6 25 7 7 12 30 12 50
-1 20 2 35 7 32 4 -3 9 0 9 5 3 26 4 30 11 37 4 3 5 -4 2 -17 -3 -13 -6 -28
-7 -34 -2 -5 -6 -15 -10 -22 -4 -6 -3 -15 3 -18 8 -5 7 -11 -1 -21 -10 -13 -6
-18 13 -15 3 0 5 -7 3 -17 -2 -9 -4 -17 -5 -17 -7 0 -6 -36 0 -40 5 -3 7 -14
5 -25 -3 -17 1 -19 20 -16 14 3 28 0 31 -6 4 -6 10 -5 15 3 6 10 9 8 9 -8 0
-13 9 -46 20 -75 11 -28 18 -54 16 -56 -5 -5 62 -65 89 -80 19 -10 18 -11 -10
-22 -29 -11 -29 -12 -11 -26 11 -8 26 -14 34 -14 19 0 4 20 -16 21 -30 1 30
22 68 24 20 1 41 5 48 9 8 5 10 2 6 -8 -3 -9 -13 -16 -22 -16 -13 0 -12 -4 5
-22 11 -13 19 -31 18 -41 -2 -10 2 -16 8 -14 14 4 17 57 3 57 -7 0 -8 3 -1 8
6 4 11 15 10 25 0 9 5 17 10 17 13 0 14 -21 2 -37 -5 -7 -8 -13 -6 -14 40 -9
72 1 50 16 -5 3 -8 14 -6 24 2 11 -3 22 -13 26 -15 6 -15 8 -1 18 8 7 24 25
34 40 11 18 21 24 25 17 5 -8 10 -7 18 2 17 22 18 24 2 44 -8 10 -10 16 -6 12
5 -4 15 -3 23 4 11 9 13 8 11 -2 -2 -7 2 -14 7 -16 6 -3 10 18 10 51 0 35 -4
56 -12 59 -8 4 -13 -4 -14 -22 -2 -23 -2 -24 -6 -5 -2 12 0 30 6 40 6 10 11
12 11 6 0 -7 4 -13 8 -13 5 0 7 17 6 38 -3 49 -3 49 -15 32 -8 -12 -9 -11 -5
5 3 11 6 38 8 60 1 22 7 43 12 47 7 5 7 8 -1 8 -8 0 -13 13 -13 31 0 16 4 28
9 24 5 -3 12 -1 16 4 3 6 11 8 19 5 7 -3 13 2 13 11 0 8 -5 15 -11 15 -6 0 -4
5 4 10 13 9 13 10 0 11 -8 1 -19 1 -23 0 -5 -1 -6 2 -4 6 3 5 18 8 34 8 l29 1
-1 -86z m-589 53 c-10 -11 -19 -7 -22 10 -2 15 0 16 12 6 8 -6 12 -14 10 -16z
m630 -6 c1 -8 -4 -14 -10 -14 -7 0 -12 11 -12 24 0 24 18 16 22 -10z m-571 14
c-3 -5 -1 -12 5 -16 5 -3 10 -16 9 -28 -1 -20 -2 -20 -9 3 -4 14 -8 21 -9 17
-1 -5 -6 -5 -11 -2 -8 5 -7 11 1 21 13 16 23 19 14 5z m-116 -67 c10 7 7 -32
-6 -64 -8 -20 -10 -8 -10 55 1 44 3 63 5 42 2 -20 7 -35 11 -33z m576 57 c3
-5 0 -13 -6 -17 -7 -4 -9 -3 -5 4 3 5 0 13 -6 15 -9 4 -10 6 -1 6 6 1 14 -3
18 -8z m-516 -58 c-6 -7 -15 -10 -20 -7 -13 8 -3 21 15 21 12 0 13 -4 5 -14z
m69 -78 c-3 -49 -1 -75 6 -75 6 0 4 -4 -4 -10 -8 -5 -15 -20 -16 -34 0 -14 3
-23 7 -20 4 2 6 13 4 24 -2 11 0 20 6 20 5 0 9 -13 9 -29 0 -28 -11 -34 -36
-19 -8 5 -12 70 -5 86 2 5 -4 17 -9 15 -4 -1 -6 9 -6 22 0 17 3 21 11 15 17
-14 25 -1 25 42 0 21 3 38 6 38 3 0 4 -34 2 -75z m-21 50 c0 -8 -4 -12 -9 -9
-5 3 -6 10 -3 15 9 13 12 11 12 -6z m-115 -106 c-3 -19 -1 -29 5 -26 6 4 8
-11 5 -38 -2 -25 0 -45 5 -45 4 0 9 -19 10 -43 l1 -42 -14 50 c-8 28 -13 62
-11 78 2 15 0 27 -5 27 -5 0 -8 18 -6 39 1 22 5 38 8 36 4 -2 5 -18 2 -36z"/>
<path d="M6454 3257 c1 -22 -4 -32 -14 -32 -34 -1 -45 -23 -27 -52 4 -6 3 -14
-2 -17 -9 -6 -11 -85 -2 -101 3 -5 6 -50 6 -100 1 -68 -3 -96 -15 -115 -9 -14
-16 -38 -15 -53 2 -27 -7 -40 -33 -43 -11 -2 -11 1 1 14 8 9 13 25 12 35 -2 9
1 14 6 11 5 -3 9 -2 8 3 -1 4 1 16 6 26 4 11 3 23 -3 29 -7 7 -10 5 -8 -8 2
-11 -5 -30 -15 -43 -10 -13 -16 -28 -12 -34 3 -6 1 -7 -5 -3 -6 4 -8 14 -5 24
4 10 -6 4 -23 -13 -21 -21 -26 -32 -17 -38 6 -4 10 -16 8 -27 -2 -11 1 -22 6
-26 17 -10 -9 -31 -34 -29 -18 2 -23 -2 -23 -20 0 -22 1 -22 23 -8 13 9 23 12
23 8 0 -4 6 -2 14 4 8 7 13 21 11 32 -2 11 4 23 16 29 14 8 19 8 17 -1 -2 -6
5 -13 15 -14 18 -3 41 27 29 40 -4 3 -2 6 3 5 22 -5 27 1 15 15 -7 8 -9 15 -5
15 4 0 2 6 -4 14 -8 9 -8 16 -2 20 5 4 8 14 6 24 -2 12 4 18 18 20 12 0 17 -2
12 -6 -12 -8 -13 -27 -2 -38 4 -4 -1 -16 -10 -26 -15 -17 -15 -18 0 -13 20 8
30 36 21 59 -4 9 -2 16 4 14 5 -2 11 2 13 7 1 6 8 20 15 33 7 13 11 31 9 40
-1 9 1 19 6 22 4 3 10 27 12 52 4 43 3 47 -13 38 -21 -11 -50 13 -30 25 6 3 8
11 4 16 -3 5 -10 7 -15 3 -5 -3 -7 -9 -5 -13 3 -3 -4 -7 -14 -7 -10 0 -16 5
-13 10 3 5 2 6 -4 3 -5 -3 -10 0 -10 8 0 11 4 12 14 3 17 -14 58 19 45 36 -5
6 -8 46 -7 89 0 43 -2 80 -5 82 -4 2 -6 -10 -6 -28z m2 -81 c0 -25 -4 -42 -9
-39 -4 2 -14 0 -22 -7 -11 -9 -13 -7 -11 7 2 11 10 17 21 15 12 -2 15 1 9 10
-12 18 -12 31 -1 46 13 17 13 17 13 -32z m42 -160 c8 1 8 0 1 -3 -8 -4 -7 -8
2 -15 11 -7 9 -8 -6 -6 -14 2 -19 -3 -19 -17 0 -12 6 -19 14 -17 11 3 11 0 0
-12 -7 -9 -9 -16 -5 -16 4 0 3 -6 -2 -12 -6 -7 -9 -21 -8 -30 2 -10 -1 -20 -6
-24 -5 -3 -6 -11 -2 -17 4 -7 0 -7 -10 1 -9 8 -20 11 -24 9 -12 -7 -10 140 1
150 5 4 6 3 2 -4 -10 -18 9 -16 24 2 9 10 9 15 1 16 -6 1 -15 3 -21 4 -5 1
-13 3 -16 4 -3 0 -2 6 1 11 4 7 17 3 33 -8 15 -11 33 -18 40 -16z m-169 -303
c-15 -17 -18 -17 -14 5 1 9 -3 24 -9 32 -6 8 -1 6 12 -4 17 -15 19 -22 11 -33z
m58 2 c0 -8 -4 -12 -9 -9 -5 3 -6 10 -3 15 9 13 12 11 12 -6z"/>
<path d="M6455 2992 c-20 -17 -30 -82 -13 -82 4 0 8 -7 8 -15 0 -8 -6 -15 -12
-15 -9 0 -8 -3 2 -9 18 -12 31 -5 23 14 -3 9 -1 21 4 28 8 11 10 29 3 42 -7
13 -5 31 3 43 13 17 6 15 -18 -6z"/>
<path d="M5866 3061 c-4 -5 -2 -12 2 -15 10 -6 10 -46 -1 -62 -4 -7 -1 -17 7
-23 7 -6 12 -25 11 -41 -1 -17 1 -33 6 -35 4 -3 6 -14 4 -25 -2 -10 3 -24 11
-31 8 -7 11 -16 6 -23 -13 -17 -9 -34 13 -50 12 -10 15 -15 7 -16 -8 0 0 -11
16 -25 17 -14 34 -25 39 -24 4 1 10 0 13 -1 9 -3 45 -11 57 -12 7 -1 10 -5 7
-9 -2 -5 -11 -6 -19 -2 -8 3 -15 0 -15 -5 0 -9 22 -21 53 -28 4 -1 8 -3 10 -4
6 -7 46 -6 42 0 -3 4 2 13 10 20 12 10 18 10 30 0 8 -7 13 -16 10 -20 -3 -5 2
-7 12 -6 23 4 25 31 2 52 -10 9 -17 20 -14 24 2 4 -9 7 -25 6 -17 -1 -30 -5
-30 -9 0 -4 0 -10 0 -13 0 -4 7 -1 15 6 11 9 19 10 26 3 8 -8 7 -13 -2 -18 -8
-5 -10 -4 -5 3 12 19 -6 14 -31 -10 l-23 -21 -25 23 c-22 21 -23 25 -10 40 14
15 12 20 -20 48 -19 18 -36 32 -38 32 -7 0 -2 -45 6 -57 11 -18 28 -16 21 2
-4 8 -4 15 -1 15 3 0 7 -6 10 -14 4 -9 -5 -21 -20 -31 -14 -10 -23 -13 -19 -7
8 14 -15 30 -41 27 -12 -1 -19 3 -16 8 3 6 1 7 -5 3 -7 -4 -10 1 -7 14 3 13 0
18 -7 14 -7 -4 -8 -2 -4 5 4 6 0 14 -9 17 -14 6 -13 8 5 21 21 15 18 39 -3 26
-8 -5 -8 -2 0 9 7 8 10 18 6 21 -3 4 -12 -1 -19 -11 -12 -16 -13 -16 -10 1 1
10 9 23 17 28 8 5 10 9 5 9 -5 0 -3 6 3 13 6 8 8 16 5 20 -9 8 -35 -4 -29 -13
3 -5 1 -11 -4 -14 -5 -4 -8 1 -7 9 3 19 9 25 34 30 16 3 20 -1 17 -16 -2 -10
0 -21 5 -24 5 -3 7 -14 5 -25 -5 -27 9 -33 23 -9 7 11 8 19 2 19 -5 0 -7 6 -4
13 8 22 -22 52 -53 52 -22 0 -28 5 -29 23 -1 12 -3 24 -4 27 -6 13 -5 31 2 41
5 7 2 16 -6 23 -9 8 -16 8 -20 2z m21 -86 c0 -8 -4 -12 -9 -9 -5 3 -6 10 -3
15 9 13 12 11 12 -6z m179 -264 c-9 -10 -13 -21 -9 -25 4 -4 -1 -4 -10 0 -17
6 -16 8 3 21 11 8 17 19 14 25 -5 7 -2 8 5 4 9 -6 9 -12 -3 -25z m140 -67 c2
-12 0 -14 -9 -5 -6 6 -12 18 -13 27 -2 12 0 14 9 5 6 -6 12 -18 13 -27z m-117
13 c8 -10 7 -14 -2 -14 -8 0 -14 6 -14 14 0 7 1 13 2 13 2 0 8 -6 14 -13z"/>
<path d="M5934 2886 c1 -8 5 -18 8 -22 4 -3 5 1 4 10 -1 8 -5 18 -8 22 -4 3
-5 -1 -4 -10z"/>
<path d="M5983 2854 c10 -17 -18 -25 -34 -11 -11 10 -11 9 -1 -4 10 -13 9 -19
-3 -29 -14 -11 -14 -15 -1 -29 14 -15 16 -20 16 -38 0 -5 5 -1 10 7 8 13 10
12 10 -4 0 -11 3 -16 7 -13 3 4 16 -1 27 -10 20 -17 20 -17 6 1 -8 10 -15 40
-16 68 0 27 -7 54 -14 61 -9 8 -11 8 -7 1z m-13 -60 c0 -8 -19 -13 -24 -6 -3
5 1 9 9 9 8 0 15 -2 15 -3z"/>
<path d="M6416 2801 c-4 -5 -2 -12 3 -15 5 -4 12 -2 15 3 4 5 2 12 -3 15 -5 4
-12 2 -15 -3z"/>
<path d="M5920 3105 c0 -2 6 -8 13 -14 10 -8 14 -7 14 2 0 8 -6 14 -14 14 -7
0 -13 -1 -13 -2z"/>
<path d="M5939 3068 c-5 -18 -6 -38 -1 -34 7 8 12 36 6 36 -2 0 -4 -1 -5 -2z"/>
<path d="M1931 3721 c-7 -5 -12 -14 -10 -20 2 -6 10 -2 17 9 14 22 13 23 -7
11z"/>
<path d="M2560 3686 c0 -41 2 -46 23 -46 35 0 45 12 43 50 -1 32 -5 35 -34 38
-32 3 -32 3 -32 -42z m45 24 c3 -5 -1 -10 -9 -10 -9 0 -16 5 -16 10 0 6 4 10
9 10 6 0 13 -4 16 -10z m5 -40 c0 -5 -7 -10 -15 -10 -8 0 -15 5 -15 10 0 6 7
10 15 10 8 0 15 -4 15 -10z"/>
<path d="M3042 3688 c3 -39 6 -43 31 -46 15 -2 27 1 27 7 0 6 -9 11 -20 11
-11 0 -20 5 -20 10 0 6 10 10 22 10 12 0 18 3 14 8 -4 4 -13 7 -18 7 -22 0
-18 24 4 28 17 3 14 5 -10 6 -33 1 -33 1 -30 -41z"/>
<path d="M3130 3684 c0 -45 20 -56 20 -11 1 19 3 19 17 -8 9 -16 18 -25 20
-18 3 7 0 20 -6 30 -7 13 -5 23 6 35 12 13 13 18 3 18 -7 0 -19 -8 -26 -17
-13 -17 -13 -17 -14 0 0 9 -4 17 -10 17 -5 0 -10 -21 -10 -46z"/>
<path d="M3228 3723 c7 -2 12 -22 12 -44 0 -21 5 -39 10 -39 6 0 10 18 10 39
0 22 5 42 13 44 6 3 -4 5 -23 5 -19 0 -29 -2 -22 -5z"/>
<path d="M3360 3685 c0 -44 0 -45 33 -44 23 1 26 3 10 6 -27 5 -31 30 -5 36
16 4 16 5 0 6 -26 2 -22 29 5 34 16 3 13 5 -10 6 -33 1 -33 0 -33 -44z"/>
<path d="M3440 3691 c0 -22 5 -43 10 -46 6 -3 10 1 10 9 0 20 14 20 30 1 20
-24 32 -17 15 9 -13 19 -14 29 -5 45 6 12 7 21 1 21 -5 0 -11 -7 -15 -15 -3
-8 -10 -15 -16 -15 -5 0 -10 7 -10 15 0 8 -4 15 -10 15 -5 0 -10 -18 -10 -39z"/>
<path d="M3547 3723 c-10 -10 -8 -73 2 -73 5 0 11 7 15 15 3 8 12 15 20 15 19
0 27 25 13 39 -12 12 -40 15 -50 4z m41 -21 c2 -7 -3 -12 -12 -12 -9 0 -16 7
-16 16 0 17 22 14 28 -4z"/>
<path d="M3833 3470 c0 -41 2 -58 4 -37 2 20 2 54 0 75 -2 20 -4 3 -4 -38z"/>
<path d="M3863 3470 c0 -41 2 -58 4 -37 2 20 2 54 0 75 -2 20 -4 3 -4 -38z"/>
<path d="M3893 3500 c0 -25 2 -35 4 -22 2 12 2 32 0 45 -2 12 -4 2 -4 -23z"/>
<path d="M3922 3515 c0 -16 2 -22 5 -12 2 9 2 23 0 30 -3 6 -5 -1 -5 -18z"/>
<path d="M3941 3505 c0 -35 1 -37 10 -17 6 15 5 30 -1 40 -7 13 -9 8 -9 -23z"/>
<path d="M4033 3495 c0 -22 2 -30 4 -17 2 12 2 30 0 40 -3 9 -5 -1 -4 -23z"/>
<path d="M3970 3490 c0 -39 15 -39 16 0 1 17 -3 30 -7 30 -5 0 -9 -13 -9 -30z"/>
<path d="M291 3478 c-29 -46 -52 -79 -78 -111 -15 -19 -23 -42 -23 -68 l0 -39
105 0 105 0 0 31 0 30 -57 -1 c-114 -3 -110 -10 -43 87 33 47 60 90 60 95 0 4
-11 8 -24 8 -16 0 -31 -11 -45 -32z"/>
<path d="M605 3448 c-9 -84 -23 -126 -46 -138 -25 -14 -25 -50 -1 -50 44 0 82
75 89 178 6 68 5 72 -15 72 -17 0 -21 -8 -27 -62z"/>
<path d="M3228 3503 c7 -3 16 -2 19 1 4 3 -2 6 -13 5 -11 0 -14 -3 -6 -6z"/>
<path d="M2994 3476 c23 -18 42 -20 51 -6 3 6 0 10 -7 10 -7 0 -24 3 -38 6
-24 5 -24 5 -6 -10z"/>
<path d="M2746 3461 c-4 -6 -2 -11 5 -11 15 0 4 -13 -14 -16 -7 -2 -44 -11
-84 -21 -77 -20 -112 -37 -42 -22 24 6 54 8 66 4 14 -3 42 4 73 20 27 14 58
25 69 25 26 0 51 10 51 21 0 14 -74 11 -88 -3 -10 -10 -15 -10 -21 1 -6 9 -11
10 -15 2z"/>
<path d="M3413 3463 c9 -2 23 -2 30 0 6 3 -1 5 -18 5 -16 0 -22 -2 -12 -5z"/>
<path d="M2550 3450 c-20 -6 -21 -8 -5 -8 11 -1 38 3 60 7 l40 9 -35 0 c-19 0
-46 -4 -60 -8z"/>
<path d="M3922 3440 c0 -14 2 -19 5 -12 2 6 2 18 0 25 -3 6 -5 1 -5 -13z"/>
<path d="M2905 3410 c-3 -5 -1 -10 4 -10 6 0 11 5 11 10 0 6 -2 10 -4 10 -3 0
-8 -4 -11 -10z"/>
<path d="M2733 3378 c-19 -9 -39 -37 -31 -43 2 -1 23 11 48 26 44 29 32 41
-17 17z"/>
<path d="M4001 3374 c0 -11 3 -14 6 -6 3 7 2 16 -1 19 -3 4 -6 -2 -5 -13z"/>
<path d="M3972 3360 c0 -14 2 -19 5 -12 2 6 2 18 0 25 -3 6 -5 1 -5 -13z"/>
<path d="M3972 3300 c0 -19 2 -27 5 -17 2 9 2 25 0 35 -3 9 -5 1 -5 -18z"/>
<path d="M2470 3300 c-13 -9 -13 -10 0 -9 8 0 24 4 35 9 l20 9 -20 0 c-11 0
-27 -4 -35 -9z"/>
<path d="M3863 3255 c0 -27 2 -38 4 -22 2 15 2 37 0 50 -2 12 -4 0 -4 -28z"/>
<path d="M3893 3245 c0 -27 2 -38 4 -22 2 15 2 37 0 50 -2 12 -4 0 -4 -28z"/>
<path d="M3837 3266 c-4 -10 -5 -21 -2 -24 9 -9 17 6 13 25 -3 17 -4 17 -11
-1z"/>
<path d="M3954 3160 c0 -58 1 -81 3 -52 2 28 2 76 0 105 -2 28 -3 5 -3 -53z"/>
<path d="M3923 3145 c0 -44 2 -61 4 -37 2 23 2 59 0 80 -2 20 -4 1 -4 -43z"/>
<path d="M3863 3133 c-1 -35 3 -63 8 -63 10 0 10 51 0 95 -6 23 -8 15 -8 -32z"/>
<path d="M3841 3154 c0 -11 3 -14 6 -6 3 7 2 16 -1 19 -3 4 -6 -2 -5 -13z"/>
<path d="M3891 3121 c-1 -40 2 -52 10 -44 7 7 8 24 1 54 l-10 44 -1 -54z"/>
<path d="M3983 3120 c0 -30 2 -43 4 -27 2 15 2 39 0 55 -2 15 -4 2 -4 -28z"/>
<path d="M4001 3154 c0 -11 3 -14 6 -6 3 7 2 16 -1 19 -3 4 -6 -2 -5 -13z"/>
<path d="M3842 3095 c0 -16 2 -22 5 -12 2 9 2 23 0 30 -3 6 -5 -1 -5 -18z"/>
<path d="M4000 3096 c0 -14 5 -28 10 -31 6 -4 10 7 10 24 0 17 -4 31 -10 31
-5 0 -10 -11 -10 -24z"/>
<path d="M4032 3095 c0 -16 2 -22 5 -12 2 9 2 23 0 30 -3 6 -5 -1 -5 -18z"/>
<path d="M5092 2580 c0 -14 2 -19 5 -12 2 6 2 18 0 25 -3 6 -5 1 -5 -13z"/>
<path d="M5122 2596 c4 -5 3 -18 -1 -30 -5 -11 -5 -50 -2 -86 l7 -65 5 88 c2
54 0 91 -6 95 -5 3 -7 2 -3 -2z"/>
<path d="M4190 2450 l0 -130 100 0 100 0 0 130 0 130 -100 0 -100 0 0 -130z
m177 -7 c-3 -10 -5 -4 -5 12 0 17 2 24 5 18 2 -7 2 -21 0 -30z m0 -45 c-3 -8
-6 -5 -6 6 -1 11 2 17 5 13 3 -3 4 -12 1 -19z"/>
<path d="M4407 2573 c-4 -3 -7 -62 -7 -130 l0 -123 99 0 99 0 4 54 c1 30 0 52
-4 49 -5 -2 -8 3 -8 11 0 8 4 18 10 21 5 3 9 31 9 61 l-2 54 -56 1 c-31 0 -74
2 -97 4 -23 3 -44 2 -47 -2z m142 -74 l9 -54 2 50 3 50 7 -55 c12 -83 12 -159
0 -138 -6 9 -9 25 -8 35 2 33 -2 54 -10 49 -5 -3 -7 -29 -6 -58 3 -40 1 -47
-5 -28 -9 26 -15 217 -6 209 2 -3 9 -30 14 -60z m-72 19 c-3 -8 -6 -5 -6 6 -1
11 2 17 5 13 3 -3 4 -12 1 -19z m30 -10 c-3 -7 -5 -2 -5 12 0 14 2 19 5 13 2
-7 2 -19 0 -25z m-19 -128 c0 -45 -2 -49 -8 -25 -4 17 -8 55 -8 85 0 45 2 49
8 25 4 -16 8 -55 8 -85z m28 24 c3 -55 2 -75 -6 -64 -10 15 -15 158 -4 148 3
-3 7 -41 10 -84z m-60 24 c3 -24 1 -29 -6 -18 -11 16 -14 67 -4 57 4 -3 8 -21
10 -39z m-29 -70 c-2 -13 -4 -3 -4 22 0 25 2 35 4 23 2 -13 2 -33 0 -45z m30
-15 c-3 -10 -5 -2 -5 17 0 19 2 27 5 18 2 -10 2 -26 0 -35z"/>
<path d="M4678 2569 c-5 -4 -12 -61 -15 -127 l-6 -120 79 -4 c43 -1 97 -2 119
0 l40 4 -3 42 c-3 29 3 59 17 89 12 25 21 51 21 56 0 6 5 11 10 11 6 0 10 9
10 20 0 17 7 20 47 20 25 0 43 3 39 8 -9 8 -344 10 -358 1z m163 -167 c-8 -3
-8 -10 0 -23 5 -11 7 -23 4 -28 -3 -5 3 -12 12 -15 11 -3 8 -4 -7 -3 -18 1
-24 7 -22 20 2 9 -2 17 -8 17 -5 0 -10 -3 -10 -7 -1 -19 -18 -33 -33 -27 -13
5 -17 18 -16 53 l2 46 7 -40 c8 -42 11 -29 14 44 0 22 4 43 9 47 4 4 7 3 7 -3
0 -18 40 -2 42 16 1 9 3 -9 5 -39 3 -33 0 -56 -6 -58z m-134 -4 c-2 -13 -4 -5
-4 17 -1 22 1 32 4 23 2 -10 2 -28 0 -40z m30 -50 c-2 -13 -4 -3 -4 22 0 25 2
35 4 23 2 -13 2 -33 0 -45z"/>
<path d="M5142 2442 l3 -127 98 -2 98 -2 -3 94 c-2 52 0 95 4 95 4 0 9 -42 10
-92 l3 -93 48 -1 48 -1 -3 108 c-1 59 1 112 6 116 4 4 7 -1 6 -12 -1 -11 -2
-64 -1 -117 l1 -97 50 1 50 0 -2 71 -2 72 -3 -60 c-7 -100 -18 -81 -19 31 -2
98 9 129 19 59 2 -17 5 -6 6 27 l1 58 -210 0 -211 0 3 -128z m260 60 c1 -23
-2 -45 -5 -49 -4 -3 -7 18 -7 47 0 62 9 63 12 2z m21 -173 c-7 -7 -8 191 -1
216 1 6 4 -39 5 -99 2 -60 0 -113 -4 -117z m67 79 c0 -45 -2 -79 -5 -77 -8 8
-11 159 -3 159 4 0 8 -37 8 -82z m27 -40 c-2 -24 -4 -5 -4 42 0 47 2 66 4 43
2 -24 2 -62 0 -85z m-240 80 c-3 -7 -5 -2 -5 12 0 14 2 19 5 13 2 -7 2 -19 0
-25z m30 -25 c-3 -10 -5 -2 -5 17 0 19 2 27 5 18 2 -10 2 -26 0 -35z m90 -60
c-3 -10 -5 -2 -5 17 0 19 2 27 5 18 2 -10 2 -26 0 -35z"/>
<path d="M5619 2455 c-1 -63 -2 -121 -3 -127 -1 -9 21 -14 72 -16 67 -3 72 -1
72 18 0 11 -7 20 -15 20 -9 0 -15 9 -15 22 0 28 -17 12 -23 -22 -2 -14 -4 16
-4 65 0 70 1 79 6 43 11 -75 23 -69 20 10 -1 40 1 75 4 79 4 3 7 -24 7 -60 0
-75 14 -93 17 -22 1 45 31 95 41 67 6 -20 18 -13 20 13 l2 25 -100 0 -100 0
-1 -115z m58 43 c-2 -13 -4 -5 -4 17 -1 22 1 32 4 23 2 -10 2 -28 0 -40z m-25
-60 c-9 -9 -12 -7 -12 12 0 19 3 21 12 12 9 -9 9 -15 0 -24z m30 -70 c2 -21 0
-38 -4 -38 -4 0 -7 24 -7 53 1 54 5 49 11 -15z m-31 -30 c-8 -18 -10 -12 -9
32 0 50 1 52 9 23 6 -19 5 -40 0 -55z"/>
<path d="M5830 2440 c0 -128 0 -130 23 -129 16 1 17 3 5 6 -13 3 -16 15 -15
56 1 29 6 57 10 64 4 6 3 14 -3 18 -16 10 -12 22 10 28 15 4 20 14 20 37 0 18
4 29 10 25 6 -3 10 -2 10 4 0 5 26 12 58 14 41 2 31 4 -35 5 l-93 2 0 -130z"/>
<path d="M5770 2490 c0 -11 2 -20 4 -20 2 0 6 9 9 20 3 11 1 20 -4 20 -5 0 -9
-9 -9 -20z"/>
<path d="M5813 2425 c0 -44 2 -61 4 -37 2 23 2 59 0 80 -2 20 -4 1 -4 -43z"/>
<path d="M4161 2424 c0 -11 3 -14 6 -6 3 7 2 16 -1 19 -3 4 -6 -2 -5 -13z"/>
<path d="M4905 2419 c-4 -6 -5 -12 -2 -15 2 -3 7 2 10 11 7 17 1 20 -8 4z"/>
<path d="M5124 2315 c0 -49 1 -71 3 -48 2 23 2 64 0 90 -2 26 -3 8 -3 -42z"/>
<path d="M4162 2360 c0 -14 2 -19 5 -12 2 6 2 18 0 25 -3 6 -5 1 -5 -13z"/>
<path d="M5071 2344 c0 -11 3 -14 6 -6 3 7 2 16 -1 19 -3 4 -6 -2 -5 -13z"/>
<path d="M6047 2333 c-10 -9 -9 -33 1 -33 4 0 8 9 8 20 0 23 0 22 -9 13z"/>
<path d="M5790 2320 l-25 -8 28 -1 c15 -1 27 4 27 9 0 6 -1 10 -2 9 -2 -1 -14
-5 -28 -9z"/>
<path d="M4190 2210 l0 -90 100 0 100 0 0 90 0 90 -100 0 -100 0 0 -90z"/>
<path d="M4400 2210 l0 -90 103 2 c56 0 87 3 70 5 -18 2 -33 9 -33 14 0 6 -12
9 -27 7 -24 -3 -28 1 -33 27 -3 17 -10 29 -15 27 -6 -2 -11 5 -12 15 -2 10 0
12 3 6 10 -22 22 -14 27 15 2 15 5 1 6 -31 2 -78 21 -65 22 16 1 34 4 52 6 40
2 -13 9 -23 15 -23 5 0 8 7 5 15 -4 8 -2 17 3 20 6 4 10 -6 10 -21 0 -34 5
-29 13 14 l7 32 -85 0 -85 0 0 -90z m37 38 c-3 -8 -6 -5 -6 6 -1 11 2 17 5 13
3 -3 4 -12 1 -19z m20 0 c-3 -8 -6 -5 -6 6 -1 11 2 17 5 13 3 -3 4 -12 1 -19z
m-20 -85 c-2 -16 -4 -5 -4 22 0 28 2 40 4 28 2 -13 2 -35 0 -50z m20 -15 c-3
-7 -5 -2 -5 12 0 14 2 19 5 13 2 -7 2 -19 0 -25z"/>
<path d="M4587 2243 c7 -78 13 -80 13 -5 0 34 -4 62 -9 62 -5 0 -7 -26 -4 -57z"/>
<path d="M4665 2291 c-3 -2 -5 -42 -5 -88 l0 -83 83 2 c45 0 67 3 50 5 l-33 4
1 72 c1 71 1 72 14 37 l13 -35 1 38 c1 20 5 37 11 37 5 0 7 -8 4 -17 -5 -17
-5 -17 9 -1 10 13 16 15 25 6 9 -9 12 -9 12 0 0 7 5 12 10 12 6 0 10 -33 10
-80 0 -58 4 -80 13 -80 8 0 11 14 8 46 -2 25 2 51 8 57 6 6 11 19 11 30 0 10
5 15 10 12 6 -3 10 0 10 8 0 8 -12 14 -32 16 -79 5 -229 6 -233 2z m52 -86 c2
-92 -11 -101 -15 -10 -3 54 1 85 11 85 1 0 3 -34 4 -75z m32 -17 c1 -26 -3
-50 -9 -53 -6 -4 -10 22 -9 72 1 84 16 69 18 -19z m-62 -50 c-3 -8 -6 -5 -6 6
-1 11 2 17 5 13 3 -3 4 -12 1 -19z"/>
<path d="M5363 2293 c-9 -3 -13 -32 -13 -94 l0 -89 105 0 c63 0 105 4 105 10
0 6 -6 10 -12 10 -10 0 -9 3 1 9 9 6 10 11 2 15 -6 4 -11 34 -11 67 0 38 4 58
10 54 6 -3 10 -1 10 4 0 7 -30 11 -77 12 -43 0 -85 2 -93 3 -8 2 -21 1 -27 -1z
m103 -83 c-4 -93 -16 -103 -16 -13 0 60 4 83 16 83 2 0 2 -32 0 -70z m55 -38
c-3 -18 -6 -20 -12 -10 -7 10 -9 10 -10 -2 -1 -8 -1 -19 0 -23 1 -5 -3 -6 -9
-2 -5 3 -10 32 -10 63 0 56 14 63 23 12 3 -15 5 -5 7 25 l3 50 6 -45 c3 -25 4
-56 2 -68z m-86 44 c0 -30 -3 -58 -7 -62 -5 -4 -8 20 -8 54 0 34 3 62 8 62 4
0 7 -24 7 -54z"/>
<path d="M5140 2205 c0 -61 4 -85 13 -86 72 -5 155 -6 170 -2 16 4 18 15 16
89 l-2 84 -98 0 -99 0 0 -85z m137 -30 c0 -8 -4 -12 -9 -9 -5 3 -6 10 -3 15 9
13 12 11 12 -6z"/>
<path d="M5610 2202 l0 -88 64 -1 64 -2 -5 82 c-4 57 -2 79 5 72 6 -5 13 -41
15 -80 l3 -70 2 73 c1 40 6 72 12 72 6 0 10 -6 10 -12 0 -9 3 -8 9 1 8 12 11
9 16 -12 8 -31 0 -61 -14 -53 -5 3 -7 -3 -4 -15 5 -16 8 -18 15 -7 7 9 8 4 5
-15 -2 -15 0 -30 4 -33 5 -3 9 36 9 85 l0 91 -105 0 -105 0 0 -88z m17 -9 c-2
-16 -4 -5 -4 22 0 28 2 40 4 28 2 -13 2 -35 0 -50z m63 0 c0 -79 -9 -79 -14 0
-3 49 -1 67 11 67 2 0 3 -30 3 -67z m30 -6 c0 -44 -3 -58 -10 -47 -13 20 -13
123 0 115 6 -3 10 -34 10 -68z m-63 11 c-2 -13 -4 -5 -4 17 -1 22 1 32 4 23 2
-10 2 -28 0 -40z m0 -50 c-3 -8 -6 -5 -6 6 -1 11 2 17 5 13 3 -3 4 -12 1 -19z"/>
<path d="M5831 2198 c1 -51 4 -82 6 -68 3 14 10 28 16 32 7 4 7 11 -2 22 -9
11 -10 20 -1 35 6 12 15 21 20 21 5 0 12 9 15 21 6 19 13 20 76 17 38 -2 69 0
69 5 0 4 -45 7 -100 7 l-100 0 1 -92z"/>
<path d="M4163 2235 c0 -22 2 -30 4 -17 2 12 2 30 0 40 -3 9 -5 -1 -4 -23z"/>
<path d="M5552 2235 c0 -16 2 -22 5 -12 2 9 2 23 0 30 -3 6 -5 -1 -5 -18z"/>
<path d="M6047 2233 c-3 -16 -1 -32 4 -37 5 -6 9 4 9 27 0 44 -6 48 -13 10z"/>
<path d="M5581 2194 c0 -11 3 -14 6 -6 3 7 2 16 -1 19 -3 4 -6 -2 -5 -13z"/>
<path d="M6040 2148 c0 -21 2 -38 4 -38 9 0 12 50 5 62 -6 8 -9 -1 -9 -24z"/>
<path d="M4585 2161 c-3 -5 -1 -12 5 -16 5 -3 10 1 10 9 0 18 -6 21 -15 7z"/>
<path d="M5582 2150 c0 -14 2 -19 5 -12 2 6 2 18 0 25 -3 6 -5 1 -5 -13z"/>
<path d="M4161 2054 c1 -38 4 -59 6 -46 2 12 9 22 15 22 5 0 8 -7 4 -15 -10
-26 3 -42 30 -37 13 2 24 6 24 8 0 2 -13 18 -30 36 -16 17 -30 36 -31 42 -5
73 -19 65 -18 -10z"/>
<path d="M5120 2100 c-5 -36 -7 -200 -2 -196 3 3 13 -3 22 -14 15 -17 19 -18
30 -5 16 19 3 37 -21 30 -11 -4 -19 -2 -19 5 0 6 12 10 28 8 41 -5 42 -40 1
-69 -28 -19 -32 -20 -26 -5 5 12 3 16 -5 14 -16 -6 -24 -98 -9 -98 6 0 11 -7
11 -16 0 -8 -4 -12 -10 -9 -5 3 -10 -3 -10 -14 0 -12 4 -21 9 -21 13 0 21 42
14 69 -4 16 -2 22 4 18 6 -4 23 17 38 48 16 30 36 62 47 71 25 23 23 35 -4 25
-13 -4 -39 -4 -58 1 -30 9 -32 11 -16 20 15 8 30 13 56 17 2 1 -6 8 -18 17
-25 17 -42 46 -53 89 -4 17 -8 23 -9 15z m17 -122 c-3 -7 -5 -2 -5 12 0 14 2
19 5 13 2 -7 2 -19 0 -25z"/>
<path d="M4210 2082 c14 -9 35 -27 47 -38 24 -25 33 -21 33 12 0 28 18 41 26
19 6 -14 7 -14 18 1 7 9 22 14 37 12 20 -2 24 -8 22 -31 -2 -24 1 -28 15 -21
88 38 132 47 222 47 108 0 164 -16 248 -70 107 -68 169 -159 203 -296 l17 -72
1 108 c1 60 -3 107 -8 107 -5 0 -12 -8 -14 -17 -4 -17 -5 -17 -6 0 0 9 -7 17
-15 17 -25 0 -41 29 -28 51 16 25 16 24 -15 27 -37 3 -73 39 -73 74 0 25 -2
27 -19 17 -10 -7 -26 -9 -35 -6 -21 8 -21 53 2 66 12 7 -94 10 -343 10 -342 0
-359 -1 -335 -17z m879 -312 c0 -10 -3 -8 -9 5 -12 27 -12 43 0 25 5 -8 9 -22
9 -30z"/>
<path d="M4923 2076 c9 -19 14 -22 20 -10 13 22 25 17 32 -15 l6 -30 46 35
c24 19 49 32 54 28 11 -7 -12 -53 -41 -79 -20 -18 -20 -20 -3 -26 33 -13 43
-9 43 17 0 14 4 23 9 20 5 -3 9 14 9 38 l1 43 -94 2 -94 2 12 -25z"/>
<path d="M5140 2089 c0 -5 4 -9 10 -9 5 0 28 -16 49 -36 l40 -35 3 32 c3 33
28 54 28 24 0 -14 3 -13 18 5 14 17 24 21 41 15 19 -6 22 -12 17 -35 l-5 -29
52 25 c29 13 74 27 100 30 26 4 45 9 42 12 -10 11 -395 11 -395 1z"/>
<path d="M5630 2088 c0 -5 9 -8 21 -8 43 0 129 -32 188 -70 102 -66 179 -185
201 -310 6 -35 8 -18 9 74 1 101 -1 117 -12 102 -7 -10 -22 -17 -33 -14 -23 4
-32 47 -12 59 9 6 4 9 -15 9 -35 0 -87 49 -87 80 0 18 -3 20 -14 11 -11 -9
-20 -10 -35 -1 -25 13 -29 60 -6 60 8 0 15 3 15 8 0 4 -49 7 -110 7 -60 0
-110 -3 -110 -7z m407 -310 c-3 -7 -5 -2 -5 12 0 14 2 19 5 13 2 -7 2 -19 0
-25z"/>
<path d="M5860 2093 c0 -2 9 -12 20 -23 16 -16 20 -17 20 -5 0 8 4 15 9 15 11
0 21 -25 21 -53 0 -20 1 -20 28 5 15 14 38 31 50 38 13 6 21 14 18 17 -5 5
-166 11 -166 6z"/>
<path d="M6037 2071 c-4 -16 -20 -45 -38 -65 -31 -36 -31 -36 -8 -36 34 0 47
-11 52 -45 2 -17 5 16 6 73 1 105 -2 124 -12 73z"/>
<path d="M4345 2071 c-8 -15 3 -31 21 -31 9 0 14 7 12 17 -4 20 -24 28 -33 14z"/>
<path d="M4887 2073 c-11 -10 -8 -35 3 -28 6 3 10 1 10 -6 0 -10 3 -10 11 -2
7 7 9 19 6 27 -7 17 -19 21 -30 9z"/>
<path d="M4560 2063 c-70 -12 -160 -50 -205 -87 l-30 -25 46 -47 46 -46 64 30
c35 17 81 33 102 37 l37 7 0 69 c0 74 2 72 -60 62z m47 -65 c-3 -7 -5 -2 -5
12 0 14 2 19 5 13 2 -7 2 -19 0 -25z m-23 -11 c4 -19 3 -26 -4 -22 -5 3 -10
18 -10 32 0 32 5 28 14 -10z m-95 -14 c-2 -32 -3 -33 -6 -10 -3 20 -9 27 -19
23 -8 -3 -14 -1 -14 4 0 5 8 11 18 13 9 3 18 5 20 6 1 0 1 -16 1 -36z m118
-25 c-3 -7 -5 -2 -5 12 0 14 2 19 5 13 2 -7 2 -19 0 -25z m-145 -20 c-3 -13
-7 -16 -12 -8 -4 7 -5 21 -2 32 3 13 7 16 12 8 4 -7 5 -21 2 -32z"/>
<path d="M4638 2063 c-6 -16 -3 -133 4 -134 4 -1 28 -5 54 -10 25 -5 66 -23
91 -40 l46 -31 50 50 c57 57 56 59 -23 104 -69 39 -214 79 -222 61z m259 -118
c0 -8 -4 -12 -9 -9 -5 3 -6 10 -3 15 9 13 12 11 12 -6z"/>
<path d="M5297 2064 c-9 -9 4 -34 18 -34 14 0 27 25 18 34 -4 3 -12 6 -18 6
-6 0 -14 -3 -18 -6z"/>
<path d="M5460 2049 c-41 -11 -76 -24 -78 -29 -2 -6 -7 -10 -12 -10 -12 0 -90
-52 -90 -60 0 -4 22 -28 49 -53 l49 -46 66 32 c53 26 65 36 65 57 1 19 4 21
10 11 5 -8 7 -20 4 -26 -3 -9 4 -11 21 -8 25 5 26 8 26 79 0 86 5 83 -110 53z
m10 -110 c0 -17 -3 -19 -13 -10 -8 6 -18 7 -22 3 -5 -4 -5 -1 -1 6 4 7 12 10
17 7 5 -4 9 -1 9 4 0 6 2 11 5 11 3 0 5 -10 5 -21z m87 -1 c-3 -8 -6 -5 -6 6
-1 11 2 17 5 13 3 -3 4 -12 1 -19z"/>
<path d="M5597 2064 c-4 -4 -7 -38 -7 -76 0 -51 3 -68 14 -68 7 0 27 -3 44 -6
l31 -6 4 53 3 54 2 -57 c3 -80 22 -86 22 -7 0 77 8 74 11 -4 2 -52 5 -60 31
-75 15 -9 28 -20 28 -25 0 -5 18 9 40 30 26 24 39 44 36 55 -2 10 0 21 5 24 5
3 9 -5 9 -18 0 -18 2 -20 10 -8 10 16 -6 44 -20 35 -5 -3 -11 1 -14 7 -3 7 -5
0 -5 -17 2 -45 0 -55 -9 -55 -4 0 -6 20 -4 44 3 37 0 46 -20 60 l-23 17 -6
-78 -5 -78 -2 82 c-2 72 -4 82 -22 88 -11 3 -25 3 -31 -1 -7 -4 -9 -3 -6 3 4
7 -8 14 -31 18 -20 3 -46 9 -57 11 -11 3 -24 2 -28 -2z m60 -76 c-3 -7 -5 -2
-5 12 0 14 2 19 5 13 2 -7 2 -19 0 -25z m90 -70 c-2 -18 -4 -4 -4 32 0 36 2
50 4 33 2 -18 2 -48 0 -65z m60 -15 c-2 -16 -4 -5 -4 22 0 28 2 40 4 28 2 -13
2 -35 0 -50z"/>
<path d="M5834 2059 c-8 -14 11 -33 25 -25 16 10 13 36 -3 36 -8 0 -18 -5 -22
-11z"/>
<path d="M4320 2019 c0 -19 -6 -41 -12 -49 -7 -7 5 0 27 15 54 39 65 50 41 41
-12 -4 -26 0 -37 10 -18 16 -19 16 -19 -17z"/>
<path d="M5284 2028 c2 -7 -1 -21 -6 -30 -8 -16 -6 -17 17 -6 27 12 33 28 11
28 -8 0 -17 5 -19 10 -3 6 -4 5 -3 -2z"/>
<path d="M4162 1820 c2 -160 2 -162 8 -55 4 84 7 98 10 60 l5 -50 15 30 c8 17
29 54 47 83 18 29 33 54 33 55 0 2 -13 2 -29 -1 -26 -4 -28 -6 -18 -23 16 -25
-11 -54 -42 -44 -31 10 -30 65 2 65 21 1 21 1 2 12 -11 6 -23 16 -27 22 -4 6
-7 -63 -6 -154z"/>
<path d="M5078 1948 c-19 -19 -13 -24 11 -9 7 5 12 13 10 18 -2 5 -12 1 -21
-9z"/>
<path d="M4278 1898 c-50 -62 -83 -144 -90 -218 l-3 -35 48 -3 c52 -3 51 -4
38 31 -12 30 5 42 32 22 21 -15 23 -39 2 -31 -9 3 -15 0 -15 -9 0 -8 9 -15 20
-15 14 0 20 7 20 22 0 33 30 108 58 147 l25 33 -50 50 -50 50 -35 -44z"/>
<path d="M4925 1912 c-11 -10 -33 -32 -49 -49 l-28 -31 25 -34 c14 -18 31 -56
38 -83 6 -28 13 -56 15 -62 2 -9 26 -13 74 -13 l70 0 0 35 c0 49 -40 152 -80
207 -19 26 -37 47 -40 47 -3 0 -14 -8 -25 -17z m32 -159 c-3 -10 -5 -2 -5 17
0 19 2 27 5 18 2 -10 2 -26 0 -35z m-30 -10 c-3 -10 -5 -2 -5 17 0 19 2 27 5
18 2 -10 2 -26 0 -35z m63 -3 c0 -22 -3 -40 -8 -40 -4 0 -6 18 -4 40 2 22 6
40 8 40 2 0 4 -18 4 -40z m30 -23 c0 -10 -4 -15 -10 -12 -5 3 -10 18 -10 33 0
21 2 24 10 12 5 -8 10 -23 10 -33z m-63 -15 c0 -10 -7 -19 -14 -19 -16 0 -16
4 0 22 16 18 16 18 14 -3z m30 -44 c-3 -7 -5 -2 -5 12 0 14 2 19 5 13 2 -7 2
-19 0 -25z"/>
<path d="M5088 1900 c-3 -16 -1 -30 4 -30 4 0 8 14 8 30 0 17 -2 30 -4 30 -2
0 -6 -13 -8 -30z"/>
<path d="M5215 1875 c-42 -62 -75 -150 -75 -202 l0 -33 70 0 c77 0 74 -4 72
75 -1 31 1 36 8 20 6 -15 9 -16 9 -4 1 9 15 35 31 57 17 23 30 45 30 50 0 10
-87 92 -98 92 -5 0 -26 -25 -47 -55z m127 -58 c-2 -5 -12 -1 -21 7 -10 9 -20
13 -24 10 -3 -3 -3 3 0 14 5 19 5 19 27 -2 12 -11 20 -25 18 -29z m-87 -7 c3
-5 1 -10 -4 -10 -6 0 -11 5 -11 10 0 6 2 10 4 10 3 0 8 -4 11 -10z m65 -18 c0
-15 -2 -15 -10 -2 -13 20 -13 33 0 25 6 -3 10 -14 10 -23z"/>
<path d="M5852 1877 c-52 -53 -52 -53 -33 -71 11 -10 23 -28 27 -39 5 -16 8
-17 16 -6 8 11 9 10 4 -3 -3 -10 0 -40 7 -68 l12 -50 50 1 c27 1 43 3 34 6
-21 5 -26 38 -18 133 l5 75 2 -97 c2 -112 19 -133 25 -30 l3 67 2 -77 c2 -65
5 -78 18 -78 14 0 16 9 12 53 -5 56 -55 180 -69 171 -5 -3 -6 1 -4 8 3 8 -5
24 -18 36 l-23 22 -52 -53z m46 -49 l-1 -73 -7 65 c-6 67 -17 65 -23 -5 l-4
-40 -1 44 c-1 29 4 51 15 63 9 10 18 18 20 18 1 0 2 -33 1 -72z m30 47 c-3 -3
-9 2 -12 12 -6 14 -5 15 5 6 7 -7 10 -15 7 -18z m-3 -25 c-3 -5 -3 -10 2 -10
4 0 6 -33 3 -72 l-5 -73 -5 75 c-5 74 -4 90 6 90 3 0 2 -4 -1 -10z m-88 -22
c-3 -8 -6 -5 -6 6 -1 11 2 17 5 13 3 -3 4 -12 1 -19z m65 -153 c-2 -14 -6 -25
-8 -25 -2 0 -4 11 -4 25 0 14 4 25 9 25 4 0 6 -11 3 -25z m25 -17 c-3 -7 -5
-2 -5 12 0 14 2 19 5 13 2 -7 2 -19 0 -25z"/>
<path d="M4184 1909 c-9 -16 18 -30 33 -17 7 6 10 14 7 19 -7 13 -31 11 -40
-2z"/>
<path d="M5037 1906 c-7 -17 22 -31 36 -17 5 5 6 14 3 20 -10 16 -33 14 -39
-3z"/>
<path d="M5992 1893 c2 -10 10 -18 18 -18 8 0 16 8 18 18 2 12 -3 17 -18 17
-15 0 -20 -5 -18 -17z"/>
<path d="M4538 1886 c-44 -16 -88 -43 -88 -54 0 -4 21 -29 48 -54 43 -43 49
-46 66 -32 11 8 28 14 38 14 16 0 18 9 18 70 0 66 -1 70 -22 70 -13 -1 -40 -7
-60 -14z m22 -97 c0 -5 -4 -9 -10 -9 -5 0 -10 7 -10 16 0 8 5 12 10 9 6 -3 10
-10 10 -16z"/>
<path d="M4637 1893 c-3 -5 -6 -37 -6 -71 1 -52 3 -62 18 -62 9 0 27 -7 39
-16 22 -15 22 -15 22 28 0 30 3 39 9 28 6 -8 7 -19 4 -25 -3 -5 0 -5 7 2 7 7
11 27 8 53 -3 33 -1 38 8 25 13 -17 12 -63 -1 -86 -5 -8 1 -6 13 5 12 10 18
24 15 30 -4 6 -6 21 -5 33 2 15 -5 26 -25 37 -38 19 -99 30 -106 19z m86 -36
c3 -8 1 -20 -4 -28 -6 -10 -9 -7 -9 14 0 29 5 35 13 14z m-25 -62 c0 -14 -4
-25 -9 -25 -5 0 -9 11 -9 25 0 14 4 25 9 25 5 0 9 -11 9 -25z"/>
<path d="M5559 1896 c-2 -2 -20 -6 -40 -9 -36 -4 -119 -44 -119 -57 0 -10 54
-55 63 -52 5 1 6 -2 3 -6 -3 -5 2 -16 12 -25 14 -13 23 -14 55 -4 l37 12 0 72
c0 70 -1 78 -11 69z m-89 -82 c0 -8 -4 -12 -10 -9 -5 3 -10 10 -10 16 0 5 5 9
10 9 6 0 10 -7 10 -16z m90 -19 c0 -19 -4 -35 -8 -35 -4 0 -6 16 -4 35 2 19 6
35 8 35 2 0 4 -16 4 -35z m-49 -4 c8 12 10 12 18 0 10 -16 4 -41 -10 -41 -5 0
-9 6 -9 13 0 8 -4 7 -10 -3 -7 -11 -10 -8 -9 15 0 17 3 24 6 16 5 -11 7 -11
14 0z"/>
<path d="M5590 1820 c0 -38 3 -69 8 -68 4 2 22 -3 40 -11 29 -12 35 -12 52 4
11 10 20 24 20 32 0 8 4 12 9 9 4 -3 16 3 26 14 17 19 17 21 0 40 -10 11 -22
17 -26 14 -5 -3 -9 -1 -9 4 0 13 -55 32 -91 32 l-29 0 0 -70z m77 -12 c-2 -13
-4 -5 -4 17 -1 22 1 32 4 23 2 -10 2 -28 0 -40z m31 27 c-3 -3 -9 2 -12 12 -6
14 -5 15 5 6 7 -7 10 -15 7 -18z m32 1 c0 -3 -4 -8 -10 -11 -5 -3 -10 -1 -10
4 0 6 5 11 10 11 6 0 10 -2 10 -4z m-93 -43 c-3 -10 -5 -4 -5 12 0 17 2 24 5
18 2 -7 2 -21 0 -30z m61 2 c-3 -3 -9 2 -12 12 -6 14 -5 15 5 6 7 -7 10 -15 7
-18z"/>
<path d="M4787 1833 c-10 -10 -8 -23 4 -23 5 0 8 4 5 9 -4 5 0 12 6 14 7 3 8
6 2 6 -6 1 -14 -2 -17 -6z"/>
<path d="M4396 1778 c-21 -37 -46 -107 -46 -130 0 -5 34 -8 75 -8 65 0 75 2
75 18 0 10 7 28 16 40 15 21 13 24 -32 72 -26 28 -51 50 -55 50 -5 0 -19 -19
-33 -42z"/>
<path d="M4776 1765 c-45 -43 -66 -83 -28 -54 15 12 16 12 4 -2 -9 -12 -10
-24 -2 -43 9 -24 14 -26 69 -26 80 0 91 14 66 83 -18 51 -41 87 -56 87 -4 0
-28 -20 -53 -45z m84 -60 c7 18 8 18 15 -8 7 -28 -4 -54 -12 -29 -3 6 -9 12
-14 12 -6 0 -7 -4 -4 -10 3 -5 1 -10 -4 -10 -6 0 -11 17 -10 38 0 35 1 36 11
12 10 -24 10 -24 18 -5z"/>
<path d="M5357 1787 c-24 -37 -47 -97 -47 -123 0 -23 3 -24 68 -24 l67 1 18
39 18 39 -47 46 c-26 25 -51 45 -55 45 -4 0 -14 -11 -22 -23z"/>
<path d="M5731 1759 c-39 -36 -51 -52 -43 -61 5 -7 11 -21 13 -32 3 -13 14
-19 44 -21 22 -2 45 -4 50 -5 6 -1 20 -2 33 -1 18 1 22 7 22 34 0 36 -29 106
-51 124 -11 9 -25 2 -68 -38z m83 -50 c1 -17 -2 -33 -6 -36 -5 -2 -8 15 -8 38
0 48 13 46 14 -2z m-55 -42 c1 -5 -3 -5 -9 -2 -5 3 -10 16 -9 28 0 21 1 21 9
2 5 -11 9 -24 9 -28z m81 13 c0 -16 -2 -30 -4 -30 -2 0 -6 14 -8 30 -3 17 -1
30 4 30 4 0 8 -13 8 -30z m-58 -12 c-9 -9 -12 -7 -12 12 0 19 3 21 12 12 9 -9
9 -15 0 -24z"/>
<path d="M6632 1729 c-35 -14 -73 -41 -118 -85 -57 -57 -64 -67 -52 -81 9 -11
9 -14 1 -10 -17 10 -40 -48 -37 -90 1 -18 -2 -33 -7 -33 -5 0 -9 -104 -9 -240
l0 -240 126 0 c96 0 125 3 121 13 -2 6 -10 11 -16 9 -6 -1 -11 2 -11 8 0 12
-22 9 -32 -5 -4 -5 -8 1 -8 14 0 19 3 21 14 12 10 -9 16 -9 21 -1 4 6 4 14 1
17 -3 4 -6 1 -6 -7 0 -10 -3 -10 -15 0 -10 8 -13 20 -9 34 6 18 5 19 -10 7
-18 -15 -21 -8 -6 20 7 11 7 19 1 19 -5 0 -11 -6 -14 -12 -3 -8 -9 -3 -15 12
-6 15 -6 32 -1 42 6 11 5 19 -3 24 -7 4 -10 3 -5 -1 4 -5 0 -17 -10 -27 -9
-11 -11 -18 -5 -18 7 0 12 -7 12 -15 0 -19 -7 -19 -26 0 -20 19 -35 19 -28 0
4 -8 2 -15 -4 -15 -5 0 -13 7 -16 16 -9 22 -8 24 11 24 9 0 13 3 10 7 -4 3 -1
13 6 21 10 13 9 15 -5 9 -18 -6 -44 24 -31 37 3 3 0 6 -7 6 -11 0 -11 3 -2 12
7 7 12 17 12 22 0 6 -4 4 -10 -4 -7 -12 -10 -12 -16 4 -9 25 7 50 36 54 18 3
21 0 16 -13 -5 -15 -1 -16 26 -12 32 5 34 3 60 -48 26 -53 26 -54 7 -71 -10
-9 -19 -22 -19 -27 0 -6 11 0 25 13 14 13 26 22 28 19 22 -29 32 -61 32 -96 0
-26 4 -38 10 -32 5 5 19 9 32 9 18 0 23 -6 23 -25 0 -24 -9 -29 -37 -26 -7 1
-10 -5 -7 -13 5 -12 43 -14 231 -15 l225 0 -6 72 c-9 112 -9 112 -34 110 -24
-3 -28 7 -10 25 7 7 9 12 5 12 -11 0 -47 -43 -47 -57 0 -8 5 -11 10 -8 6 4 8
11 5 16 -4 5 -2 9 4 9 5 0 13 -5 17 -11 4 -8 9 -7 16 2 7 10 8 6 5 -13 -2 -15
0 -25 4 -22 5 3 9 1 9 -4 0 -5 -17 -9 -37 -8 -32 1 -38 -2 -38 -19 0 -15 -6
-19 -22 -18 -14 2 -23 -3 -23 -12 0 -20 -20 -29 -33 -16 -17 17 -25 13 -20
-12 4 -19 0 -22 -26 -23 -30 -2 -31 -1 -29 47 0 37 4 47 13 39 6 -5 15 -7 19
-3 4 4 4 -1 0 -12 -4 -11 -3 -17 1 -12 5 4 19 0 32 -8 25 -17 30 -7 13 25 -8
16 -7 18 4 14 8 -3 17 1 22 8 4 7 4 10 -1 6 -5 -5 -15 1 -22 12 -11 16 -12 24
-3 35 19 22 48 -2 46 -38 -1 -19 5 -32 14 -35 12 -4 13 -2 3 9 -15 15 -17 43
-3 34 20 -13 9 23 -11 37 -20 13 -20 15 -5 30 9 9 16 21 16 27 0 23 73 -2 91
-31 7 -10 9 -9 9 5 0 11 -14 23 -40 33 -42 17 -45 21 -31 42 13 22 46 10 45
-16 -1 -29 12 -28 20 1 7 26 7 67 -1 50 -6 -16 -53 -17 -53 -3 0 6 6 10 13 8
6 -1 22 2 35 6 19 6 22 14 22 57 0 27 -4 49 -10 49 -5 0 -7 7 -4 15 5 13 2 14
-21 5 -33 -13 -35 -12 -35 1 0 6 -7 17 -15 26 -8 8 -13 19 -10 24 4 5 1 9 -5
9 -6 0 -9 4 -6 9 3 5 -3 11 -14 14 -24 6 -62 67 -53 87 3 8 6 28 5 44 -2 39
10 25 13 -16 3 -34 4 -35 64 -37 25 -1 32 -5 28 -15 -4 -10 -1 -13 9 -9 7 3
14 9 14 15 0 13 -47 58 -60 58 -6 0 -8 5 -5 10 7 12 -5 25 -61 63 -85 57 -225
73 -322 36z m224 -22 c4 -4 -7 -7 -25 -7 -24 0 -34 -5 -38 -19 -3 -10 -16 -21
-29 -24 -18 -3 -24 -1 -20 9 7 17 -21 33 -47 26 -14 -3 -18 -1 -13 7 4 6 11 9
15 7 4 -3 13 -1 21 4 17 11 125 8 136 -3z m74 -17 c0 -13 -11 -13 -30 0 -12 8
-11 10 8 10 12 0 22 -4 22 -10z m-284 -75 c-2 -82 -8 -95 -31 -72 -23 24 -20
40 6 26 17 -9 20 -8 13 2 -12 21 -4 119 10 119 2 0 3 -34 2 -75z m229 55 c4
-6 -10 -10 -34 -10 -23 0 -41 5 -41 10 0 6 15 10 34 10 19 0 38 -4 41 -10z
m-315 -15 c-7 -9 -15 -13 -19 -10 -3 3 1 10 9 15 21 14 24 12 10 -5z m170 5
c0 -13 -11 -13 -30 0 -12 8 -11 10 8 10 12 0 22 -4 22 -10z m200 -6 c0 -2 -7
-4 -15 -4 -8 0 -15 4 -15 10 0 5 7 7 15 4 8 -4 15 -8 15 -10z m-344 -21 c-4
-9 -1 -21 6 -26 9 -6 8 -7 -5 -3 -10 3 -26 6 -34 6 -12 0 -10 5 7 20 28 24 34
25 26 3z m-61 -83 c-6 -9 -9 -9 -16 1 -10 17 0 34 13 21 6 -6 7 -16 3 -22z
m72 -2 c19 -27 20 -33 7 -46 -23 -22 -11 -37 32 -38 21 -1 50 -5 64 -9 17 -5
21 -4 12 3 -10 7 -6 9 15 9 63 1 93 7 93 18 0 9 8 9 35 1 34 -11 45 -29 25
-41 -5 -3 -10 -1 -10 6 0 10 -3 10 -11 2 -9 -9 -9 -19 0 -40 15 -37 12 -112
-6 -141 -8 -13 -12 -26 -9 -29 7 -7 -14 -27 -36 -36 -15 -5 -18 -19 -18 -80
l0 -74 -47 0 c-27 0 -51 5 -55 11 -6 8 -8 7 -8 -1 0 -7 -4 -13 -10 -13 -6 0
-10 35 -10 86 l0 86 -42 -4 c-59 -4 -60 16 -3 77 42 46 45 54 43 95 l-3 45
-37 -1 c-21 -1 -38 3 -38 9 0 6 -7 2 -15 -9 -10 -13 -17 -15 -22 -8 -9 13 -43
15 -43 2 0 -5 13 -11 30 -14 16 -4 28 -10 25 -14 -7 -11 -95 -9 -95 2 0 6 8 7
18 4 16 -6 16 -5 0 7 -10 8 -15 17 -11 21 4 4 0 4 -10 0 -13 -5 -17 -1 -17 16
0 17 4 21 20 17 13 -3 20 0 20 9 0 8 7 14 16 14 10 0 14 6 11 14 -7 17 18 40
32 31 7 -4 8 0 4 10 -5 15 11 35 27 35 3 0 15 -14 27 -32z m300 -10 c-6 -4
-15 -4 -19 -2 -4 3 -8 0 -8 -7 0 -7 -2 -10 -5 -7 -3 3 0 17 6 32 11 23 13 24
25 8 9 -12 9 -19 1 -24z m-393 4 c2 -4 -4 -13 -15 -20 -15 -10 -19 -10 -19 1
0 24 23 36 34 19z m488 -94 c19 -13 23 -25 26 -89 4 -95 -17 -142 -65 -147
-46 -5 -66 31 -67 116 -1 37 2 83 7 103 7 32 10 35 41 34 19 -1 45 -9 58 -17z
m-542 -43 c0 -8 -4 -15 -10 -15 -5 0 -10 7 -10 15 0 8 5 15 10 15 6 0 10 -7
10 -15z m4 -251 c5 -14 4 -15 -9 -4 -17 14 -19 20 -6 20 5 0 12 -7 15 -16z
m402 -98 c10 -42 0 -78 -23 -87 -22 -8 -23 -6 -23 49 0 51 2 58 20 59 13 1 22
-6 26 -21z m-58 -62 c1 -13 -2 -24 -6 -25 -4 0 -15 -2 -26 -4 -31 -6 -46 6
-46 35 0 49 74 43 78 -6z m182 -14 c0 -5 -5 -10 -11 -10 -5 0 -7 5 -4 10 3 6
8 10 11 10 2 0 4 -4 4 -10z"/>
<path d="M6531 1493 c-1 -7 8 -17 19 -23 16 -9 18 -8 14 5 -3 8 -10 13 -14 10
-5 -3 -11 1 -13 7 -4 10 -6 10 -6 1z"/>
<path d="M6831 1464 c0 -11 3 -14 6 -6 3 7 2 16 -1 19 -3 4 -6 -2 -5 -13z"/>
<path d="M6790 1335 c0 -93 9 -115 30 -76 23 43 8 171 -20 171 -6 0 -10 -41
-10 -95z"/>
<path d="M6630 1271 c-14 -27 -13 -31 10 -31 15 0 20 7 20 25 0 30 -15 33 -30
6z"/>
<path d="M6928 1423 c-18 -22 -23 -130 -8 -159 17 -31 44 -31 58 1 13 27 16
105 6 142 -7 26 -39 36 -56 16z"/>
<path d="M6974 1729 c-4 -7 -3 -9 4 -5 5 3 13 0 15 -6 4 -9 6 -10 6 -1 1 17
-16 25 -25 12z"/>
<path d="M4574 1719 c-3 -6 5 -23 20 -37 l26 -27 0 38 c0 30 -4 37 -19 37 -11
0 -23 -5 -27 -11z"/>
<path d="M4638 1723 c-4 -23 -3 -63 2 -63 14 0 52 49 45 59 -7 12 -44 15 -47
4z"/>
<path d="M5530 1720 c-13 -8 -11 -14 13 -37 l27 -28 0 38 c0 38 -11 46 -40 27z"/>
<path d="M5590 1687 c0 -39 0 -40 20 -22 11 10 17 22 13 28 -3 5 -1 7 5 3 15
-9 24 10 9 22 -6 5 -20 9 -29 9 -14 0 -18 -9 -18 -40z"/>
<path d="M4530 1674 c-14 -35 -15 -34 30 -34 46 0 49 8 17 38 -30 28 -35 28
-47 -4z"/>
<path d="M5110 1680 c0 -11 2 -20 4 -20 2 0 6 9 9 20 3 11 1 20 -4 20 -5 0 -9
-9 -9 -20z"/>
<path d="M4677 1672 c-24 -27 -21 -32 18 -32 35 0 40 5 29 34 -8 21 -27 20
-47 -2z"/>
<path d="M5482 1665 c-11 -25 -11 -25 33 -25 l44 0 -25 25 c-14 14 -28 25 -33
25 -4 0 -13 -11 -19 -25z"/>
<path d="M5630 1665 c-13 -14 -19 -25 -14 -26 5 0 18 -2 29 -4 33 -7 49 9 36
34 -15 27 -22 27 -51 -4z"/>
<path d="M4680 1610 c0 -5 -6 -10 -14 -10 -22 0 -26 -24 -26 -176 l0 -144 45
0 45 0 0 160 c0 136 -2 160 -15 160 -8 0 -15 5 -15 10 0 6 -4 10 -10 10 -5 0
-10 -4 -10 -10z m28 -175 l1 -145 -30 0 -31 0 3 83 c3 103 12 129 20 57 5 -47
6 -42 7 38 1 56 -2 92 -8 92 -17 0 -11 18 8 23 9 2 20 2 23 0 4 -1 7 -68 7
-148z"/>
<path d="M5670 1609 l-65 -6 58 -1 c31 -1 57 -6 57 -12 0 -5 -6 -10 -12 -10
-10 0 -10 -2 -1 -8 8 -5 13 -44 15 -112 3 -99 4 -105 27 -117 14 -6 29 -10 33
-7 10 6 10 245 0 260 -11 16 -40 20 -112 13z"/>
<path d="M4295 1601 l-31 -6 -2 -157 -2 -158 35 0 35 0 0 165 c0 91 -1 164 -2
164 -2 -1 -17 -4 -33 -8z m12 -133 c-3 -7 -5 -2 -5 12 0 14 2 19 5 13 2 -7 2
-19 0 -25z m0 -70 c-2 -13 -4 -5 -4 17 -1 22 1 32 4 23 2 -10 2 -28 0 -40z m0
-60 c-3 -7 -5 -2 -5 12 0 14 2 19 5 13 2 -7 2 -19 0 -25z"/>
<path d="M5572 1453 l2 -158 5 145 c3 80 10 151 14 158 5 8 3 12 -7 12 -14 0
-16 -21 -14 -157z"/>
<path d="M5800 1471 c0 -141 3 -151 39 -151 4 0 9 65 10 145 l2 145 -25 0 -26
0 0 -139z"/>
<path d="M5860 1458 c0 -141 1 -148 20 -148 19 0 20 7 20 149 0 144 -1 150
-20 148 -19 -1 -20 -8 -20 -149z m17 -70 c-2 -13 -4 -5 -4 17 -1 22 1 32 4 23
2 -10 2 -28 0 -40z"/>
<path d="M6061 1594 c0 -11 3 -14 6 -6 3 7 2 16 -1 19 -3 4 -6 -2 -5 -13z"/>
<path d="M4210 1575 c0 -16 -6 -25 -15 -25 -13 0 -15 -22 -15 -136 l0 -135 33
3 32 3 3 158 c2 152 2 157 -18 157 -15 0 -20 -7 -20 -25z"/>
<path d="M4350 1440 l0 -160 35 0 35 0 0 160 0 160 -35 0 -35 0 0 -160z m31
90 c-3 -10 -8 -4 -11 15 -4 17 -4 34 -1 40 7 14 19 -37 12 -55z m-4 -162 c-2
-13 -4 -5 -4 17 -1 22 1 32 4 23 2 -10 2 -28 0 -40z m0 -70 c-3 -8 -6 -5 -6 6
-1 11 2 17 5 13 3 -3 4 -12 1 -19z"/>
<path d="M4430 1440 l0 -160 35 0 35 0 0 160 0 160 -35 0 -35 0 0 -160z m49
53 c-1 -67 -4 -88 -9 -68 -4 17 -9 26 -10 20 -2 -5 -6 8 -9 30 -4 26 -1 53 9
77 8 21 16 38 18 38 1 0 1 -44 1 -97z m-2 -165 c-3 -7 -5 -2 -5 12 0 14 2 19
5 13 2 -7 2 -19 0 -25z"/>
<path d="M4462 1520 c0 -14 2 -19 5 -12 2 6 2 18 0 25 -3 6 -5 1 -5 -13z"/>
<path d="M4520 1440 l0 -160 45 0 45 0 0 160 0 160 -45 0 -45 0 0 -160z m30
90 c0 -6 8 -10 18 -8 15 3 17 -9 19 -117 1 -66 -1 -111 -4 -100 -3 11 -13 29
-23 40 -13 15 -19 42 -23 108 -2 48 -1 87 4 87 5 0 9 -5 9 -10z"/>
<path d="M4562 1490 c0 -14 2 -19 5 -12 2 6 2 18 0 25 -3 6 -5 1 -5 -13z"/>
<path d="M4556 1451 c-4 -7 -5 -15 -2 -18 9 -9 19 4 14 18 -4 11 -6 11 -12 0z"/>
<path d="M4756 1584 c-8 -22 -8 -239 1 -230 4 3 6 24 5 46 -2 22 1 40 6 40 5
0 7 31 4 70 -4 60 -2 70 12 70 14 0 16 -18 16 -150 0 -93 4 -150 10 -150 6 0
10 60 10 160 l0 160 -29 0 c-17 0 -31 -6 -35 -16z"/>
<path d="M4840 1560 c0 -41 7 -49 28 -28 9 9 12 -17 12 -120 0 -81 4 -132 10
-132 6 0 10 60 10 160 l0 160 -30 0 c-28 0 -30 -2 -30 -40z"/>
<path d="M4929 1578 c0 -13 -2 -61 -4 -108 -2 -54 -1 -76 5 -60 7 22 8 20 9
-15 0 -29 -2 -36 -9 -25 -7 11 -10 0 -10 -37 l0 -53 35 0 35 0 0 160 0 160
-30 0 c-24 0 -30 -4 -31 -22z m38 -200 c-2 -18 -4 -6 -4 27 0 33 2 48 4 33 2
-15 2 -42 0 -60z m0 -70 c-3 -8 -6 -5 -6 6 -1 11 2 17 5 13 3 -3 4 -12 1 -19z"/>
<path d="M5008 1584 c-2 -9 -2 -81 0 -160 l3 -144 30 0 29 0 0 129 c0 105 -3
130 -15 135 -8 3 -15 17 -15 31 0 28 -26 35 -32 9z m42 -120 c0 -8 -4 -13 -9
-10 -10 6 -6 -108 4 -143 6 -18 5 -23 -6 -19 -18 6 -25 153 -8 174 15 18 19
18 19 -2z"/>
<path d="M5160 1571 c0 -21 -5 -31 -15 -31 -13 0 -15 -21 -15 -130 l0 -130 30
0 30 0 1 118 c1 64 2 135 3 157 1 30 -3 40 -16 43 -14 3 -18 -3 -18 -27z"/>
<path d="M5217 1594 c-4 -4 -7 -76 -7 -161 l0 -153 35 0 36 0 -3 158 -3 157
-25 3 c-14 2 -29 0 -33 -4z m20 -276 c-3 -7 -5 -2 -5 12 0 14 2 19 5 13 2 -7
2 -19 0 -25z"/>
<path d="M5300 1442 l0 -160 29 -4 28 -4 6 85 c3 47 4 120 4 161 l-2 75 -32 3
-33 3 0 -159z m27 -139 c-3 -10 -5 -4 -5 12 0 17 2 24 5 18 2 -7 2 -21 0 -30z"/>
<path d="M5385 1588 c-3 -8 -4 -81 -3 -163 l3 -150 30 0 30 1 0 159 0 160 -28
3 c-16 2 -29 -2 -32 -10z"/>
<path d="M5474 1591 c-2 -2 -4 -76 -4 -163 l0 -158 45 0 45 0 0 165 0 165 -41
-3 c-22 -1 -43 -4 -45 -6z"/>
<path d="M5922 1448 c3 -136 5 -153 21 -156 16 -3 17 9 17 152 0 150 -1 156
-20 156 -20 0 -20 -5 -18 -152z m15 80 c-3 -8 -6 -5 -6 6 -1 11 2 17 5 13 3
-3 4 -12 1 -19z m0 -115 c-3 -10 -5 -4 -5 12 0 17 2 24 5 18 2 -7 2 -21 0 -30z
m0 -90 c-2 -16 -4 -5 -4 22 0 28 2 40 4 28 2 -13 2 -35 0 -50z"/>
<path d="M5970 1445 c0 -140 2 -155 19 -164 10 -6 21 -7 25 -4 3 3 6 75 6 159
0 156 -2 164 -41 164 -5 0 -9 -67 -9 -155z m32 113 c-7 -7 -12 -8 -12 -2 0 14
12 26 19 19 2 -3 -1 -11 -7 -17z"/>
<path d="M5120 1560 c-8 -5 -12 -12 -9 -15 4 -3 12 1 19 10 14 17 11 19 -10 5z"/>
<path d="M6043 1510 c0 -30 2 -43 4 -27 2 15 2 39 0 55 -2 15 -4 2 -4 -28z"/>
<path d="M6976 1544 c-5 -14 -4 -15 9 -4 17 14 19 20 6 20 -5 0 -12 -7 -15
-16z"/>
<path d="M7013 1548 c-20 -26 -22 -35 -8 -35 8 0 12 4 9 9 -4 5 2 16 12 23 11
8 14 15 8 15 -6 0 -16 -6 -21 -12z"/>
<path d="M7057 1513 c5 -12 2 -15 -8 -11 -10 4 -15 -1 -16 -13 -1 -10 2 -19 8
-19 5 0 9 -7 9 -15 0 -8 5 -15 10 -15 7 0 7 7 0 21 -10 17 -8 21 9 26 17 4 18
8 8 24 -15 23 -29 25 -20 2z"/>
<path d="M4840 1474 c0 -14 4 -23 10 -19 6 3 10 15 10 26 0 10 -4 19 -10 19
-5 0 -10 -12 -10 -26z"/>
<path d="M7075 1470 c3 -5 13 -10 21 -10 8 0 14 5 14 10 0 6 -9 10 -21 10 -11
0 -17 -4 -14 -10z"/>
<path d="M4841 1414 c0 -11 3 -14 6 -6 3 7 2 16 -1 19 -3 4 -6 -2 -5 -13z"/>
<path d="M4757 1323 c-9 -9 -9 -43 1 -43 4 0 7 11 7 25 0 14 0 25 -1 25 0 0
-4 -3 -7 -7z"/>
<path d="M5727 1323 c-4 -3 -7 -68 -7 -144 l0 -138 29 -15 c28 -15 29 -15 35
16 3 17 6 84 6 149 0 119 0 120 -26 129 -30 12 -29 12 -37 3z m20 -245 c-2
-13 -4 -5 -4 17 -1 22 1 32 4 23 2 -10 2 -28 0 -40z"/>
<path d="M6042 1290 c0 -19 2 -27 5 -17 2 9 2 25 0 35 -3 9 -5 1 -5 -18z"/>
<path d="M5800 1153 c0 -86 3 -153 7 -150 3 4 12 2 20 -4 11 -10 13 8 14 97 1
60 2 129 3 152 1 40 -12 62 -38 62 -3 0 -6 -70 -6 -157z"/>
<path d="M4840 1290 c0 -6 7 -10 15 -10 8 0 15 2 15 4 0 2 -7 6 -15 10 -8 3
-15 1 -15 -4z"/>
<path d="M5111 1284 c0 -11 3 -14 6 -6 3 7 2 16 -1 19 -3 4 -6 -2 -5 -13z"/>
<path d="M5862 1138 c3 -137 5 -153 21 -156 16 -3 17 7 15 150 -3 137 -5 153
-21 156 -16 3 -17 -7 -15 -150z"/>
<path d="M5921 1172 c1 -71 4 -97 9 -77 5 21 8 7 8 -50 0 -47 -3 -70 -7 -55
-6 20 -8 22 -13 8 -6 -15 18 -48 35 -48 4 0 7 71 7 159 0 150 -1 159 -20 164
-19 5 -20 0 -19 -101z m16 16 c-3 -8 -6 -5 -6 6 -1 11 2 17 5 13 3 -3 4 -12 1
-19z"/>
<path d="M4185 1262 c-3 -3 -5 -77 -5 -164 l0 -158 35 0 35 0 0 159 0 159 -30
4 c-17 3 -32 2 -35 0z"/>
<path d="M4260 1100 l0 -160 35 0 35 0 0 160 0 160 -35 0 -35 0 0 -160z m50
25 c0 -45 -12 -60 -24 -28 -4 9 -2 21 4 27 5 5 10 18 10 28 0 10 2 18 5 18 3
0 5 -20 5 -45z"/>
<path d="M4350 1099 l0 -160 33 3 32 3 3 158 3 157 -36 0 -35 0 0 -161z m41 9
c0 -57 2 -111 4 -121 2 -9 -1 -15 -6 -11 -5 3 -9 -1 -10 -8 0 -7 -4 -1 -9 13
-17 56 -8 229 11 229 5 0 9 -46 10 -102z"/>
<path d="M4430 1100 l0 -160 35 0 35 0 0 160 0 160 -35 0 -35 0 0 -160z m36
63 c12 -210 12 -214 -5 -211 -17 3 -17 12 -13 217 2 91 13 87 18 -6z"/>
<path d="M4520 1100 l0 -160 45 0 45 0 0 160 0 160 -45 0 -45 0 0 -160z m40
100 c0 -40 15 -55 23 -22 4 13 5 12 6 -5 0 -12 -3 -25 -9 -28 -5 -3 -10 -12
-10 -18 0 -7 4 -6 10 3 7 11 10 4 10 -27 0 -24 -5 -43 -12 -46 -10 -3 -10 -9
-1 -25 9 -15 9 -27 0 -51 -11 -29 -37 -44 -37 -20 0 5 6 7 13 4 6 -4 5 -1 -3
7 -15 13 -15 47 -7 236 3 46 17 40 17 -8z"/>
<path d="M4640 1100 c0 -121 3 -160 13 -160 9 0 11 36 9 157 -2 87 0 154 4
150 4 -4 7 -24 6 -44 -1 -28 1 -34 8 -23 5 8 10 25 10 38 0 12 5 22 10 22 6 0
10 -57 10 -150 0 -93 4 -150 10 -150 6 0 10 60 10 160 l0 160 -45 0 -45 0 0
-160z"/>
<path d="M4750 1100 c0 -152 1 -160 20 -160 16 0 20 8 23 63 l3 62 2 -62 c1
-35 7 -63 12 -63 6 0 10 60 10 160 l0 160 -35 0 -35 0 0 -160z m48 93 l-1 -58
-7 45 c-4 28 -8 36 -9 20 -2 -14 -5 -19 -8 -12 -5 12 15 62 24 62 2 0 2 -26 1
-57z m-21 -195 c-2 -18 -4 -6 -4 27 0 33 2 48 4 33 2 -15 2 -42 0 -60z"/>
<path d="M4837 1178 c-11 -135 -9 -236 5 -240 7 -3 23 -2 35 0 23 4 23 6 23
163 l0 159 -29 0 -28 0 -6 -82z m43 15 c0 -29 -4 -43 -9 -37 -13 12 -17 56 -8
72 14 21 17 14 17 -35z"/>
<path d="M4920 1100 l0 -160 35 0 35 0 0 160 0 160 -35 0 -35 0 0 -160z"/>
<path d="M5008 1248 c-2 -7 -5 -79 -7 -159 l-3 -146 28 -6 c16 -3 32 -3 36 0
5 2 8 76 8 164 l0 159 -29 0 c-16 0 -31 -6 -33 -12z"/>
<path d="M5130 1100 l0 -160 29 0 30 0 3 150 c2 83 2 155 0 160 -2 6 -17 10
-33 10 l-29 0 0 -160z m39 -42 c-1 -41 -1 -42 -11 -15 -5 15 -7 34 -4 42 10
27 16 16 15 -27z"/>
<path d="M5217 1254 c-8 -8 -10 -308 -2 -316 3 -2 18 -3 33 0 l28 4 0 156 -1
157 -25 3 c-14 2 -29 0 -33 -4z m24 -237 c-4 -87 -11 -85 -11 3 0 40 3 70 7
67 3 -4 5 -35 4 -70z"/>
<path d="M5300 1097 l0 -164 30 0 29 0 3 155 c2 85 1 157 -2 161 -3 4 -17 8
-32 9 l-28 2 0 -163z m27 86 c-3 -10 -5 -4 -5 12 0 17 2 24 5 18 2 -7 2 -21 0
-30z m0 -150 c-3 -10 -5 -2 -5 17 0 19 2 27 5 18 2 -10 2 -26 0 -35z m13 -53
c0 -16 -4 -30 -8 -30 -9 0 -13 27 -6 48 6 22 14 13 14 -18z"/>
<path d="M5387 1254 c-11 -12 -9 -326 3 -319 6 3 10 38 10 77 0 39 2 69 5 66
3 -3 6 -35 7 -71 1 -46 5 -68 15 -71 22 -9 24 9 21 169 l-3 150 -25 3 c-14 2
-29 0 -33 -4z m20 -151 c-3 -10 -5 -4 -5 12 0 17 2 24 5 18 2 -7 2 -21 0 -30z"/>
<path d="M5470 1097 l0 -163 45 -3 45 -2 -2 163 -3 162 -42 3 -43 2 0 -162z
m37 -13 c1 -20 4 -56 8 -80 4 -29 2 -44 -4 -44 -6 0 -11 8 -12 18 0 9 -3 45
-5 80 -3 34 -1 62 3 62 5 0 9 -16 10 -36z"/>
<path d="M5970 1102 c0 -151 1 -160 20 -165 27 -7 32 26 28 188 -3 126 -4 130
-25 133 l-23 3 0 -159z m27 48 c-1 -12 -5 -16 -10 -11 -5 5 -6 14 -3 20 11 16
15 13 13 -9z m-6 -163 c-13 -13 -15 43 -3 94 6 30 7 28 10 -25 2 -32 -2 -64
-7 -69z"/>
<path d="M6041 1234 c0 -11 3 -14 6 -6 3 7 2 16 -1 19 -3 4 -6 -2 -5 -13z"/>
<path d="M6044 1120 c0 -52 1 -74 3 -47 2 26 2 68 0 95 -2 26 -3 4 -3 -48z"/>
<path d="M6485 1199 c-4 -6 -5 -12 -2 -15 2 -3 7 2 10 11 7 17 1 20 -8 4z"/>
<path d="M6530 1185 c-8 -9 -8 -15 -2 -15 12 0 26 19 19 26 -2 2 -10 -2 -17
-11z"/>
<path d="M5114 1075 c0 -60 1 -84 3 -52 2 32 2 81 0 110 -2 29 -3 3 -3 -58z"/>
<path d="M5572 1160 c0 -14 2 -19 5 -12 2 6 2 18 0 25 -3 6 -5 1 -5 -13z"/>
<path d="M4680 1071 c0 -52 2 -92 4 -90 8 8 12 159 4 171 -4 7 -8 -29 -8 -81z"/>
<path d="M6610 1104 c8 -10 15 -20 16 -22 1 -2 5 1 8 7 4 5 -4 15 -16 22 -22
12 -22 11 -8 -7z"/>
<path d="M7045 1090 c-3 -5 -1 -10 4 -10 6 0 11 5 11 10 0 6 -2 10 -4 10 -3 0
-8 -4 -11 -10z"/>
<path d="M5572 1055 c0 -16 2 -22 5 -12 2 9 2 23 0 30 -3 6 -5 -1 -5 -18z"/>
<path d="M2760 1009 c0 -5 5 -7 10 -4 6 3 10 8 10 11 0 2 -4 4 -10 4 -5 0 -10
-5 -10 -11z"/>
<path d="M6042 1000 c0 -14 2 -19 5 -12 2 6 2 18 0 25 -3 6 -5 1 -5 -13z"/>
<path d="M5572 980 c0 -19 2 -27 5 -17 2 9 2 25 0 35 -3 9 -5 1 -5 -18z"/>
<path d="M5720 866 c0 -128 2 -144 18 -150 9 -3 23 -9 30 -12 9 -4 12 28 12
146 0 98 -4 149 -10 145 -5 -3 -10 -1 -10 4 0 6 -9 11 -20 11 -19 0 -20 -7
-20 -144z m40 -53 c0 -78 -2 -91 -15 -87 -17 7 -19 44 -9 143 10 89 24 56 24
-56z"/>
<path d="M5802 848 c2 -141 2 -141 8 -48 l6 95 2 -107 c1 -59 7 -110 12 -113
7 -4 10 48 10 148 0 132 -2 156 -16 161 -9 3 -18 6 -20 6 -2 0 -3 -64 -2 -142z"/>
<path d="M2745 970 c-3 -5 -1 -10 4 -10 6 0 11 5 11 10 0 6 -2 10 -4 10 -3 0
-8 -4 -11 -10z"/>
<path d="M4680 956 c0 -9 5 -16 10 -16 6 0 10 4 10 9 0 6 -4 13 -10 16 -5 3
-10 -1 -10 -9z"/>
<path d="M5857 963 c-2 -5 -4 -66 -4 -138 -1 -137 2 -136 16 10 l8 90 2 -133
c1 -98 -2 -131 -11 -126 -7 4 -8 3 -4 -4 4 -7 14 -12 22 -12 11 0 14 26 14
150 0 138 -2 150 -19 160 -11 5 -22 7 -24 3z"/>
<path d="M6043 910 c0 -36 2 -50 4 -32 2 17 2 47 0 65 -2 17 -4 3 -4 -33z"/>
<path d="M5112 935 c0 -16 2 -22 5 -12 2 9 2 23 0 30 -3 6 -5 -1 -5 -18z"/>
<path d="M5910 791 c0 -82 4 -152 8 -155 5 -3 7 18 5 47 -2 29 0 72 5 97 9 40
10 33 11 -57 1 -63 5 -103 11 -103 7 0 10 55 8 158 -3 154 -3 157 -25 160 -23
3 -23 3 -23 -147z"/>
<path d="M5972 767 l2 -162 3 133 c2 72 7 132 11 132 4 0 6 -59 4 -131 -2 -84
1 -136 7 -142 8 -8 11 38 11 155 0 157 -1 166 -20 171 -19 5 -20 1 -18 -156z"/>
<path d="M4180 760 l0 -160 33 0 34 0 1 160 2 160 -35 0 -35 0 0 -160z m35
-30 c1 -60 -1 -110 -6 -110 -5 0 -9 53 -9 117 0 64 3 114 6 110 4 -3 8 -56 9
-117z"/>
<path d="M4260 760 l0 -160 34 0 34 0 1 160 1 160 -35 0 -35 0 0 -160z m38
-141 c-6 -4 -16 -5 -20 -3 -10 6 -10 80 -1 154 6 49 8 52 14 25 6 -28 7 -26
10 15 2 25 5 -6 6 -69 3 -83 0 -116 -9 -122z"/>
<path d="M4350 761 l0 -161 35 0 35 0 -3 158 -2 157 -32 3 -33 3 0 -160z m33
-15 c2 -131 -6 -163 -17 -74 -7 50 2 213 11 204 3 -2 6 -61 6 -130z"/>
<path d="M4430 761 l0 -161 35 0 36 0 -3 158 -3 157 -32 3 -33 3 0 -160z m42
59 c3 -16 1 -33 -4 -38 -4 -4 -4 -36 0 -70 7 -46 6 -62 -3 -62 -14 0 -30 148
-20 180 9 29 22 24 27 -10z"/>
<path d="M4520 761 l0 -159 39 -4 c50 -4 51 -4 51 180 l0 142 -45 0 -45 0 0
-159z m54 97 c6 -4 11 -34 11 -70 0 -49 -5 -70 -22 -94 -12 -17 -19 -35 -15
-39 4 -5 1 -5 -5 -1 -16 9 -18 182 -2 191 5 4 9 17 8 28 -2 34 3 45 8 17 3
-14 10 -28 17 -32z"/>
<path d="M4640 760 l0 -160 45 0 45 0 0 160 0 160 -45 0 -45 0 0 -160z m70
120 c0 -16 -2 -30 -4 -30 -2 0 -6 14 -8 30 -3 17 -1 30 4 30 4 0 8 -13 8 -30z
m-26 4 c10 -25 -4 -84 -20 -84 -15 0 -17 20 -8 69 7 34 18 40 28 15z"/>
<path d="M4750 760 c0 -123 3 -160 13 -160 9 0 11 13 9 43 -4 41 -3 42 13 19
9 -13 14 -30 10 -42 -5 -14 -2 -20 9 -20 14 0 16 21 16 160 l0 160 -35 0 -35
0 0 -160z"/>
<path d="M4830 760 l0 -160 35 0 35 0 0 160 0 160 -35 0 -35 0 0 -160z m41
-65 c5 4 9 -14 9 -39 0 -34 -4 -46 -15 -46 -12 0 -15 15 -13 78 1 42 3 60 5
39 2 -20 8 -35 14 -32z"/>
<path d="M4920 760 l0 -160 35 0 35 0 0 160 0 160 -35 0 -35 0 0 -160z m27 13
c-2 -27 -3 -5 -3 47 0 52 1 74 3 48 2 -27 2 -69 0 -95z"/>
<path d="M5007 913 c-4 -3 -7 -75 -7 -159 l0 -152 30 -4 c17 -3 32 -2 35 0 3
3 5 77 5 164 l0 158 -28 0 c-16 0 -32 -3 -35 -7z"/>
<path d="M5130 755 l0 -165 30 0 30 0 0 165 0 165 -30 0 -30 0 0 -165z m40 3
c0 -56 -2 -99 -5 -96 -3 3 -6 45 -6 94 -1 104 -1 104 6 104 3 0 5 -46 5 -102z
m-3 -140 c-3 -7 -5 -2 -5 12 0 14 2 19 5 13 2 -7 2 -19 0 -25z"/>
<path d="M5217 914 c-4 -4 -7 -79 -7 -166 l0 -159 32 3 32 3 0 160 1 160 -25
3 c-14 2 -29 0 -33 -4z m26 -161 c3 -82 1 -145 -4 -148 -5 -4 -9 0 -10 7 -4
56 0 292 5 287 2 -2 6 -68 9 -146z"/>
<path d="M5300 753 l0 -163 30 0 30 0 0 164 0 165 -30 -1 -30 -1 0 -164z m39
-13 c0 -94 -4 -130 -12 -130 -8 0 -11 19 -9 62 1 35 3 93 3 131 0 37 4 67 9
67 5 0 9 -57 9 -130z"/>
<path d="M5408 913 l-28 -4 0 -160 0 -159 30 0 30 0 0 165 c0 91 -1 164 -2
164 -2 -1 -15 -4 -30 -6z m12 -118 c0 -8 -4 -17 -10 -20 -6 -4 -10 5 -10 20 0
15 4 24 10 20 6 -3 10 -12 10 -20z m-5 -45 c3 -5 1 -10 -4 -10 -6 0 -11 5 -11
10 0 6 2 10 4 10 3 0 8 -4 11 -10z m4 -80 c-3 -69 -24 -84 -27 -19 -3 46 5 79
19 79 6 0 9 -26 8 -60z"/>
<path d="M5470 753 l0 -163 39 0 c22 0 41 5 43 13 3 6 4 80 4 162 l-1 150 -42
0 -43 0 0 -162z m56 39 c-8 -7 -12 -2 -20 28 -6 19 -5 21 3 10 9 -13 11 -12
12 5 1 12 4 9 6 -8 3 -16 2 -31 -1 -35z m11 -81 c1 -51 -1 -59 -15 -54 -15 4
-15 3 1 -10 18 -15 24 -32 7 -22 -5 3 -10 1 -10 -4 0 -6 -6 -11 -14 -11 -15 0
-24 67 -18 122 3 24 6 27 23 18 15 -8 19 -7 19 5 0 8 1 15 3 15 1 0 3 -27 4
-59z"/>
<path d="M6860 910 c0 -5 4 -10 9 -10 6 0 13 5 16 10 3 6 -1 10 -9 10 -9 0
-16 -4 -16 -10z"/>
<path d="M6995 910 c-3 -5 1 -10 9 -10 9 0 16 5 16 10 0 6 -4 10 -9 10 -6 0
-13 -4 -16 -10z"/>
<path d="M5112 880 c0 -14 2 -19 5 -12 2 6 2 18 0 25 -3 6 -5 1 -5 -13z"/>
<path d="M2671 874 c0 -11 3 -14 6 -6 3 7 2 16 -1 19 -3 4 -6 -2 -5 -13z"/>
<path d="M5113 765 c0 -38 2 -53 4 -32 2 20 2 52 0 70 -2 17 -4 1 -4 -38z"/>
<path d="M6042 770 c0 -19 2 -27 5 -17 2 9 2 25 0 35 -3 9 -5 1 -5 -18z"/>
<path d="M338 713 c6 -2 18 -2 25 0 6 3 1 5 -13 5 -14 0 -19 -2 -12 -5z"/>
<path d="M1034 706 c-18 -8 -35 -19 -38 -25 -10 -16 3 -14 20 3 20 20 93 30
127 17 31 -12 37 -32 7 -24 -13 3 -20 0 -20 -8 0 -10 -3 -10 -12 -1 -27 27
-45 16 -105 -61 -20 -26 -22 -27 -33 -10 -11 17 -11 17 -6 0 5 -14 2 -17 -13
-12 -25 8 -33 -28 -33 -136 2 -174 56 -259 167 -259 88 0 136 51 161 171 23
111 3 248 -46 307 -39 47 -117 64 -176 38z m101 -70 c32 -33 45 -86 45 -191
-1 -135 -42 -208 -105 -185 -41 15 -59 67 -62 175 -4 118 16 192 57 212 34 17
37 17 65 -11z m-94 -414 c-7 -2 -18 1 -23 6 -8 8 -4 9 13 5 13 -4 18 -8 10
-11z"/>
<path d="M1794 705 c-2 -5 -5 -48 -6 -95 l-3 -85 -30 0 -30 0 -3 93 -3 92 -36
0 -35 0 4 -94 c4 -102 12 -120 64 -142 38 -16 98 -4 128 26 18 17 21 35 24
119 l4 99 -37 -1 c-21 -1 -39 -6 -41 -12z"/>
<path d="M1940 596 c0 -69 3 -127 8 -129 4 -3 19 -3 35 0 25 5 27 9 27 50 0
36 3 44 17 41 9 -2 23 -22 31 -45 12 -30 22 -43 41 -46 44 -9 49 -1 31 54 -9
27 -20 52 -23 56 -4 3 0 15 8 27 8 11 15 35 15 53 0 42 -22 53 -116 59 l-74 4
0 -124z m114 58 c20 -20 12 -34 -20 -34 -17 0 -24 6 -24 19 0 11 6 22 13 24 6
3 13 6 14 6 1 1 9 -6 17 -15z"/>
<path d="M2272 709 c-50 -15 -74 -60 -69 -132 4 -69 22 -91 88 -108 40 -11 50
-10 85 7 48 23 64 53 64 120 0 63 -25 99 -78 114 -43 11 -46 11 -90 -1z m92
-65 c24 -64 -11 -142 -56 -125 -29 10 -45 73 -29 114 9 22 17 27 45 27 22 0
36 -6 40 -16z"/>
<path d="M1408 600 c-2 -61 -1 -115 0 -120 2 -6 42 -10 88 -10 83 0 84 0 84
25 0 24 -3 25 -55 25 -52 0 -55 1 -55 25 0 23 3 25 50 25 47 0 50 2 50 25 0
23 -3 25 -50 25 -47 0 -50 2 -50 25 0 24 3 25 55 25 48 0 55 2 55 20 0 18 -7
20 -84 20 l-85 0 -3 -110z"/>
<path d="M227 693 c-4 -3 -7 -20 -7 -36 0 -24 3 -28 18 -22 9 5 42 14 72 22
53 13 54 13 10 8 -25 -3 -56 -8 -69 -11 -22 -6 -23 -5 -19 19 6 29 5 31 -5 20z"/>
<path d="M5722 548 l2 -153 5 114 c4 79 10 116 19 119 9 3 12 -26 12 -122 0
-72 4 -127 10 -131 7 -4 10 48 10 150 l0 155 -26 10 c-14 6 -27 10 -30 10 -2
0 -3 -69 -2 -152z"/>
<path d="M673 658 c-24 -11 -57 -71 -50 -91 2 -7 7 3 11 20 4 19 21 43 39 58
34 27 34 30 0 13z"/>
<path d="M5802 578 l2 -93 6 80 c6 71 7 63 8 -63 1 -93 -1 -141 -8 -137 -5 3
-10 4 -10 1 0 -3 9 -10 20 -16 20 -10 20 -8 20 144 0 145 -1 156 -20 166 -19
10 -20 8 -18 -82z"/>
<path d="M380 656 c0 -2 7 -7 16 -10 8 -3 12 -2 9 4 -6 10 -25 14 -25 6z"/>
<path d="M5850 598 c0 -30 3 -39 9 -28 6 8 7 18 5 22 -3 4 0 8 5 8 7 0 11 -45
11 -130 0 -85 -4 -130 -11 -130 -5 0 -7 -4 -4 -10 3 -5 13 -10 21 -10 11 0 14
26 14 150 0 137 -2 150 -19 160 -29 15 -31 13 -31 -32z"/>
<path d="M491 614 c0 -11 3 -14 6 -6 3 7 2 16 -1 19 -3 4 -6 -2 -5 -13z"/>
<path d="M5112 590 c0 -19 2 -27 5 -17 2 9 2 25 0 35 -3 9 -5 1 -5 -18z"/>
<path d="M5910 453 c0 -86 2 -154 5 -152 2 3 5 69 6 147 1 79 6 142 11 142 5
0 8 -63 6 -150 -2 -115 0 -150 10 -150 9 0 12 37 12 154 0 158 -2 166 -41 166
-5 0 -9 -68 -9 -157z"/>
<path d="M431 584 c0 -11 3 -14 6 -6 3 7 2 16 -1 19 -3 4 -6 -2 -5 -13z"/>
<path d="M5972 468 c2 -119 2 -120 8 -43 l6 80 2 -112 c2 -85 -1 -113 -10
-113 -7 0 -5 -5 5 -11 23 -14 11 -31 -16 -24 -12 3 0 -6 27 -20 58 -29 57 -29
50 -11 -3 8 -12 16 -21 18 -13 3 -15 29 -14 174 2 150 0 172 -14 178 -9 3 -19
6 -21 6 -2 0 -3 -55 -2 -122z"/>
<path d="M496 565 c-3 -9 -6 -22 -5 -28 0 -7 5 -1 10 12 5 13 8 26 5 28 -2 2
-6 -3 -10 -12z"/>
<path d="M551 564 c0 -11 3 -14 6 -6 3 7 2 16 -1 19 -3 4 -6 -2 -5 -13z"/>
<path d="M4180 420 l0 -160 33 0 32 0 1 160 0 160 -33 0 -33 0 0 -160z m40
-12 c0 -74 -4 -129 -10 -133 -12 -8 -14 21 -11 213 1 54 4 72 11 62 5 -8 10
-72 10 -142z"/>
<path d="M4260 420 l0 -160 35 0 35 0 0 160 0 160 -35 0 -35 0 0 -160z m42 80
c7 0 7 -4 1 -12 -12 -17 -17 -148 -5 -148 5 0 7 -14 3 -32 -12 -60 -25 -29
-27 69 -2 98 7 192 14 146 2 -13 8 -23 14 -23z"/>
<path d="M4350 420 c0 -88 3 -160 6 -160 4 0 13 8 20 18 13 16 13 16 14 0 0
-10 4 -18 9 -18 9 0 21 271 13 303 -3 11 -14 17 -33 17 l-29 0 0 -160z m33 67
c3 -26 0 -47 -4 -47 -5 0 -9 23 -9 52 0 62 8 60 13 -5z"/>
<path d="M4430 420 l0 -160 35 0 35 0 0 160 0 160 -35 0 -35 0 0 -160z m40
-116 c0 -19 -5 -34 -10 -34 -6 0 -10 17 -8 39 2 48 18 44 18 -5z"/>
<path d="M4520 419 l0 -160 43 3 42 3 3 158 3 157 -46 0 -45 0 0 -161z m56
-38 c3 -37 1 -51 -8 -51 -8 0 -9 -3 -3 -8 12 -8 15 -52 4 -52 -4 0 -14 3 -23
6 -17 7 -22 44 -6 44 6 0 10 20 10 44 0 44 9 81 17 73 2 -3 6 -28 9 -56z"/>
<path d="M4640 420 l0 -160 45 0 45 0 0 160 0 160 -45 0 -45 0 0 -160z m63 93
c-1 -21 -5 -43 -7 -50 -3 -7 -1 -13 4 -13 6 0 9 -17 9 -37 -2 -31 -3 -33 -6
-10 -2 15 -8 27 -14 27 -14 0 -7 -120 8 -135 19 -20 16 -25 -14 -25 l-28 0 1
103 c2 138 3 147 13 147 5 0 7 -10 4 -22 -4 -19 -3 -20 6 -8 6 8 11 25 11 38
0 12 4 22 8 22 5 0 7 -17 5 -37z m7 -201 c0 -15 -2 -15 -10 -2 -13 20 -13 33
0 25 6 -3 10 -14 10 -23z"/>
<path d="M4750 420 c0 -88 3 -160 8 -160 4 0 8 44 9 98 2 171 2 169 15 148 6
-11 8 -40 4 -71 -8 -74 3 -175 20 -175 11 0 14 32 14 160 l0 160 -35 0 -35 0
0 -160z"/>
<path d="M4830 418 c0 -89 2 -159 4 -157 2 2 7 49 10 104 3 55 5 101 5 102 1
1 8 0 17 -4 13 -5 15 -22 12 -104 -2 -74 0 -99 10 -99 9 0 12 39 12 160 l0
160 -35 0 -35 0 0 -162z m49 105 c0 -27 -3 -42 -6 -34 -5 11 -7 11 -14 0 -6
-9 -9 2 -9 31 0 33 3 41 10 30 8 -13 10 -12 10 3 0 9 2 17 5 17 3 0 5 -21 4
-47z"/>
<path d="M4921 418 c0 -90 2 -158 4 -153 2 6 7 64 12 130 4 66 9 103 11 83 2
-21 7 -38 12 -38 4 0 7 -40 6 -90 -1 -67 2 -90 11 -90 10 0 13 37 13 160 l0
160 -35 0 -35 0 1 -162z"/>
<path d="M5001 418 l2 -163 10 85 c6 47 12 76 15 66 3 -15 6 -16 13 -5 5 9 9
-17 9 -69 0 -53 4 -81 10 -77 6 4 10 70 10 166 l0 159 -35 0 -35 0 1 -162z"/>
<path d="M5129 563 c0 -10 0 -55 1 -100 1 -57 -2 -83 -10 -83 -15 0 -10 -111
5 -122 19 -14 35 -8 36 15 1 16 2 18 6 5 2 -10 9 -18 14 -18 5 0 9 68 9 160
l0 160 -30 0 c-22 0 -30 -5 -31 -17z m38 -155 c-2 -18 -4 -4 -4 32 0 36 2 50
4 33 2 -18 2 -48 0 -65z m-40 -95 c-3 -10 -5 -2 -5 17 0 19 2 27 5 18 2 -10 2
-26 0 -35z m40 10 c-3 -10 -5 -4 -5 12 0 17 2 24 5 18 2 -7 2 -21 0 -30z m-20
-35 c-3 -8 -6 -5 -6 6 -1 11 2 17 5 13 3 -3 4 -12 1 -19z"/>
<path d="M5211 413 c1 -99 4 -156 9 -138 4 17 8 83 9 148 0 64 5 117 9 117 4
0 9 -62 11 -137 1 -76 4 -140 7 -142 11 -11 13 16 15 159 l1 154 -31 4 -31 3
1 -168z"/>
<path d="M5300 568 c-2 -115 -1 -288 1 -303 3 -25 19 135 19 190 0 22 4 47 10
55 7 10 10 -28 10 -122 0 -85 4 -138 10 -138 6 0 10 62 10 165 l0 165 -30 0
c-17 0 -30 -5 -30 -12z"/>
<path d="M5380 414 l0 -164 30 0 30 0 -2 162 -3 163 -27 2 -28 2 0 -165z m39
-24 c2 -111 0 -130 -14 -130 -12 0 -15 13 -15 63 0 35 3 67 7 71 4 4 8 28 9
54 2 59 3 72 8 72 2 0 5 -58 5 -130z"/>
<path d="M5468 432 c-2 -81 0 -156 4 -167 4 -13 7 -3 7 27 1 26 6 50 11 53 6
3 10 15 10 26 0 12 5 19 13 17 17 -6 22 -118 5 -130 -9 -6 -5 -8 12 -6 l25 3
0 160 0 160 -42 1 -42 2 -3 -146z m62 81 c0 -8 -4 -11 -10 -8 -6 4 -10 -11
-10 -39 0 -26 5 -46 13 -49 7 -3 5 -6 -5 -6 -15 -1 -18 8 -18 57 0 46 3 59 15
59 8 0 15 -7 15 -14z"/>
<path d="M2636 563 c-3 -3 -6 -89 -6 -190 0 -143 3 -184 13 -180 8 2 12 34 14
107 1 74 5 105 15 111 10 7 10 9 1 9 -7 0 -13 11 -13 24 0 13 -6 27 -12 29
-10 4 -10 6 0 6 7 1 12 16 12 40 0 38 -10 57 -24 44z"/>
<path d="M2757 563 c-5 -8 -10 -49 -8 -70 1 -7 8 -13 16 -13 16 0 18 9 15 50
-2 28 -15 46 -23 33z"/>
<path d="M792 467 c-1 -144 -26 -207 -84 -207 -15 0 -37 9 -47 19 -17 17 -41
96 -41 139 -1 16 -1 16 -11 0 -5 -10 -17 -18 -24 -18 -8 0 -15 -4 -15 -10 0
-17 -18 -11 -23 8 -2 9 -2 -3 0 -28 6 -61 38 -125 76 -152 24 -18 46 -23 89
-23 51 0 60 3 92 34 53 51 88 188 72 276 l-7 36 -29 -21 -29 -21 -10 33 c-7
26 -9 13 -9 -65z"/>
<path d="M2870 521 c0 -29 4 -41 14 -41 18 0 17 72 -1 78 -9 2 -13 -9 -13 -37z"/>
<path d="M2990 521 c0 -30 4 -41 16 -41 11 0 14 9 12 37 -4 52 -28 56 -28 4z"/>
<path d="M3110 520 c0 -22 5 -40 10 -40 6 0 10 18 10 40 0 22 -4 40 -10 40 -5
0 -10 -18 -10 -40z"/>
<path d="M3230 520 c0 -22 5 -40 10 -40 6 0 10 18 10 40 0 22 -4 40 -10 40 -5
0 -10 -18 -10 -40z"/>
<path d="M3351 471 c0 -107 18 -125 21 -21 1 39 2 78 2 87 1 9 -4 18 -11 20
-9 3 -12 -21 -12 -86z"/>
<path d="M3470 520 c0 -40 13 -53 24 -24 7 19 -3 64 -15 64 -5 0 -9 -18 -9
-40z"/>
<path d="M3590 521 c0 -22 5 -43 10 -46 6 -4 10 12 10 39 0 25 -4 46 -10 46
-5 0 -10 -18 -10 -39z"/>
<path d="M6169 533 c-4 -49 -2 -67 9 -71 8 -2 12 11 12 42 0 43 -18 67 -21 29z"/>
<path d="M612 515 c0 -16 2 -22 5 -12 2 9 2 23 0 30 -3 6 -5 -1 -5 -18z"/>
<path d="M6297 520 c3 -11 7 -20 9 -20 2 0 4 9 4 20 0 11 -4 20 -9 20 -5 0 -7
-9 -4 -20z"/>
<path d="M6410 519 c0 -11 5 -17 10 -14 6 3 10 13 10 21 0 8 -4 14 -10 14 -5
0 -10 -9 -10 -21z"/>
<path d="M6531 533 c0 -5 4 -17 9 -28 8 -18 9 -17 9 8 1 15 -3 27 -9 27 -5 0
-10 -3 -9 -7z"/>
<path d="M6650 505 c0 -19 5 -35 10 -35 6 0 10 16 10 35 0 19 -4 35 -10 35 -5
0 -10 -16 -10 -35z"/>
<path d="M6772 504 c3 -50 18 -54 18 -5 0 23 -5 41 -10 41 -6 0 -10 -16 -8
-36z"/>
<path d="M6890 499 c0 -24 4 -38 10 -34 6 3 10 22 10 41 0 19 -4 34 -10 34 -5
0 -10 -18 -10 -41z"/>
<path d="M7015 505 c2 -50 15 -56 15 -7 0 23 -4 42 -8 42 -4 0 -7 -16 -7 -35z"/>
<path d="M7132 500 c0 -22 3 -40 9 -40 5 0 9 18 9 40 0 22 -4 40 -9 40 -5 0
-9 -18 -9 -40z"/>
<path d="M543 490 c0 -25 2 -35 4 -22 2 12 2 32 0 45 -2 12 -4 2 -4 -23z"/>
<path d="M5853 455 c0 -22 2 -30 4 -17 2 12 2 30 0 40 -3 9 -5 -1 -4 -23z"/>
<path d="M6290 475 c0 -8 5 -15 10 -15 6 0 10 7 10 15 0 8 -4 15 -10 15 -5 0
-10 -7 -10 -15z"/>
<path d="M5801 464 c0 -11 3 -14 6 -6 3 7 2 16 -1 19 -3 4 -6 -2 -5 -13z"/>
<path d="M2749 443 c-1 -16 -1 -32 0 -36 1 -5 2 -56 2 -114 0 -76 3 -103 12
-100 8 2 12 34 13 98 0 52 3 99 6 104 3 6 3 25 1 43 -6 40 -33 43 -34 5z"/>
<path d="M2870 330 c0 -109 3 -141 13 -138 17 6 22 178 4 178 -9 0 -8 3 1 9
17 10 12 83 -5 89 -10 3 -13 -29 -13 -138z"/>
<path d="M2990 380 c0 -52 4 -90 10 -90 14 0 20 37 16 90 -2 25 -4 55 -5 68 0
12 -5 22 -11 22 -6 0 -10 -37 -10 -90z"/>
<path d="M3110 425 c0 -25 5 -45 10 -45 6 0 10 20 10 45 0 25 -4 45 -10 45 -5
0 -10 -20 -10 -45z"/>
<path d="M3230 425 c0 -25 4 -45 9 -45 13 0 17 17 13 56 -6 50 -22 42 -22 -11z"/>
<path d="M3470 425 c0 -25 5 -45 10 -45 6 0 10 20 10 45 0 25 -4 45 -10 45 -5
0 -10 -20 -10 -45z"/>
<path d="M3590 420 c0 -22 5 -40 10 -40 6 0 10 18 10 40 0 22 -4 40 -10 40 -5
0 -10 -18 -10 -40z"/>
<path d="M1793 405 c-1 -35 0 -36 5 -11 5 21 15 32 34 37 22 6 26 4 21 -10
-12 -31 -16 -34 -30 -16 -15 22 -17 12 -3 -16 7 -13 8 -25 1 -37 -6 -9 -11
-12 -11 -7 -1 20 -20 -21 -20 -44 l0 -24 28 29 c15 16 26 35 24 42 -2 7 2 11
9 9 8 -2 11 -2 7 0 -14 8 -9 31 8 37 8 3 13 10 9 15 -3 5 -1 12 5 16 21 13 -2
24 -44 23 l-42 -2 -1 -41z"/>
<path d="M1940 426 c0 -14 -6 -27 -12 -29 -10 -4 -10 -6 0 -6 17 -1 15 -21 -5
-44 -17 -19 -17 -20 0 -14 15 6 17 -1 17 -63 0 -77 14 -105 16 -32 1 26 2 58
4 72 1 14 -1 46 -4 73 -5 44 -4 47 18 47 17 0 22 -5 22 -22 -1 -20 3 -22 28
-20 21 3 26 0 21 -10 -6 -10 -5 -11 5 -1 17 16 8 26 -25 26 -35 0 -32 14 5 22
17 4 30 10 30 15 0 11 -33 7 -42 -5 -5 -6 -8 -6 -8 1 0 6 -16 11 -35 12 -31 1
-35 -2 -35 -22z"/>
<path d="M2243 428 c-1 -10 3 -20 8 -24 5 -3 8 0 7 8 -2 9 13 15 47 19 58 6
41 19 -21 16 -30 -1 -40 -6 -41 -19z"/>
<path d="M2400 441 c0 -5 -10 -7 -22 -4 -23 4 -23 4 -3 -12 11 -9 19 -21 17
-26 -1 -6 2 -8 7 -5 5 3 14 -1 21 -9 11 -13 10 -15 -6 -9 -18 5 -18 5 -1 -9 9
-8 17 -20 17 -27 0 -10 -4 -9 -17 2 -40 33 -43 31 -42 -24 1 -50 2 -51 9 -18
5 19 6 39 3 44 -3 5 0 6 8 4 8 -3 13 -11 12 -17 -2 -6 5 -11 16 -11 14 0 17
-6 13 -27 -3 -16 -11 -37 -18 -48 -16 -22 -18 -39 -5 -30 6 3 14 -3 20 -12 9
-16 10 -16 11 -1 0 9 -5 18 -10 20 -12 4 24 108 42 120 9 6 7 8 -7 6 -16 -2
-19 2 -17 20 2 12 -2 22 -8 22 -7 0 -10 6 -7 14 3 8 -1 13 -11 12 -11 -1 -16
5 -14 17 2 9 0 17 -3 17 -3 0 -5 -4 -5 -9z"/>
<path d="M6162 410 c-1 -28 3 -40 14 -40 10 0 14 12 14 40 0 27 -4 40 -14 40
-9 0 -14 -13 -14 -40z"/>
<path d="M6282 410 c-1 -30 2 -40 13 -40 11 0 15 11 15 40 0 27 -4 40 -13 40
-9 0 -14 -14 -15 -40z"/>
<path d="M6409 391 c-1 -34 -1 -73 -2 -88 -1 -15 4 -28 10 -30 8 -3 12 22 12
81 -1 97 -18 130 -20 37z"/>
<path d="M6890 410 c0 -22 4 -40 9 -40 5 0 9 18 9 40 0 22 -3 40 -9 40 -5 0
-9 -18 -9 -40z"/>
<path d="M7019 445 c-4 -23 -1 -76 4 -82 4 -3 7 15 7 40 0 26 -2 47 -5 47 -3
0 -5 -2 -6 -5z"/>
<path d="M1571 424 c0 -11 3 -14 6 -6 3 7 2 16 -1 19 -3 4 -6 -2 -5 -13z"/>
<path d="M2084 415 c1 -16 6 -20 24 -17 12 2 25 9 29 15 4 6 -2 8 -16 4 -16
-4 -21 -2 -18 7 3 7 -1 13 -8 13 -7 0 -12 -10 -11 -22z"/>
<path d="M7134 405 c0 -19 4 -35 8 -35 4 0 8 16 8 35 0 19 -4 35 -8 35 -4 0
-8 -16 -8 -35z"/>
<path d="M345 420 c-3 -6 1 -7 9 -4 18 7 21 14 7 14 -6 0 -13 -4 -16 -10z"/>
<path d="M2203 413 c21 -5 22 -22 3 -29 -8 -3 -12 -12 -9 -20 4 -12 8 -11 19
3 21 29 17 53 -8 52 -17 -1 -19 -2 -5 -6z"/>
<path d="M2282 394 c-12 -8 -28 -12 -35 -8 -9 6 -9 4 -1 -7 13 -16 15 -49 3
-49 -4 0 -10 6 -12 13 -4 9 -6 9 -6 -1 -1 -7 6 -15 14 -18 8 -4 15 -16 15 -28
0 -11 4 -27 9 -34 5 -8 6 6 4 35 -6 60 21 99 61 89 20 -5 24 -3 20 9 -8 19
-44 19 -72 -1z"/>
<path d="M315 390 c-3 -5 -1 -10 4 -10 6 0 11 5 11 10 0 6 -2 10 -4 10 -3 0
-8 -4 -11 -10z"/>
<path d="M6535 387 c-4 -10 -5 -21 -1 -24 10 -10 18 4 13 24 -4 17 -4 17 -12
0z"/>
<path d="M1744 374 c3 -9 7 -37 7 -62 1 -26 4 -38 6 -27 3 11 9 25 14 31 10
12 -10 74 -24 74 -5 0 -6 -7 -3 -16z"/>
<path d="M2113 370 c-3 -11 -9 -20 -13 -20 -4 0 -10 -13 -12 -30 -5 -34 -1
-36 31 -14 17 12 20 19 11 28 -8 8 -14 7 -21 -4 -9 -13 -10 -13 -6 0 2 8 12
14 21 14 11 -1 16 6 16 22 0 29 -20 32 -27 4z"/>
<path d="M2500 379 c0 -5 5 -7 10 -4 6 3 10 8 10 11 0 2 -4 4 -10 4 -5 0 -10
-5 -10 -11z"/>
<path d="M5712 373 c4 -21 115 -86 131 -76 5 3 7 2 4 -4 -6 -9 157 -107 197
-118 11 -3 -7 11 -42 31 -54 31 -61 38 -50 52 10 12 10 14 1 8 -7 -4 -13 -3
-13 3 0 11 -39 26 -59 22 -7 -1 -10 2 -7 8 8 12 -82 53 -98 44 -6 -3 -8 -3 -4
2 5 5 -6 17 -22 27 -38 22 -42 22 -38 1z"/>
<path d="M274 348 l-19 -23 23 19 c21 18 27 26 19 26 -2 0 -12 -10 -23 -22z"/>
<path d="M1981 353 c0 -11 3 -13 6 -5 2 6 9 10 13 7 5 -3 7 -12 3 -20 -4 -11
3 -15 25 -15 18 0 32 6 36 15 5 13 2 14 -15 4 -21 -11 -38 0 -39 24 0 4 -7 7
-15 7 -8 0 -15 -8 -14 -17z"/>
<path d="M2310 348 c0 -23 4 -28 23 -27 17 1 18 2 4 6 -9 2 -15 8 -13 12 3 4
1 13 -5 21 -6 11 -9 8 -9 -12z"/>
<path d="M3111 279 c0 -56 4 -89 10 -87 6 2 10 7 10 11 -1 4 -1 43 -1 87 0 44
-4 80 -9 80 -5 0 -10 -41 -10 -91z"/>
<path d="M3230 331 c0 -41 19 -69 21 -32 4 56 1 71 -11 71 -5 0 -10 -18 -10
-39z"/>
<path d="M3350 280 c0 -64 3 -91 11 -88 16 5 16 171 0 176 -8 3 -11 -25 -11
-88z"/>
<path d="M3471 280 c0 -107 16 -121 21 -17 4 78 0 107 -12 107 -5 0 -9 -40 -9
-90z"/>
<path d="M3590 325 c0 -25 5 -45 10 -45 6 0 10 20 10 45 0 25 -4 45 -10 45 -5
0 -10 -20 -10 -45z"/>
<path d="M6166 351 c-11 -17 -3 -81 11 -81 9 0 13 14 13 45 0 41 -11 58 -24
36z"/>
<path d="M6288 353 c-9 -19 -2 -77 10 -80 8 -3 12 9 12 41 0 40 -12 61 -22 39z"/>
<path d="M327 323 c-90 -95 -109 -108 -120 -80 -3 6 -6 0 -6 -15 l-1 -28 159
0 158 0 -1 33 -1 32 -107 3 c-60 1 -108 5 -108 8 0 3 17 21 38 39 20 19 32 35
26 35 -6 0 -23 -12 -37 -27z"/>
<path d="M2530 335 c0 -8 4 -15 8 -15 5 0 9 7 9 15 0 8 -4 15 -9 15 -4 0 -8
-7 -8 -15z"/>
<path d="M6530 310 c0 -22 5 -40 10 -40 6 0 10 18 10 40 0 22 -4 40 -10 40 -5
0 -10 -18 -10 -40z"/>
<path d="M6650 310 c0 -22 5 -40 10 -40 6 0 10 18 10 40 0 22 -4 40 -10 40 -5
0 -10 -18 -10 -40z"/>
<path d="M7010 310 c0 -22 5 -40 10 -40 6 0 10 18 10 40 0 22 -4 40 -10 40 -5
0 -10 -18 -10 -40z"/>
<path d="M7137 316 c-5 -21 -6 -41 -3 -44 12 -11 17 7 14 44 l-3 39 -8 -39z"/>
<path d="M2190 321 c0 -6 4 -13 10 -16 6 -3 7 1 4 9 -7 18 -14 21 -14 7z"/>
<path d="M6770 301 c0 -17 5 -31 10 -31 6 0 10 11 10 24 0 14 -4 28 -10 31 -6
4 -10 -7 -10 -24z"/>
<path d="M1403 275 c0 -22 2 -30 4 -17 2 12 2 30 0 40 -3 9 -5 -1 -4 -23z"/>
<path d="M2008 283 c-5 -7 -8 -20 -5 -30 4 -14 5 -13 6 5 1 18 7 22 31 22 17
0 30 3 30 8 0 12 -51 8 -62 -5z"/>
<path d="M2200 276 c0 -8 4 -17 9 -20 5 -4 7 3 4 14 -6 23 -13 26 -13 6z"/>
<path d="M2990 234 c0 -31 4 -44 12 -42 10 4 13 32 9 78 -1 6 -5 10 -11 10 -5
0 -10 -21 -10 -46z"/>
<path d="M1785 236 c0 -19 3 -38 8 -42 4 -4 7 11 7 34 0 23 -3 42 -7 42 -5 0
-8 -15 -8 -34z"/>
<path d="M3230 229 c0 -25 4 -39 11 -37 6 2 10 7 10 11 -1 4 -1 21 -1 37 0 17
-4 30 -10 30 -5 0 -10 -18 -10 -41z"/>
<path d="M3590 230 c0 -22 5 -40 10 -40 6 0 10 18 10 40 0 22 -4 40 -10 40 -5
0 -10 -18 -10 -40z"/>
<path d="M4151 258 c0 -10 -5 -18 -11 -18 -5 0 -10 -13 -10 -28 l0 -29 135 1
c74 1 135 5 135 9 0 5 6 5 13 0 26 -16 47 -13 47 7 0 11 4 20 10 20 5 0 7 -6
4 -14 -3 -8 -1 -17 5 -21 7 -4 11 3 11 17 0 18 2 20 9 8 6 -8 8 -17 6 -20 -2
-3 16 -5 40 -6 35 -1 42 2 38 15 -4 15 -3 15 9 0 18 -22 108 -22 109 0 0 11 2
12 6 4 7 -18 23 -16 23 2 0 8 5 15 11 15 6 0 8 -8 5 -18 -5 -15 1 -18 49 -18
46 0 55 3 55 18 0 26 18 22 23 -4 4 -22 4 -22 6 2 l2 25 14 -25 c14 -25 14
-25 15 -2 0 12 4 22 9 22 5 0 12 -10 14 -22 4 -22 4 -22 6 2 l2 25 14 -25 14
-25 1 25 c0 20 2 22 11 10 8 -12 12 -12 16 -2 4 10 8 10 19 1 10 -8 14 -8 14
0 0 6 5 11 10 11 6 0 10 -9 10 -20 0 -11 4 -20 9 -20 5 0 7 9 4 20 -4 16 0 20
22 20 22 0 26 -4 22 -20 -5 -18 0 -20 50 -20 45 0 54 3 49 15 -4 11 1 15 19
15 14 0 25 -7 28 -17 4 -14 5 -12 6 5 1 23 34 32 46 12 3 -5 11 -10 16 -10 6
0 7 4 4 10 -3 5 -1 10 4 10 6 0 11 -6 11 -12 0 -10 2 -10 8 -1 10 16 50 5 55
-16 3 -11 5 -9 6 7 0 12 6 22 12 22 6 0 9 -9 6 -20 -3 -13 0 -20 9 -20 8 0 11
6 8 15 -4 8 -1 15 5 15 6 0 11 -6 11 -13 0 -9 13 -14 34 -15 28 -1 35 3 39 21
l4 22 2 -22 c0 -14 7 -23 17 -23 8 0 12 5 9 10 -4 6 -1 17 5 25 11 13 -17 15
-216 15 -126 0 -400 2 -609 4 -209 2 -426 5 -482 5 -88 1 -102 3 -106 19 -4
16 -5 16 -6 0z m684 -47 c3 -5 1 -12 -5 -16 -5 -3 -10 1 -10 9 0 18 6 21 15 7z"/>
<path d="M6162 218 c2 -24 8 -43 13 -43 6 0 11 19 13 43 3 33 0 42 -13 42 -13
0 -16 -9 -13 -42z"/>
<path d="M6282 218 c2 -24 8 -43 13 -43 6 0 11 19 13 43 3 33 0 42 -13 42 -13
0 -16 -9 -13 -42z"/>
<path d="M6409 255 c-5 -32 0 -80 9 -83 8 -2 12 12 12 42 0 25 -4 46 -10 46
-5 0 -10 -2 -11 -5z"/>
<path d="M6530 215 c0 -25 5 -45 10 -45 6 0 10 20 10 45 0 25 -4 45 -10 45 -5
0 -10 -20 -10 -45z"/>
<path d="M6650 215 c0 -25 5 -45 10 -45 6 0 10 20 10 45 0 25 -4 45 -10 45 -5
0 -10 -20 -10 -45z"/>
<path d="M6770 215 c0 -25 5 -45 10 -45 6 0 10 20 10 45 0 25 -4 45 -10 45 -5
0 -10 -20 -10 -45z"/>
<path d="M6890 215 c0 -25 5 -45 10 -45 6 0 10 20 10 45 0 25 -4 45 -10 45 -5
0 -10 -20 -10 -45z"/>
<path d="M7136 222 c-4 -24 -5 -46 -2 -49 12 -12 17 6 14 48 l-3 44 -9 -43z"/>
<path d="M2220 224 c0 -8 5 -12 10 -9 6 3 10 10 10 16 0 5 -4 9 -10 9 -5 0
-10 -7 -10 -16z"/>
<path d="M2331 224 c0 -11 3 -14 6 -6 3 7 2 16 -1 19 -3 4 -6 -2 -5 -13z"/>
<path d="M7010 200 c0 -16 5 -30 10 -30 6 0 10 14 10 30 0 17 -4 30 -10 30 -5
0 -10 -13 -10 -30z"/>
<path d="M5081 194 c0 -11 3 -14 6 -6 3 7 2 16 -1 19 -3 4 -6 -2 -5 -13z"/>
<path d="M5360 201 c0 -5 5 -13 10 -16 6 -3 10 -2 10 4 0 5 -4 13 -10 16 -5 3
-10 2 -10 -4z"/>
</g>
</svg>
