<?xml version="1.0" standalone="no"?>
<!DOCTYPE svg PUBLIC "-//W3C//DTD SVG 20010904//EN"
 "http://www.w3.org/TR/2001/REC-SVG-20010904/DTD/svg10.dtd">
<svg version="1.0" xmlns="http://www.w3.org/2000/svg"
 width="306.000000pt" height="165.000000pt" viewBox="0 0 306.000000 165.000000"
 preserveAspectRatio="xMidYMid meet">

<g transform="translate(0.000000,165.000000) scale(0.100000,-0.100000)"
fill="#000000" stroke="none">
<path d="M2556 1638 c5 -7 9 -47 9 -88 0 -61 3 -77 18 -89 20 -14 146 -21 154
-8 2 4 8 5 12 3 9 -6 11 11 11 66 -1 20 4 39 10 43 8 5 8 10 0 20 -6 7 -10 17
-9 21 7 42 2 44 -107 44 -83 0 -105 -3 -98 -12z"/>
<path d="M2531 1554 c0 -11 3 -14 6 -6 3 7 2 16 -1 19 -3 4 -6 -2 -5 -13z"/>
<path d="M170 1540 c-9 -6 -10 -10 -3 -10 6 0 15 5 18 10 8 12 4 12 -15 0z"/>
<path d="M1034 1531 c-47 -12 -54 -19 -54 -62 0 -43 3 -45 40 -24 38 22 106
19 130 -5 41 -41 15 -94 -102 -216 -78 -81 -88 -95 -88 -127 l0 -37 88 -1 c48
0 110 0 137 -1 99 -1 95 -2 95 42 l0 40 -90 -3 c-50 -2 -89 0 -88 4 2 4 28 34
59 66 73 75 103 133 103 199 0 62 -22 100 -69 120 -36 15 -109 17 -161 5z
m-28 -60 c-4 -5 0 -12 6 -14 8 -3 6 -6 -4 -6 -18 -1 -24 10 -11 22 9 10 15 8
9 -2z"/>
<path d="M1387 1511 c-60 -54 -89 -187 -67 -307 21 -108 83 -162 176 -151 59
6 92 31 123 93 22 42 25 62 25 149 0 79 -5 109 -21 145 -32 72 -63 93 -137 98
-59 4 -65 2 -99 -27z m135 -72 c23 -31 33 -159 19 -236 -15 -79 -71 -103 -109
-45 -13 20 -17 49 -17 127 0 55 3 112 8 127 17 61 64 74 99 27z"/>
<path d="M280 1430 l0 -100 155 0 155 0 0 100 0 100 -155 0 -155 0 0 -100z
m160 70 c0 -5 -2 -10 -4 -10 -3 0 -8 5 -11 10 -3 6 -1 10 4 10 6 0 11 -4 11
-10z m0 -140 c0 -5 -5 -10 -11 -10 -5 0 -7 5 -4 10 3 6 8 10 11 10 2 0 4 -4 4
-10z"/>
<path d="M2150 1484 c-68 -44 -113 -86 -151 -141 -33 -47 -36 -58 -13 -49 8 3
12 2 9 -3 -3 -5 -1 -12 5 -16 14 -9 13 -18 -6 -41 -8 -10 -12 -12 -8 -4 4 9 3
12 -2 7 -12 -11 -15 -79 -3 -72 5 4 9 13 9 20 0 45 128 224 150 210 6 -4 9 -1
8 7 -2 7 17 23 42 36 33 18 38 22 17 18 -22 -5 -27 -4 -21 6 4 7 4 10 0 6 -4
-3 -7 -9 -6 -13 1 -7 -44 -45 -55 -45 -3 0 -3 6 1 13 5 9 3 9 -7 -1 -8 -7 -14
-17 -14 -22 0 -6 -3 -9 -6 -7 -13 5 -37 -25 -32 -40 5 -12 3 -14 -7 -8 -7 5
-11 4 -8 -1 3 -5 -4 -24 -17 -42 l-23 -33 -6 26 c-8 32 1 48 62 109 57 58 135
104 140 83 3 -13 80 -53 95 -49 4 1 6 -4 5 -10 -2 -7 4 -11 12 -10 8 2 12 0 8
-4 -4 -4 -2 -14 5 -23 6 -8 -9 1 -34 22 -25 20 -52 37 -60 37 -11 0 -11 -2 1
-11 12 -8 10 -9 -8 -4 -12 4 -22 3 -21 -2 4 -22 -3 -33 -22 -33 -13 0 -18 4
-13 12 4 7 3 8 -5 4 -19 -12 -2 -26 34 -26 25 0 35 -5 40 -19 4 -12 12 -18 21
-14 8 3 20 0 28 -6 7 -6 16 -8 19 -4 4 3 -1 11 -10 18 -11 8 -13 14 -5 19 7 4
23 -4 37 -18 27 -27 46 -36 26 -13 -6 8 -7 18 -3 22 4 5 2 5 -5 2 -7 -5 -9 0
-6 13 4 16 8 18 19 9 11 -9 11 -15 3 -25 -6 -8 -10 -14 -8 -15 2 0 13 -2 24
-4 11 -2 21 -8 23 -14 4 -12 49 -61 57 -61 12 0 -25 57 -69 106 -45 51 -131
115 -171 128 -14 4 -38 -5 -75 -30z m145 -84 c3 -5 -3 -14 -14 -19 -26 -15
-31 -14 -25 4 4 10 0 15 -15 15 -25 0 -28 17 -3 23 18 4 47 -7 57 -23z"/>
<path d="M48 1493 c7 -3 16 -2 19 1 4 3 -2 6 -13 5 -11 0 -14 -3 -6 -6z"/>
<path d="M8 1483 c7 -3 16 -2 19 1 4 3 -2 6 -13 5 -11 0 -14 -3 -6 -6z"/>
<path d="M177 1449 c7 -7 15 -10 18 -7 3 3 -2 9 -12 12 -14 6 -15 5 -6 -5z"/>
<path d="M2938 1453 c7 -3 16 -2 19 1 4 3 -2 6 -13 5 -11 0 -14 -3 -6 -6z"/>
<path d="M10 1440 c-18 -12 -2 -12 25 0 13 6 15 9 5 9 -8 0 -22 -4 -30 -9z"/>
<path d="M3038 1433 c7 -3 16 -2 19 1 4 3 -2 6 -13 5 -11 0 -14 -3 -6 -6z"/>
<path d="M2998 1423 c7 -3 16 -2 19 1 4 3 -2 6 -13 5 -11 0 -14 -3 -6 -6z"/>
<path d="M164 1388 c2 -7 11 -13 21 -13 10 0 19 6 21 13 1 7 0 8 -3 2 -2 -5
-11 -10 -18 -10 -7 0 -16 5 -18 10 -3 6 -4 5 -3 -2z"/>
<path d="M2158 1373 c-16 -2 -28 -7 -28 -11 0 -12 50 -7 55 6 2 6 3 11 2 11
-1 -1 -14 -4 -29 -6z"/>
<path d="M2640 1359 c-19 -5 -14 -7 23 -8 26 -1 47 1 47 3 0 8 -46 12 -70 5z"/>
<path d="M167 1354 c-14 -14 -6 -24 19 -24 16 0 24 5 22 13 -5 14 -31 21 -41
11z"/>
<path d="M2183 1343 c-16 -6 -17 -47 -1 -72 9 -15 8 -22 -3 -33 -8 -8 -21 -13
-29 -10 -10 3 -9 0 3 -10 11 -8 16 -20 12 -30 -6 -15 -11 -13 -32 12 -14 17
-30 30 -37 30 -16 0 -56 -42 -56 -59 0 -7 -4 -9 -10 -6 -5 3 -10 2 -10 -4 0
-5 6 -12 13 -15 9 -5 9 -7 -1 -12 -17 -8 -5 -24 19 -24 11 0 18 -4 14 -9 -3
-6 4 -8 17 -6 12 3 25 -1 29 -7 6 -9 13 -7 28 6 13 12 21 14 21 7 0 -7 6 -9
13 -6 6 4 3 -1 -7 -9 -11 -9 -26 -16 -33 -16 -7 0 -13 -5 -13 -11 0 -5 -5 -7
-12 -3 -8 5 -9 2 -4 -12 5 -13 -5 -7 -30 16 -23 22 -35 28 -31 17 4 -11 3 -16
-4 -12 -6 4 -8 13 -5 20 2 7 -4 21 -14 30 -12 11 -17 26 -14 42 4 21 2 22 -10
11 -7 -7 -12 -17 -9 -22 5 -8 -48 23 -57 34 -12 15 -90 39 -95 30 -3 -6 1 -10
9 -10 9 0 16 -5 16 -11 0 -5 -6 -7 -12 -3 -7 4 -10 4 -6 -1 4 -4 0 -14 -10
-22 -15 -13 -15 -13 5 -3 32 15 88 -15 171 -95 54 -51 65 -66 55 -76 -11 -11
-13 -10 -14 1 -1 8 -1 18 0 22 0 5 -2 7 -7 6 -4 -1 -18 2 -30 6 -16 5 -22 14
-19 26 3 12 0 17 -12 15 -19 -3 -43 14 -36 25 3 5 0 12 -6 16 -8 4 -9 3 -5 -4
10 -17 -2 -15 -38 7 -31 20 -31 20 -56 -1 -14 -11 -20 -17 -13 -14 21 11 112
-25 136 -53 12 -15 27 -26 33 -24 11 4 13 -3 16 -57 1 -16 6 -30 11 -30 4 0 1
-7 -7 -16 -19 -18 -21 -38 -3 -28 8 5 7 2 -2 -9 -12 -15 -12 -17 2 -11 10 3
32 -9 60 -35 40 -37 57 -43 57 -19 0 5 -4 6 -10 3 -5 -3 -7 0 -4 9 3 8 -2 28
-11 46 -13 25 -19 29 -30 20 -20 -17 -47 -9 -35 10 9 13 11 13 19 1 7 -11 12
-7 25 17 15 28 14 31 -7 46 -20 15 -20 16 -1 7 15 -7 25 -6 34 2 12 10 12 9 2
-4 -9 -12 -8 -20 4 -37 8 -12 12 -27 8 -33 -4 -8 -9 -7 -15 2 -6 10 -9 10 -9
2 0 -19 17 -24 30 -8 7 8 8 20 4 27 -11 17 -15 43 -5 32 13 -16 31 -65 22 -59
-13 8 -22 -10 -15 -29 3 -9 11 -13 18 -9 6 3 8 3 4 -1 -8 -10 23 -47 34 -40 4
3 8 -3 8 -12 0 -16 -1 -16 -20 1 -11 10 -20 14 -21 9 0 -5 -5 2 -10 15 -19 47
-17 14 2 -44 18 -55 26 -86 28 -108 1 -5 6 -5 11 -2 6 3 10 -1 10 -10 0 -9 -4
-14 -8 -11 -5 3 -9 -1 -9 -9 0 -8 4 -12 9 -9 4 3 8 -13 8 -36 0 -27 -4 -39
-11 -34 -8 5 -8 1 0 -14 13 -24 14 -45 3 -38 -5 3 -9 -1 -9 -9 0 -8 4 -12 9
-9 4 3 8 -13 8 -36 0 -23 -4 -39 -8 -36 -5 3 -9 -1 -9 -9 0 -8 4 -12 9 -9 4 3
8 -2 8 -10 0 -9 -4 -16 -10 -16 -5 0 -10 -8 -10 -17 0 -15 2 -16 10 -3 8 12
10 10 10 -8 0 -16 -4 -21 -12 -16 -10 6 -10 4 0 -7 13 -14 17 -53 4 -45 -5 3
-9 -1 -9 -9 0 -8 4 -12 9 -9 4 3 8 -2 8 -11 0 -9 -4 -14 -8 -11 -5 3 -9 -1 -9
-9 0 -8 4 -12 9 -9 4 3 8 -2 8 -10 0 -9 -4 -16 -10 -16 -5 0 -10 -7 -10 -16 0
-8 5 -12 10 -9 6 3 10 -1 10 -9 0 -10 -6 -13 -15 -10 -12 5 -15 31 -15 151 0
93 4 142 10 138 6 -3 10 -1 10 4 0 6 -4 11 -9 11 -5 0 -11 51 -14 113 -5 133
-8 146 -26 169 -11 13 -18 14 -28 6 -17 -13 -17 -31 0 -23 6 4 -1 -5 -18 -20
-16 -14 -29 -30 -27 -36 1 -6 -3 -18 -10 -27 -12 -13 -10 -14 10 -3 21 11 22
10 22 -29 0 -34 -3 -40 -21 -40 -11 0 -17 5 -14 10 3 6 2 10 -3 10 -5 0 -8 20
-7 44 1 32 -2 43 -11 39 -6 -2 -15 0 -19 6 -6 11 7 15 34 11 13 -1 13 1 2 14
-14 17 -56 23 -46 6 4 -6 -1 -7 -11 -3 -19 7 -13 11 37 26 12 4 16 15 14 38
-2 33 -30 63 -48 52 -6 -3 -7 -1 -3 5 4 7 3 12 -2 12 -22 0 -116 -130 -95
-130 5 0 2 -4 -6 -9 -8 -5 -11 -16 -8 -26 4 -9 11 -13 17 -10 5 3 10 2 10 -4
0 -5 -4 -13 -10 -16 -13 -8 -13 -25 -1 -25 5 0 15 13 23 30 15 35 38 40 37 8
0 -22 -1 -22 -10 -3 l-9 20 2 -20 c1 -11 -3 -29 -9 -41 -10 -17 -9 -21 3 -21
7 0 14 8 14 18 0 24 18 33 35 19 17 -14 16 -57 -2 -57 -6 0 -10 4 -7 8 2 4 0
11 -6 14 -6 4 -9 1 -8 -6 2 -7 -10 -13 -30 -15 -36 -3 -43 6 -46 56 -1 16 -5
32 -9 36 -4 4 -7 -108 -7 -249 0 -165 -4 -257 -10 -257 -6 0 -10 81 -11 223 0
271 -3 299 -33 354 -14 24 -21 43 -16 43 5 0 21 -25 36 -56 l28 -56 12 42 c7
23 20 50 30 61 9 10 12 19 6 19 -6 0 -14 -5 -17 -10 -4 -7 -13 -6 -26 1 -12 6
-23 8 -27 5 -3 -3 0 -6 6 -6 7 0 12 -12 12 -27 -1 -28 -1 -28 -19 7 -11 19
-22 34 -25 33 -16 -7 -37 -2 -31 7 3 6 1 10 -5 10 -8 0 -9 -7 -5 -17 4 -10 8
-23 9 -28 1 -6 9 -21 19 -35 25 -35 21 -43 -10 -23 -16 9 -25 13 -21 8 5 -4
-1 -14 -12 -22 -10 -7 -17 -20 -14 -27 3 -8 -4 -20 -15 -28 -19 -14 -20 -25
-21 -216 -1 -122 -5 -202 -11 -202 -6 0 -9 78 -7 203 2 131 -1 204 -7 204 -6
0 -9 -90 -8 -254 l1 -253 -23 0 c-25 0 -28 18 -7 43 9 10 10 17 2 22 -5 3 -10
3 -10 -2 0 -4 -5 -1 -10 7 -7 12 -12 12 -22 2 -6 -6 -19 -12 -27 -12 -14 0
-16 23 -16 170 0 153 2 170 17 170 9 0 19 4 22 8 3 5 -5 8 -17 8 -20 -1 -22 4
-22 59 0 33 -3 65 -7 71 -10 15 -5 124 4 117 5 -2 7 4 6 14 0 10 0 27 1 38 1
17 3 18 12 5 8 -12 9 -10 4 8 -4 14 1 32 15 53 12 16 19 33 16 36 -7 8 -7 9
-42 -47 l-29 -45 0 -367 0 -368 458 0 c251 0 457 3 458 8 6 40 5 80 -2 99 -5
14 -4 25 2 29 7 4 7 10 0 18 -6 7 -8 16 -4 19 8 9 12 68 4 63 -3 -2 -6 7 -6
20 0 13 5 24 10 24 6 0 3 5 -5 11 -11 8 -12 12 -2 16 6 2 12 9 12 14 0 6 -3 8
-7 6 -5 -3 -8 6 -8 19 0 13 4 24 9 24 6 0 5 5 -2 12 -15 15 -16 32 -2 23 14
-9 13 8 -2 23 -9 9 -9 12 1 12 7 0 9 5 4 13 -11 18 -10 81 2 89 6 5 5 8 -2 8
-9 0 -10 7 -3 26 6 14 7 23 2 21 -4 -3 -7 68 -6 156 0 92 -4 168 -9 175 -6 7
-10 27 -11 45 -1 18 -7 33 -13 33 -7 1 -19 2 -26 3 -15 1 -11 81 5 81 5 0 6
-10 3 -22 -4 -16 -3 -19 3 -10 7 11 11 10 16 -4 3 -9 9 -15 12 -12 2 3 -6 27
-19 53 -18 35 -26 43 -30 30 -4 -9 -3 -14 3 -10 6 3 10 2 10 -4 0 -20 -22 -23
-41 -5 -16 15 -24 16 -39 6 -12 -7 -21 -8 -25 -2 -8 14 20 23 51 17 13 -2 22
-2 19 1 -2 3 0 11 6 18 12 15 0 42 -27 65 -10 8 -15 9 -11 3 4 -7 2 -25 -4
-42 -10 -31 -49 -50 -71 -36 -8 5 -9 1 -5 -10 4 -11 1 -19 -11 -23 -9 -4 -20
-11 -24 -17 -11 -16 -10 -38 2 -31 6 4 8 11 4 16 -3 6 3 13 15 16 12 3 21 9
21 14 0 11 27 12 34 1 2 -4 -3 -16 -11 -27 -12 -16 -16 -17 -20 -6 -4 9 -13 1
-28 -24 -22 -36 -23 -37 -31 -14 -4 13 -7 27 -6 32 1 4 -5 7 -14 7 -8 0 -13 4
-9 10 3 5 13 6 21 3 14 -5 14 -3 3 15 -9 14 -10 24 -2 34 6 7 9 21 8 31 -2 9
1 15 6 11 5 -3 9 -12 9 -20 0 -8 3 -13 8 -11 9 6 8 64 -1 74 -4 3 -7 -1 -7 -9
0 -11 -6 -14 -20 -11 -11 3 -17 9 -14 14 3 5 10 6 16 3 7 -4 8 -2 4 4 -11 18
15 14 36 -5 20 -18 25 -4 6 15 -12 12 -43 15 -65 5z m180 -62 c3 -11 -1 -22
-7 -24 -8 -3 -12 3 -10 16 4 35 9 37 17 8z m-251 -85 c-11 -19 -5 -78 9 -88
11 -8 10 -8 -4 -4 -10 3 -23 6 -29 6 -6 0 -8 7 -5 15 4 8 1 17 -5 21 -6 4 -8
3 -5 -3 4 -6 -2 -13 -13 -16 -16 -4 -18 -2 -11 10 4 9 6 24 4 34 -4 13 0 19
12 19 15 0 16 -2 4 -17 -13 -16 -12 -17 4 -4 13 10 15 17 6 27 -9 11 -6 14 14
12 14 -1 23 -7 19 -12z m238 4 c0 -5 -7 -10 -15 -10 -8 0 -15 5 -15 10 0 6 7
10 15 10 8 0 15 -4 15 -10z m-210 -20 c0 -5 -4 -10 -10 -10 -5 0 -10 5 -10 10
0 6 5 10 10 10 6 0 10 -4 10 -10z m240 -8 c0 -8 -5 -10 -12 -6 -10 6 -10 4 0
-7 17 -18 15 -32 -3 -25 -9 3 -15 0 -15 -9 0 -25 -30 -17 -31 8 0 12 -3 16 -6
10 -7 -18 -23 -16 -23 2 0 8 6 15 13 16 10 0 10 2 0 6 -27 10 -11 20 32 19 30
-1 45 -5 45 -14z m-176 -57 c9 -25 15 -33 16 -20 0 11 8 31 16 45 11 18 14 19
9 5 -5 -16 -4 -18 6 -7 7 6 17 12 23 12 5 0 6 -3 3 -7 -4 -3 2 -13 13 -20 11
-8 18 -17 16 -21 -6 -10 63 -7 72 3 4 5 1 5 -7 0 -9 -5 -12 -4 -7 3 4 7 15 8
30 2 13 -5 26 -7 28 -5 2 2 4 -5 5 -15 1 -11 -4 -20 -10 -20 -8 0 -7 -4 2 -9
12 -8 12 -13 3 -24 -10 -11 -9 -17 3 -27 18 -15 20 -44 3 -34 -10 6 -10 4 0
-7 13 -14 17 -43 4 -35 -4 2 -8 -4 -8 -14 0 -10 4 -16 8 -14 4 3 8 -2 8 -11 0
-9 -4 -14 -8 -11 -5 3 -9 -1 -9 -9 0 -8 4 -12 9 -9 4 3 8 -4 8 -15 0 -13 -5
-18 -13 -15 -8 3 -14 -2 -14 -11 0 -9 6 -14 14 -11 8 3 13 -2 13 -14 0 -11 -4
-20 -10 -20 -5 0 -10 -5 -10 -11 0 -5 5 -7 10 -4 6 3 10 -1 10 -10 0 -9 -4
-14 -8 -11 -5 3 -9 -1 -9 -9 0 -8 4 -12 9 -9 4 3 8 -2 8 -11 0 -9 -4 -13 -10
-10 -5 3 -10 2 -10 -4 0 -5 5 -13 10 -16 23 -14 9 -32 -23 -30 -20 0 -34 -4
-34 -11 0 -9 7 -10 24 -3 15 5 23 5 23 -2 0 -6 4 -8 9 -5 4 3 8 -12 8 -32 0
-37 -1 -38 -33 -37 -18 1 -31 -2 -28 -6 2 -4 13 -6 24 -4 15 3 20 -2 21 -18 0
-21 1 -21 9 -2 8 19 9 19 9 -2 1 -12 -7 -27 -16 -33 -17 -11 -17 -11 0 -6 18
6 25 -18 7 -29 -5 -3 -10 -31 -10 -61 0 -34 4 -53 10 -49 22 13 8 -22 -19 -50
-45 -46 -59 -56 -66 -45 -3 6 -2 10 3 10 11 0 8 62 -3 81 -5 7 -1 9 11 5 11
-3 26 -1 34 4 12 8 9 9 -10 8 -21 -3 -25 1 -25 24 -1 15 -4 30 -8 34 -11 12
14 46 29 40 9 -3 12 -1 9 5 -4 5 -16 7 -27 3 -14 -4 -18 -2 -14 5 10 16 -3 14
-20 -3 -8 -8 -10 -17 -6 -20 5 -3 9 -52 9 -108 0 -97 -8 -135 -28 -122 -5 3
-6 -2 -3 -10 4 -11 0 -16 -14 -16 -20 0 -46 -23 -36 -32 3 -3 1 -9 -4 -12 -18
-11 -12 73 6 85 16 10 16 10 0 5 -21 -6 -24 14 -5 33 10 11 9 12 -1 6 -10 -5
-13 -1 -10 16 2 19 9 23 39 22 24 0 36 4 36 14 0 9 -4 10 -11 3 -16 -16 -46
-12 -40 5 4 8 12 15 19 15 8 0 17 5 21 12 4 6 3 8 -2 5 -6 -3 -16 -1 -24 4
-13 8 -12 12 4 24 11 8 15 15 10 15 -6 0 -15 -5 -22 -12 -9 -9 -12 -8 -12 6 0
9 -4 14 -10 11 -6 -4 -10 10 -10 35 0 30 3 39 13 34 10 -6 10 -4 0 7 -7 7 -13
30 -13 51 0 31 3 36 18 32 16 -5 16 -5 0 6 -14 9 -18 24 -17 75 1 45 5 63 13
58 6 -3 6 0 -1 8 -7 7 -13 20 -13 28 0 14 1 14 10 1 9 -13 14 -7 11 13 -1 10
21 9 38 -2 17 -11 4 -34 -16 -27 -8 3 -11 1 -8 -4 4 -6 12 -10 18 -9 20 3 47
-12 47 -28 0 -9 -5 -11 -12 -7 -9 6 -9 3 1 -9 17 -21 7 -54 -12 -39 -8 7 -18
7 -27 2 -16 -10 -10 -13 31 -13 14 0 17 -11 17 -64 0 -68 4 -79 22 -68 7 5 8
11 1 19 -7 9 -7 16 1 24 7 7 8 12 2 12 -12 0 -13 49 -1 67 4 6 3 14 -1 17 -13
8 -6 74 9 93 8 9 9 14 3 10 -7 -4 -14 0 -18 8 -3 8 -1 15 3 15 5 0 11 7 14 14
4 10 1 13 -9 9 -19 -7 -18 16 3 39 12 13 13 18 4 16 -8 -2 -14 9 -17 31 -3 28
-1 32 13 27 17 -6 17 -5 1 7 -21 17 -21 75 1 102 15 19 15 19 -3 5 -17 -14
-18 -13 -12 6 4 13 1 26 -8 33 -12 11 -14 8 -11 -19 3 -21 1 -28 -7 -24 -7 5
-8 2 -2 -7 5 -8 9 -40 10 -73 2 -67 -20 -100 -68 -102 -28 -2 -28 -1 -28 60 0
36 5 68 13 75 10 11 10 13 0 7 -19 -10 -17 59 2 77 13 13 13 16 -1 21 -8 3
-12 2 -9 -4 3 -6 1 -10 -4 -10 -7 0 -12 -45 -13 -127 -1 -71 -3 -111 -5 -90
-2 20 -9 37 -14 37 -5 0 -7 -12 -4 -27 6 -26 5 -26 -7 -8 -15 24 -16 34 -7 61
4 11 3 27 -2 35 -8 12 -11 12 -20 -1 -8 -12 -9 -11 -4 7 4 15 0 25 -12 32 -10
5 -15 13 -11 17 5 4 3 13 -3 21 -15 17 17 57 38 48 8 -2 11 0 8 5 -3 6 -2 10
4 10 5 0 11 -6 14 -12 3 -7 4 -2 4 12 -1 23 -25 52 -37 45 -3 -2 -6 5 -7 15
-1 13 3 17 14 13 12 -5 14 -3 8 8 -6 10 -5 11 3 4 6 -6 18 -28 26 -50z m-64
25 c0 -5 -4 -10 -10 -10 -5 0 -10 5 -10 10 0 6 5 10 10 10 6 0 10 -4 10 -10z
m-253 -36 c-3 -3 -12 -4 -19 -1 -8 3 -5 6 6 6 11 1 17 -2 13 -5z m168 -133
c10 -16 23 -27 27 -25 4 3 5 -2 1 -12 -5 -14 -8 -13 -25 7 -15 20 -17 21 -12
4 4 -11 4 -17 0 -13 -4 3 -9 12 -10 20 -1 7 -7 23 -14 35 -19 34 8 20 33 -16z
m26 16 c-10 -9 -11 -8 -5 6 3 10 9 15 12 12 3 -3 0 -11 -7 -18z m249 -143 c0
-8 -4 -12 -10 -9 -5 3 -10 10 -10 16 0 5 5 9 10 9 6 0 10 -7 10 -16z m-12 -26
c15 -15 16 -38 2 -38 -5 0 -10 6 -10 14 0 8 -4 17 -9 20 -5 4 -7 -4 -3 -16 4
-18 2 -20 -14 -13 -10 4 -27 8 -36 9 -10 0 -18 6 -18 14 0 7 4 11 9 8 5 -4 20
-2 33 3 31 13 32 13 46 -1z m-348 -19 c-9 -15 -8 -24 2 -37 12 -15 11 -16 -4
-3 -10 7 -18 9 -18 3 0 -16 27 -64 42 -73 9 -6 9 -9 1 -9 -6 0 -21 12 -32 26
-12 15 -21 22 -21 17 0 -5 -7 -10 -15 -10 -8 0 -15 4 -15 9 0 4 7 8 16 8 11 0
15 6 11 20 -3 11 3 30 15 45 24 30 33 33 18 4z m360 -45 c0 -20 -7 -17 -20 6
-9 16 -8 18 5 14 8 -4 15 -12 15 -20z m-130 0 c0 -8 -5 -12 -10 -9 -6 4 -8 11
-5 16 9 14 15 11 15 -7z m0 -46 c0 -18 -2 -20 -9 -8 -6 8 -7 18 -5 22 9 14 14
9 14 -14z m17 -165 c-2 -37 -3 -9 -3 62 0 72 1 102 3 68 2 -34 2 -93 0 -130z
m-401 131 c10 4 15 4 12 0 -4 -4 -3 -14 2 -23 5 -10 5 -33 0 -54 -4 -20 -5
-37 -1 -37 4 0 9 -88 10 -196 1 -112 -2 -193 -7 -190 -5 3 -8 -8 -6 -24 3 -26
0 -30 -21 -30 -29 0 -31 6 -10 26 22 22 18 32 -9 29 -18 -2 -23 1 -19 11 3 8
10 11 16 7 6 -4 7 -1 2 6 -6 10 -11 9 -23 -3 -14 -13 -14 -20 -4 -36 18 -29
15 -40 -13 -40 l-25 0 0 250 c0 239 1 250 20 262 11 7 20 20 20 30 0 19 22 30
31 15 4 -5 15 -7 25 -3z m184 -36 c0 -6 -7 -5 -15 2 -8 7 -15 17 -15 22 0 6 7
5 15 -2 8 -7 15 -17 15 -22z m149 17 c5 2 8 -6 7 -18 -1 -12 -7 -21 -14 -19
-7 1 -12 -5 -12 -14 0 -8 4 -13 8 -10 5 3 9 -2 9 -10 0 -10 -4 -11 -11 -4 -13
13 -29 13 -21 0 3 -5 2 -10 -3 -10 -5 0 -9 16 -9 35 0 22 4 32 11 27 17 -10
36 -11 36 -1 0 5 -4 9 -10 9 -5 0 -10 8 -9 18 0 10 3 12 6 4 2 -6 8 -10 12 -7z
m-122 -92 c-3 -10 -5 -4 -5 12 0 17 2 24 5 18 2 -7 2 -21 0 -30z m-113 -18
c-4 -8 -14 -15 -23 -14 -10 0 -11 2 -3 6 6 2 10 9 6 14 -3 5 2 9 10 9 10 0 13
-6 10 -15z m83 1 c0 -8 -10 -12 -26 -10 -33 3 -33 3 -27 12 8 13 53 12 53 -2z
m73 -1 c-7 -8 -17 -15 -22 -15 -11 0 14 29 26 30 5 0 3 -7 -4 -15z m67 -2 c0
-7 -4 -13 -8 -13 -4 0 -9 6 -12 13 -3 8 0 14 7 14 7 0 13 -6 13 -14z m-110
-55 c-2 -13 -4 -5 -4 17 -1 22 1 32 4 23 2 -10 2 -28 0 -40z m-102 15 c14 -19
0 -53 -22 -53 -20 0 -15 30 5 31 16 1 16 2 0 6 -20 5 -25 33 -7 33 7 0 17 -8
24 -17z m66 10 c0 -5 2 -22 4 -39 4 -25 0 -33 -14 -37 -14 -3 -18 -1 -14 9 3
8 0 14 -7 14 -9 0 -9 4 1 17 10 11 10 14 2 9 -16 -9 -17 6 -1 22 14 14 28 16
29 5z m76 -15 c-3 -10 -1 -21 4 -24 8 -5 14 17 10 39 -1 5 3 6 9 2 6 -3 8 -11
4 -16 -9 -15 29 -6 41 9 8 10 11 9 11 -7 0 -11 -4 -17 -8 -15 -4 3 -8 -2 -8
-10 0 -19 -11 -21 -28 -4 -9 9 -12 9 -12 0 0 -7 -8 -12 -18 -12 -10 0 -19 -6
-19 -14 0 -8 9 -17 19 -19 10 -3 18 -1 18 4 0 5 8 9 17 9 13 0 14 -3 5 -12
-20 -20 -13 -32 7 -14 29 26 39 13 39 -49 -1 -37 -5 -52 -12 -48 -6 4 -5 -1 3
-10 11 -14 11 -20 0 -34 -10 -11 -10 -14 -1 -9 9 5 12 -2 12 -26 0 -41 -13
-63 -33 -55 -11 4 -14 1 -10 -9 3 -10 0 -12 -10 -8 -9 3 -14 14 -12 25 2 11 0
17 -6 14 -5 -4 -7 -11 -4 -16 4 -5 -1 -9 -10 -9 -9 0 -13 -4 -10 -10 3 -5 -1
-10 -9 -10 -14 0 -16 21 -14 161 1 88 6 163 11 166 4 2 3 10 -2 17 -8 9 -6 13
5 13 10 0 14 -7 11 -19z m150 -60 c-3 -7 -5 -2 -5 12 0 14 2 19 5 13 2 -7 2
-19 0 -25z m-190 -45 c-2 -16 -4 -5 -4 22 0 28 2 40 4 28 2 -13 2 -35 0 -50z
m-80 14 c-7 -12 -18 -30 -26 -39 -12 -16 -12 -21 4 -38 17 -19 19 -19 37 -3
16 15 17 18 3 33 -18 20 -19 42 -3 58 28 28 38 13 38 -53 0 -55 -3 -65 -17
-66 -17 -1 -17 -2 0 -6 21 -5 22 -19 2 -27 -8 -3 -21 4 -30 17 -8 12 -16 18
-16 14 -5 -25 -5 -33 -1 -41 3 -4 9 -2 14 5 8 11 9 11 5 -1 -2 -8 -10 -14 -16
-12 -7 1 -9 -6 -5 -22 3 -14 1 -27 -6 -31 -9 -6 -9 -10 1 -17 11 -7 9 -8 -4
-4 -10 3 -23 6 -29 6 -6 0 -8 9 -5 20 3 13 1 18 -6 13 -7 -4 -8 0 -4 11 4 10
7 22 7 27 0 5 4 9 10 9 5 0 6 -8 3 -17 -6 -15 -5 -16 8 -3 21 19 20 38 -3 32
-15 -4 -18 2 -19 37 -4 121 -3 124 27 118 19 -3 24 -1 19 11 -4 12 -3 13 9 3
12 -10 13 -17 3 -34z m270 -174 c-2 -37 -3 -10 -3 62 0 72 1 102 3 68 2 -34 2
-93 0 -130z m33 156 c0 -5 -4 -9 -10 -9 -5 0 -10 7 -10 16 0 8 5 12 10 9 6 -3
10 -10 10 -16z m187 -1 c-3 -8 -6 -5 -6 6 -1 11 2 17 5 13 3 -3 4 -12 1 -19z
m-191 -33 c-3 -20 -16 -31 -16 -13 0 13 8 28 16 28 1 0 1 -7 0 -15z m-219 -47
c-3 -7 -5 -2 -5 12 0 14 2 19 5 13 2 -7 2 -19 0 -25z m402 -72 c-9 -8 -10 -8
-4 3 6 11 4 13 -8 8 -11 -4 -17 -1 -17 8 0 8 6 12 14 9 9 -3 13 2 12 18 -1 13
0 28 3 33 3 6 7 -7 9 -29 2 -21 -2 -44 -9 -50z m-39 18 c0 -8 -5 -12 -10 -9
-6 4 -8 11 -5 16 9 14 15 11 15 -7z m-391 -44 c1 -52 -9 -61 -39 -39 -12 9
-11 10 5 5 19 -6 19 -5 3 8 -22 16 -24 46 -4 46 8 0 18 5 22 12 5 7 3 8 -6 3
-9 -5 -11 -4 -6 3 15 24 23 10 25 -38z m391 11 c0 -4 11 -6 24 -4 22 5 24 2
24 -31 0 -20 -4 -34 -8 -31 -5 3 -7 17 -4 30 5 28 1 30 -26 15 -14 -7 -19 -5
-23 10 -3 11 -1 20 4 20 5 0 9 -4 9 -9z m-65 -11 c3 -5 1 -10 -4 -10 -6 0 -11
5 -11 10 0 6 2 10 4 10 3 0 8 -4 11 -10z m-617 -31 c2 -19 -2 -28 -8 -24 -12
7 -14 55 -2 55 4 0 9 -14 10 -31z m319 -1 c-3 -8 -6 -5 -6 6 -1 11 2 17 5 13
3 -3 4 -12 1 -19z m-394 -12 c7 3 5 0 -4 -8 -9 -7 -14 -19 -12 -25 3 -9 -6
-13 -27 -13 -27 0 -30 2 -20 19 7 14 6 21 -3 25 -6 3 0 4 16 1 15 -3 27 -2 26
2 -3 18 4 27 8 10 2 -9 10 -15 16 -11z m662 -7 c-8 -12 -35 -11 -35 2 0 5 5 7
10 4 6 -3 10 -1 10 5 0 6 5 8 10 5 6 -4 8 -11 5 -16z m95 6 c0 -6 -9 -11 -20
-11 -11 0 -20 5 -20 11 0 6 9 11 20 11 11 0 20 -5 20 -11z m17 -7 c-3 -8 -6
-5 -6 6 -1 11 2 17 5 13 3 -3 4 -12 1 -19z m-497 2 c0 -5 -2 -10 -4 -10 -3 0
-8 5 -11 10 -3 6 -1 10 4 10 6 0 11 -4 11 -10z m420 0 c0 -5 -4 -10 -10 -10
-5 0 -10 5 -10 10 0 6 5 10 10 10 6 0 10 -4 10 -10z m-333 -37 c-7 -6 -46 10
-41 18 3 5 14 3 24 -3 11 -7 18 -13 17 -15z m147 11 c5 -14 4 -15 -8 -5 -8 7
-21 9 -27 5 -8 -4 -9 -3 -5 4 10 17 33 15 40 -4z m33 -6 c-3 -8 -6 -5 -6 6 -1
11 2 17 5 13 3 -3 4 -12 1 -19z m-467 8 c0 -3 -4 -8 -10 -11 -5 -3 -10 -1 -10
4 0 6 5 11 10 11 6 0 10 -2 10 -4z m200 -6 c0 -5 -5 -10 -11 -10 -5 0 -7 5 -4
10 3 6 8 10 11 10 2 0 4 -4 4 -10z m180 -1 c0 -5 -9 -9 -20 -9 -11 0 -20 4
-20 8 0 4 9 8 20 9 11 1 20 -2 20 -8z"/>
<path d="M2258 1113 c6 -2 18 -2 25 0 6 3 1 5 -13 5 -14 0 -19 -2 -12 -5z"/>
<path d="M2190 1045 c0 -5 5 -17 10 -25 5 -8 10 -10 10 -5 0 6 -5 17 -10 25
-5 8 -10 11 -10 5z"/>
<path d="M2380 1040 c0 -5 5 -10 11 -10 5 0 7 5 4 10 -3 6 -8 10 -11 10 -2 0
-4 -4 -4 -10z"/>
<path d="M2199 983 c-3 -50 -1 -84 5 -90 3 -4 6 19 6 50 0 31 -2 57 -5 57 -3
0 -5 -8 -6 -17z"/>
<path d="M2390 920 c-9 -6 -10 -10 -3 -10 6 0 15 5 18 10 8 12 4 12 -15 0z"/>
<path d="M2247 894 c-10 -10 -9 -44 1 -44 5 0 17 7 28 15 16 12 17 14 2 15 -9
0 -18 5 -20 11 -2 5 -7 7 -11 3z"/>
<path d="M2375 820 c-3 -6 1 -7 9 -4 18 7 21 14 7 14 -6 0 -13 -4 -16 -10z"/>
<path d="M2375 730 c-3 -6 1 -7 9 -4 18 7 21 14 7 14 -6 0 -13 -4 -16 -10z"/>
<path d="M2240 706 c0 -2 7 -7 16 -10 8 -3 12 -2 9 4 -6 10 -25 14 -25 6z"/>
<path d="M2380 688 c0 -4 4 -8 9 -8 5 0 17 -3 27 -7 16 -6 17 -5 4 8 -15 17
-40 21 -40 7z"/>
<path d="M2367 609 c7 -9 10 -19 6 -23 -4 -4 1 -4 10 0 10 3 17 7 15 8 -2 1
-12 8 -23 16 -18 14 -19 13 -8 -1z"/>
<path d="M2270 529 c0 -5 -4 -7 -10 -4 -5 3 -10 2 -10 -3 0 -15 32 -24 44 -12
8 8 6 9 -7 4 -13 -5 -16 -2 -11 10 3 9 3 16 0 16 -3 0 -6 -5 -6 -11z"/>
<path d="M2259 453 c-13 -17 -13 -17 6 -3 11 8 22 16 24 17 2 2 0 3 -6 3 -6 0
-17 -8 -24 -17z"/>
<path d="M2278 273 c7 -3 16 -2 19 1 4 3 -2 6 -13 5 -11 0 -14 -3 -6 -6z"/>
<path d="M1805 640 c10 -11 20 -20 23 -20 3 0 -3 9 -13 20 -10 11 -20 20 -23
20 -3 0 3 -9 13 -20z"/>
<path d="M1748 563 c18 -4 21 -7 12 -18 -9 -11 -7 -12 8 -8 11 2 23 0 26 -6 4
-6 11 -11 16 -11 5 0 -2 11 -16 25 -14 14 -35 24 -47 24 -22 -2 -22 -2 1 -6z"/>
<path d="M1767 486 c3 -13 0 -27 -6 -30 -6 -4 -11 -12 -11 -19 0 -6 7 -2 15 9
16 21 20 64 6 64 -4 0 -6 -11 -4 -24z"/>
<path d="M1793 444 c4 -4 -1 -17 -10 -28 l-18 -21 25 20 c14 11 26 20 28 21 2
1 -5 5 -15 8 -9 4 -14 4 -10 0z"/>
<path d="M1760 365 c-10 -12 -9 -18 5 -31 15 -15 18 -15 31 -2 14 14 14 16 0
21 -11 4 -13 1 -9 -11 6 -15 5 -15 -11 -3 -17 14 -17 15 0 28 10 7 13 13 7 13
-6 0 -16 -7 -23 -15z"/>
<path d="M1760 275 c0 -8 2 -15 4 -15 2 0 6 7 10 15 3 8 1 15 -4 15 -6 0 -10
-7 -10 -15z"/>
<path d="M1795 249 c-4 -6 -14 -8 -24 -4 -13 5 -14 4 -3 -6 10 -11 15 -10 29
4 10 9 14 17 11 17 -4 0 -10 -5 -13 -11z"/>
<path d="M2077 365 c-4 -8 -1 -17 5 -21 7 -4 8 -3 4 4 -4 7 -2 12 3 12 6 0 11
5 11 10 0 15 -17 12 -23 -5z"/>
<path d="M2110 362 c0 -7 0 -15 1 -18 0 -4 -5 -11 -13 -15 -8 -5 -9 -9 -2 -9
21 0 39 29 26 42 -9 9 -12 9 -12 0z"/>
<path d="M2077 281 c-16 -17 -16 -19 3 -36 19 -18 22 -18 37 -2 16 16 16 18
-2 36 -19 18 -21 18 -38 2z m37 -9 c2 -4 -4 -9 -15 -9 -11 -1 -17 2 -14 8 7
11 22 12 29 1z"/>
<path d="M1960 216 c0 -2 8 -10 18 -17 15 -13 16 -12 3 4 -13 16 -21 21 -21
13z"/>
<path d="M2378 1340 c-3 -8 6 -32 19 -52 12 -21 23 -43 24 -50 0 -7 9 -31 19
-53 l18 -40 -1 59 c-1 45 -7 65 -22 82 -11 12 -27 32 -36 45 -12 18 -17 20
-21 9z m48 -65 c14 -25 25 -48 23 -50 -2 -2 -16 19 -32 46 -34 62 -27 65 9 4z"/>
<path d="M2114 1326 c-3 -8 -4 -23 -2 -33 3 -11 6 -6 9 15 6 34 2 42 -7 18z"/>
<path d="M2628 1333 c7 -3 16 -2 19 1 4 3 -2 6 -13 5 -11 0 -14 -3 -6 -6z"/>
<path d="M2303 1317 c4 -12 1 -17 -10 -17 -12 0 -13 -3 -3 -15 7 -8 16 -12 21
-9 13 8 11 42 -3 50 -8 5 -9 2 -5 -9z"/>
<path d="M2570 1326 c0 -2 7 -7 16 -10 8 -3 12 -2 9 4 -6 10 -25 14 -25 6z"/>
<path d="M160 1308 c0 -13 8 -18 25 -18 17 0 25 5 25 18 0 13 -2 14 -9 4 -4
-8 -12 -14 -16 -14 -4 0 -12 6 -16 14 -7 10 -9 9 -9 -4z"/>
<path d="M2076 1311 c-4 -5 -2 -12 3 -15 5 -4 12 -2 15 3 4 5 2 12 -3 15 -5 4
-12 2 -15 -3z"/>
<path d="M2743 1313 c10 -2 16 -12 15 -20 -2 -10 6 -17 20 -19 12 -2 22 1 22
7 0 5 -4 8 -9 4 -6 -3 -15 4 -21 15 -6 11 -18 19 -28 19 -15 -1 -15 -2 1 -6z"/>
<path d="M2535 1290 c-8 -13 9 -20 24 -11 10 6 9 10 -3 14 -8 3 -18 2 -21 -3z"/>
<path d="M2038 1253 c-35 -53 -25 -71 17 -34 23 20 41 28 54 24 16 -4 21 -1
21 13 0 16 -2 16 -10 4 -8 -12 -10 -12 -16 3 -3 9 -11 17 -17 17 -6 0 -7 -3
-4 -7 8 -7 -31 -53 -46 -53 -5 0 1 16 13 35 29 47 19 45 -12 -2z"/>
<path d="M180 1252 c0 -7 -4 -10 -10 -7 -5 3 -10 1 -10 -4 0 -6 11 -11 25 -11
17 0 25 5 24 18 0 12 -2 13 -6 3 -5 -11 -7 -11 -14 0 -7 11 -9 11 -9 1z"/>
<path d="M2620 1250 c0 -5 5 -10 11 -10 5 0 7 5 4 10 -3 6 -8 10 -11 10 -2 0
-4 -4 -4 -10z"/>
<path d="M2530 1213 c-16 -19 -15 -67 0 -58 5 3 7 12 4 20 -3 7 -1 23 6 34 13
26 9 27 -10 4z"/>
<path d="M157 1214 c-10 -10 25 -33 40 -27 7 3 13 12 13 21 0 13 -2 13 -14 -3
-12 -17 -14 -17 -23 -1 -5 9 -12 14 -16 10z"/>
<path d="M1808 1183 c7 -3 16 -2 19 1 4 3 -2 6 -13 5 -11 0 -14 -3 -6 -6z"/>
<path d="M160 1155 c0 -9 9 -15 25 -15 16 0 25 6 25 15 0 9 -9 15 -25 15 -16
0 -25 -6 -25 -15z"/>
<path d="M1750 1160 c0 -5 -3 -9 -7 -7 -27 8 -219 -210 -200 -229 3 -3 16 13
29 35 29 48 95 121 109 121 6 0 8 -4 4 -9 -3 -5 -1 -12 4 -15 5 -4 8 6 6 21
-3 31 13 47 31 32 8 -7 10 -1 7 18 -3 24 -2 25 6 8 5 -11 10 -18 11 -15 6 21
9 50 5 50 -3 0 -5 -4 -5 -10z"/>
<path d="M2613 1139 c1 -14 7 -26 14 -26 8 0 9 5 4 11 -4 6 -11 18 -14 26 -3
8 -5 3 -4 -11z"/>
<path d="M1783 1133 c-10 -10 -14 -15 -9 -10 19 14 28 7 15 -10 -11 -15 -11
-16 1 -6 12 11 23 43 15 43 -1 0 -11 -8 -22 -17z"/>
<path d="M2520 1129 c0 -5 5 -7 10 -4 6 3 10 8 10 11 0 2 -4 4 -10 4 -5 0 -10
-5 -10 -11z"/>
<path d="M2807 1117 c-11 -29 -9 -43 4 -30 6 6 9 19 7 29 -3 18 -4 18 -11 1z"/>
<path d="M167 1103 c-14 -13 -6 -23 18 -23 16 0 25 6 25 15 0 15 -31 21 -43 8z"/>
<path d="M2515 1100 c3 -5 8 -10 11 -10 2 0 4 5 4 10 0 6 -5 10 -11 10 -5 0
-7 -4 -4 -10z"/>
<path d="M1860 1047 c0 -20 5 -39 10 -42 6 -3 10 -2 10 4 0 6 6 8 14 5 10 -4
12 2 9 23 -5 25 -4 26 8 12 8 -9 25 -19 38 -22 l24 -6 -20 20 c-11 11 -30 21
-44 21 -13 1 -30 6 -36 11 -10 7 -13 1 -13 -26z"/>
<path d="M2501 1064 c0 -11 3 -14 6 -6 3 7 2 16 -1 19 -3 4 -6 -2 -5 -13z"/>
<path d="M168 1058 c10 -13 10 -17 0 -21 -7 -3 1 -5 17 -5 17 0 24 2 17 5 -10
4 -10 8 0 21 11 15 11 15 -3 5 -12 -10 -18 -10 -29 0 -12 10 -12 9 -2 -5z"/>
<path d="M1795 1055 c-25 -12 -26 -14 -5 -9 17 4 22 3 15 -4 -5 -6 -19 -12
-30 -14 -11 -1 -25 -10 -32 -18 -20 -25 -15 -32 8 -9 13 13 29 19 47 16 15 -2
21 -2 15 0 -9 3 -9 11 3 29 19 28 19 28 -21 9z"/>
<path d="M1705 1041 c-3 -5 0 -13 6 -17 7 -4 9 -3 5 4 -3 5 0 13 6 15 9 4 10
6 1 6 -6 1 -14 -3 -18 -8z"/>
<path d="M2514 1032 c3 -5 0 -13 -6 -15 -10 -4 -10 -6 0 -6 6 -1 12 -10 12
-22 0 -11 -4 -17 -10 -14 -5 3 -10 1 -10 -4 0 -7 56 -11 168 -10 92 0 162 3
156 5 -7 3 -10 14 -7 24 3 11 0 20 -6 20 -6 0 -11 -4 -11 -10 0 -6 -33 -10
-78 -10 -49 0 -83 -5 -91 -12 -11 -10 -13 -10 -7 0 5 9 -6 12 -43 12 -44 0
-51 3 -51 19 0 11 -5 23 -12 27 -6 4 -8 3 -4 -4z m199 -59 c-13 -2 -35 -2 -50
0 -16 2 -5 4 22 4 28 0 40 -2 28 -4z"/>
<path d="M1651 1001 c-31 -29 -38 -46 -23 -55 4 -2 14 9 21 26 11 23 16 27 23
17 8 -11 9 -10 5 2 -3 9 0 22 6 28 24 24 -3 9 -32 -18z"/>
<path d="M164 1008 c1 -7 12 -14 24 -16 16 -2 22 2 22 15 0 15 -2 16 -10 3 -9
-13 -10 -13 -10 0 0 12 -2 13 -9 1 -6 -9 -10 -10 -14 -2 -3 7 -5 7 -3 -1z"/>
<path d="M1919 1015 c-1 -3 -2 -9 -3 -14 0 -5 -5 -13 -10 -18 -5 -5 -6 -3 -2
5 6 10 3 13 -10 11 -11 -2 -24 0 -31 4 -23 14 -62 -14 -69 -51 -4 -22 -9 -30
-15 -21 -6 10 -10 10 -22 0 -13 -10 -17 -9 -26 6 -9 16 -10 16 -8 -4 0 -12 5
-19 9 -17 4 3 8 -2 8 -10 0 -8 -4 -18 -10 -21 -5 -3 -10 -1 -10 6 0 7 -3 10
-6 6 -3 -3 -1 -14 5 -24 6 -11 11 -13 11 -5 0 7 5 10 10 7 6 -4 10 -3 9 2 -8
48 15 55 59 18 17 -14 36 -25 43 -25 8 0 3 6 -11 13 -36 18 -49 61 -25 87 40
45 53 10 45 -127 -1 -18 2 -34 7 -34 25 -4 62 -4 58 0 -3 2 3 10 13 17 16 12
15 13 -7 14 -13 0 -30 -8 -38 -17 -13 -17 -13 -16 -4 3 6 12 6 25 1 30 -5 5
-1 19 11 34 11 14 18 18 17 10 -2 -8 -10 -20 -18 -27 -13 -10 -11 -12 12 -18
37 -10 63 -2 62 18 -1 9 2 15 6 12 8 -5 20 28 20 59 0 15 -3 16 -15 6 -9 -8
-13 -21 -10 -34 4 -12 3 -16 -2 -10 -4 6 -17 16 -28 23 -11 7 -13 10 -5 8 32
-8 57 44 31 67 -17 15 -50 22 -52 11z"/>
<path d="M1690 977 c-13 -17 -17 -26 -8 -19 9 7 18 9 20 5 3 -4 4 -3 2 3 -1 6
3 17 9 23 6 6 8 13 6 16 -3 2 -16 -10 -29 -28z"/>
<path d="M160 949 c0 -5 5 -7 10 -4 6 3 10 8 10 11 0 2 -4 4 -10 4 -5 0 -10
-5 -10 -11z"/>
<path d="M1649 918 c-6 -10 -14 -16 -19 -13 -5 3 -12 0 -16 -6 -5 -8 -3 -9 6
-4 10 6 12 3 7 -11 -7 -18 -6 -18 6 -2 8 10 17 14 21 10 4 -4 7 -2 6 3 -6 29
1 38 15 19 14 -19 14 -19 15 2 0 26 -27 27 -41 2z"/>
<path d="M168 918 c10 -13 10 -17 0 -21 -7 -3 0 -6 16 -6 16 -1 27 0 25 2 -2
1 -15 11 -29 22 -17 14 -21 15 -12 3z"/>
<path d="M195 920 c-3 -5 -1 -10 4 -10 6 0 11 5 11 10 0 6 -2 10 -4 10 -3 0
-8 -4 -11 -10z"/>
<path d="M2770 891 c0 -6 -11 -11 -24 -11 -13 0 -34 -8 -47 -18 -29 -23 -55
-33 -63 -25 -3 3 2 12 12 20 12 10 7 9 -16 -2 -18 -9 -38 -13 -44 -9 -7 4 -8
3 -4 -4 3 -6 -3 -16 -15 -22 -15 -8 -19 -8 -15 -1 5 7 1 8 -9 5 -9 -4 -14 -13
-11 -20 3 -7 0 -16 -6 -20 -7 -4 -8 -3 -4 4 11 18 0 14 -15 -5 -10 -11 -10
-14 -1 -9 9 5 12 -13 12 -82 0 -73 3 -91 16 -96 9 -3 17 -6 18 -6 2 0 4 28 5
63 2 71 21 106 68 122 16 6 41 23 55 40 23 26 28 28 42 15 36 -29 53 -85 29
-94 -8 -3 -19 -4 -23 -1 -10 6 -32 -30 -24 -38 3 -3 13 -3 21 0 11 4 14 -1 13
-23 -1 -16 -1 -31 0 -34 6 -18 5 -52 -2 -56 -5 -3 -4 -12 3 -20 9 -11 8 -14
-4 -14 -9 0 -18 -4 -21 -9 -3 -4 6 -6 19 -3 14 2 25 8 25 13 0 14 28 11 33 -3
5 -12 11 25 8 45 0 4 3 7 7 7 5 0 8 10 7 23 -1 12 3 25 9 29 8 5 7 8 -1 8 -7
0 -13 9 -13 20 0 11 6 20 13 20 9 0 9 2 -1 9 -15 9 -13 82 2 93 7 5 7 8 -1 8
-7 0 -13 6 -13 13 0 8 -9 22 -20 32 -11 10 -18 21 -15 23 3 3 16 -5 30 -18 14
-13 25 -19 25 -12 0 6 -13 20 -30 32 -16 12 -30 17 -30 11z m-36 -170 c3 -5
-1 -11 -9 -14 -9 -4 -12 -1 -8 9 6 16 10 17 17 5z m27 -44 c-10 -9 -11 -8 -5
6 3 10 9 15 12 12 3 -3 0 -11 -7 -18z m21 -94 c8 -10 6 -13 -6 -13 -12 0 -16
9 -15 43 2 34 3 36 6 12 3 -16 9 -36 15 -42z"/>
<path d="M161 868 c-1 -13 7 -18 24 -18 17 0 25 5 25 18 0 14 -2 15 -10 2 -9
-13 -10 -13 -10 0 0 12 -2 13 -9 1 -7 -11 -9 -11 -14 0 -4 10 -6 9 -6 -3z"/>
<path d="M1640 860 c-8 -11 -17 -15 -20 -9 -4 5 -15 -8 -25 -31 -10 -22 -15
-43 -12 -47 4 -3 7 1 7 11 0 9 5 14 10 11 6 -4 7 -12 4 -18 -4 -7 -3 -8 2 -4
5 5 10 13 10 18 1 5 2 12 3 15 0 4 8 1 17 -6 12 -11 15 -11 12 1 -2 9 4 13 17
11 15 -2 16 0 7 6 -11 7 -9 10 7 15 27 7 24 42 -4 45 -12 1 -27 -7 -35 -18z
m44 1 c5 -8 -42 -46 -54 -44 -3 1 -11 -3 -17 -9 -14 -12 -16 -7 -7 16 3 9 10
14 14 11 4 -2 15 4 25 15 20 22 31 25 39 11z"/>
<path d="M1644 838 l-19 -23 23 19 c21 18 27 26 19 26 -2 0 -12 -10 -23 -22z"/>
<path d="M1806 844 c-10 -26 -7 -36 7 -22 15 13 19 38 6 38 -4 0 -10 -7 -13
-16z"/>
<path d="M2007 854 c-11 -12 3 -24 28 -24 19 0 23 -4 18 -17 -5 -12 -2 -15 10
-10 18 7 50 -30 40 -46 -3 -6 -1 -7 5 -3 17 10 0 38 -45 75 -39 32 -46 35 -56
25z"/>
<path d="M160 805 c0 -9 10 -15 26 -15 23 0 24 2 10 15 -8 8 -19 15 -25 15 -6
0 -11 -7 -11 -15z"/>
<path d="M1727 809 c7 -7 15 -10 18 -7 3 3 -2 9 -12 12 -14 6 -15 5 -6 -5z"/>
<path d="M1825 810 c3 -5 10 -10 16 -10 5 0 9 5 9 10 0 6 -7 10 -16 10 -8 0
-12 -4 -9 -10z"/>
<path d="M2958 813 c7 -3 16 -2 19 1 4 3 -2 6 -13 5 -11 0 -14 -3 -6 -6z"/>
<path d="M48 803 c7 -3 16 -2 19 1 4 3 -2 6 -13 5 -11 0 -14 -3 -6 -6z"/>
<path d="M2699 808 c-9 -30 -6 -37 12 -27 11 5 17 14 14 20 -6 8 -24 13 -26 7z"/>
<path d="M8 793 c7 -3 16 -2 19 1 4 3 -2 6 -13 5 -11 0 -14 -3 -6 -6z"/>
<path d="M1668 792 c10 -7 10 -11 -2 -21 -8 -7 -20 -10 -25 -6 -6 3 -8 0 -5
-8 3 -8 14 -17 26 -20 15 -4 18 -11 13 -29 -5 -20 -5 -21 5 -5 9 14 9 22 0 32
-18 22 -4 45 26 45 37 0 22 12 -18 17 -20 2 -28 0 -20 -5z"/>
<path d="M2127 793 c-3 -5 0 -19 8 -29 15 -20 18 -11 6 20 -4 11 -10 15 -14 9z"/>
<path d="M2055 770 c4 -12 2 -27 -5 -35 -15 -18 6 -31 25 -15 18 15 20 44 3
34 -10 -6 -10 -5 -1 8 14 16 8 28 -14 28 -10 0 -12 -6 -8 -20z"/>
<path d="M3018 783 c7 -3 16 -2 19 1 4 3 -2 6 -13 5 -11 0 -14 -3 -6 -6z"/>
<path d="M172 763 c14 -17 35 -16 35 1 0 8 -10 13 -23 12 -17 -1 -20 -4 -12
-13z"/>
<path d="M31 759 c-18 -6 -31 -12 -29 -14 2 -3 24 1 49 9 49 16 33 20 -20 5z"/>
<path d="M1585 739 c-5 -15 -10 -18 -15 -10 -4 7 -7 -5 -6 -26 1 -24 6 -37 14
-35 16 3 15 -11 0 -27 -11 -10 -9 -11 5 -5 12 4 17 14 14 25 -5 19 9 29 31 21
6 -2 12 -10 12 -17 0 -8 4 -17 10 -20 6 -4 7 1 3 11 -5 14 -3 15 15 5 15 -8
22 -8 22 -1 0 5 -5 10 -10 10 -6 0 -24 10 -41 22 l-30 23 -19 -25 c-19 -24
-19 -24 -15 -3 2 12 9 31 15 43 6 12 9 24 7 27 -3 2 -8 -5 -12 -18z"/>
<path d="M1722 740 c-7 -12 -10 -25 -7 -30 3 -5 -3 -13 -12 -19 -19 -11 -5
-15 20 -5 9 3 13 13 10 25 -3 10 0 26 7 34 7 8 8 15 4 15 -5 0 -15 -9 -22 -20z"/>
<path d="M2614 721 c4 -36 26 -39 26 -4 0 19 -3 24 -9 14 -7 -11 -9 -11 -14 0
-3 8 -4 3 -3 -10z"/>
<path d="M3008 733 c7 -3 16 -2 19 1 4 3 -2 6 -13 5 -11 0 -14 -3 -6 -6z"/>
<path d="M88 723 c7 -3 16 -2 19 1 4 3 -2 6 -13 5 -11 0 -14 -3 -6 -6z"/>
<path d="M160 718 c0 -4 11 -8 25 -8 14 0 25 4 25 8 0 4 -11 8 -25 8 -14 0
-25 -4 -25 -8z"/>
<path d="M2653 715 c0 -8 4 -12 9 -9 5 3 6 10 3 15 -9 13 -12 11 -12 -6z"/>
<path d="M18 703 c7 -3 16 -2 19 1 4 3 -2 6 -13 5 -11 0 -14 -3 -6 -6z"/>
<path d="M3038 693 c7 -3 16 -2 19 1 4 3 -2 6 -13 5 -11 0 -14 -3 -6 -6z"/>
<path d="M2670 681 c0 -7 -5 -9 -12 -5 -7 4 -8 3 -4 -4 4 -7 2 -12 -3 -12 -7
0 -11 -23 -11 -55 0 -51 -2 -56 -26 -65 -15 -6 -42 -8 -60 -4 -32 6 -34 5 -34
-22 l0 -29 77 0 c66 0 78 3 81 18 2 9 7 15 11 13 4 -3 8 30 10 73 2 60 -1 80
-13 90 -12 10 -16 10 -16 2z m12 -38 c-5 -24 -6 -25 -12 -8 -8 21 -4 35 9 35
5 0 6 -12 3 -27z m-1 -90 c13 -17 13 -17 -6 -3 -11 8 -22 16 -24 17 -2 2 0 3
6 3 6 0 17 -8 24 -17z"/>
<path d="M78 673 c7 -3 16 -2 19 1 4 3 -2 6 -13 5 -11 0 -14 -3 -6 -6z"/>
<path d="M177 662 c5 -11 3 -13 -7 -7 -9 5 -11 4 -6 -3 4 -7 16 -12 27 -12 25
0 22 32 -3 36 -11 1 -15 -3 -11 -14z"/>
<path d="M38 663 c7 -3 16 -2 19 1 4 3 -2 6 -13 5 -11 0 -14 -3 -6 -6z"/>
<path d="M2620 639 c0 -5 -4 -8 -9 -5 -15 10 -10 -62 5 -75 11 -9 14 -8 14 5
0 10 -4 14 -10 11 -5 -3 -10 1 -10 10 0 9 4 14 8 11 4 -2 9 9 10 25 1 16 0 29
-3 29 -3 0 -5 -5 -5 -11z"/>
<path d="M177 618 c12 -6 24 -22 26 -37 3 -21 4 -19 6 9 1 32 -2 36 -26 37
-27 2 -27 1 -6 -9z"/>
<path d="M2067 600 c3 -11 7 -20 9 -20 2 0 4 9 4 20 0 11 -4 20 -9 20 -5 0 -7
-9 -4 -20z"/>
<path d="M2182 600 c0 -14 2 -19 5 -12 2 6 2 18 0 25 -3 6 -5 1 -5 -13z"/>
<path d="M2579 598 c-5 -18 -6 -38 -1 -34 7 8 12 36 6 36 -2 0 -4 -1 -5 -2z"/>
<path d="M166 578 c3 -4 9 -8 15 -8 5 0 9 4 9 8 0 5 -7 9 -15 9 -8 0 -12 -4
-9 -9z"/>
<path d="M184 526 c-5 -14 -9 -15 -16 -4 -8 10 -9 10 -6 -2 3 -8 15 -17 29
-21 23 -7 23 -7 -6 -9 -22 -2 -25 -4 -10 -7 11 -3 23 -10 27 -17 5 -7 8 -3 9
9 3 48 -15 82 -27 51z"/>
<path d="M1644 531 c8 -12 -19 -33 -29 -23 -5 4 -5 1 -1 -6 6 -11 12 -10 29 5
12 10 23 18 25 19 2 1 -4 4 -13 8 -9 3 -14 2 -11 -3z"/>
<path d="M2733 474 c-7 -18 6 -36 20 -28 8 5 8 3 0 -7 -7 -7 -13 -17 -13 -22
0 -4 6 -5 13 -1 8 5 7 2 -2 -10 -20 -24 1 -45 26 -26 14 11 15 11 6 1 -6 -7
-9 -21 -5 -30 5 -14 4 -14 -11 -2 -15 12 -17 11 -17 -3 0 -9 3 -16 8 -16 4 0
16 -3 27 -6 16 -4 20 0 21 20 1 16 -2 23 -9 19 -6 -4 -7 -1 -2 7 5 7 9 37 11
66 l2 52 -35 0 c-20 0 -37 -6 -40 -14z"/>
<path d="M1135 472 c-3 -3 -5 -27 -5 -54 0 -48 0 -48 33 -47 23 1 26 3 10 6
-28 5 -30 33 -3 33 11 0 20 5 20 10 0 6 -9 10 -20 10 -28 0 -25 28 3 32 20 3
20 4 -5 9 -15 4 -30 4 -33 1z"/>
<path d="M1217 473 c-10 -9 -8 -76 2 -92 5 -7 21 -13 36 -13 15 0 31 6 36 13
12 19 11 89 -1 89 -5 0 -10 -18 -10 -40 0 -27 -5 -43 -15 -47 -22 -8 -25 -3
-28 45 -3 43 -9 57 -20 45z"/>
<path d="M1443 469 c-25 -9 -36 -38 -26 -65 15 -43 77 -48 95 -9 22 48 -19 93
-69 74z m47 -29 c13 -24 -2 -60 -25 -60 -8 0 -19 9 -25 20 -13 24 2 60 25 60
8 0 19 -9 25 -20z"/>
<path d="M2700 470 c-9 -6 -10 -10 -3 -10 6 0 15 5 18 10 8 12 4 12 -15 0z"/>
<path d="M1320 420 c0 -27 5 -50 10 -50 6 0 10 9 10 20 0 11 6 20 14 20 7 0
16 -9 19 -20 3 -11 10 -20 16 -20 7 0 8 8 2 23 -5 13 -7 35 -4 50 5 25 3 27
-31 27 l-36 0 0 -50z m50 25 c0 -8 -7 -15 -15 -15 -8 0 -15 7 -15 15 0 8 7 15
15 15 8 0 15 -7 15 -15z"/>
<path d="M1605 461 c-3 -6 3 -9 14 -8 11 0 17 5 15 9 -7 11 -22 10 -29 -1z"/>
<path d="M201 434 c0 -11 3 -14 6 -6 3 7 2 16 -1 19 -3 4 -6 -2 -5 -13z"/>
<path d="M48 433 c7 -3 16 -2 19 1 4 3 -2 6 -13 5 -11 0 -14 -3 -6 -6z"/>
<path d="M68 393 c7 -3 16 -2 19 1 4 3 -2 6 -13 5 -11 0 -14 -3 -6 -6z"/>
<path d="M333 393 c-18 -4 -23 -11 -23 -38 0 -33 0 -33 30 -22 40 15 66 0 62
-36 -2 -19 2 -25 15 -22 10 1 24 -2 30 -7 16 -13 36 37 28 69 -13 54 -59 72
-142 56z"/>
<path d="M547 382 c-55 -60 -48 -230 11 -261 34 -18 79 -13 109 13 27 23 28
27 28 121 0 94 -1 98 -28 121 -34 29 -96 33 -120 6z m80 -59 c9 -36 9 -100 0
-135 -13 -47 -47 -30 -47 23 0 19 -9 23 -42 20 -12 -2 -18 5 -18 18 0 17 6 21
30 21 25 0 30 4 30 24 0 58 34 78 47 29z m61 -76 c2 -12 -3 -17 -17 -17 -15 0
-21 6 -21 21 0 25 33 22 38 -4z"/>
<path d="M166 382 c-15 -14 -4 -32 20 -32 18 0 25 5 22 17 -3 16 -31 26 -42
15z"/>
<path d="M1600 365 c-13 -14 -19 -25 -13 -25 6 0 14 7 17 16 3 9 13 14 21 11
9 -4 12 -1 8 9 -7 18 -5 18 -33 -11z"/>
<path d="M3025 373 c-11 -3 -24 -9 -29 -14 -5 -5 5 -4 24 1 51 15 55 25 5 13z"/>
<path d="M48 343 c7 -3 16 -2 19 1 4 3 -2 6 -13 5 -11 0 -14 -3 -6 -6z"/>
<path d="M1630 339 c0 -5 5 -7 10 -4 6 3 10 8 10 11 0 2 -4 4 -10 4 -5 0 -10
-5 -10 -11z"/>
<path d="M164 328 c2 -7 11 -13 21 -13 10 0 19 6 21 13 1 7 0 8 -3 2 -2 -5
-11 -10 -18 -10 -7 0 -16 5 -18 10 -3 6 -4 5 -3 -2z"/>
<path d="M1141 318 c1 -18 2 -19 6 -5 3 12 10 16 24 12 11 -4 19 -2 19 4 0 6
-11 11 -25 11 -20 0 -25 -5 -24 -22z"/>
<path d="M1210 334 c0 -11 35 -49 48 -52 8 -1 11 2 7 8 -3 5 0 10 8 10 8 0 17
9 20 20 7 26 0 25 -24 -2 l-19 -23 -6 23 c-5 19 -34 33 -34 16z"/>
<path d="M1356 328 c3 -4 9 -8 15 -8 5 0 9 4 9 8 0 5 -7 9 -15 9 -8 0 -12 -4
-9 -9z"/>
<path d="M1499 328 c-1 -2 -2 -15 -3 -29 0 -14 -8 -34 -16 -44 -14 -17 -14
-17 7 -7 25 14 42 54 24 60 -6 2 -9 8 -5 13 3 5 3 9 0 9 -3 0 -6 -1 -7 -2z"/>
<path d="M3038 323 c7 -3 16 -2 19 1 4 3 -2 6 -13 5 -11 0 -14 -3 -6 -6z"/>
<path d="M1415 299 c-4 -6 -5 -12 -2 -15 2 -3 7 2 10 11 7 17 1 20 -8 4z"/>
<path d="M2798 303 c6 -2 18 -2 25 0 6 3 1 5 -13 5 -14 0 -19 -2 -12 -5z"/>
<path d="M161 288 c-1 -13 7 -18 24 -18 17 0 25 5 25 18 0 14 -2 15 -10 2 -9
-13 -10 -13 -10 0 0 12 -2 13 -9 1 -7 -11 -9 -11 -14 0 -4 10 -6 9 -6 -3z"/>
<path d="M1366 292 c-3 -5 1 -9 9 -9 8 0 12 4 9 9 -3 4 -7 8 -9 8 -2 0 -6 -4
-9 -8z"/>
<path d="M1168 283 c7 -3 16 -2 19 1 4 3 -2 6 -13 5 -11 0 -14 -3 -6 -6z"/>
<path d="M1599 273 c-12 -16 -12 -17 2 -5 14 10 17 9 22 -9 4 -16 2 -19 -10
-15 -14 6 -14 4 -2 -10 12 -14 14 -14 26 1 8 13 9 23 2 36 -12 24 -23 24 -40
2z"/>
<path d="M1342 260 c0 -14 2 -19 5 -12 2 6 2 18 0 25 -3 6 -5 1 -5 -13z"/>
<path d="M98 263 c7 -3 16 -2 19 1 4 3 -2 6 -13 5 -11 0 -14 -3 -6 -6z"/>
<path d="M1256 255 c-3 -8 -1 -15 4 -15 6 0 10 7 10 15 0 8 -2 15 -4 15 -2 0
-6 -7 -10 -15z"/>
<path d="M45 250 c-3 -6 1 -7 9 -4 18 7 21 14 7 14 -6 0 -13 -4 -16 -10z"/>
<path d="M1430 249 c0 -5 -4 -7 -10 -4 -5 3 -10 2 -10 -3 0 -5 12 -9 28 -9 15
0 21 2 14 4 -6 3 -10 9 -6 14 3 5 0 9 -5 9 -6 0 -11 -5 -11 -11z"/>
<path d="M1155 241 c-3 -6 4 -9 15 -8 11 1 20 5 20 9 0 11 -28 10 -35 -1z"/>
<path d="M1495 240 c-3 -5 1 -10 9 -10 9 0 16 5 16 10 0 6 -4 10 -9 10 -6 0
-13 -4 -16 -10z"/>
<path d="M161 228 c-1 -13 7 -18 24 -18 17 0 25 5 25 18 0 14 -2 15 -10 2 -9
-13 -10 -13 -10 0 0 12 -2 13 -9 1 -7 -11 -9 -11 -14 0 -4 10 -6 9 -6 -3z"/>
<path d="M337 202 c-24 -25 -37 -47 -37 -65 l0 -27 90 0 c89 0 90 0 90 25 0
23 -4 25 -45 25 -51 0 -54 4 -24 37 l22 22 -27 11 c-15 5 -28 10 -30 10 -1 0
-19 -17 -39 -38z"/>
<path d="M2618 209 c-6 -4 -17 -5 -24 -2 -21 8 -29 -20 -29 -115 l-1 -92 98 0
c87 0 98 2 98 18 1 9 2 51 3 92 2 58 -2 79 -14 93 -11 12 -19 15 -24 8 -3 -6
-11 -9 -16 -5 -15 9 -78 11 -91 3z m67 -29 c3 -6 -1 -7 -9 -4 -18 7 -21 14 -7
14 6 0 13 -4 16 -10z m-43 -12 c-18 -18 -14 -31 8 -25 11 3 23 1 26 -4 3 -5
-7 -9 -21 -9 -34 0 -22 -20 13 -21 25 -2 25 -2 4 -6 -14 -3 -32 3 -42 12 -15
14 -17 21 -8 41 6 13 16 24 22 24 6 0 5 -5 -2 -12z"/>
<path d="M164 188 c2 -7 11 -13 21 -13 10 0 19 6 21 13 1 7 0 8 -3 2 -2 -5
-11 -10 -18 -10 -7 0 -16 5 -18 10 -3 6 -4 5 -3 -2z"/>
<path d="M98 173 c7 -3 16 -2 19 1 4 3 -2 6 -13 5 -11 0 -14 -3 -6 -6z"/>
<path d="M28 153 c7 -3 16 -2 19 1 4 3 -2 6 -13 5 -11 0 -14 -3 -6 -6z"/>
<path d="M164 149 c-8 -14 5 -29 27 -29 14 0 19 6 17 17 -3 18 -35 27 -44 12z"/>
<path d="M3038 143 c7 -3 16 -2 19 1 4 3 -2 6 -13 5 -11 0 -14 -3 -6 -6z"/>
</g>
</svg>
