<?xml version="1.0" standalone="no"?>
<!DOCTYPE svg PUBLIC "-//W3C//DTD SVG 20010904//EN"
 "http://www.w3.org/TR/2001/REC-SVG-20010904/DTD/svg10.dtd">
<svg version="1.0" xmlns="http://www.w3.org/2000/svg"
 width="1200.000000pt" height="800.000000pt" viewBox="0 0 1200.000000 800.000000"
 preserveAspectRatio="xMidYMid meet">

<g transform="translate(0.000000,800.000000) scale(0.100000,-0.100000)"
fill="#000000" stroke="none">
<path d="M5491 7745 c3 -2 44 -5 92 -6 55 -2 83 -6 75 -11 -19 -14 184 -3 207
10 15 9 -26 11 -179 12 -110 0 -197 -2 -195 -5z"/>
<path d="M5310 7731 c-22 -6 -23 -8 -6 -14 10 -4 24 -3 30 2 6 5 22 11 36 14
22 4 21 4 -5 5 -16 0 -41 -3 -55 -7z"/>
<path d="M5958 7733 c29 -4 47 -23 20 -23 -6 0 -8 -3 -5 -6 4 -4 13 -1 22 6
15 13 28 12 190 -5 31 -4 46 -2 40 4 -12 11 -196 32 -258 29 -37 -1 -38 -2 -9
-5z"/>
<path d="M5225 7720 c-3 -6 1 -7 9 -4 18 7 21 14 7 14 -6 0 -13 -4 -16 -10z"/>
<path d="M5158 7713 c6 -2 18 -2 25 0 6 3 1 5 -13 5 -14 0 -19 -2 -12 -5z"/>
<path d="M6255 7700 c28 -12 47 -12 40 0 -3 6 -18 10 -33 9 -24 0 -25 -1 -7
-9z"/>
<path d="M5038 7693 c6 -2 18 -2 25 0 6 3 1 5 -13 5 -14 0 -19 -2 -12 -5z"/>
<path d="M4998 7683 c7 -3 16 -2 19 1 4 3 -2 6 -13 5 -11 0 -14 -3 -6 -6z"/>
<path d="M4928 7673 c6 -2 18 -2 25 0 6 3 1 5 -13 5 -14 0 -19 -2 -12 -5z"/>
<path d="M5748 7672 c-10 -2 -18 -9 -18 -17 0 -17 48 -14 55 3 3 7 1 11 -4 7
-5 -3 -11 -2 -13 3 -1 4 -11 6 -20 4z"/>
<path d="M4858 7663 c-10 -2 -18 -9 -18 -14 0 -6 5 -7 11 -4 6 4 23 11 37 15
19 6 21 8 7 8 -11 0 -28 -2 -37 -5z"/>
<path d="M5640 7646 c4 -4 16 -4 26 2 16 9 14 10 -8 9 -15 -1 -23 -6 -18 -11z"/>
<path d="M4747 7635 c-80 -22 -86 -26 -58 -36 18 -7 28 -5 41 6 9 8 34 21 56
29 49 18 25 19 -39 1z"/>
<path d="M6080 7640 c0 -5 5 -10 11 -10 5 0 7 5 4 10 -3 6 -8 10 -11 10 -2 0
-4 -4 -4 -10z"/>
<path d="M5700 7630 c0 -5 5 -10 11 -10 5 0 7 5 4 10 -3 6 -8 10 -11 10 -2 0
-4 -4 -4 -10z"/>
<path d="M6611 7627 c14 -8 45 -16 70 -20 42 -5 41 -5 -16 14 -70 22 -90 24
-54 6z"/>
<path d="M4866 7622 c-3 -6 -1 -14 5 -17 14 -9 20 -2 10 14 -6 8 -11 9 -15 3z"/>
<path d="M5250 7616 c7 -7 13 -7 20 0 6 6 3 10 -10 10 -13 0 -16 -4 -10 -10z"/>
<path d="M5535 7620 c-3 -5 -2 -10 4 -10 5 0 13 5 16 10 3 6 2 10 -4 10 -5 0
-13 -4 -16 -10z"/>
<path d="M6010 7610 c-9 -6 -10 -10 -3 -10 6 0 15 5 18 10 8 12 4 12 -15 0z"/>
<path d="M6185 7590 c3 -5 15 -10 26 -10 11 0 17 5 14 10 -3 6 -15 10 -26 10
-11 0 -17 -4 -14 -10z"/>
<path d="M4715 7560 c-17 -19 -17 -20 0 -20 10 0 15 3 12 7 -4 3 -2 12 4 20
18 21 4 15 -16 -7z"/>
<path d="M6118 7573 c7 -3 16 -2 19 1 4 3 -2 6 -13 5 -11 0 -14 -3 -6 -6z"/>
<path d="M4985 7550 c-3 -6 1 -7 9 -4 18 7 21 14 7 14 -6 0 -13 -4 -16 -10z"/>
<path d="M4335 7504 c-120 -46 -161 -65 -355 -161 -175 -87 -410 -228 -410
-246 0 -7 4 -7 12 1 7 7 19 12 28 12 9 0 29 14 45 30 16 17 33 30 37 30 5 0
37 18 70 40 34 22 67 40 72 40 6 0 22 9 35 19 14 10 32 17 40 14 14 -4 14 -4
1 6 -13 9 -12 11 3 11 11 0 33 10 50 22 27 19 30 20 24 4 -5 -13 -3 -17 7 -13
8 3 17 1 20 -6 2 -7 5 -5 5 5 1 24 81 86 119 93 18 3 50 16 70 29 20 14 57 30
82 36 50 14 80 26 125 52 45 27 20 21 -80 -18z"/>
<path d="M5605 7530 c-3 -6 -36 -9 -73 -8 -72 1 -116 -8 -107 -23 3 -5 -1 -6
-9 -3 -9 3 -16 9 -16 13 0 4 -31 3 -70 -2 -46 -7 -67 -13 -63 -21 4 -6 1 -6
-8 1 -11 9 -19 9 -26 2 -8 -8 -17 -8 -32 0 -26 15 -101 3 -121 -19 -9 -9 -11
-10 -5 -1 8 12 6 13 -15 7 -14 -4 -36 -9 -50 -12 -50 -9 -75 -13 -89 -13 -7
-1 -11 -7 -8 -15 6 -14 -12 -26 -39 -26 -8 0 -11 6 -7 17 5 13 2 15 -18 10
-13 -4 -32 -7 -42 -7 -10 0 -15 -5 -12 -10 4 -6 10 -8 14 -6 4 3 8 -1 8 -9 0
-18 -16 -19 -53 -5 -19 8 -30 7 -41 -2 -8 -6 -33 -12 -56 -12 -33 -1 -42 -5
-42 -18 0 -10 -4 -18 -8 -18 -4 0 -12 0 -18 0 -5 0 -7 5 -3 11 4 8 0 8 -15 0
-23 -13 -29 -26 -8 -18 8 3 19 2 25 -2 6 -4 -10 -13 -36 -20 -54 -15 -94 -32
-88 -39 3 -2 30 6 61 17 31 12 73 25 93 31 20 5 80 21 132 35 297 80 580 117
905 117 647 1 1237 -157 1800 -481 69 -40 86 -56 72 -71 -10 -10 -8 -10 9 -1
19 9 35 1 126 -62 220 -151 332 -245 552 -463 91 -90 265 -302 368 -449 123
-178 252 -409 332 -600 26 -60 51 -118 56 -127 6 -10 10 -23 10 -29 0 -6 6
-25 14 -42 84 -192 185 -659 201 -937 3 -58 8 -127 11 -153 4 -39 2 -47 -8
-41 -10 6 -10 5 -2 -7 11 -13 11 -213 0 -334 -11 -119 -26 -235 -40 -305 -8
-41 -17 -91 -20 -110 -8 -67 -38 -175 -49 -182 -9 -6 -9 -8 1 -8 10 0 9 -7 -3
-30 -8 -16 -15 -40 -15 -53 0 -12 -4 -27 -10 -33 -5 -5 -11 -22 -12 -37 -1
-15 -6 -27 -11 -27 -5 0 -7 -7 -3 -15 3 -8 -1 -27 -9 -42 -7 -16 -19 -48 -27
-73 -7 -25 -23 -66 -35 -92 -12 -25 -25 -58 -29 -73 -4 -15 -12 -29 -18 -31
-7 -3 -12 -15 -13 -27 -2 -28 -54 -137 -65 -137 -5 0 -7 -4 -3 -10 3 -5 -2
-18 -12 -29 -9 -11 -18 -27 -19 -35 -1 -8 -12 -29 -23 -45 -12 -16 -21 -34
-21 -40 0 -6 -4 -11 -10 -11 -5 0 -7 -6 -5 -12 3 -7 -6 -25 -20 -40 -14 -16
-24 -28 -21 -28 9 0 -114 -193 -126 -198 -5 -2 -8 -8 -8 -14 0 -5 -13 -23 -30
-40 -16 -16 -30 -36 -30 -43 0 -8 -10 -21 -22 -29 -12 -9 -19 -16 -15 -16 11
0 -90 -125 -158 -196 -33 -34 -86 -92 -119 -129 -32 -37 -69 -72 -82 -77 -13
-6 -24 -17 -24 -25 0 -7 -3 -13 -7 -13 -5 0 -33 -23 -63 -51 -30 -28 -74 -64
-97 -80 -24 -17 -43 -34 -43 -39 0 -6 -7 -10 -15 -10 -8 0 -32 -17 -53 -38
-20 -20 -49 -44 -64 -51 -15 -8 -36 -22 -47 -32 -30 -28 -142 -99 -156 -99 -7
0 -16 -7 -19 -16 -3 -8 -10 -12 -16 -9 -6 3 -13 0 -16 -9 -4 -12 -60 -39 -72
-36 -2 1 -16 -10 -31 -23 -39 -32 -214 -117 -242 -117 -10 0 -19 -4 -21 -8 -4
-10 -124 -63 -147 -65 -11 -1 -18 -4 -15 -8 2 -3 -18 -12 -44 -19 -26 -6 -58
-17 -72 -23 -14 -6 -32 -12 -40 -12 -8 -1 -29 -9 -46 -18 -17 -9 -42 -18 -55
-21 -57 -13 -98 -24 -109 -31 -9 -5 -11 -4 -6 3 4 7 2 12 -3 12 -6 0 -11 -4
-11 -10 0 -5 -7 -10 -16 -10 -8 0 -36 -7 -62 -15 -94 -30 -332 -67 -439 -68
-40 -1 -73 -5 -73 -10 0 -5 -24 -7 -53 -6 -29 1 -58 0 -63 -3 -11 -7 -386 -2
-484 6 -126 10 -185 18 -195 26 -5 5 -37 10 -70 13 -63 5 -178 26 -255 47 -25
6 -63 16 -85 22 -100 26 -252 76 -355 116 -116 45 -323 133 -345 147 -22 14
-124 70 -167 92 -15 8 -30 18 -33 23 -3 5 -23 17 -43 27 -79 37 -346 232 -492
358 -196 170 -419 423 -582 660 -219 319 -428 784 -503 1115 -8 36 -21 92 -29
125 -19 75 -53 278 -61 370 -4 39 -9 84 -11 100 -2 17 -4 134 -4 262 -1 379
44 697 147 1043 45 150 148 413 194 493 15 26 32 73 23 64 -4 -3 -12 -17 -18
-29 -8 -16 -19 -22 -34 -20 -16 2 -22 -2 -22 -15 0 -11 -5 -24 -12 -31 -6 -6
-9 -14 -5 -18 3 -3 15 9 26 27 24 39 28 22 6 -21 -10 -19 -20 -27 -30 -24 -10
4 -15 0 -15 -11 0 -9 5 -13 10 -10 16 10 12 -21 -5 -35 -8 -7 -15 -20 -15 -29
0 -13 -2 -14 -9 -1 -6 8 -7 19 -5 25 3 5 -2 1 -10 -9 -22 -27 -21 -57 0 -49
25 9 12 -20 -13 -32 -17 -7 -21 -16 -18 -47 3 -35 2 -38 -16 -33 -15 5 -19 1
-19 -17 -1 -13 -7 -34 -15 -48 -19 -33 -19 -44 0 -36 12 4 14 0 9 -22 -9 -38
-14 -44 -29 -38 -16 6 -28 -21 -14 -30 6 -4 1 -16 -13 -32 -13 -15 -15 -20 -5
-13 10 8 17 9 17 3 0 -6 -8 -15 -17 -20 -18 -10 -27 -42 -12 -42 5 0 9 -8 9
-17 0 -15 -2 -16 -9 -4 -8 12 -11 9 -16 -12 -4 -15 -5 -33 -2 -41 3 -8 0 -19
-7 -25 -8 -7 -16 -46 -21 -94 -4 -45 -12 -88 -18 -95 -6 -7 -12 -25 -14 -40
-7 -41 -10 -56 -16 -72 -6 -14 -14 -100 -21 -218 -1 -28 -6 -55 -9 -59 -4 -4
-5 -29 -2 -57 3 -33 2 -44 -3 -31 -6 13 -8 -1 -7 -42 2 -34 6 -66 9 -72 4 -6
3 -11 -3 -11 -10 0 -8 -134 5 -350 7 -111 9 -128 24 -200 5 -25 12 -71 15
-102 4 -32 10 -60 15 -63 4 -3 11 -36 15 -75 4 -38 10 -68 14 -66 3 2 7 -10 7
-27 2 -37 8 -64 16 -73 4 -3 4 -12 2 -19 -3 -7 0 -24 8 -37 7 -13 13 -27 14
-33 0 -5 3 -17 6 -25 4 -8 12 -37 19 -65 7 -27 19 -61 26 -75 7 -14 13 -30 13
-35 0 -13 34 -81 50 -100 10 -12 9 -15 -6 -15 -12 0 -15 -3 -7 -8 6 -4 21 -32
33 -62 44 -116 213 -438 231 -443 11 -3 19 -11 19 -17 0 -8 -5 -9 -13 -4 -7 5
-6 2 3 -6 8 -8 15 -19 15 -25 0 -15 67 -115 77 -115 4 0 8 -7 8 -15 0 -8 30
-46 66 -85 37 -39 59 -67 49 -64 -13 5 -16 4 -11 -4 4 -7 13 -12 20 -12 7 0
21 -7 32 -16 18 -15 18 -15 -3 -9 -22 6 -21 5 5 -23 40 -43 72 -86 72 -97 0
-6 -6 -17 -12 -25 -11 -12 -10 -12 5 0 17 12 21 12 35 -6 10 -11 29 -28 44
-37 16 -10 34 -32 42 -50 16 -38 132 -147 157 -147 10 0 21 -5 24 -10 4 -7 -3
-8 -22 -4 l-28 7 30 -26 c17 -15 38 -33 48 -42 9 -8 17 -13 17 -11 0 8 58 -53
63 -66 4 -10 6 -10 6 0 1 15 27 16 37 0 4 -6 3 -8 -3 -5 -12 7 -23 -14 -23
-41 1 -12 5 -10 15 8 14 24 16 24 19 -2 0 -7 6 -13 11 -13 12 0 62 -36 103
-75 15 -13 30 -24 35 -22 4 1 45 -27 92 -63 46 -36 87 -65 91 -65 4 0 23 -12
43 -27 37 -29 50 -36 135 -82 27 -14 63 -34 80 -43 17 -9 39 -17 49 -18 10 0
20 -6 23 -14 3 -8 20 -18 37 -22 18 -3 51 -19 73 -35 23 -15 77 -42 120 -59
44 -17 83 -36 89 -41 5 -5 15 -9 21 -9 7 0 25 -5 41 -12 15 -6 32 -10 37 -9 4
1 13 -2 20 -7 19 -15 99 -40 146 -46 75 -10 104 -17 125 -30 29 -18 101 -26
116 -12 9 8 10 8 4 -3 -6 -11 -4 -13 9 -8 10 4 15 3 11 -3 -3 -6 5 -10 18 -10
13 0 37 -4 53 -9 25 -8 50 -12 156 -23 9 -1 15 -6 12 -10 -5 -7 -1 -8 91 -13
33 -2 71 -5 85 -8 62 -14 121 -16 114 -6 -4 8 0 8 14 0 11 -6 52 -11 91 -11
38 0 81 -4 95 -10 14 -5 28 -5 30 -1 3 5 56 8 118 8 109 1 235 10 251 20 4 2
7 -1 7 -8 0 -8 4 -8 13 -1 12 9 66 18 182 28 33 3 85 12 115 20 30 9 56 16 57
16 2 0 28 6 60 13 32 7 61 11 65 9 5 -3 15 2 24 11 9 8 24 13 33 10 10 -3 38
2 62 11 24 8 68 22 96 30 29 7 81 26 115 40 35 15 101 40 148 56 76 26 293
125 360 164 14 8 41 23 60 32 19 9 40 23 46 31 6 8 16 11 22 7 7 -4 12 -3 12
2 0 5 15 15 33 23 17 7 34 16 37 19 3 3 27 22 55 41 27 18 56 39 65 46 83 66
153 112 161 108 5 -4 9 -1 9 5 0 13 39 49 53 50 5 0 23 15 41 33 51 50 107 97
118 97 5 0 7 4 3 10 -3 5 7 16 23 24 16 8 57 47 91 86 33 39 61 69 61 67 0 -3
34 27 75 67 55 53 75 79 75 98 0 24 21 53 32 43 5 -5 98 111 173 215 22 30 42
57 46 60 3 3 13 19 22 36 9 17 35 60 59 95 56 85 159 290 151 302 -4 6 0 8 10
4 12 -4 19 2 26 26 16 54 49 138 59 150 18 22 153 425 157 467 4 47 5 51 13
46 6 -4 32 105 37 159 1 6 4 21 8 35 4 14 9 45 11 70 3 25 10 79 16 120 6 41
13 89 15 105 3 17 8 89 11 160 4 72 10 137 15 146 4 9 6 18 4 21 -5 5 -14 137
-20 313 -2 79 -12 163 -24 215 -11 47 -25 126 -31 175 -12 89 -18 115 -61 265
-23 78 -96 303 -124 379 -17 47 -39 94 -71 151 -11 19 -25 51 -31 70 -22 68
-81 192 -110 228 -29 37 -49 71 -113 187 -28 50 -68 110 -108 160 -4 6 -21 28
-37 50 -16 22 -47 61 -70 86 -22 25 -56 65 -75 88 -19 24 -41 49 -48 57 -7 8
-11 14 -8 14 7 0 -63 70 -159 158 -44 41 -102 95 -130 121 -27 27 -63 56 -78
66 -20 13 -27 24 -24 37 5 16 3 17 -10 7 -12 -11 -17 -10 -24 3 -5 9 -26 27
-47 39 -20 13 -68 49 -105 81 -39 33 -74 55 -80 52 -7 -4 -9 -3 -4 1 4 5 -12
19 -35 33 -24 13 -59 34 -78 45 -64 38 -142 82 -193 109 -28 15 -53 31 -56 35
-8 10 -122 66 -141 70 -8 1 -25 3 -37 5 -13 1 -23 5 -23 8 0 3 -17 12 -37 19
-21 7 -65 25 -98 41 -122 57 -138 63 -151 63 -8 0 -14 4 -14 8 0 4 -9 6 -20 4
-11 -2 -22 0 -25 4 -2 5 -25 12 -50 15 -24 4 -47 11 -50 17 -4 5 -19 9 -34 9
-16 0 -46 7 -67 17 -22 9 -55 19 -74 23 -131 28 -200 40 -232 40 -20 0 -49 5
-65 11 -50 19 -145 30 -320 35 -123 3 -173 1 -173 -7 0 -12 -79 -3 -94 12 -13
12 -23 11 -31 -1z m-3262 -2390 c-3 -11 -9 -17 -15 -14 -5 3 -4 12 3 20 16 19
18 18 12 -6z"/>
<path d="M5648 7533 c7 -3 16 -2 19 1 4 3 -2 6 -13 5 -11 0 -14 -3 -6 -6z"/>
<path d="M6950 7520 c8 -5 24 -9 35 -9 l20 0 -20 9 c-11 5 -27 9 -35 9 -13 1
-13 0 0 -9z"/>
<path d="M4595 7500 c4 -6 1 -17 -5 -25 -17 -20 -5 -19 14 1 20 20 20 34 0 34
-8 0 -12 -5 -9 -10z"/>
<path d="M4860 7500 c-9 -6 -10 -10 -3 -10 6 0 15 5 18 10 8 12 4 12 -15 0z"/>
<path d="M7050 7494 c0 -8 62 -35 72 -32 6 2 -8 11 -31 20 -22 9 -41 15 -41
12z"/>
<path d="M4652 7468 c-7 -7 -12 -16 -12 -21 0 -5 7 -1 16 8 9 9 14 18 12 20
-2 3 -10 -1 -16 -7z"/>
<path d="M4323 7454 c0 -8 6 -14 14 -14 7 0 13 4 13 9 0 5 -6 11 -13 14 -8 3
-14 -1 -14 -9z"/>
<path d="M7141 7456 c20 -20 199 -100 199 -89 0 5 -184 93 -195 93 -5 0 -6 -2
-4 -4z"/>
<path d="M4263 7407 c-3 -5 1 -13 8 -18 12 -7 28 5 29 22 0 9 -30 6 -37 -4z"/>
<path d="M4496 7393 c-6 -14 -5 -15 5 -6 7 7 10 15 7 18 -3 3 -9 -2 -12 -12z"/>
<path d="M5435 7369 c-49 -4 -133 -13 -185 -19 -52 -6 -108 -13 -125 -15 -16
-2 -61 -11 -100 -19 -38 -9 -86 -18 -105 -21 -19 -3 -44 -9 -55 -14 -11 -4
-47 -17 -80 -27 l-60 -19 -2 -330 c-1 -181 -2 -334 -3 -340 -2 -31 1 -684 4
-707 6 -48 -7 -53 -65 -23 -39 20 -74 29 -129 33 -41 3 -84 11 -96 19 -18 12
-23 11 -34 -2 -15 -18 -70 -16 -70 2 0 7 4 13 9 13 18 0 18 39 0 56 -18 17
-21 16 -49 -5 -18 -13 -30 -17 -30 -9 0 6 -9 2 -21 -10 -19 -21 -46 -22 -34
-1 4 5 -2 9 -12 9 -29 0 -89 -46 -103 -79 -7 -17 -16 -31 -21 -31 -5 0 -12 0
-16 -1 -11 0 -53 -41 -53 -50 0 -11 -81 -132 -101 -149 -27 -25 -79 -119 -79
-144 0 -13 -7 -29 -15 -36 -8 -7 -15 -28 -15 -46 0 -35 -37 -106 -63 -121 -8
-4 -20 -19 -27 -32 -11 -21 -10 -23 4 -18 51 21 52 21 28 -5 -12 -13 -20 -26
-18 -29 2 -2 -11 -5 -30 -6 -36 -2 -137 -59 -175 -99 -12 -13 -23 -36 -25 -51
-1 -16 -6 -43 -9 -60 -8 -38 1 -86 15 -78 5 3 4 -9 -2 -26 -9 -26 -8 -33 5
-40 13 -8 14 -15 5 -41 -10 -28 -9 -34 16 -55 33 -28 66 -31 66 -4 0 10 -7 22
-17 25 -15 6 -14 8 2 20 16 11 17 19 8 52 -6 26 -6 45 0 55 7 11 5 26 -6 49
-19 36 -13 80 10 80 8 0 12 4 9 9 -4 5 0 12 6 14 9 4 10 6 1 6 -6 1 -15 -3
-18 -9 -9 -15 -25 -12 -19 4 5 13 48 38 69 41 6 0 9 6 8 13 -4 18 30 31 76 29
35 -1 46 3 61 23 17 22 22 42 34 124 2 11 10 25 20 30 13 9 20 7 32 -8 12 -17
14 -17 14 -4 0 9 -9 20 -20 23 -22 7 -26 20 -10 30 6 3 10 21 10 39 0 19 7 39
15 46 8 7 15 26 15 43 0 38 44 114 71 122 11 4 18 9 15 12 -2 3 4 14 15 26 10
11 19 28 19 38 0 9 7 23 16 30 9 7 20 23 25 36 5 13 15 23 23 23 8 0 24 12 36
28 12 15 19 21 15 15 -4 -9 -1 -11 10 -7 9 4 14 12 11 19 -7 20 19 49 38 42 9
-4 16 -12 16 -19 0 -7 13 -14 30 -15 24 -2 30 2 30 17 0 11 4 20 9 20 6 0 24
15 40 33 32 33 42 27 17 -9 -9 -12 -11 -26 -6 -34 6 -9 3 -18 -8 -26 -14 -11
-11 -12 23 -9 22 3 69 6 103 9 l64 4 -19 -21 c-40 -46 -46 -61 -13 -31 19 17
48 34 63 38 28 7 87 -9 142 -38 41 -22 76 -21 68 1 -5 12 -2 15 9 11 12 -5 14
3 12 50 -2 41 2 62 14 75 14 16 14 19 0 33 -14 14 -14 22 -2 67 7 28 10 56 5
61 -7 10 -7 70 -1 171 3 46 1 57 -10 50 -5 -3 -10 0 -10 9 0 8 6 17 13 19 9 4
9 8 -2 15 -8 6 -10 15 -5 23 5 8 9 39 9 69 1 31 5 61 9 68 4 6 0 25 -9 41 -16
31 -21 56 -7 34 5 -7 8 16 8 51 -1 35 -4 62 -8 59 -5 -2 -8 8 -8 22 0 14 4 24
9 20 13 -7 24 12 15 26 -4 8 -9 7 -15 -2 -7 -11 -9 -11 -9 1 0 8 4 21 9 28 4
7 5 31 1 52 -4 22 -3 37 1 34 5 -3 9 0 9 5 0 6 -5 11 -10 11 -6 0 -3 11 6 25
12 18 13 25 4 25 -9 0 -11 11 -7 35 3 20 2 35 -4 35 -5 0 -4 10 3 23 7 12 11
26 10 30 -1 4 -4 34 -5 65 -3 49 0 59 19 74 12 10 27 18 33 18 6 0 11 4 11 9
0 6 21 13 48 16 26 4 54 9 62 12 8 4 18 5 23 5 4 -1 7 2 7 7 0 5 23 9 52 9 28
1 54 5 57 9 8 10 24 14 82 17 25 2 51 6 57 10 7 4 12 2 12 -4 0 -6 5 -8 13 -3
6 4 22 7 34 8 12 0 24 3 28 7 4 3 20 2 36 -2 17 -5 31 -5 35 1 3 5 9 7 14 4 5
-3 20 0 32 6 22 12 22 11 8 -7 -15 -18 -14 -18 14 0 16 10 25 13 22 7 -4 -6
-2 -11 3 -11 6 0 11 4 11 9 0 5 12 10 28 10 15 1 41 2 57 2 17 1 48 -1 69 -6
25 -5 46 -4 57 4 23 14 42 14 34 1 -3 -5 -2 -10 4 -10 5 0 11 5 13 12 3 7 11
9 24 3 10 -4 28 -10 38 -12 11 -2 25 -8 32 -13 8 -7 13 -6 18 5 3 8 11 15 18
15 9 0 8 -3 -2 -10 -10 -7 6 -10 55 -10 66 0 108 -4 200 -16 22 -3 49 -6 60
-7 11 0 26 -7 34 -15 10 -10 16 -11 21 -2 5 9 9 9 14 1 4 -6 18 -8 32 -5 13 3
24 2 24 -2 0 -5 27 -9 61 -9 49 0 63 -4 71 -18 7 -15 18 -17 53 -14 26 3 54
-1 71 -9 14 -8 44 -17 65 -20 22 -4 39 -10 39 -14 0 -8 67 -29 112 -35 42 -5
91 -26 101 -42 5 -7 12 -11 18 -8 15 10 50 -5 43 -17 -5 -7 -2 -9 8 -6 8 4 21
-2 28 -12 7 -9 20 -15 30 -13 10 3 21 0 24 -6 4 -6 16 -11 27 -11 11 0 17 -4
14 -10 -3 -6 4 -10 17 -10 13 0 36 -7 52 -15 15 -8 34 -15 42 -15 16 0 36 -34
26 -46 -4 -5 0 -3 9 4 13 10 22 10 43 1 14 -7 26 -16 26 -20 0 -4 16 -16 35
-25 21 -10 32 -21 28 -28 -4 -7 -1 -6 9 2 12 10 18 9 28 -3 7 -8 18 -15 24
-15 6 0 27 -14 45 -31 21 -19 40 -28 49 -24 9 3 13 3 10 -1 -7 -7 10 -21 110
-90 28 -20 52 -41 52 -45 0 -5 7 -9 17 -9 22 0 83 -48 83 -65 0 -9 6 -12 15
-9 8 4 17 -1 21 -10 3 -9 10 -16 16 -16 14 0 38 -27 31 -34 -4 -3 1 -6 11 -6
9 0 19 -7 22 -15 4 -8 10 -15 14 -15 10 0 70 -59 70 -68 0 -4 12 -13 28 -19
15 -7 36 -26 45 -43 10 -16 23 -30 28 -30 9 0 121 -109 126 -124 4 -9 52 -65
94 -108 20 -21 35 -38 32 -38 -4 0 3 -9 52 -65 20 -22 42 -55 50 -73 8 -18 21
-35 30 -38 8 -3 15 -11 15 -18 0 -6 16 -31 35 -54 19 -24 37 -52 40 -63 4 -10
11 -19 16 -19 5 0 9 -5 9 -10 0 -6 16 -34 35 -63 19 -28 35 -56 35 -61 0 -5 6
-17 14 -25 21 -25 156 -298 156 -317 0 -3 6 -20 14 -37 8 -18 27 -68 41 -112
15 -44 31 -89 35 -100 15 -35 68 -227 87 -312 10 -46 21 -83 26 -83 4 0 5 -4
2 -10 -3 -5 3 -76 14 -157 12 -81 23 -179 26 -218 5 -76 6 -446 1 -510 -10
-122 -28 -286 -36 -325 -5 -25 -16 -81 -25 -125 -32 -159 -122 -455 -171 -562
-79 -173 -151 -322 -170 -353 -11 -19 -24 -46 -29 -60 -12 -42 47 44 97 140
113 215 236 550 286 775 108 486 107 1045 -4 1515 -40 166 -112 398 -160 510
-59 136 -171 364 -191 385 -10 11 -18 25 -18 30 0 9 -29 64 -58 110 -88 141
-196 291 -276 385 -226 262 -559 561 -745 668 -23 13 -43 27 -46 31 -3 5 -23
18 -45 30 -22 12 -56 31 -75 43 -138 83 -346 188 -372 188 -8 0 -18 4 -23 9
-22 19 -284 116 -355 132 -32 6 -74 20 -125 40 -11 4 -58 15 -105 23 -47 9
-96 19 -110 21 -46 10 -212 36 -254 41 -22 2 -59 7 -82 10 -73 9 -447 11 -539
3z m-665 -859 c0 -5 -2 -10 -4 -10 -3 0 -8 5 -11 10 -3 6 -1 10 4 10 6 0 11
-4 11 -10z"/>
<path d="M7367 7349 c7 -7 15 -10 18 -7 3 3 -2 9 -12 12 -14 6 -15 5 -6 -5z"/>
<path d="M4520 7330 c-13 -8 -13 -10 2 -10 9 0 20 5 23 10 8 13 -5 13 -25 0z"/>
<path d="M7447 7309 c7 -7 15 -10 18 -7 3 3 -2 9 -12 12 -14 6 -15 5 -6 -5z"/>
<path d="M4425 7299 c-11 -17 1 -21 15 -4 8 9 8 15 2 15 -6 0 -14 -5 -17 -11z"/>
<path d="M7509 7273 c19 -15 53 -45 75 -66 31 -29 46 -37 64 -32 13 3 30 1 38
-6 8 -7 17 -10 19 -7 5 4 -155 103 -205 127 -19 9 -16 5 9 -16z"/>
<path d="M4385 7280 c4 -6 11 -8 16 -5 14 9 11 15 -7 15 -8 0 -12 -5 -9 -10z"/>
<path d="M4310 7260 c0 -5 -10 -10 -23 -10 -31 0 -77 -22 -77 -37 0 -16 3 -16
45 1 50 21 43 10 -10 -15 -24 -11 -49 -17 -56 -13 -7 4 -9 3 -6 -3 3 -5 -10
-17 -30 -27 -19 -9 -33 -19 -31 -22 3 -2 23 4 44 15 69 35 174 81 183 81 13 0
98 40 86 40 -6 0 -25 -4 -42 -9 -20 -6 -35 -6 -38 0 -8 12 -45 12 -45 -1z m10
-24 c0 -3 -4 -8 -10 -11 -5 -3 -10 -1 -10 4 0 6 5 11 10 11 6 0 10 -2 10 -4z"/>
<path d="M3810 7202 c0 -5 7 -9 15 -9 8 0 12 4 9 9 -3 4 -9 8 -15 8 -5 0 -9
-4 -9 -8z"/>
<path d="M4125 7180 c-8 -13 5 -13 25 0 13 8 13 10 -2 10 -9 0 -20 -4 -23 -10z"/>
<path d="M3757 7174 c-3 -6 -2 -24 3 -40 4 -16 9 -23 9 -15 1 10 4 11 15 2 10
-9 15 -8 19 3 3 7 0 13 -6 12 -7 0 -12 4 -12 9 0 6 4 9 8 7 5 -1 6 2 2 8 -3 6
-10 8 -15 5 -4 -3 -10 0 -12 7 -3 8 -7 8 -11 2z"/>
<path d="M3826 7164 c-3 -8 1 -14 9 -14 20 0 28 17 11 23 -8 3 -17 -1 -20 -9z"/>
<path d="M4387 7135 c-12 -11 -15 -38 -14 -111 2 -85 4 -97 20 -100 13 -2 15
1 9 9 -10 13 -8 174 2 185 14 14 27 -19 27 -69 0 -30 4 -70 9 -89 6 -27 8 -12
9 62 1 75 -2 100 -15 112 -19 20 -29 20 -47 1z"/>
<path d="M7730 7143 c0 -19 67 -73 90 -73 l25 0 -30 24 c-43 35 -85 59 -85 49z"/>
<path d="M3930 7079 c-30 -17 -56 -34 -58 -40 -2 -5 -9 -9 -17 -9 -7 0 -18 -7
-25 -15 -7 -8 -10 -15 -7 -15 10 0 79 40 106 61 13 11 29 19 36 19 7 0 15 7
19 15 3 8 4 15 3 14 -1 0 -27 -14 -57 -30z"/>
<path d="M4050 7100 c-9 -6 -10 -10 -3 -10 6 0 15 5 18 10 8 12 4 12 -15 0z"/>
<path d="M3687 7093 c-4 -3 -7 -11 -7 -17 0 -6 5 -5 12 2 6 6 9 14 7 17 -3 3
-9 2 -12 -2z"/>
<path d="M3453 7023 c-778 -579 -1304 -1418 -1473 -2353 -91 -508 -73 -1069
51 -1565 165 -660 491 -1250 956 -1730 432 -445 966 -781 1540 -969 398 -129
759 -188 1163 -187 328 0 580 28 880 97 1374 317 2459 1387 2795 2755 76 308
108 576 108 899 0 377 -33 606 -148 1050 -19 74 -95 292 -105 305 -5 6 -21 43
-35 83 -77 213 -260 545 -428 777 -64 88 -216 275 -224 275 -6 0 24 -40 117
-157 124 -156 265 -365 302 -448 7 -17 15 -32 18 -35 15 -14 140 -261 140
-276 0 -3 15 -36 34 -73 18 -37 37 -78 41 -91 4 -14 16 -44 26 -66 10 -23 24
-64 30 -90 6 -27 22 -80 34 -119 54 -162 67 -213 72 -275 2 -36 11 -78 18 -95
19 -42 50 -215 70 -383 17 -143 22 -469 10 -647 -7 -95 -27 -225 -35 -225 -3
0 -4 -18 -2 -41 4 -35 -11 -116 -26 -143 -3 -6 -4 -32 -3 -59 2 -29 -3 -57
-12 -70 -8 -12 -20 -53 -27 -92 -7 -38 -25 -113 -41 -165 -42 -134 -39 -127
-48 -111 -5 8 -8 -3 -8 -30 0 -26 -13 -78 -31 -127 -37 -95 -110 -255 -121
-262 -12 -7 -51 -100 -51 -120 0 -16 -24 -57 -99 -169 -20 -29 -67 -104 -106
-166 -107 -172 -144 -218 -192 -236 -18 -6 -23 -16 -23 -42 0 -24 -8 -41 -31
-63 -17 -16 -48 -54 -69 -84 -21 -30 -60 -75 -86 -100 -27 -24 -99 -92 -160
-150 -61 -58 -148 -132 -194 -165 -45 -33 -103 -78 -129 -100 -52 -46 -159
-118 -239 -161 -99 -54 -131 -71 -164 -91 -18 -10 -64 -32 -102 -48 -59 -25
-66 -30 -45 -35 22 -6 21 -7 -16 -20 -22 -7 -67 -25 -100 -40 -98 -45 -225
-96 -305 -123 -41 -14 -93 -33 -115 -43 -22 -9 -62 -23 -90 -30 -27 -7 -82
-22 -121 -33 -40 -11 -109 -25 -155 -30 -46 -5 -101 -17 -122 -26 -39 -16
-106 -27 -167 -26 -19 0 -58 -6 -86 -14 -35 -10 -88 -14 -163 -12 -61 1 -111
-1 -111 -4 0 -3 -24 -2 -52 2 -29 3 -57 3 -63 -1 -13 -10 -195 0 -195 11 0 5
-7 9 -16 9 -9 0 -12 -5 -8 -12 4 -7 3 -8 -5 -4 -7 4 -74 9 -149 12 -132 3
-201 17 -306 60 -16 6 -18 4 -13 -9 8 -21 7 -21 -43 -1 -22 9 -50 14 -63 10
-33 -8 -227 46 -227 64 0 4 -8 10 -17 14 -10 3 -25 9 -33 13 -13 5 -13 4 -1
-10 23 -28 -11 -21 -38 7 -14 15 -40 27 -65 31 -75 12 -116 27 -116 44 0 10
-3 12 -8 6 -8 -13 -18 -12 -52 2 -14 6 -63 27 -110 46 -169 70 -190 80 -190
93 0 8 -10 14 -24 14 -25 0 -108 37 -209 93 -57 32 -117 86 -117 106 0 6 -5
11 -11 11 -5 0 -7 6 -3 13 4 6 4 9 -1 5 -4 -4 -17 -1 -29 7 -11 8 -30 15 -41
15 -40 0 -124 50 -253 149 -73 56 -132 110 -132 118 0 9 -3 14 -6 10 -3 -3
-13 0 -22 6 -39 30 -301 301 -422 437 -28 32 -68 89 -125 180 -12 19 -38 60
-57 90 -19 30 -49 79 -67 107 -18 30 -38 50 -44 46 -5 -3 -7 -1 -3 5 10 17
-15 61 -38 64 -14 2 -20 9 -18 22 2 11 -1 15 -7 11 -7 -4 -11 6 -11 28 0 19
-7 40 -15 47 -8 7 -15 17 -15 22 0 5 -9 18 -19 30 -11 11 -17 26 -14 34 3 8 0
14 -6 14 -6 0 -11 6 -11 14 0 7 -7 19 -15 26 -8 7 -13 16 -10 20 3 5 -1 14 -8
22 -15 15 -31 49 -28 61 0 4 -4 18 -11 30 -7 12 -13 31 -15 42 -2 10 -7 22
-11 25 -4 3 -14 25 -22 50 -7 25 -26 71 -42 104 -15 32 -28 62 -28 67 0 5 -11
32 -24 62 -14 29 -47 127 -75 217 -42 136 -51 177 -51 240 0 42 -5 81 -10 86
-6 6 -12 29 -13 52 0 22 -5 38 -9 35 -5 -2 -6 6 -3 19 4 14 0 52 -8 85 -8 34
-15 93 -16 131 -1 39 -6 84 -11 101 -5 20 -5 31 1 31 6 0 7 6 2 13 -9 14 -11
217 -2 211 3 -2 11 8 18 23 10 21 9 28 -1 34 -21 13 22 40 44 28 14 -7 16 -6
12 6 -4 8 -1 15 5 15 6 0 11 9 11 20 0 11 -4 20 -9 20 -6 0 -12 17 -14 38 -3
31 -4 28 -6 -18 -2 -30 -5 -47 -8 -37 -2 9 -10 17 -18 17 -22 0 -36 25 -22 40
10 10 9 11 -2 5 -11 -7 -13 -2 -8 25 4 18 7 41 7 51 0 11 7 19 15 19 8 0 15 5
15 11 0 5 -4 8 -8 5 -15 -9 -5 148 16 244 12 52 23 109 26 125 24 146 52 265
92 387 14 43 30 80 35 84 5 3 7 9 4 14 -3 5 4 24 15 42 11 18 20 40 20 48 0
13 26 85 53 150 6 14 18 33 27 44 8 10 14 21 14 25 -3 14 11 37 33 54 13 10
21 23 18 28 -8 11 35 109 47 109 15 0 39 28 27 32 -6 2 0 16 13 33 12 16 17
25 10 21 -15 -9 -17 -12 43 104 21 41 53 92 72 113 18 21 31 41 29 46 -3 4 13
30 36 57 93 113 206 262 210 278 1 9 8 17 13 17 17 0 75 62 92 97 18 37 94
118 186 197 75 65 180 157 252 220 31 28 73 61 94 75 61 41 107 80 95 80 -6 0
-51 -30 -101 -67z m-1485 -2815 c11 -15 -2 -58 -18 -58 -5 0 -10 16 -10 35 0
36 10 44 28 23z"/>
<path d="M1951 4174 c0 -11 3 -14 6 -6 3 7 2 16 -1 19 -3 4 -6 -2 -5 -13z"/>
<path d="M3990 7070 c-19 -11 -31 -19 -27 -20 11 0 67 29 67 35 0 7 -1 7 -40
-15z"/>
<path d="M6243 7043 c-15 -5 -18 -33 -4 -33 5 0 11 9 14 20 3 11 4 20 4 19 -1
0 -8 -3 -14 -6z"/>
<path d="M3898 7020 c-20 -11 -39 -24 -43 -29 -3 -6 15 2 40 15 25 14 45 28
45 30 0 6 -1 5 -42 -16z"/>
<path d="M4079 6983 c0 -21 -2 -63 -3 -93 -2 -30 -1 -66 1 -80 4 -23 9 -25 39
-22 l35 4 -3 112 -3 111 -32 3 c-32 3 -33 2 -34 -35z m59 -86 c3 -98 3 -98
-20 -95 -16 2 -22 9 -21 23 1 11 3 55 4 98 1 66 4 77 18 75 13 -3 17 -20 19
-101z"/>
<path d="M3512 6960 c0 -14 2 -19 5 -12 2 6 2 18 0 25 -3 6 -5 1 -5 -13z"/>
<path d="M3756 6972 c-2 -4 4 -9 15 -9 10 -1 19 2 19 8 0 11 -27 12 -34 1z"/>
<path d="M3480 6944 c0 -8 5 -12 10 -9 6 3 10 10 10 16 0 5 -4 9 -10 9 -5 0
-10 -7 -10 -16z"/>
<path d="M8010 6947 c0 -2 15 -14 33 -27 20 -15 27 -17 18 -6 -13 16 -51 41
-51 33z"/>
<path d="M3645 6900 c-10 -11 -15 -20 -11 -20 11 0 39 30 34 36 -3 2 -13 -5
-23 -16z"/>
<path d="M3422 6884 c-1 -13 0 -24 2 -24 7 0 14 40 7 44 -4 3 -8 -6 -9 -20z"/>
<path d="M3818 6798 c-5 -129 0 -178 19 -178 12 0 13 3 4 14 -6 7 -9 20 -6 27
2 8 6 53 8 101 1 48 6 91 10 95 16 15 27 -24 28 -102 l2 -80 7 85 c8 99 1 120
-40 120 l-29 0 -3 -82z"/>
<path d="M8100 6867 c19 -17 129 -108 153 -126 9 -7 17 -11 17 -8 0 9 -163
147 -174 147 -6 0 -4 -6 4 -13z"/>
<path d="M4391 6828 c-13 -38 -44 -58 -91 -58 -25 0 -30 -4 -30 -24 0 -16 11
-32 30 -46 28 -20 29 -24 24 -75 -3 -30 -2 -55 1 -55 15 0 37 32 31 45 -3 8 1
21 9 29 16 16 9 86 -9 86 -6 0 2 7 18 15 15 8 33 12 39 8 7 -4 39 -7 72 -8 42
0 59 -4 58 -12 -2 -7 4 -13 12 -13 8 0 15 4 15 9 0 20 -33 41 -65 41 -25 0
-39 7 -52 25 -52 74 -49 73 -62 33z"/>
<path d="M4770 6820 c0 -5 5 -10 10 -10 6 0 10 5 10 10 0 6 -4 10 -10 10 -5 0
-10 -4 -10 -10z"/>
<path d="M3525 6810 c-3 -5 1 -10 9 -10 9 0 16 5 16 10 0 6 -4 10 -9 10 -6 0
-13 -4 -16 -10z"/>
<path d="M3569 6799 l-24 -20 28 17 c15 9 27 18 27 20 0 8 -8 4 -31 -17z"/>
<path d="M3237 6793 c-3 -3 -3 -12 0 -21 5 -11 3 -13 -7 -7 -8 5 -11 3 -8 -5
2 -8 10 -16 18 -18 7 -3 10 0 6 7 -4 6 -2 11 3 11 6 0 11 -5 11 -11 0 -15 18
-1 31 24 9 18 9 20 -2 10 -7 -7 -20 -13 -28 -13 -13 0 -13 2 -3 9 11 7 11 9
-1 14 -8 3 -17 3 -20 0z"/>
<path d="M3316 6785 c-9 -26 -7 -32 5 -12 6 10 9 21 6 23 -2 3 -7 -2 -11 -11z"/>
<path d="M3465 6760 c3 -5 8 -10 11 -10 2 0 4 5 4 10 0 6 -5 10 -11 10 -5 0
-7 -4 -4 -10z"/>
<path d="M3196 6721 c-4 -6 -14 -7 -24 -4 -16 6 -16 6 0 -10 18 -18 33 -23 24
-8 -4 5 0 11 6 14 7 2 10 7 7 11 -4 4 -10 3 -13 -3z"/>
<path d="M4097 6677 c-15 -32 -52 -60 -73 -56 -48 9 -60 -27 -19 -59 21 -17
25 -28 25 -71 0 -38 4 -53 16 -58 17 -6 36 15 27 31 -3 5 -1 6 5 2 6 -3 13 -2
17 4 3 5 -1 10 -10 10 -13 0 -15 6 -10 31 5 22 2 36 -10 49 -17 19 -16 20 11
31 16 7 34 11 39 9 6 -1 34 -4 63 -6 68 -4 94 -12 86 -27 -5 -9 -4 -9 6 -1 15
15 4 54 -16 55 -8 1 -18 3 -24 4 -5 1 -20 3 -33 4 -16 1 -30 13 -46 41 -12 22
-26 40 -31 40 -4 0 -15 -15 -23 -33z"/>
<path d="M4470 6658 c0 -9 5 -20 11 -23 17 -11 20 0 4 21 -13 17 -14 17 -15 2z"/>
<path d="M3530 6643 c0 -10 -3 -64 -7 -120 -3 -56 -3 -113 1 -128 6 -22 11
-26 39 -23 l32 3 0 140 0 140 -32 3 c-26 3 -33 0 -33 -15z m50 -13 c0 -5 -5
-10 -11 -10 -5 0 -7 5 -4 10 3 6 8 10 11 10 2 0 4 -4 4 -10z m8 -159 c0 -67
-4 -91 -13 -91 -14 0 -37 24 -30 31 2 3 5 45 6 94 1 52 7 93 13 97 17 11 24
-30 24 -131z"/>
<path d="M3315 6639 c-12 -18 3 -22 20 -5 14 14 14 16 1 16 -8 0 -18 -5 -21
-11z"/>
<path d="M3354 6628 l-19 -23 23 19 c21 18 27 26 19 26 -2 0 -12 -10 -23 -22z"/>
<path d="M8360 6630 c6 -11 20 -25 33 -31 17 -10 16 -6 -8 19 -35 37 -40 39
-25 12z"/>
<path d="M4403 6633 c-17 -6 -17 -25 0 -21 6 2 27 -8 46 -22 23 -16 36 -20 39
-12 2 7 7 10 12 7 4 -3 5 5 2 17 -5 19 -7 20 -10 6 -5 -24 -14 -23 -42 7 -24
26 -27 27 -47 18z"/>
<path d="M3084 6622 c4 -7 1 -15 -8 -18 -24 -9 -18 -37 12 -58 l27 -19 -25 27
c-24 27 -25 28 -6 42 17 12 18 16 6 27 -10 9 -12 9 -6 -1z"/>
<path d="M3016 6548 c-19 -36 -19 -38 -7 -38 5 0 12 12 16 27 3 15 12 31 18
35 9 6 9 8 0 8 -6 0 -19 -14 -27 -32z"/>
<path d="M3198 6534 c-21 -19 -34 -34 -29 -34 5 0 16 7 25 15 8 8 19 15 24 15
9 0 26 30 20 36 -2 1 -20 -13 -40 -32z"/>
<path d="M4212 6557 c-8 -10 -6 -13 7 -13 11 0 17 6 14 13 -3 7 -6 13 -8 13
-1 0 -7 -6 -13 -13z"/>
<path d="M3036 6545 c-11 -30 -6 -40 11 -22 12 12 14 20 6 28 -7 7 -12 6 -17
-6z"/>
<path d="M3265 6550 c-3 -6 1 -7 9 -4 18 7 21 14 7 14 -6 0 -13 -4 -16 -10z"/>
<path d="M3826 6527 c-19 -46 -30 -53 -86 -56 -38 -1 -41 -32 -4 -58 21 -16
26 -27 27 -73 2 -42 6 -55 19 -58 12 -2 15 2 11 17 -3 11 0 35 6 52 9 26 8 37
-4 56 -15 22 -14 24 8 32 13 5 27 17 31 27 6 16 8 15 27 -4 15 -17 32 -22 72
-22 l52 -1 -22 -18 c-18 -15 -20 -20 -8 -25 8 -3 14 0 12 6 -1 6 4 13 12 16 9
3 11 0 7 -9 -4 -8 0 -5 8 5 9 11 16 23 16 28 0 12 -39 29 -71 30 -24 1 -36 9
-54 39 -34 52 -42 55 -59 16z"/>
<path d="M8451 6537 c2 -1 13 -9 24 -17 19 -14 19 -14 6 3 -7 9 -18 17 -24 17
-6 0 -8 -1 -6 -3z"/>
<path d="M4188 6513 c-3 -4 3 -26 14 -48 l18 -40 -6 40 c-7 42 -18 63 -26 48z"/>
<path d="M4367 6499 c-3 -12 -5 -128 -4 -258 l2 -236 30 1 c17 1 33 2 38 3 4
1 6 115 5 254 l-3 252 -31 3 c-25 2 -33 -1 -37 -19z m54 -244 c1 -207 0 -230
-15 -233 -15 -3 -16 18 -16 231 1 129 4 238 7 241 18 18 22 -29 24 -239z"/>
<path d="M2969 6508 c0 -2 -2 -11 -4 -21 -3 -15 -1 -16 11 -6 7 6 11 15 8 20
-5 9 -13 12 -15 7z"/>
<path d="M2989 6471 c-7 -16 -17 -27 -22 -24 -4 2 -14 -1 -22 -7 -12 -10 -15
-10 -15 1 -1 9 -5 8 -15 -5 -12 -16 -12 -22 -2 -28 8 -6 6 -8 -8 -6 -12 2 -19
-2 -17 -9 1 -7 -2 -13 -8 -13 -5 0 -10 -4 -10 -10 0 -5 7 -10 15 -10 8 0 15 6
15 13 0 8 3 7 10 -3 8 -12 10 -12 16 3 3 9 13 17 21 17 8 0 11 4 8 10 -4 6 1
7 11 3 13 -5 16 -3 11 9 -3 10 0 19 9 22 8 3 14 15 14 26 0 11 5 20 10 20 6 0
10 5 10 10 0 21 -19 9 -31 -19z"/>
<path d="M4148 6459 c24 -17 45 -29 48 -26 9 9 -50 57 -70 57 -15 0 -9 -8 22
-31z"/>
<path d="M6420 6485 c4 -20 -1 -23 -34 -15 -19 4 -40 4 -47 -1 -11 -7 -9 -9 6
-10 11 0 36 -2 57 -5 28 -3 36 -1 34 11 -1 8 -6 18 -10 22 -4 4 -7 4 -6 -2z"/>
<path d="M3275 6428 c-8 -25 -14 -233 -7 -244 4 -7 21 -9 40 -7 29 5 32 9 33
42 6 140 5 188 -3 204 -10 20 -57 23 -63 5z m51 -125 c-1 -95 -3 -108 -19
-111 -16 -3 -18 5 -16 95 2 91 10 123 29 123 4 0 7 -48 6 -107z"/>
<path d="M6665 6430 c-3 -5 0 -10 7 -11 7 0 26 -2 41 -3 25 -2 27 0 11 11 -21
15 -50 17 -59 3z"/>
<path d="M3100 6385 c-24 -25 -42 -45 -39 -45 3 0 25 20 49 45 24 25 42 45 39
45 -3 0 -25 -20 -49 -45z"/>
<path d="M3980 6379 c-17 -13 -18 -17 -5 -10 33 17 51 31 40 31 -5 0 -21 -10
-35 -21z"/>
<path d="M4095 6381 c-7 -23 -12 -378 -5 -385 3 -2 19 -7 35 -10 23 -5 25 -4
10 3 -20 8 -21 16 -18 147 1 77 2 163 3 192 0 38 4 52 13 49 9 -3 12 -43 13
-153 1 -189 2 -214 12 -214 4 0 7 87 7 193 l0 192 -32 3 c-24 2 -33 -1 -38
-17z"/>
<path d="M3925 6338 c6 -39 -4 -49 -24 -24 -19 22 -67 25 -80 4 -9 -14 -8 -18
4 -18 8 0 15 5 15 10 0 17 22 11 56 -15 38 -29 46 -31 37 -8 -4 11 -3 14 5 9
15 -9 14 0 -4 44 l-14 35 5 -37z"/>
<path d="M3006 6280 c-25 -27 -46 -52 -46 -57 0 -4 4 -3 8 3 5 5 28 30 52 57
56 62 46 61 -14 -3z"/>
<path d="M2980 6300 c-8 -5 -11 -12 -7 -16 4 -4 13 -2 19 4 15 15 7 24 -12 12z"/>
<path d="M3548 6282 c-21 -48 -39 -62 -80 -62 -46 0 -49 -16 -12 -51 23 -21
25 -30 21 -72 -2 -29 1 -54 8 -64 12 -16 16 -14 44 16 l31 33 47 -30 c40 -26
49 -29 56 -16 5 8 3 30 -3 50 -13 37 -7 69 10 59 5 -3 10 -2 10 4 0 6 11 16
25 23 34 18 18 40 -37 47 -37 5 -46 11 -63 43 -26 49 -43 55 -57 20z m107 -94
l50 -3 -32 -19 c-41 -25 -44 -33 -27 -81 17 -50 11 -55 -22 -22 -30 30 -59 34
-88 12 -30 -23 -35 -18 -21 22 8 24 10 44 4 55 -7 13 -2 24 18 46 27 29 29 29
48 11 12 -11 40 -19 70 -21z"/>
<path d="M3828 6198 c-8 -47 -8 -484 0 -496 5 -8 22 -12 38 -10 l29 3 5 115
c3 63 4 181 2 263 l-3 147 -33 0 c-27 0 -35 -4 -38 -22z m55 -234 c1 -218 -3
-261 -23 -249 -8 5 -4 257 5 283 2 6 1 12 -3 12 -4 0 -6 37 -6 83 2 108 2 109
15 105 8 -3 12 -72 12 -234z"/>
<path d="M2920 6175 c-18 -19 -32 -36 -29 -38 2 -2 19 14 38 35 42 48 36 50
-9 3z"/>
<path d="M2890 6190 c0 -5 7 -7 15 -4 8 4 15 8 15 10 0 2 -7 4 -15 4 -8 0 -15
-4 -15 -10z"/>
<path d="M2850 6149 c0 -7 -8 -18 -17 -25 -16 -12 -16 -12 5 -7 13 3 22 13 22
24 0 11 -2 19 -5 19 -3 0 -5 -5 -5 -11z"/>
<path d="M2996 6082 c-8 -13 -11 -316 -4 -328 4 -6 20 -9 35 -6 25 5 25 6 6
13 -20 7 -20 14 -19 148 1 77 4 143 8 146 17 17 28 -12 28 -78 2 -137 5 -195
13 -203 4 -4 7 61 7 145 l0 151 -26 10 c-31 12 -41 12 -48 2z"/>
<path d="M3269 6038 c-18 -45 -36 -58 -80 -58 -48 0 -51 -18 -8 -54 29 -24 30
-30 25 -74 -8 -60 2 -79 35 -61 13 7 29 19 36 28 10 14 16 13 53 -7 53 -28 54
-28 25 4 -28 30 -66 34 -91 10 -13 -14 -19 -15 -25 -5 -4 7 -5 17 -3 21 3 5 7
28 9 52 4 70 59 127 72 76 6 -21 11 -23 53 -21 14 1 38 -3 53 -8 22 -9 27 -8
27 5 0 18 -32 30 -87 33 -7 1 -21 18 -32 40 -27 51 -46 58 -62 19z"/>
<path d="M2605 6050 c4 -6 11 -8 16 -5 14 9 11 15 -7 15 -8 0 -12 -5 -9 -10z"/>
<path d="M2640 6051 c0 -5 -9 -13 -20 -16 -11 -4 -17 -11 -14 -17 5 -8 1 -9
-10 -5 -14 6 -17 3 -12 -9 5 -12 1 -14 -17 -10 -12 3 -16 3 -9 0 10 -5 10 -9
0 -22 -12 -14 -10 -14 11 -3 13 7 21 8 17 3 -9 -15 7 -22 24 -11 11 6 11 9 2
9 -10 0 -10 5 -2 20 6 11 16 17 22 14 7 -5 9 -1 5 9 -3 10 -2 17 2 17 5 0 11
7 15 15 3 8 1 15 -4 15 -6 0 -10 -4 -10 -9z"/>
<path d="M2793 6008 c-20 -26 -26 -41 -15 -34 12 7 36 46 29 46 -3 0 -9 -6
-14 -12z"/>
<path d="M3533 5983 c-10 -3 -12 -94 -13 -381 0 -207 4 -382 8 -389 4 -7 17
-10 30 -6 12 3 19 9 16 14 -3 5 -8 7 -12 5 -5 -3 -7 507 -3 712 1 13 6 22 12
20 8 -3 11 -107 11 -366 0 -209 4 -364 9 -368 5 -3 10 5 10 18 4 85 -1 730 -6
738 -6 10 -41 12 -62 3z"/>
<path d="M2710 5944 c0 -8 5 -12 10 -9 6 4 8 11 5 16 -9 14 -15 11 -15 -7z"/>
<path d="M2545 5941 c3 -5 -2 -17 -11 -25 -8 -9 -12 -16 -7 -16 4 0 1 -5 -7
-10 -13 -9 -13 -11 0 -20 8 -5 20 -9 25 -9 6 0 5 3 -2 6 -9 3 -9 10 -3 24 6
10 15 28 20 39 8 16 7 20 -6 20 -8 0 -13 -4 -9 -9z"/>
<path d="M2697 5863 c-39 -63 -43 -71 -24 -53 17 17 59 90 52 90 -3 0 -15 -17
-28 -37z"/>
<path d="M3360 5861 c0 -10 8 -25 17 -32 15 -12 16 -12 10 4 -4 10 -7 25 -7
33 0 8 -4 14 -10 14 -5 0 -10 -8 -10 -19z"/>
<path d="M2505 5840 c-3 -5 -2 -10 4 -10 5 0 13 5 16 10 3 6 2 10 -4 10 -5 0
-13 -4 -16 -10z"/>
<path d="M2472 5794 c-7 -14 -8 -23 -2 -19 5 3 10 -2 10 -11 0 -26 8 -13 15
24 6 38 -7 42 -23 6z"/>
<path d="M4231 5794 c0 -11 3 -14 6 -6 3 7 2 16 -1 19 -3 4 -6 -2 -5 -13z"/>
<path d="M2506 5787 c3 -10 9 -15 12 -12 3 3 0 11 -7 18 -10 9 -11 8 -5 -6z"/>
<path d="M2627 5753 c-11 -11 -17 -13 -17 -5 0 7 -7 12 -15 12 -20 0 -19 -10
2 -25 16 -12 16 -14 0 -39 -16 -24 -46 -39 -32 -16 3 6 2 10 -3 10 -5 0 -12
-9 -15 -19 -3 -14 -1 -18 10 -14 11 4 14 1 11 -8 -3 -8 -9 -14 -14 -14 -15 0
-34 -15 -34 -28 0 -6 7 -2 15 9 14 19 14 19 15 -1 0 -22 5 -16 69 98 34 60 36
68 8 40z"/>
<path d="M2459 5738 c-6 -21 -5 -38 1 -38 5 0 8 9 7 20 -1 17 -5 26 -8 18z"/>
<path d="M3258 5508 c-4 -291 -2 -308 22 -308 10 0 22 5 25 10 4 6 1 9 -7 8
-10 -2 -12 10 -10 47 1 28 2 139 2 248 0 154 3 198 13 194 9 -3 14 -65 18
-241 4 -130 9 -240 13 -243 3 -4 5 110 4 253 l-3 259 -37 3 -37 3 -3 -233z"/>
<path d="M2420 5697 c-11 -23 -11 -30 0 -40 10 -9 11 -9 6 1 -4 7 -2 19 4 27
7 8 10 20 7 27 -3 8 -10 2 -17 -15z"/>
<path d="M4450 5704 c0 -8 -4 -12 -10 -9 -5 3 -10 -1 -10 -9 0 -21 -21 -31
-31 -15 -4 7 -11 10 -15 7 -3 -4 1 -15 10 -24 12 -12 14 -20 7 -27 -18 -18
-13 -36 9 -30 13 4 17 10 12 17 -4 6 -8 16 -8 22 1 18 51 71 64 66 7 -2 12 0
12 5 0 5 -9 9 -20 10 -12 1 -20 -4 -20 -13z"/>
<path d="M6953 5688 c-86 -100 -156 -142 -271 -160 -74 -12 -459 -13 -763 -3
l-196 7 -21 -59 c-12 -32 -35 -98 -51 -148 -17 -49 -64 -189 -106 -310 -150
-436 -330 -987 -341 -1041 -5 -29 -3 -32 27 -43 28 -9 37 -8 68 10 77 46 102
59 115 59 7 0 33 9 57 19 106 47 353 52 457 9 15 -6 34 -12 42 -14 8 -2 20
-10 26 -18 6 -9 14 -13 18 -9 3 4 20 -6 36 -22 17 -16 30 -25 30 -20 0 5 18
-11 40 -35 65 -73 72 -81 66 -87 -3 -3 2 -12 12 -19 9 -7 18 -17 18 -23 1 -6
2 -16 3 -22 0 -5 6 -7 11 -4 6 4 10 3 9 -2 -1 -4 1 -24 4 -43 4 -19 9 -48 11
-63 3 -16 9 -34 14 -40 9 -11 8 -77 -3 -230 -2 -37 -7 -72 -10 -78 -13 -20
-16 -61 -5 -54 6 4 2 -12 -10 -35 -12 -23 -17 -39 -12 -36 6 4 8 -3 5 -15 -5
-16 -8 -18 -15 -7 -7 9 -8 8 -6 -7 2 -11 -3 -26 -12 -33 -13 -10 -13 -11 4 -6
14 6 12 -2 -13 -36 -17 -24 -31 -49 -31 -57 0 -8 -5 -11 -12 -7 -7 4 -8 3 -4
-5 7 -11 -56 -100 -76 -109 -5 -2 -8 -10 -8 -17 0 -8 -4 -17 -10 -20 -6 -4 -7
1 -3 12 5 15 4 16 -8 5 -8 -7 -15 -17 -15 -22 -1 -6 -2 -16 -3 -22 -1 -9 -4
-8 -11 2 -8 12 -10 10 -11 -10 0 -14 -3 -20 -5 -14 -3 6 -28 -11 -56 -38 -28
-26 -59 -48 -69 -48 -11 0 -19 -5 -19 -11 0 -6 -7 -9 -15 -5 -8 3 -15 1 -15
-4 0 -5 -8 -9 -17 -9 -10 0 -31 -3 -48 -6 -65 -12 -169 -9 -161 4 4 5 -2 7
-12 4 -22 -5 -101 39 -142 80 -30 30 -76 114 -85 154 -21 94 -55 184 -82 215
-8 9 -12 21 -9 26 3 5 -11 16 -30 25 -19 10 -33 21 -29 26 8 13 -91 31 -145
27 -93 -8 -186 -70 -225 -152 -14 -28 -19 -61 -19 -119 0 -74 3 -86 38 -153
113 -212 361 -324 716 -324 342 1 648 124 904 364 127 119 239 301 262 426 7
37 32 97 39 90 1 -1 6 -55 10 -118 7 -134 10 -159 25 -220 35 -143 99 -266
185 -354 122 -125 241 -170 440 -169 103 0 132 4 205 28 111 36 196 79 302
155 161 115 377 360 503 571 56 95 164 310 195 389 123 314 184 556 205 815
35 418 -49 770 -225 945 -114 112 -213 150 -392 152 -158 1 -292 -34 -437
-114 -177 -98 -429 -346 -561 -549 -22 -35 -44 -66 -48 -69 -10 -8 -226 -421
-223 -427 6 -14 -1 -33 -11 -27 -6 4 -8 3 -5 -3 4 -6 0 -24 -8 -39 -8 -16 -15
-35 -15 -42 0 -7 -4 -20 -9 -30 -5 -9 -14 -36 -20 -59 -20 -79 -35 -128 -40
-138 -3 -5 -7 -19 -8 -30 -2 -11 -10 -58 -17 -105 -8 -47 -18 -105 -21 -130
-12 -81 -24 -68 -54 60 -27 110 -61 180 -134 269 -128 158 -312 253 -572 297
-57 9 -223 6 -338 -6 -55 -5 -102 -8 -107 -5 -4 3 12 60 36 127 23 68 73 214
111 326 l68 203 520 -3 519 -3 13 25 c22 43 223 556 223 568 0 13 -71 52 -95
52 -8 0 -27 -15 -42 -32z m85 -14 c24 -17 30 -54 8 -54 -7 0 -19 7 -26 15 -10
12 -16 13 -27 4 -11 -9 -12 -9 -8 4 4 8 1 18 -5 22 -9 6 -9 10 1 16 20 12 32
11 57 -7z m-3 -66 c4 -4 -19 -68 -53 -148 -6 -14 -36 -90 -68 -170 -31 -80
-61 -156 -67 -170 -9 -25 -12 -25 -106 -23 -53 1 -282 3 -509 5 l-414 3 -18
-23 c-10 -12 -34 -70 -53 -130 -20 -59 -54 -159 -76 -222 -23 -63 -41 -121
-41 -130 0 -8 -6 -27 -14 -41 -28 -54 -58 -161 -49 -170 7 -7 65 -6 164 2 233
18 371 7 533 -43 82 -25 216 -111 294 -190 81 -81 161 -228 189 -346 9 -40 24
-74 36 -85 20 -18 21 -18 33 5 7 13 17 55 23 93 12 85 49 264 56 275 3 5 14
42 24 82 20 77 75 226 118 318 27 60 34 73 68 135 118 214 151 265 237 366 26
31 45 58 43 61 -10 10 252 252 325 300 65 44 168 98 184 98 4 0 30 11 59 25
78 38 181 57 231 44 23 -7 77 -13 121 -14 78 -2 82 -3 188 -65 60 -34 111 -70
115 -79 3 -9 16 -24 28 -34 24 -18 126 -211 123 -230 -3 -14 9 -64 21 -92 10
-23 21 -96 26 -180 4 -54 11 -134 14 -160 1 -5 -1 -21 -3 -35 -3 -14 -8 -78
-12 -142 -3 -64 -10 -132 -16 -150 -11 -40 -11 -40 -1 -34 5 3 6 -8 4 -25 -2
-16 -7 -29 -11 -29 -4 0 -7 -10 -8 -22 -2 -24 -26 -130 -48 -213 -16 -61 -50
-159 -69 -200 -8 -16 -19 -46 -24 -65 -18 -61 -40 -113 -77 -184 -19 -37 -37
-75 -38 -85 -2 -9 -14 -34 -28 -56 -14 -22 -41 -69 -60 -105 -20 -36 -52 -87
-72 -113 -20 -27 -37 -53 -37 -57 0 -15 -170 -223 -248 -303 -61 -62 -223
-182 -297 -220 -130 -66 -216 -89 -345 -91 -135 -1 -186 11 -285 67 -107 60
-184 147 -234 262 -40 91 -69 182 -76 235 -1 14 -8 68 -14 121 -7 53 -11 100
-10 105 3 22 -15 54 -31 54 -24 0 -36 -17 -50 -70 -6 -25 -39 -101 -73 -170
-60 -122 -64 -128 -191 -253 -71 -71 -139 -133 -150 -138 -12 -5 -48 -25 -81
-44 -140 -82 -297 -142 -440 -168 -33 -6 -134 -11 -225 -11 -136 0 -181 4
-254 22 -331 82 -498 274 -431 495 8 26 11 47 8 47 -13 0 63 72 92 87 37 20
121 28 130 14 3 -6 21 -11 39 -11 63 0 133 -103 171 -252 18 -69 37 -105 103
-190 37 -47 55 -61 109 -83 35 -14 72 -26 81 -28 9 -1 23 -6 30 -10 6 -5 12
-4 12 2 0 5 24 8 58 6 52 -3 67 1 159 47 70 34 116 64 145 95 24 25 59 62 79
82 102 103 189 297 210 466 5 44 12 90 14 103 6 35 -14 211 -31 269 -16 56
-99 191 -143 233 -63 61 -235 146 -303 149 -209 9 -325 -5 -411 -49 -21 -11
-45 -20 -55 -20 -9 0 -30 -9 -47 -20 -22 -14 -31 -16 -37 -7 -5 8 -8 6 -8 -6
0 -11 -6 -17 -12 -14 -41 14 13 214 72 267 5 5 20 36 39 83 12 30 6 52 -10 41
-6 -3 -8 -13 -5 -21 4 -9 2 -11 -6 -7 -8 5 -9 2 -5 -10 4 -11 3 -15 -4 -11 -6
4 -9 1 -8 -6 3 -14 -27 -79 -37 -79 -2 0 0 8 5 18 5 9 8 20 8 23 -1 4 12 38
30 75 17 38 38 94 47 124 33 115 49 166 61 195 14 32 59 166 60 177 0 3 3 10
8 14 4 4 7 16 7 27 0 10 6 33 13 50 20 47 38 97 51 142 6 22 14 45 18 50 3 6
11 30 17 55 12 44 17 60 39 110 23 50 34 86 37 118 3 36 15 57 15 28 0 -9 4
-15 10 -11 5 3 6 13 3 21 -5 14 -3 15 18 4 l24 -11 -25 20 c-45 36 -4 47 155
42 43 -1 56 -4 45 -11 -13 -8 -13 -10 2 -10 9 0 19 6 21 13 4 8 8 9 14 1 11
-15 121 -18 138 -4 7 6 15 7 18 3 6 -9 421 -9 487 1 78 11 247 53 222 55 -8 1
10 20 39 44 49 40 56 43 91 37 22 -4 41 -10 43 -12z m1722 -1520 c-3 -8 -6 -5
-6 6 -1 11 2 17 5 13 3 -3 4 -12 1 -19z m-3892 -1048 c-4 -24 -11 -38 -16 -33
-5 5 -4 25 2 47 6 21 13 36 16 33 3 -3 2 -24 -2 -47z"/>
<path d="M8068 5420 c-20 -3 -47 -14 -60 -24 -12 -9 -37 -27 -55 -40 -173
-126 -398 -562 -539 -1046 -37 -127 -93 -348 -104 -410 -49 -290 -59 -376 -66
-585 -7 -212 13 -411 50 -491 36 -78 97 -140 157 -157 43 -13 57 -13 107 0 31
8 60 20 64 26 5 8 8 7 8 -3 0 -9 11 -2 26 18 14 17 31 32 38 32 6 0 20 15 31
32 10 18 35 51 56 73 20 22 46 60 58 83 12 24 25 41 28 38 4 -3 14 11 24 32
10 20 23 44 28 52 5 8 24 49 41 90 18 41 43 98 55 125 12 28 28 64 34 80 6 17
24 39 39 48 l27 17 -26 -5 -26 -6 35 71 c19 39 35 83 37 98 5 42 22 102 39
136 19 39 76 232 76 258 0 11 4 27 9 36 5 10 16 51 25 92 9 41 22 108 31 148
8 40 19 98 24 130 5 31 12 68 14 82 3 14 9 57 12 95 4 39 9 88 11 110 2 22 6
104 9 182 2 78 7 156 10 173 3 16 -1 45 -9 64 -8 19 -13 36 -10 38 7 8 -16
133 -31 163 -8 17 -16 41 -19 55 -5 23 -54 60 -81 61 -5 0 -17 7 -25 14 -8 8
-29 13 -45 13 -17 -1 -39 1 -50 4 -11 3 -36 2 -57 -2z m119 -45 c69 -29 99
-72 128 -185 30 -117 26 -449 -10 -710 -19 -144 -67 -396 -89 -470 -3 -8 -12
-44 -21 -80 -61 -237 -146 -487 -215 -635 -17 -35 -30 -67 -30 -70 0 -4 -25
-57 -56 -118 -73 -145 -142 -244 -233 -334 -33 -34 -91 -69 -91 -57 0 4 -7 1
-15 -6 -22 -18 -102 -14 -138 8 -41 23 -93 100 -112 165 -22 73 -38 291 -31
422 11 191 18 275 25 271 3 -2 7 24 8 58 3 113 60 393 124 615 79 273 154 471
263 693 174 357 336 498 493 433z"/>
<path d="M8565 4670 c-3 -5 -1 -10 4 -10 6 0 11 5 11 10 0 6 -2 10 -4 10 -3 0
-8 -4 -11 -10z"/>
<path d="M7451 4584 c0 -11 3 -14 6 -6 3 7 2 16 -1 19 -3 4 -6 -2 -5 -13z"/>
<path d="M8734 4374 c4 -9 1 -23 -6 -32 -11 -13 -10 -14 2 -10 16 5 23 58 7
58 -5 0 -6 -7 -3 -16z"/>
<path d="M8695 4200 c3 -5 8 -10 11 -10 2 0 4 5 4 10 0 6 -5 10 -11 10 -5 0
-7 -4 -4 -10z"/>
<path d="M8695 4169 c-4 -6 -5 -12 -2 -15 2 -3 7 2 10 11 7 17 1 20 -8 4z"/>
<path d="M8656 4037 c3 -10 9 -15 12 -12 3 3 0 11 -7 18 -10 9 -11 8 -5 -6z"/>
<path d="M8632 3934 c-7 -8 -12 -22 -9 -32 3 -13 7 -10 16 12 13 33 11 40 -7
20z"/>
<path d="M7251 3864 c0 -11 3 -14 6 -6 3 7 2 16 -1 19 -3 4 -6 -2 -5 -13z"/>
<path d="M8593 3845 c0 -7 6 -11 14 -8 7 3 13 6 13 8 0 2 -6 5 -13 8 -8 3 -14
-1 -14 -8z"/>
<path d="M8455 3510 c3 -5 11 -10 16 -10 6 0 7 5 4 10 -3 6 -11 10 -16 10 -6
0 -7 -4 -4 -10z"/>
<path d="M8420 3500 c0 -5 5 -10 11 -10 5 0 7 5 4 10 -3 6 -8 10 -11 10 -2 0
-4 -4 -4 -10z"/>
<path d="M8420 3439 c0 -5 5 -7 10 -4 6 3 10 8 10 11 0 2 -4 4 -10 4 -5 0 -10
-5 -10 -11z"/>
<path d="M8386 3391 c-4 -5 3 -7 14 -4 23 6 26 13 6 13 -8 0 -17 -4 -20 -9z"/>
<path d="M6702 3368 c-7 -7 -12 -18 -12 -25 0 -7 -4 -13 -9 -13 -5 0 -7 -10
-3 -22 5 -19 8 -17 24 21 19 46 19 58 0 39z"/>
<path d="M7185 3370 c4 -6 11 -8 16 -5 14 9 11 15 -7 15 -8 0 -12 -5 -9 -10z"/>
<path d="M8350 3300 c-8 -5 -12 -12 -9 -15 4 -3 12 1 19 10 14 17 11 19 -10 5z"/>
<path d="M6614 3259 c-3 -5 7 -9 22 -9 27 0 27 0 8 -17 -17 -15 -31 -63 -19
-63 5 0 45 70 45 79 0 12 -49 20 -56 10z"/>
<path d="M8302 3247 c-12 -15 -12 -48 0 -41 5 4 7 12 4 19 -3 8 3 15 12 17 11
2 13 6 6 11 -7 4 -16 1 -22 -6z"/>
<path d="M6544 3068 c-9 -18 -27 -41 -40 -51 -13 -10 -24 -26 -24 -34 0 -9 -7
-25 -17 -35 -17 -19 -15 -33 2 -20 22 16 72 90 88 130 20 50 15 56 -9 10z"/>
<path d="M2376 5667 c3 -10 9 -15 12 -12 3 3 0 11 -7 18 -10 9 -11 8 -5 -6z"/>
<path d="M4327 5660 c-3 -11 -1 -20 5 -20 6 0 8 -6 5 -14 -4 -10 0 -12 14 -9
12 3 19 0 19 -8 1 -10 4 -9 10 3 13 22 -7 68 -30 68 -10 0 -20 -9 -23 -20z"/>
<path d="M2989 5633 c-17 -46 -39 -63 -81 -63 -46 0 -48 -9 -8 -47 27 -25 30
-32 25 -78 -7 -74 3 -83 54 -49 35 23 44 25 51 14 5 -8 12 -11 16 -7 4 4 15 0
25 -9 30 -27 51 -11 43 33 -3 21 -10 42 -15 48 -13 13 -11 -32 2 -57 17 -32 1
-34 -30 -4 -24 23 -37 28 -65 24 -20 -2 -36 -2 -36 2 0 3 4 22 9 42 7 31 6 36
-8 31 -10 -4 -7 3 9 19 14 14 38 29 53 32 27 6 27 6 16 -16 -10 -19 -10 -21 2
-13 8 6 41 10 73 9 51 -1 57 1 40 13 -10 7 -30 13 -45 13 -29 0 -59 23 -59 44
0 16 -32 46 -49 46 -6 0 -16 -12 -22 -27z m32 -53 c-30 -26 -49 -26 -26 0 10
11 25 20 34 20 12 -1 10 -5 -8 -20z"/>
<path d="M4486 5648 c-16 -50 -14 -59 22 -88 20 -17 42 -30 49 -30 15 0 53
-48 53 -67 0 -8 -4 -11 -10 -8 -5 3 -10 1 -10 -4 0 -6 5 -11 10 -11 6 0 10 -6
10 -13 0 -20 43 -51 73 -53 15 -1 27 2 27 6 0 5 9 12 20 15 11 3 20 15 20 25
0 10 5 22 10 25 6 4 7 12 3 18 -4 7 -7 46 -8 87 0 58 -3 75 -15 78 -12 2 -15
-15 -16 -100 l-1 -103 -44 0 -44 0 -3 39 c-5 53 -34 91 -93 121 -44 23 -59 42
-44 57 3 3 37 -1 77 -9 79 -15 125 -14 131 2 3 5 -9 10 -27 10 -17 0 -66 4
-109 8 -60 6 -78 5 -81 -5z"/>
<path d="M4250 5643 c0 -7 4 -14 9 -18 14 -8 -40 -58 -178 -165 l-43 -34 15
30 c16 30 90 104 105 104 4 0 12 8 19 19 10 15 9 18 -5 17 -9 0 -16 5 -14 12
1 6 -5 12 -14 12 -11 0 -14 -5 -10 -16 6 -15 4 -15 -10 -3 -16 13 -16 12 -5
-9 10 -18 9 -23 -4 -28 -8 -4 -23 0 -33 7 -9 7 -14 9 -10 5 4 -5 3 -15 -3 -23
-6 -7 -9 -22 -6 -34 5 -17 2 -20 -13 -16 -15 4 -21 -2 -26 -27 -11 -43 -12
-68 -3 -86 4 -8 5 -27 2 -41 -4 -20 -9 -25 -24 -22 -15 4 -18 2 -12 -12 4 -13
3 -16 -5 -11 -8 5 -12 -1 -12 -17 0 -14 -7 -30 -15 -37 -9 -7 -13 -20 -10 -28
3 -8 -3 -21 -15 -29 -11 -8 -20 -20 -20 -28 0 -8 -5 -17 -12 -21 -7 -4 -8 -3
-4 4 4 7 2 12 -3 12 -15 0 -14 -17 1 -26 7 -5 5 -11 -7 -21 -11 -7 -13 -13 -7
-13 16 0 15 -47 0 -53 -10 -4 -10 -6 0 -6 6 -1 12 -8 12 -16 0 -8 4 -15 9 -15
15 0 28 24 42 78 7 28 16 52 19 52 4 0 7 13 7 29 0 38 30 85 49 77 44 -18 47
-18 24 2 -22 18 -23 21 -7 27 9 4 17 14 17 22 0 8 -5 11 -12 8 -7 -4 -4 1 6 9
11 9 24 16 28 16 5 0 7 20 4 45 -2 25 0 45 5 45 5 0 9 6 9 14 0 16 141 136
160 136 7 0 10 -7 6 -16 -3 -9 -6 -25 -6 -36 0 -16 -5 -19 -29 -13 -17 3 -32
2 -36 -4 -3 -6 0 -9 7 -6 19 8 98 -53 98 -75 0 -9 -7 -23 -14 -30 -8 -6 -20
-28 -27 -48 -6 -20 -29 -67 -51 -104 -39 -65 -40 -70 -34 -133 8 -87 26 -127
70 -154 44 -27 60 -22 106 32 l35 41 -39 -31 c-39 -32 -65 -34 -67 -4 0 10 -2
11 -6 3 -8 -20 -23 -3 -23 26 0 15 -7 51 -14 80 -14 52 -14 53 6 46 14 -4 18
-2 14 5 -4 6 -13 11 -21 11 -18 0 -8 33 19 63 23 25 50 73 52 91 0 6 2 17 2
24 1 6 8 12 16 12 12 0 16 17 17 74 0 22 -39 66 -59 66 -10 0 -13 7 -8 23 3
12 6 25 6 29 0 3 9 4 20 1 14 -4 20 0 20 11 0 10 -4 15 -9 12 -9 -6 -26 22
-22 37 1 4 -5 18 -14 30 -8 12 -15 16 -15 10z m-230 -352 c0 -5 -9 -11 -20
-14 -11 -3 -20 -1 -20 3 0 5 8 11 18 13 9 3 18 5 20 6 1 0 2 -3 2 -8z"/>
<path d="M4199 5617 c6 -8 8 -17 4 -20 -3 -4 -2 -7 4 -7 6 0 17 8 24 17 8 10
9 14 2 10 -6 -4 -14 -3 -18 3 -3 5 -11 10 -17 10 -7 0 -7 -4 1 -13z"/>
<path d="M2475 5540 c-3 -6 1 -7 9 -4 18 7 21 14 7 14 -6 0 -13 -4 -16 -10z"/>
<path d="M2311 5497 c-13 -21 -12 -21 5 -5 10 10 16 20 13 22 -3 3 -11 -5 -18
-17z"/>
<path d="M3935 5489 c-9 -17 -15 -39 -13 -49 2 -11 9 1 19 31 18 56 16 62 -6
18z"/>
<path d="M4490 5513 c0 -5 9 -23 21 -42 19 -31 19 -34 4 -52 -15 -15 -15 -20
-3 -38 20 -29 44 -12 28 20 -10 21 -10 22 3 7 8 -10 17 -18 21 -18 8 0 -25 62
-37 71 -5 3 -8 9 -8 13 4 28 -1 46 -14 46 -8 0 -15 -3 -15 -7z m40 -123 c0 -5
-2 -10 -4 -10 -3 0 -8 5 -11 10 -3 6 -1 10 4 10 6 0 11 -4 11 -10z"/>
<path d="M4153 5463 c-3 -10 -8 -21 -9 -24 -2 -4 2 -9 10 -12 9 -4 13 3 12 24
-1 33 -4 36 -13 12z"/>
<path d="M4500 5429 c0 -5 5 -7 10 -4 6 3 10 8 10 11 0 2 -4 4 -10 4 -5 0 -10
-5 -10 -11z"/>
<path d="M2277 5386 c-5 -15 -6 -31 -3 -34 8 -8 18 25 14 45 -3 13 -6 10 -11
-11z"/>
<path d="M4112 5371 c2 -19 9 -37 17 -39 11 -4 12 2 7 24 -11 45 -28 55 -24
15z"/>
<path d="M2993 5348 c-6 -7 -11 -41 -12 -76 -2 -68 5 -77 56 -69 27 4 27 5 6
12 -19 6 -23 14 -22 49 2 87 29 103 29 16 0 -27 5 -52 10 -55 7 -5 10 16 8 62
-3 68 -3 68 -34 71 -17 2 -35 -3 -41 -10z"/>
<path d="M2241 5318 c-14 -41 -10 -44 11 -8 9 16 13 32 8 35 -4 3 -13 -9 -19
-27z"/>
<path d="M2226 5243 c1 -2 -2 -18 -6 -34 -7 -22 -6 -29 3 -26 15 5 22 47 9 57
-5 4 -8 5 -6 3z"/>
<path d="M5461 5227 c-13 -21 -12 -21 5 -5 10 10 16 20 13 22 -3 3 -11 -5 -18
-17z"/>
<path d="M2167 5211 c3 -12 2 -29 -2 -38 -21 -47 -28 -90 -20 -110 6 -15 11
-11 26 22 11 26 14 42 7 46 -7 5 -7 8 0 13 15 9 12 64 -4 77 -9 8 -11 5 -7
-10z"/>
<path d="M4476 5184 c-3 -11 -6 -23 -7 -29 0 -5 -5 -16 -11 -22 -7 -9 -7 -13
1 -13 6 0 11 4 11 10 0 5 7 7 15 4 8 -4 13 -9 10 -14 -2 -4 7 -5 22 -2 14 3
23 1 20 -4 -4 -8 14 -9 76 -5 10 0 16 5 13 10 -4 5 0 12 6 15 7 3 3 3 -9 0
-13 -3 -23 -1 -23 5 0 6 -11 6 -32 0 -43 -12 -89 -3 -81 17 3 8 8 12 11 10 3
-3 11 -1 18 5 8 7 14 6 20 -2 4 -8 3 -9 -4 -5 -7 4 -12 2 -12 -3 0 -15 13 -14
36 4 19 14 19 14 -1 16 -11 1 -29 1 -39 0 -11 -1 -23 4 -27 10 -4 8 -9 5 -13
-7z"/>
<path d="M5435 5189 c-4 -6 -5 -12 -2 -15 2 -3 7 2 10 11 7 17 1 20 -8 4z"/>
<path d="M4045 5180 c-4 -6 -11 -8 -16 -5 -8 6 -13 -8 -10 -28 1 -4 -6 -15
-14 -23 -8 -9 -13 -20 -9 -25 3 -5 -2 -12 -10 -15 -12 -5 -14 -24 -13 -99 1
-59 6 -90 11 -84 21 20 45 9 54 -23 4 -17 14 -34 22 -36 9 -3 11 1 7 11 -3 9
-1 17 5 19 8 3 9 11 3 24 -9 22 -12 30 -14 44 0 6 -12 10 -25 10 -13 0 -29 6
-35 14 -18 22 -3 113 29 174 16 28 27 52 25 52 -2 0 -7 -5 -10 -10z"/>
<path d="M4399 5176 c-1 -3 -1 -15 -1 -26 0 -36 2 -38 23 -33 19 5 20 7 4 16
-12 6 -14 11 -6 17 9 5 8 10 -4 20 -8 7 -15 10 -16 6z"/>
<path d="M4449 5060 c-10 -7 -6 -12 16 -20 17 -6 39 -14 50 -19 11 -5 27 -11
35 -13 10 -3 3 -16 -25 -46 -30 -30 -50 -43 -80 -47 -59 -8 -114 -26 -126 -41
-13 -16 9 -86 24 -77 22 13 37 -69 21 -111 -8 -22 -19 -20 -48 9 -33 33 -61
32 -74 -2 -21 -52 -23 -78 -13 -148 9 -61 8 -72 -6 -82 -9 -7 -14 -16 -10 -19
3 -4 2 -16 -4 -26 -10 -18 -18 -19 -73 -14 -55 6 -65 5 -99 -18 -21 -14 -47
-26 -58 -26 -11 0 -30 -11 -43 -24 l-22 -25 -27 35 c-16 19 -23 34 -17 34 7 0
7 7 -1 22 -12 22 -12 22 -19 2 -10 -26 -36 -47 -49 -40 -5 4 -12 2 -16 -4 -10
-16 -42 -12 -49 6 -3 8 -10 13 -16 9 -5 -3 -15 3 -22 14 -9 15 -16 17 -30 10
-20 -11 -23 -2 -32 89 -5 47 -3 52 14 52 15 0 20 -7 20 -25 0 -41 26 -30 28
12 2 21 8 40 14 44 9 6 -4 21 -22 25 -3 0 -13 4 -22 8 -16 7 -16 10 5 27 l22
19 -35 -6 c-19 -3 -41 -7 -47 -10 -21 -6 -15 -24 8 -24 31 0 17 -24 -16 -28
-27 -4 -28 -5 -22 -55 3 -29 14 -78 24 -109 18 -51 18 -59 5 -81 -11 -18 -24
-25 -51 -26 -70 -1 -96 -14 -99 -49 -3 -26 -8 -32 -26 -32 -14 0 -34 -14 -54
-39 -31 -38 -91 -74 -142 -85 -18 -4 -30 -16 -39 -41 -9 -25 -20 -37 -39 -41
-15 -4 -34 -13 -43 -20 -14 -12 -20 -11 -43 11 -34 32 -61 29 -62 -6 -1 -14
-4 -31 -8 -38 -9 -14 -43 -15 -51 -1 -8 13 -66 13 -99 0 -38 -14 -34 -48 7
-65 46 -19 90 -78 119 -161 l25 -70 -19 -65 c-22 -70 -63 -123 -88 -113 -8 3
-49 16 -90 29 -106 33 -170 55 -206 71 -29 12 -37 12 -79 -7 -42 -19 -46 -24
-42 -47 6 -30 -19 -91 -40 -99 -7 -3 -13 -15 -13 -28 0 -40 -43 -125 -88 -173
-10 -11 -9 -20 8 -48 12 -18 18 -38 15 -44 -4 -6 -8 -28 -9 -49 -3 -37 -1 -40
31 -46 47 -9 102 -41 138 -82 17 -19 40 -34 50 -33 11 0 67 1 125 3 99 2 150
15 150 37 0 9 -188 11 -205 1 -20 -11 -60 -5 -60 10 0 7 -22 29 -50 48 -27 19
-53 38 -56 43 -3 5 -12 9 -20 8 -46 -7 -50 -2 -43 45 5 35 3 50 -10 64 -15 17
-15 21 3 62 17 38 20 40 21 19 1 -17 7 -7 18 31 9 31 32 80 50 107 18 28 37
64 43 81 6 17 15 29 19 26 5 -3 14 3 20 12 11 17 11 17 6 -1 -5 -14 -3 -17 11
-11 22 8 20 8 61 6 32 -1 33 -2 27 -33 -7 -32 -6 -32 9 -11 15 20 56 23 56 4
0 -4 6 -8 13 -9 34 -3 73 -16 79 -26 5 -6 8 -2 8 11 0 19 3 21 23 14 14 -6 21
-16 19 -27 -2 -12 0 -15 5 -8 4 6 20 14 35 17 30 8 88 53 88 70 0 6 8 19 17
29 9 10 17 26 18 36 1 9 5 34 10 55 6 30 2 47 -19 91 -14 29 -26 59 -26 66 0
18 -80 110 -96 110 -8 0 -14 5 -14 10 0 14 8 13 40 -6 35 -22 101 -9 114 23 8
17 16 20 48 15 23 -3 38 0 38 6 0 5 16 20 37 32 26 15 38 18 43 9 8 -12 22 18
29 59 1 7 58 32 75 32 3 0 2 -9 -4 -19 -12 -23 -13 -42 -2 -23 5 7 19 14 31
17 47 9 60 16 54 31 -3 7 0 14 6 14 6 0 8 6 5 13 -8 22 39 55 72 50 27 -4 30
-2 32 27 2 19 -1 29 -8 25 -5 -3 -10 -1 -10 4 0 7 22 9 61 6 51 -5 64 -3 75
12 7 10 14 24 14 32 0 24 30 49 51 44 10 -3 19 -9 19 -13 0 -10 49 -19 55 -10
7 11 65 18 71 8 3 -4 14 -8 25 -8 11 0 18 -4 15 -9 -6 -10 16 -21 42 -21 18 0
125 52 148 71 10 8 27 7 63 -2 45 -11 53 -11 69 4 10 9 21 14 24 11 3 -3 14
13 24 35 10 23 21 41 25 41 4 0 5 8 2 19 -3 10 0 22 5 25 7 4 4 24 -7 54 -12
32 -15 56 -10 71 6 14 5 20 -1 16 -13 -8 -13 5 0 25 8 13 11 13 22 -2 7 -9 25
-21 39 -27 22 -8 31 -5 58 17 17 15 33 39 35 55 3 15 7 36 11 46 3 11 2 22 -4
25 -5 3 -7 15 -4 25 3 13 -2 23 -16 30 -12 7 -21 15 -21 20 0 7 74 33 100 36
3 0 24 14 47 30 52 37 82 98 59 121 -8 8 -23 14 -33 14 -11 0 -23 4 -28 9 -15
13 -80 20 -96 11z m-884 -780 c4 -6 11 -7 17 -4 7 4 8 2 4 -4 -5 -9 -13 -9
-27 -2 -10 6 -19 13 -19 15 0 9 19 5 25 -5z"/>
<path d="M3915 4999 c-4 -5 -13 -8 -20 -5 -15 6 -24 -11 -18 -35 5 -18 73 -54
73 -39 0 5 -4 11 -8 14 -5 3 -7 18 -4 34 4 30 -11 51 -23 31z m-5 -25 c0 -8
-19 -13 -24 -6 -3 5 1 9 9 9 8 0 15 -2 15 -3z"/>
<path d="M2117 4919 c4 -13 8 -18 11 -10 2 7 -1 18 -6 23 -8 8 -9 4 -5 -13z"/>
<path d="M3907 4914 c7 -3 9 -12 6 -20 -5 -13 -7 -13 -14 -2 -6 9 -9 7 -9 -9
0 -15 -5 -21 -14 -17 -11 4 -13 -3 -9 -38 6 -44 33 -90 33 -55 0 9 5 17 10 17
6 0 10 7 10 16 0 9 10 33 22 52 17 28 18 34 6 30 -11 -5 -18 0 -21 13 -3 10
-11 19 -19 18 -9 0 -9 -2 -1 -5z"/>
<path d="M2150 4895 c0 -8 2 -15 4 -15 2 0 6 7 10 15 3 8 1 15 -4 15 -6 0 -10
-7 -10 -15z"/>
<path d="M2082 4869 c-7 -11 -10 -24 -6 -30 3 -6 0 -39 -7 -73 -13 -68 -5
-122 12 -78 4 12 13 22 19 22 6 0 10 15 8 35 -1 19 -7 35 -12 35 -6 0 -5 5 2
12 13 13 16 66 4 85 -6 9 -11 7 -20 -8z"/>
<path d="M2122 4870 c0 -14 2 -19 5 -12 2 6 2 18 0 25 -3 6 -5 1 -5 -13z"/>
<path d="M2903 4874 c-7 -3 -13 -14 -13 -24 0 -14 -8 -18 -36 -18 -20 0 -40
-4 -45 -9 -12 -12 17 -38 51 -47 23 -6 23 -6 -4 10 -42 24 -20 38 38 23 42
-10 49 -10 64 7 16 17 16 17 0 5 -19 -14 -38 -7 -38 13 0 22 43 28 58 8 12
-15 13 -15 10 8 -2 21 -9 25 -38 27 -19 1 -41 0 -47 -3z"/>
<path d="M3730 4861 c5 -11 10 -44 10 -73 0 -35 7 -64 20 -86 11 -18 20 -39
20 -46 0 -8 10 -27 23 -43 26 -33 43 -67 52 -106 8 -41 28 -22 23 23 -3 36 -2
37 17 28 20 -11 20 -11 1 11 -11 11 -15 21 -11 21 5 0 -3 12 -17 28 -34 37
-66 104 -80 165 -12 59 -34 97 -55 97 -10 0 -11 -4 -3 -19z"/>
<path d="M3686 4842 c-4 -7 -4 -12 0 -12 4 0 -3 -12 -16 -27 l-24 -28 28 26
c16 15 26 33 24 40 -3 10 -6 10 -12 1z"/>
<path d="M3040 4823 c-8 -3 -34 -21 -57 -39 -27 -23 -47 -32 -59 -27 -14 5
-16 2 -10 -20 4 -19 0 -33 -19 -55 -24 -28 -24 -30 -6 -46 9 -9 20 -14 23 -11
2 3 3 -9 0 -25 -3 -21 0 -32 12 -36 9 -3 16 -17 16 -30 0 -27 21 -32 40 -9 22
26 38 -20 30 -87 -7 -64 -12 -72 -43 -73 -18 0 -23 -7 -28 -42 -6 -48 -4 -45
-42 -61 -33 -14 -27 -32 11 -32 15 0 35 -7 46 -15 23 -18 15 -45 -12 -38 -12
3 -25 -3 -33 -14 -8 -11 -23 -25 -34 -31 -19 -11 -18 -11 7 -12 14 0 34 -3 44
-7 13 -5 16 -3 11 10 -8 21 14 39 33 27 13 -9 13 -10 0 -10 -8 -1 -2 -8 13
-16 22 -12 31 -13 43 -3 11 9 18 8 32 -5 23 -20 32 -20 32 -2 0 11 10 13 39 9
26 -4 41 -1 46 8 5 8 5 11 0 7 -4 -4 -17 -2 -29 4 -11 7 -25 11 -30 10 -5 -2
-16 0 -25 4 -16 7 -25 10 -37 13 -4 0 -2 7 4 14 6 7 7 28 2 52 -6 32 -8 35 -9
12 -1 -28 -1 -28 -25 -10 -31 23 -40 54 -21 73 12 12 19 12 34 3 17 -10 18 -9
14 10 -4 17 -2 19 5 8 21 -30 29 64 9 97 -5 6 -6 16 -2 22 9 15 -20 73 -54
104 -17 17 -31 38 -31 48 0 10 -6 27 -12 38 -10 15 -10 22 0 32 6 6 12 23 12
36 0 15 16 40 45 68 54 52 58 63 15 47z m0 -673 c0 -5 -8 -10 -17 -10 -15 0
-16 2 -3 10 19 12 20 12 20 0z"/>
<path d="M3967 4777 c-3 -9 -7 -62 -8 -117 -1 -94 -3 -100 -20 -95 -11 4 -19
2 -19 -4 0 -16 36 -13 50 4 15 18 23 158 11 201 -6 22 -9 25 -14 11z"/>
<path d="M3910 4769 c0 -5 5 -7 10 -4 6 3 10 8 10 11 0 2 -4 4 -10 4 -5 0 -10
-5 -10 -11z"/>
<path d="M3016 4741 c-9 -14 4 -39 23 -44 10 -2 29 1 41 8 13 7 30 10 38 7 10
-3 13 0 10 9 -3 9 -19 14 -44 14 -21 0 -44 4 -51 8 -6 4 -14 3 -17 -2z"/>
<path d="M3889 4735 c0 -5 -2 -29 -3 -52 -1 -42 -1 -42 15 -21 9 12 16 26 15
32 -3 18 -25 52 -27 41z"/>
<path d="M4071 4721 c-27 -27 -28 -90 -2 -122 16 -20 21 -21 35 -10 21 17 39
78 34 116 -4 38 -38 45 -67 16z m45 -69 c-3 -20 -5 -41 -5 -45 -1 -5 -8 -2
-16 7 -18 17 -20 57 -3 74 18 18 29 3 24 -36z"/>
<path d="M2030 4710 c0 -5 5 -10 10 -10 6 0 10 5 10 10 0 6 -4 10 -10 10 -5 0
-10 -4 -10 -10z"/>
<path d="M3036 4591 c-8 -12 31 -44 43 -36 18 10 23 -20 12 -62 -11 -37 -10
-39 30 -77 34 -32 40 -43 35 -65 -22 -88 -14 -102 55 -100 60 3 63 15 7 26
-45 10 -46 11 -33 75 6 33 3 40 -36 83 -36 39 -42 52 -41 84 2 31 -2 40 -27
59 -34 25 -38 26 -45 13z"/>
<path d="M2768 4560 c-10 -7 -14 -17 -11 -31 6 -20 3 -21 -31 -15 -38 7 -72
-7 -60 -25 3 -5 0 -17 -5 -27 -7 -13 -7 -22 1 -30 12 -12 2 -32 -16 -32 -16 0
-46 -42 -46 -64 0 -19 39 -46 67 -46 34 0 123 21 123 29 0 4 -9 7 -20 8 -11 1
-20 -2 -20 -6 0 -4 -7 -8 -15 -8 -8 0 -15 9 -15 19 0 10 5 18 12 18 6 0 8 3 5
6 -3 4 0 16 8 28 21 29 19 53 -5 59 -11 3 -20 12 -20 21 0 21 16 21 24 0 3 -8
10 -13 15 -10 5 4 11 0 14 -6 2 -8 13 2 25 22 12 19 20 41 17 48 -3 9 3 11 23
8 15 -2 30 -5 35 -5 4 -1 7 -10 7 -21 0 -11 4 -20 8 -20 5 0 7 14 4 30 -6 45
-81 74 -124 50z m-61 -107 c-3 -10 -5 -4 -5 12 0 17 2 24 5 18 2 -7 2 -21 0
-30z m1 -121 c-2 -19 -9 -27 -23 -27 -26 0 -30 28 -9 60 15 23 19 24 26 11 5
-9 8 -29 6 -44z"/>
<path d="M3787 4525 c-15 -14 -38 -25 -51 -25 -26 0 -46 -17 -46 -41 0 -24
-20 -35 -32 -18 -8 12 -9 11 -5 -1 2 -8 16 -16 32 -17 15 -1 34 -4 42 -7 8 -3
16 1 20 10 4 12 14 14 35 10 26 -5 65 14 53 26 -2 2 -5 23 -6 46 -2 23 -5 42
-8 42 -4 0 -19 -12 -34 -25z m19 -72 c-11 -11 -19 6 -11 24 8 17 8 17 12 0 3
-10 2 -21 -1 -24z m-66 -9 c0 -17 -22 -14 -28 4 -2 7 3 12 12 12 9 0 16 -7 16
-16z"/>
<path d="M3891 4514 c0 -11 3 -14 6 -6 3 7 2 16 -1 19 -3 4 -6 -2 -5 -13z"/>
<path d="M2844 4418 c3 -13 6 -27 6 -31 0 -5 4 -6 9 -3 11 7 2 56 -11 56 -6 0
-8 -10 -4 -22z"/>
<path d="M3007 4303 c-4 -3 -7 -11 -7 -17 0 -6 5 -5 12 2 6 6 9 14 7 17 -3 3
-9 2 -12 -2z"/>
<path d="M3150 4181 c0 -11 40 -41 55 -41 5 0 -2 11 -17 25 -29 27 -38 30 -38
16z"/>
<path d="M2044 4135 c2 -13 0 -22 -5 -20 -4 3 -17 -8 -28 -24 -20 -27 -20 -30
-4 -34 17 -4 17 -5 1 -6 -19 -1 -25 -35 -9 -46 6 -3 8 3 6 14 -2 13 3 22 15
26 10 3 20 15 23 25 3 11 1 18 -4 14 -5 -3 -9 -1 -9 4 0 6 7 12 15 16 16 6 20
41 6 50 -5 4 -8 -5 -7 -19z"/>
<path d="M2567 4047 c3 -15 9 -27 14 -27 13 0 11 13 -5 35 -13 18 -14 18 -9
-8z"/>
<path d="M3980 4019 c0 -5 5 -7 10 -4 6 3 10 8 10 11 0 2 -4 4 -10 4 -5 0 -10
-5 -10 -11z"/>
<path d="M3530 3923 c0 -25 1 -26 16 -11 9 9 13 21 10 27 -13 20 -26 11 -26
-16z"/>
<path d="M3631 3816 c-13 -15 -11 -16 20 -11 18 3 36 9 39 12 3 3 -5 4 -17 1
-12 -3 -24 -1 -25 4 -2 6 -10 3 -17 -6z"/>
<path d="M4542 3740 c0 -19 2 -27 5 -17 2 9 2 25 0 35 -3 9 -5 1 -5 -18z"/>
<path d="M3492 3739 c-13 -20 -6 -24 22 -13 19 7 21 20 3 27 -7 3 -19 -4 -25
-14z"/>
<path d="M2017 3729 c4 -15 8 -17 14 -8 8 14 3 29 -11 29 -4 0 -6 -9 -3 -21z"/>
<path d="M3541 3734 c0 -11 3 -14 6 -6 3 7 2 16 -1 19 -3 4 -6 -2 -5 -13z"/>
<path d="M3417 3714 c-3 -3 -3 -12 0 -20 3 -9 0 -12 -9 -9 -15 6 -38 -14 -42
-37 -1 -7 -5 -19 -10 -26 -4 -7 -9 -33 -11 -58 -2 -35 1 -47 15 -54 12 -6 16
-17 13 -30 -5 -20 -23 -28 -23 -10 0 6 -9 10 -19 10 -11 0 -23 5 -26 10 -7 11
-35 -5 -35 -19 0 -10 79 -45 86 -38 3 3 22 -3 42 -13 68 -37 64 16 -5 76 -32
27 -35 32 -23 53 8 17 9 26 1 34 -13 13 -15 30 -2 22 6 -3 15 4 21 15 8 15 8
20 -1 20 -8 0 -8 4 1 15 7 8 21 15 31 15 12 0 19 7 19 19 0 21 -13 35 -23 25z"/>
<path d="M3793 3705 c0 -8 4 -15 9 -15 4 0 8 4 8 9 0 6 -4 12 -8 15 -5 3 -9
-1 -9 -9z"/>
<path d="M3476 3695 c4 -8 11 -15 16 -15 6 0 5 6 -2 15 -7 8 -14 15 -16 15 -2
0 -1 -7 2 -15z"/>
<path d="M3750 3696 c0 -2 7 -7 16 -10 8 -3 12 -2 9 4 -6 10 -25 14 -25 6z"/>
<path d="M3714 3681 c4 -5 0 -12 -6 -15 -7 -3 -4 -5 6 -3 24 3 34 27 11 27 -9
0 -14 -4 -11 -9z"/>
<path d="M3887 3673 c-12 -12 -7 -22 13 -28 13 -4 20 -15 20 -31 0 -13 5 -24
10 -24 6 0 10 6 10 14 0 8 5 18 11 22 7 4 10 1 7 -7 -3 -8 4 -18 15 -24 12 -5
24 -23 28 -39 10 -37 55 -84 97 -102 18 -7 45 -23 60 -34 41 -32 102 -70 111
-70 11 0 41 -91 41 -126 0 -29 56 -99 97 -122 13 -7 23 -21 23 -31 0 -10 7
-22 16 -25 12 -4 14 -13 10 -32 -5 -17 0 -33 14 -51 11 -14 20 -36 20 -49 0
-22 3 -23 60 -21 33 1 60 3 60 4 0 2 -17 11 -39 22 -33 17 -50 42 -51 73 0 11
75 2 97 -11 16 -11 15 -11 -7 -6 -22 5 -23 5 -7 -6 31 -19 40 4 12 29 -14 12
-25 19 -26 14 -1 -4 -4 4 -8 18 -4 16 -17 28 -36 34 -48 14 -60 22 -63 44 -2
12 -12 24 -23 27 -10 4 -22 17 -25 31 -3 13 -12 24 -19 24 -23 0 -36 28 -41
86 -5 53 -35 132 -52 135 -4 1 -18 3 -31 4 -12 1 -33 14 -46 27 -33 36 -93 71
-123 72 -19 1 -27 8 -33 30 -5 16 -6 33 -3 38 3 4 -4 8 -14 8 -11 0 -25 7 -32
15 -15 18 -116 75 -133 75 -8 0 -17 -3 -20 -7z m676 -638 c-1 -5 -9 -12 -18
-13 -26 -6 -66 7 -59 19 8 13 80 7 77 -6z"/>
<path d="M3230 3619 c0 -5 -4 -8 -9 -5 -11 7 -36 -51 -33 -81 2 -23 -12 -31
-23 -13 -3 6 -1 10 5 10 6 0 8 5 4 11 -11 18 -24 -4 -28 -45 -2 -35 -17 -55
-41 -56 -13 0 -13 -85 -1 -97 6 -5 6 -2 1 6 -6 11 -4 13 9 8 11 -4 19 -1 23
11 3 9 13 25 21 34 8 10 12 27 9 40 -3 13 -1 32 3 43 5 11 9 14 9 6 1 -9 10
-4 26 13 13 14 29 26 35 26 5 0 10 14 10 31 0 17 5 39 10 50 9 16 7 19 -10 19
-11 0 -20 -5 -20 -11z m-7 -60 c-8 -8 -13 -7 -18 2 -5 8 -4 10 3 5 7 -4 12 -2
12 5 0 7 3 9 7 6 4 -4 2 -12 -4 -18z"/>
<path d="M3725 3620 c-7 -11 2 -30 13 -30 4 0 8 9 8 20 0 21 -11 26 -21 10z"/>
<path d="M3805 3554 c7 -79 25 -118 65 -139 17 -9 28 -20 25 -25 -9 -15 35
-92 56 -97 10 -3 19 -9 19 -14 0 -5 8 -9 19 -9 10 0 33 -10 52 -23 19 -12 49
-29 67 -36 30 -13 31 -15 17 -31 -8 -9 -15 -22 -15 -29 0 -8 -10 -3 -25 10
-13 13 -25 30 -25 37 0 6 -6 12 -14 12 -8 0 -27 11 -43 24 -15 13 -46 31 -68
40 -22 10 -52 29 -66 44 -14 15 -47 44 -72 65 -26 21 -47 44 -47 51 0 6 -9 29
-20 51 -11 22 -20 36 -20 32 0 -5 -15 3 -32 16 -48 35 -66 39 -78 17 -8 -16
-4 -21 28 -37 28 -14 44 -32 67 -79 33 -66 139 -166 198 -186 18 -6 38 -20 45
-30 7 -10 29 -25 48 -33 19 -8 34 -21 34 -29 0 -9 5 -16 10 -16 6 0 22 -11 35
-25 26 -25 34 -80 16 -114 -6 -10 -6 -23 -1 -32 13 -20 41 -1 53 37 5 16 17
37 25 47 13 15 14 22 4 38 -7 10 -18 28 -24 39 -20 32 3 46 40 25 16 -10 37
-15 47 -12 33 13 9 42 -70 82 -44 23 -81 48 -83 56 -2 9 -24 21 -53 28 -41 11
-55 20 -75 52 -13 21 -24 44 -24 50 0 6 -20 30 -44 54 -32 31 -43 49 -39 63 2
11 -1 30 -7 42 -8 15 -8 20 -1 16 6 -4 11 -4 11 1 0 13 -14 28 -28 31 -9 1
-11 -14 -7 -64z m375 -370 c0 -17 -22 -14 -28 4 -2 7 3 12 12 12 9 0 16 -7 16
-16z m34 0 c9 -3 16 -12 16 -20 0 -17 -12 -18 -28 -2 -22 22 -16 33 12 22z
m-72 -94 c4 0 8 -9 8 -21 0 -26 -23 -20 -25 7 -2 10 -5 28 -9 39 -5 15 -4 14
5 -2 7 -13 16 -23 21 -23z m-22 -90 c-16 -31 -23 -18 -8 15 7 15 14 23 16 17
2 -6 -2 -21 -8 -32z"/>
<path d="M4655 3581 c-3 -5 -2 -12 3 -15 5 -3 9 1 9 9 0 17 -3 19 -12 6z"/>
<path d="M2051 3474 c0 -11 3 -14 6 -6 3 7 2 16 -1 19 -3 4 -6 -2 -5 -13z"/>
<path d="M3236 3473 c-6 -14 -5 -15 5 -6 7 7 10 15 7 18 -3 3 -9 -2 -12 -12z"/>
<path d="M4391 3451 c-17 -11 -6 -31 17 -31 14 0 14 2 3 9 -7 5 -10 14 -7 20
9 13 6 14 -13 2z"/>
<path d="M3214 3425 c-8 -34 3 -75 21 -75 11 0 12 6 3 30 -5 17 -8 37 -4 45 3
8 1 17 -4 20 -5 3 -12 -6 -16 -20z"/>
<path d="M2784 3418 c1 -7 10 -14 19 -16 12 -3 15 1 11 13 -5 12 -9 13 -14 5
-6 -9 -9 -9 -13 -1 -3 7 -5 7 -3 -1z"/>
<path d="M3593 3364 c-20 -20 -24 -31 -19 -57 9 -42 45 -63 62 -36 15 24 22
83 13 101 -13 24 -25 23 -56 -8z m43 -61 c-10 -25 -26 -2 -19 26 5 20 7 21 15
7 5 -10 7 -24 4 -33z"/>
<path d="M4380 3370 c-13 -9 -13 -10 0 -9 8 1 26 5 40 9 l25 8 -25 1 c-14 0
-32 -4 -40 -9z"/>
<path d="M3017 3341 c4 -17 3 -22 -5 -17 -7 4 -12 3 -12 -3 0 -17 17 -21 29
-8 8 10 7 19 -4 33 -13 18 -14 18 -8 -5z"/>
<path d="M4568 3353 c6 -2 9 -9 6 -15 -4 -6 -1 -9 6 -6 24 8 23 28 -2 27 -12
0 -17 -3 -10 -6z"/>
<path d="M3162 3334 c-18 -7 -32 -14 -32 -16 0 -2 20 -4 45 -6 47 -3 53 1 32
23 -11 10 -19 10 -45 -1z"/>
<path d="M4720 3332 c0 -7 -13 -12 -30 -12 -16 0 -33 -7 -38 -16 -10 -17 -70
-26 -75 -10 -3 10 -57 0 -57 -12 1 -4 14 -23 30 -41 l30 -35 6 33 c6 27 11 32
29 29 14 -3 26 2 34 14 6 10 19 18 29 18 23 0 59 26 49 36 -4 4 -7 2 -7 -4z"/>
<path d="M2899 3292 c-15 -15 -30 -38 -34 -52 -4 -14 -13 -32 -19 -40 -10 -13
-9 -13 7 -1 10 8 17 9 17 3 0 -6 -4 -13 -9 -16 -18 -11 -18 -55 0 -71 29 -27
40 6 23 69 -8 28 -14 52 -14 54 0 1 6 -3 14 -10 8 -7 12 -16 9 -20 -2 -4 3 -5
11 -2 9 3 16 10 16 15 0 16 3 24 17 37 9 9 10 19 3 31 -5 10 -6 21 -3 25 3 3
2 6 -3 5 -5 0 -21 -12 -35 -27z"/>
<path d="M2961 3300 c-18 -11 0 -19 23 -10 16 5 17 8 4 12 -8 4 -21 3 -27 -2z"/>
<path d="M3098 3303 c-10 -2 -18 -12 -17 -21 0 -11 2 -12 6 -4 2 6 8 10 13 7
4 -3 10 2 14 10 3 8 4 14 3 14 -1 -1 -10 -3 -19 -6z"/>
<path d="M4755 3300 c-3 -5 -1 -10 4 -10 6 0 11 5 11 10 0 6 -2 10 -4 10 -3 0
-8 -4 -11 -10z"/>
<path d="M4746 3264 c-3 -9 -3 -100 0 -204 5 -179 5 -187 -14 -192 -10 -3 -26
-2 -34 3 -9 5 -30 4 -49 -1 -19 -6 -52 -8 -75 -4 -43 6 -59 -4 -66 -41 -2 -15
5 -21 37 -28 22 -4 50 -8 62 -8 35 1 128 37 126 49 -3 11 23 30 42 30 12 1 20
32 8 32 -13 0 -8 177 5 193 8 10 8 17 1 24 -13 13 -17 112 -5 137 7 14 6 17
-2 12 -7 -4 -12 -2 -12 3 0 17 -17 13 -24 -5z m-135 -429 c4 3 25 8 45 10 25
4 34 1 32 -7 -10 -30 -121 -32 -132 -2 -4 10 0 11 20 3 14 -5 30 -7 35 -4z
m109 5 c0 -5 -4 -10 -10 -10 -5 0 -10 5 -10 10 0 6 5 10 10 10 6 0 10 -4 10
-10z"/>
<path d="M4496 3263 c-14 -14 -5 -77 19 -126 21 -46 32 -57 87 -85 44 -22 54
-25 33 -9 -65 49 -98 87 -86 101 8 10 6 17 -9 31 -12 11 -20 31 -20 51 0 32
-11 50 -24 37z"/>
<path d="M2830 3250 c0 -5 5 -10 11 -10 5 0 7 5 4 10 -3 6 -8 10 -11 10 -2 0
-4 -4 -4 -10z"/>
<path d="M2057 3210 c-15 -14 -16 -23 -8 -37 6 -10 11 -12 11 -5 0 6 8 12 19
12 10 0 24 7 31 15 10 12 10 15 -4 15 -9 0 -16 5 -16 10 0 15 -13 11 -33 -10z"/>
<path d="M3598 3203 c-26 -16 -27 -21 -26 -90 0 -70 2 -73 24 -73 13 0 24 5
24 10 0 6 6 10 14 10 21 0 27 15 31 73 4 83 -14 102 -67 70z m49 -62 c-2 -26
-7 -53 -11 -60 -12 -19 -28 -1 -22 25 4 14 2 33 -4 44 -13 25 -8 35 20 37 19
2 20 -2 17 -46z"/>
<path d="M2960 3171 c-13 -26 -13 -54 2 -86 15 -34 32 -32 23 3 -4 15 -7 44
-6 65 1 42 -4 46 -19 18z"/>
<path d="M3190 3153 c-60 -24 -49 -84 15 -82 30 0 30 0 8 15 -12 9 -19 22 -16
30 8 21 33 17 33 -7 0 -11 5 -17 10 -14 13 8 13 55 1 55 -5 0 -15 2 -23 4 -7
3 -20 2 -28 -1z"/>
<path d="M2075 3131 c-7 -12 12 -24 25 -16 11 7 4 25 -10 25 -5 0 -11 -4 -15
-9z"/>
<path d="M2815 3090 c-20 -22 -30 -54 -14 -44 5 3 9 10 9 16 0 6 7 20 17 30 9
10 14 18 11 18 -3 0 -13 -9 -23 -20z"/>
<path d="M4615 3020 c3 -5 11 -10 16 -10 6 0 7 5 4 10 -3 6 -11 10 -16 10 -6
0 -7 -4 -4 -10z"/>
<path d="M2865 2990 c-3 -5 1 -10 10 -10 9 0 13 5 10 10 -3 6 -8 10 -10 10 -2
0 -7 -4 -10 -10z"/>
<path d="M4560 2968 c1 -18 22 -43 42 -51 15 -5 14 -1 -5 28 -23 36 -37 45
-37 23z"/>
<path d="M6103 2965 c-3 -9 -3 -18 -1 -21 3 -3 8 4 11 16 6 23 -1 27 -10 5z"/>
<path d="M3932 2961 c-49 -4 -76 -11 -82 -21 -18 -28 -10 -35 90 -78 25 -11
57 -23 72 -26 32 -7 38 5 37 82 -1 47 -3 52 -22 50 -12 -1 -55 -4 -95 -7z m16
-39 c2 -7 -6 -12 -17 -12 -21 0 -27 11 -14 24 9 9 26 2 31 -12z m76 -14 c16
-27 -5 -43 -35 -28 -32 17 -30 15 -23 34 8 21 43 17 58 -6z"/>
<path d="M2185 2870 c4 -6 11 -8 16 -5 14 9 11 15 -7 15 -8 0 -12 -5 -9 -10z"/>
<path d="M4750 2708 c-1 -68 0 -310 1 -538 1 -362 3 -487 8 -627 0 -18 6 -33
12 -33 7 0 10 12 7 30 -2 16 0 32 6 34 7 3 6 5 -1 5 -7 1 -13 11 -13 24 0 16
3 18 9 8 5 -8 11 -9 15 -3 4 6 -1 15 -11 20 -14 8 -15 13 -4 25 9 12 10 21 2
36 -8 13 -8 34 -2 60 5 22 7 41 5 43 -1 2 -5 37 -9 78 -3 46 -2 70 4 61 10
-16 18 -3 14 24 -12 88 -10 120 8 109 13 -8 10 9 -6 29 -7 11 -11 25 -8 32 2
8 1 20 -3 27 -15 23 -15 88 -1 88 7 0 13 10 14 23 0 12 -1 16 -4 10 -8 -23
-25 -14 -17 9 3 12 8 61 9 109 2 48 6 93 10 98 3 6 2 11 -4 11 -6 0 -8 7 -5
15 3 8 1 28 -4 45 -6 16 -7 32 -3 35 5 2 11 16 14 31 5 29 -8 20 -16 -11 -3
-11 -4 9 -2 44 2 46 7 66 19 73 24 13 20 31 -4 18 -19 -10 -20 -8 -20 35 0 25
-4 45 -10 45 -6 0 -10 -48 -10 -122z"/>
<path d="M3267 2798 c-13 -10 -16 -24 -13 -63 2 -27 4 -103 5 -168 l1 -118 38
3 37 3 3 155 c1 85 0 165 -3 178 -6 25 -40 30 -68 10z m54 -87 c0 -20 2 -65 4
-101 5 -84 -3 -140 -20 -140 -12 0 -14 29 -12 155 2 127 4 152 15 138 6 -9 12
-33 13 -52z"/>
<path d="M3828 2797 c-10 -11 -12 -100 -10 -460 l2 -447 30 0 c24 0 33 6 41
26 6 17 9 184 7 451 -3 364 -5 425 -18 433 -21 13 -36 12 -52 -3z m45 -41 c7
-18 8 -738 1 -798 -3 -27 -10 -48 -14 -48 -5 0 -9 194 -8 430 0 237 4 430 8
430 4 0 10 -6 13 -14z"/>
<path d="M3526 2791 c-3 -5 -4 -80 -1 -167 3 -88 5 -232 5 -321 l0 -163 24 0
c55 0 56 6 56 330 0 165 -3 306 -6 315 -7 16 -69 22 -78 6z m59 -326 c0 -237
-3 -299 -13 -303 -11 -3 -13 53 -10 302 2 198 7 305 13 303 6 -2 10 -112 10
-302z"/>
<path d="M4084 2787 c-2 -7 -3 -214 0 -458 3 -244 5 -495 6 -556 0 -112 0
-113 24 -113 13 0 29 6 35 14 8 9 10 166 9 567 l-3 554 -33 3 c-21 2 -34 -2
-38 -11z m58 -289 c3 -243 0 -277 -22 -278 -3 0 -4 116 -3 257 2 142 3 264 3
271 0 6 4 12 10 12 6 0 10 -102 12 -262z m-2 -548 c0 -217 -3 -270 -13 -270
-11 0 -13 50 -11 260 3 237 6 280 20 280 2 0 4 -121 4 -270z"/>
<path d="M4359 2788 c-6 -74 5 -1295 11 -1302 5 -5 20 -6 33 -2 18 4 26 14 30
41 5 28 3 1118 -2 1243 -1 30 -3 32 -36 32 -21 0 -35 -5 -36 -12z m55 -650 c1
-337 1 -619 -2 -625 -14 -42 -25 36 -24 172 0 11 1 263 1 560 1 361 5 534 12
523 6 -11 11 -251 13 -630z"/>
<path d="M8356 2791 c-12 -19 -57 -233 -52 -246 3 -10 19 -15 42 -15 l37 0 -7
-54 c-6 -51 -4 -55 16 -62 30 -10 148 -11 148 -1 0 4 -29 7 -64 7 -57 0 -94
12 -66 22 5 1 12 19 15 38 3 19 2 29 -1 21 -5 -10 -10 -6 -18 15 -10 22 -19
28 -42 29 -21 0 -28 4 -25 15 3 8 4 35 4 59 -1 29 2 39 8 30 6 -10 9 -5 9 18
0 19 10 44 27 65 21 25 22 28 5 14 -12 -11 -22 -15 -22 -10 0 14 22 34 37 34
22 0 15 -43 -17 -104 -23 -46 -27 -63 -19 -78 24 -45 57 -32 78 32 9 27 9 32
-1 22 -17 -17 -33 -15 -18 3 15 18 20 18 44 0 15 -12 17 -17 7 -29 -8 -9 -10
-28 -6 -48 5 -25 2 -38 -9 -47 -9 -8 -16 -24 -16 -37 0 -28 32 -40 84 -31 39
6 61 -5 53 -27 -4 -9 -2 -16 4 -16 6 0 9 12 7 28 -3 26 -5 27 -70 30 -74 3
-79 13 -31 60 26 24 38 29 27 10 -4 -7 -3 -8 4 -4 14 8 -2 46 -18 46 -6 0 -7
19 -3 45 5 42 4 45 -21 55 -38 14 -62 -2 -73 -47 -4 -20 -15 -39 -22 -41 -20
-7 -6 44 24 88 36 52 42 95 17 109 -25 13 -69 14 -76 2z"/>
<path d="M2715 2770 c-21 -24 -50 -25 -88 -5 -33 17 -79 10 -103 -16 -23 -25
-11 -49 25 -49 16 0 32 -4 36 -9 3 -6 33 -10 67 -10 42 1 57 4 47 10 -8 5 -27
9 -44 8 -48 -2 -55 0 -49 15 5 12 0 13 -31 5 -38 -11 -51 -8 -41 10 6 10 43 8
117 -5 31 -5 41 -1 70 24 19 16 43 32 54 35 14 3 11 5 -11 6 -19 1 -38 -6 -49
-19z"/>
<path d="M3952 2762 c-16 -5 -16 -67 1 -80 23 -19 78 -19 91 1 24 38 -43 96
-92 79z m72 -48 c6 -16 -17 -30 -32 -20 -5 3 -12 14 -14 24 -4 15 -1 18 18 14
12 -2 25 -11 28 -18z"/>
<path d="M3017 2726 c-9 -8 -22 -27 -28 -45 -10 -27 -15 -31 -48 -31 -20 0
-46 -6 -56 -14 -18 -13 -17 -15 18 -48 39 -37 47 -71 27 -109 -14 -25 6 -25
55 -2 36 17 38 17 77 -6 35 -20 42 -21 55 -8 12 12 12 22 3 56 -8 32 -8 46 1
57 9 11 8 14 -4 14 -27 0 -38 -25 -31 -71 l7 -43 -31 23 c-17 12 -37 21 -44
20 -29 -3 -38 2 -38 24 0 13 -9 32 -21 43 l-21 19 38 11 c30 9 39 16 38 33 -1
27 1 27 36 -9 19 -19 35 -28 43 -23 6 4 30 10 52 14 l40 6 -52 8 c-48 7 -53
10 -63 40 -15 45 -30 57 -53 41z"/>
<path d="M4675 2690 c-11 -5 -37 -9 -57 -9 -20 -1 -39 -5 -42 -10 -3 -4 -19
-11 -36 -14 -30 -6 -39 -28 -22 -54 10 -17 59 -27 66 -14 4 6 15 11 24 11 24
1 60 31 64 55 2 11 12 25 23 32 23 14 10 16 -20 3z m-37 -39 c10 -6 8 -11 -10
-22 -29 -19 -60 -18 -66 0 -3 10 0 12 11 8 9 -3 18 0 21 9 6 16 24 18 44 5z"/>
<path d="M2295 2600 c-4 -6 -1 -18 6 -26 11 -14 13 -14 21 0 15 26 -12 51 -27
26z"/>
<path d="M2326 2535 c-3 -8 -1 -15 4 -15 13 0 22 18 11 24 -5 3 -11 -1 -15 -9z"/>
<path d="M2325 2480 c3 -5 8 -10 11 -10 2 0 4 5 4 10 0 6 -5 10 -11 10 -5 0
-7 -4 -4 -10z"/>
<path d="M2346 2473 c-4 -9 -1 -20 6 -25 18 -11 28 -10 28 2 0 6 -5 10 -11 10
-5 0 -8 4 -4 9 3 5 1 12 -4 15 -5 3 -12 -2 -15 -11z"/>
<path d="M2991 2406 c-8 -10 -10 -90 -5 -292 3 -154 7 -285 9 -291 5 -15 34
-17 54 -4 12 8 14 57 12 297 -1 158 -4 291 -7 296 -8 13 -50 9 -63 -6z m50
-88 c5 -282 1 -492 -10 -496 -13 -4 -13 -10 -15 316 -1 133 2 242 7 242 4 0 5
5 2 10 -3 6 -1 10 4 10 7 0 12 -32 12 -82z"/>
<path d="M2365 2400 c-3 -5 -1 -10 4 -10 6 0 11 5 11 10 0 6 -2 10 -4 10 -3 0
-8 -4 -11 -10z"/>
<path d="M2370 2363 c0 -15 46 -73 55 -70 20 7 17 45 -4 52 -12 3 -21 11 -21
16 0 5 -7 9 -15 9 -8 0 -15 -3 -15 -7z"/>
<path d="M3286 2338 c-7 -13 -17 -33 -21 -45 -5 -19 -13 -23 -50 -23 -33 0
-47 -5 -54 -18 -8 -15 -3 -26 25 -53 33 -31 35 -37 29 -76 -3 -24 -4 -43 -1
-43 3 0 22 8 41 17 35 17 37 17 81 -7 38 -20 47 -21 55 -9 5 8 6 25 2 39 -4
14 -7 39 -7 57 -1 26 -4 30 -18 22 -22 -12 -22 -17 -3 -62 19 -47 3 -58 -34
-23 -15 14 -39 26 -53 26 -22 0 -26 5 -32 40 -4 23 -11 38 -16 35 -6 -3 -10
-2 -10 3 0 5 12 10 26 10 28 0 44 16 44 45 0 26 19 21 30 -9 9 -22 16 -25 48
-23 54 3 64 1 57 -13 -4 -7 1 -4 10 7 15 19 14 20 -32 30 -41 9 -50 15 -65 47
-23 48 -34 54 -52 26z"/>
<path d="M7282 2302 c-37 -11 -90 -59 -119 -109 -22 -37 -27 -59 -27 -114 -1
-60 2 -71 30 -106 40 -51 87 -73 152 -73 187 0 286 241 150 367 -42 39 -119
54 -186 35z m172 -65 c52 -51 65 -97 46 -160 -30 -105 -93 -157 -188 -158 -44
-1 -67 4 -86 17 -58 43 -76 173 -32 243 36 56 82 91 119 90 29 0 30 -1 12 -12
-39 -24 -86 -82 -97 -122 -19 -65 -15 -137 10 -172 27 -38 49 -44 96 -28 47
16 70 45 99 125 42 112 23 188 -50 208 l-38 10 32 1 c25 1 42 -8 77 -42z m-50
1 c21 -29 20 -111 0 -172 -20 -57 -75 -116 -109 -116 -29 0 -65 43 -65 77 0
79 49 180 103 213 41 25 52 25 71 -2z"/>
<path d="M6402 2293 c-55 -3 -74 -8 -79 -20 -4 -9 1 -19 10 -25 22 -12 21 -38
-3 -142 -35 -148 -2 -206 117 -206 74 0 122 17 145 52 9 13 30 76 48 139 25
91 38 119 61 140 27 23 39 58 22 60 -12 1 -106 1 -130 0 -29 -1 -30 -25 -2
-44 19 -14 20 -19 9 -75 -20 -110 -39 -159 -72 -187 -26 -22 -38 -25 -67 -20
-65 12 -68 22 -42 132 28 118 35 131 66 139 29 7 35 48 9 58 -9 3 -16 5 -17 4
-1 -1 -35 -4 -75 -5z m88 -31 c0 -4 -13 -12 -28 -18 -26 -10 -30 -20 -55 -122
-15 -61 -27 -117 -27 -126 0 -23 50 -56 86 -56 80 0 112 36 139 159 9 42 21
88 25 103 6 20 5 32 -5 42 -12 12 -9 15 28 18 52 6 58 1 29 -20 -12 -10 -24
-26 -27 -37 -54 -238 -87 -285 -199 -288 -64 -1 -102 21 -108 65 -5 30 9 120
31 203 8 32 7 43 -5 56 -13 15 -10 16 42 18 32 0 60 3 62 6 8 7 12 6 12 -3z"/>
<path d="M6793 2284 c-4 -10 1 -22 12 -30 21 -16 18 -49 -16 -193 -20 -82 -26
-94 -52 -107 -19 -10 -27 -21 -23 -30 3 -9 6 -18 6 -20 0 -2 45 -4 101 -4 98
0 100 1 97 22 -2 14 -12 24 -28 28 -22 5 -25 11 -22 41 4 42 28 80 45 73 7 -2
19 -25 25 -51 8 -30 26 -58 48 -80 31 -29 42 -33 90 -33 67 0 72 18 14 55 -37
23 -80 87 -80 118 0 7 11 24 25 37 60 56 46 153 -25 177 -19 7 -75 12 -123 12
-72 1 -89 -2 -94 -15z m204 -29 c66 -25 76 -87 21 -131 -35 -28 -38 -37 -25
-76 19 -55 59 -107 91 -118 39 -13 27 -23 -17 -15 -46 9 -80 47 -102 112 -9
29 -20 55 -23 57 -4 2 -21 1 -39 -1 -36 -6 -53 -39 -53 -105 0 -32 4 -40 26
-49 41 -15 25 -18 -50 -11 l-69 7 24 30 c16 19 33 64 47 120 32 133 34 152 24
172 -9 16 -4 18 47 21 33 1 73 -4 98 -13z"/>
<path d="M6916 2246 c-16 -12 -48 -124 -40 -138 6 -10 55 -10 70 0 19 12 54
76 54 98 0 36 -55 63 -84 40z m52 -34 c4 -27 -19 -67 -48 -82 -31 -17 -35 10
-11 65 22 51 53 59 59 17z"/>
<path d="M5961 2276 c-8 -10 -5 -19 15 -41 18 -20 24 -34 19 -49 -4 -11 -16
-61 -26 -111 -19 -84 -40 -135 -57 -135 -18 -1 -32 -18 -26 -33 5 -15 25 -17
155 -17 l148 0 10 38 c24 93 24 102 3 102 -12 0 -29 -14 -42 -35 -23 -37 -49
-49 -96 -43 -24 2 -29 7 -27 28 6 52 14 71 38 80 31 12 52 4 58 -21 9 -34 26
-20 42 33 25 86 17 114 -25 78 -27 -23 -80 -27 -80 -6 0 7 7 30 15 50 13 32
19 36 50 36 29 0 37 -5 45 -25 12 -31 38 -33 44 -2 6 25 9 56 7 75 -2 18 -254
17 -270 -2z m255 -33 c-3 -8 -6 -22 -7 -31 0 -13 -3 -11 -11 6 -9 19 -19 22
-65 22 -60 0 -64 -5 -77 -89 l-7 -43 61 4 c62 4 66 3 50 -22 -6 -9 -23 -13
-53 -11 -30 1 -49 -3 -60 -13 -17 -18 -33 -97 -23 -121 9 -25 87 -19 130 10
38 26 42 23 27 -18 -10 -25 -12 -25 -135 -26 -71 -1 -126 2 -126 7 0 5 9 16
20 23 24 16 65 132 80 222 9 58 8 63 -13 79 -21 16 -19 17 68 20 117 4 148 0
141 -19z"/>
<path d="M8595 2218 c-43 -61 -94 -144 -95 -155 0 -7 -6 -16 -13 -20 -6 -4
-25 -26 -42 -48 -16 -22 -37 -48 -46 -58 -9 -9 -22 -30 -30 -45 -8 -15 -24
-38 -36 -52 -72 -81 -179 -197 -282 -305 -105 -110 -55 -72 71 55 133 133 343
382 375 443 9 18 19 34 23 37 16 10 110 170 101 170 -6 0 -17 -10 -26 -22z"/>
<path d="M5375 2064 c-11 -3 -47 -10 -80 -16 -124 -24 -226 -76 -315 -159 -28
-26 -50 -44 -50 -40 -1 11 -62 -92 -79 -133 -30 -71 -44 -159 -37 -233 17
-169 146 -304 332 -348 79 -19 256 -14 362 10 l82 19 21 56 c11 30 35 97 52
148 31 90 31 94 14 107 -26 19 -44 9 -68 -34 -88 -159 -189 -232 -301 -218
-67 8 -89 17 -148 58 -104 72 -145 182 -121 319 27 149 122 277 256 345 53 26
70 30 147 30 72 0 91 -3 114 -21 50 -37 66 -67 71 -140 3 -38 11 -72 17 -76
21 -15 36 -8 42 20 3 15 19 73 35 130 31 108 35 137 20 146 -39 25 -291 45
-366 30z m247 -36 c49 -6 92 -16 97 -22 7 -8 2 -45 -14 -106 -13 -52 -26 -107
-29 -122 -4 -16 -11 -28 -18 -28 -7 0 -9 18 -5 56 5 48 2 65 -18 105 -20 38
-35 52 -79 74 -53 26 -57 26 -140 16 -65 -8 -98 -18 -142 -43 -71 -39 -170
-138 -206 -204 -31 -57 -60 -167 -61 -230 0 -33 -3 -41 -13 -33 -8 7 -14 7
-19 -1 -3 -5 5 -14 18 -19 17 -7 24 -17 25 -38 2 -92 131 -233 212 -233 16 0
30 -3 30 -7 0 -17 116 -14 155 3 22 10 43 17 48 16 13 -4 104 96 147 163 23
36 46 62 51 60 8 -6 3 -31 -11 -50 -4 -5 -10 -22 -14 -36 -14 -63 -66 -159
-89 -168 -32 -12 -210 -34 -267 -33 -56 1 -119 11 -145 22 -11 5 -45 20 -75
33 -30 13 -69 36 -86 50 -40 34 -86 101 -89 131 -2 13 -8 33 -15 46 -30 57 3
275 47 308 13 9 14 12 2 12 -11 1 -10 4 4 14 9 7 17 17 17 22 1 14 80 97 126
132 46 35 110 65 199 92 128 40 171 42 357 18z"/>
<path d="M3545 2023 c-22 -47 -31 -53 -76 -53 -51 0 -60 -26 -21 -57 35 -27
46 -61 32 -99 -14 -37 -7 -40 35 -15 45 26 45 26 88 -4 33 -22 38 -22 52 -9
18 19 18 16 -1 62 -15 36 -14 38 8 55 50 39 58 47 58 57 0 5 -19 10 -42 10
-52 0 -58 4 -80 53 -10 20 -22 37 -27 37 -5 0 -17 -17 -26 -37z m59 -68 c11
-8 28 -15 38 -15 21 0 24 -18 4 -26 -20 -8 -30 -58 -16 -84 18 -33 3 -37 -28
-8 -18 18 -36 25 -54 23 -20 -2 -28 1 -28 12 0 8 -8 28 -17 44 -16 26 -16 31
-3 39 8 6 20 8 27 5 6 -2 17 3 23 11 15 18 30 17 54 -1z"/>
<path d="M3270 2031 c-11 -22 -13 -152 -3 -358 5 -125 8 -142 24 -146 10 -3
25 0 34 7 14 10 16 43 15 248 0 130 -3 244 -6 252 -9 22 -51 20 -64 -3z m51
-83 c5 -354 4 -403 -11 -403 -13 0 -15 32 -18 220 -1 121 0 225 2 232 13 33
26 8 27 -49z"/>
<path d="M3844 1773 c-18 -59 -23 -63 -63 -63 -35 0 -71 -19 -71 -38 0 -3 16
-20 36 -39 34 -31 36 -35 30 -78 -8 -50 -1 -55 37 -25 21 17 30 18 54 9 15 -6
36 -18 46 -27 18 -16 20 -15 33 3 8 11 12 26 8 35 -3 8 -8 29 -10 45 -4 25 0
33 28 50 18 11 34 28 36 38 3 14 -4 17 -40 17 -51 0 -63 7 -73 40 -15 48 -41
65 -51 33z m30 -64 c-3 -5 1 -9 8 -10 10 0 10 -2 1 -6 -7 -2 -13 -9 -13 -14 0
-6 4 -8 9 -4 5 3 12 1 16 -5 4 -6 11 -8 16 -5 12 8 49 -4 49 -16 0 -5 -9 -9
-19 -9 -24 0 -35 -39 -21 -76 6 -15 9 -29 7 -31 -8 -8 -37 10 -37 23 0 13 -18
18 -46 15 -11 -1 -54 69 -54 88 0 9 48 26 64 22 5 -1 6 5 3 14 -4 8 -1 15 6
16 9 0 9 2 0 6 -7 2 -13 9 -13 15 0 6 6 6 15 -2 8 -7 12 -16 9 -21z"/>
<path d="M5786 1772 c-3 -3 -6 -16 -6 -29 0 -17 9 -27 35 -37 19 -8 38 -22 41
-30 6 -15 -79 -369 -98 -412 -10 -22 -30 -35 -81 -54 -23 -8 -28 -15 -25 -38
l3 -27 257 -3 258 -2 6 27 c3 16 16 60 29 98 37 113 -2 145 -65 53 -50 -74
-78 -91 -155 -96 -60 -4 -65 -3 -75 20 -9 18 -7 41 7 98 l19 75 49 8 c66 11
95 -2 95 -43 0 -41 36 -42 51 -2 22 58 51 183 45 197 -9 24 -32 18 -61 -17
-25 -29 -35 -33 -92 -38 l-65 -6 5 26 c9 45 40 145 50 158 20 26 144 3 148
-28 1 -6 3 -14 4 -20 1 -5 3 -17 4 -26 1 -10 9 -14 23 -12 18 2 27 17 46 72
13 37 21 75 18 82 -5 12 -47 14 -235 13 -126 0 -232 -3 -235 -7z m358 -23 c16
-5 42 -9 59 -9 27 0 29 -2 22 -27 -3 -16 -9 -43 -12 -60 -6 -39 -22 -44 -24
-8 -1 14 -2 31 -3 38 -1 6 -9 18 -20 26 -24 18 -151 20 -168 3 -12 -12 -57
-157 -61 -196 -4 -37 118 -48 158 -15 9 8 27 25 40 39 30 30 31 21 5 -62 -11
-34 -20 -73 -20 -85 0 -12 -5 -25 -12 -29 -8 -5 -9 2 -5 24 9 43 -12 57 -93
59 -85 3 -95 -7 -115 -111 -20 -103 -20 -103 18 -120 39 -19 134 -29 143 -14
4 5 22 16 41 24 21 9 40 27 50 49 15 31 40 52 50 41 6 -5 -34 -126 -47 -141
-6 -8 -46 -13 -111 -14 -93 -1 -101 0 -95 16 4 12 0 10 -15 -6 -18 -22 -23
-24 -53 -13 -18 7 -61 12 -97 13 -52 0 -60 2 -43 11 34 16 74 100 94 196 10
48 25 115 34 149 23 86 29 149 17 171 -6 11 -24 22 -41 26 -54 10 -23 24 57
25 43 0 92 5 108 9 33 10 93 6 139 -9z m-434 -581 c0 -4 -4 -8 -9 -8 -6 0 -12
4 -15 8 -3 5 1 9 9 9 8 0 15 -4 15 -9z"/>
<path d="M7149 1772 c-44 -3 -46 -4 -63 -51 -25 -69 -26 -130 -2 -145 15 -9
21 -6 40 19 39 54 76 83 127 100 28 10 52 15 55 13 2 -3 -5 -40 -15 -84 -11
-43 -33 -134 -50 -202 -34 -142 -57 -184 -112 -209 -32 -15 -39 -23 -37 -43
l3 -25 180 -1 c155 -1 170 0 105 8 -41 5 -114 7 -162 4 -58 -4 -88 -2 -88 5 0
5 -5 7 -11 3 -7 -4 -10 -1 -7 7 2 7 19 16 37 20 41 9 77 42 85 80 3 16 11 29
19 29 7 0 13 8 14 18 0 9 13 71 27 137 35 153 51 253 43 261 -3 3 -34 3 -69
-1 -60 -7 -65 -10 -117 -63 l-54 -57 5 49 c3 26 13 55 22 64 22 22 122 30 249
20 33 -3 57 -1 57 5 0 6 5 5 13 -1 8 -7 18 -7 27 -2 18 12 104 13 114 3 4 -5
26 -8 49 -8 23 0 41 -4 41 -10 -5 -36 -36 -125 -44 -125 -10 0 -22 34 -25 73
-4 41 -13 46 -83 49 -46 2 -66 -2 -78 -14 -9 -9 -30 -82 -50 -174 -19 -88 -41
-189 -49 -226 -8 -36 -12 -73 -9 -81 3 -9 24 -19 47 -22 23 -4 48 -12 56 -19
11 -9 13 -8 9 4 -2 8 -23 22 -46 30 -22 9 -44 18 -47 22 -4 3 8 64 25 135 17
70 40 165 50 211 22 100 39 122 92 122 32 0 40 -4 48 -26 6 -14 10 -38 10 -54
0 -29 32 -70 55 -70 7 0 24 43 40 96 24 82 26 97 14 109 -11 11 -65 15 -254
17 -132 2 -261 2 -286 0z"/>
<path d="M6317 1751 c-6 -24 5 -34 54 -50 58 -19 73 -42 65 -101 -10 -78 -66
-291 -87 -331 -13 -27 -31 -42 -68 -58 -49 -21 -57 -33 -45 -64 5 -13 32 -16
159 -16 160 -1 172 2 161 42 -4 16 -21 28 -63 42 -51 17 -58 23 -57 45 3 46
59 273 69 277 6 1 37 -50 70 -114 33 -65 82 -157 110 -205 l49 -88 63 0 c59 0
63 1 63 23 0 12 -7 33 -16 46 -10 13 -17 35 -16 50 1 43 80 363 98 398 15 29
65 63 92 63 15 0 26 40 15 51 -5 5 -76 8 -159 7 -123 -3 -149 -6 -151 -18 -5
-24 10 -39 46 -45 19 -3 42 -10 53 -16 22 -12 22 -3 -19 -189 -41 -185 -33
-180 -91 -65 -28 55 -77 152 -110 215 l-59 115 -110 3 c-103 2 -111 1 -116
-17z m170 -22 l53 -10 50 -102 c151 -303 180 -345 196 -280 4 15 10 33 14 38
6 8 19 62 22 92 0 5 5 19 11 33 17 44 35 174 26 192 -5 9 -25 20 -45 24 -19 3
-33 9 -30 11 5 5 236 12 236 7 0 -1 -24 -14 -54 -27 -64 -30 -65 -31 -117
-275 -5 -24 -16 -67 -24 -95 -18 -61 -20 -154 -3 -159 17 -6 0 -28 -21 -28
-24 0 -71 37 -71 56 0 8 -5 14 -11 14 -5 0 -8 4 -5 8 3 5 -2 20 -12 33 -9 13
-36 62 -60 109 -24 47 -50 92 -56 100 -7 8 -26 39 -41 68 -16 28 -32 52 -36
52 -14 0 -27 -33 -39 -100 -6 -36 -22 -104 -36 -152 -13 -48 -24 -94 -24 -103
0 -24 40 -54 73 -55 15 0 27 -5 27 -11 0 -6 7 -9 15 -5 8 3 15 1 15 -4 0 -12
-39 -12 -98 -1 -23 5 -72 5 -107 2 -50 -6 -65 -4 -65 6 0 7 11 13 24 13 27 0
90 56 80 71 -3 5 0 9 5 9 6 0 11 8 11 17 0 19 18 79 32 107 7 14 6 16 -4 10
-8 -5 -7 0 3 17 25 38 55 222 41 253 -10 23 -62 56 -89 56 -7 0 -13 4 -13 8 0
13 68 13 127 1z"/>
<path d="M3539 1729 c-12 -24 -9 -412 4 -426 4 -4 20 -2 35 3 l27 10 0 214 0
215 -27 3 c-19 2 -30 -3 -39 -19z m50 -32 c4 -23 4 -79 0 -99 -1 -7 1 -48 5
-92 5 -44 4 -76 -1 -73 -10 6 -10 -28 1 -62 10 -28 -8 -51 -25 -34 -7 7 -11
65 -11 159 1 239 1 234 15 228 7 -2 14 -15 16 -27z"/>
<path d="M8447 1683 c-4 -3 -7 -11 -7 -17 0 -6 5 -5 12 2 6 6 9 14 7 17 -3 3
-9 2 -12 -2z"/>
<path d="M4110 1536 c-12 -38 -26 -46 -75 -46 -50 0 -57 -33 -15 -72 31 -27
32 -32 27 -79 -7 -55 -2 -58 37 -28 23 18 31 19 60 9 19 -6 40 -17 46 -25 27
-33 57 15 34 56 -21 38 -16 56 21 79 20 12 35 30 35 40 0 15 -9 19 -47 22 -44
3 -49 6 -66 41 -21 46 -42 47 -57 3z m56 -68 c5 -17 12 -20 45 -15 47 6 50 -2
8 -25 -26 -15 -30 -22 -27 -55 3 -35 1 -38 -22 -35 -14 1 -36 4 -50 5 -17 1
-25 8 -25 20 0 10 -11 29 -24 43 -26 27 -22 54 7 54 10 0 27 9 36 19 21 23 42
18 52 -11z"/>
<path d="M4100 1419 c0 -5 5 -7 10 -4 6 3 10 8 10 11 0 2 -4 4 -10 4 -5 0 -10
-5 -10 -11z"/>
<path d="M4120 1401 c0 -5 7 -12 16 -15 14 -5 15 -4 4 9 -14 17 -20 19 -20 6z"/>
<path d="M3837 1483 c-6 -11 -11 -146 -9 -265 2 -95 3 -98 25 -98 43 0 47 15
47 181 0 87 -3 164 -6 173 -6 16 -49 22 -57 9z m44 -45 c10 -261 9 -288 -12
-298 -19 -10 -20 -8 -19 47 0 32 -1 67 -2 78 -1 11 -1 59 0 108 2 70 5 87 17
87 9 0 15 -10 16 -22z"/>
<path d="M4760 1465 c0 -8 2 -15 4 -15 2 0 6 7 10 15 3 8 1 15 -4 15 -6 0 -10
-7 -10 -15z"/>
<path d="M7935 1425 c-14 -13 -25 -21 -25 -17 0 4 -4 2 -8 -4 -4 -5 -40 -36
-79 -68 -68 -54 -80 -66 -69 -66 8 0 203 157 211 169 11 19 -5 12 -30 -14z"/>
<path d="M4366 1380 c-17 -39 -19 -40 -67 -40 -45 0 -49 -2 -49 -23 0 -13 14
-36 31 -53 29 -27 30 -32 24 -83 -7 -58 -8 -58 47 -17 25 17 31 18 55 6 16 -8
35 -20 44 -27 13 -11 18 -11 28 1 9 11 9 25 0 62 -9 35 -9 49 -1 52 26 8 62
45 62 63 0 16 -7 19 -50 19 -48 0 -51 2 -67 37 -10 20 -23 38 -29 40 -5 2 -18
-15 -28 -37z m24 -48 c0 -14 76 -35 102 -29 19 5 17 0 -14 -27 -42 -36 -49
-71 -21 -92 10 -7 15 -16 10 -20 -4 -4 -16 2 -27 14 -21 22 -31 26 -62 23 -9
-1 -19 8 -23 21 -4 13 -14 30 -22 39 -12 15 -12 19 2 33 9 9 23 16 32 16 9 0
13 6 9 15 -3 8 -1 15 4 15 6 0 10 -4 10 -8z"/>
<path d="M3121 1374 c0 -11 3 -14 6 -6 3 7 2 16 -1 19 -3 4 -6 -2 -5 -13z"/>
<path d="M4767 1384 c-4 -4 -7 -14 -7 -23 0 -11 3 -12 11 -4 6 6 10 16 7 23
-2 6 -7 8 -11 4z"/>
<path d="M4765 1308 c-2 -7 -6 -77 -7 -156 -3 -133 -1 -147 23 -144 4 1 5 -9
3 -21 -2 -12 -2 -16 2 -9 3 6 9 10 13 7 5 -2 8 6 7 18 -1 14 -7 22 -19 21 -20
-2 -23 16 -5 34 9 9 9 15 0 24 -15 15 -16 68 -1 68 5 0 7 5 3 12 -4 7 -8 45
-7 85 0 70 -3 87 -12 61z"/>
<path d="M4095 1270 c-7 -12 -8 -258 0 -295 2 -11 4 -24 4 -28 1 -5 13 -7 29
-5 l27 3 0 165 0 165 -27 3 c-14 2 -29 -2 -33 -8z m49 -37 c10 -37 6 -272 -4
-278 -21 -13 -25 8 -26 151 -1 112 2 144 12 144 7 0 15 -8 18 -17z"/>
<path d="M7688 1232 c-38 -23 -36 -35 2 -14 16 9 30 20 30 25 0 9 -1 9 -32
-11z"/>
<path d="M3310 1210 c0 -5 -7 -6 -17 -3 -10 4 -14 2 -10 -4 4 -6 1 -14 -5 -16
-10 -4 -10 -6 0 -6 19 -1 52 18 52 29 0 6 -4 10 -10 10 -5 0 -10 -4 -10 -10z"/>
<path d="M7585 1150 c-3 -6 1 -7 9 -4 18 7 21 14 7 14 -6 0 -13 -4 -16 -10z"/>
<path d="M7534 1125 c-16 -14 -34 -25 -40 -25 -6 0 -17 -7 -24 -15 -19 -23 2
-18 40 10 19 14 39 25 45 25 7 0 12 7 12 15 0 19 1 19 -33 -10z"/>
<path d="M4375 1114 c-12 -12 -15 -40 -14 -132 1 -64 4 -128 8 -142 8 -30 33
-37 55 -15 14 14 16 37 14 152 -3 130 -4 136 -25 144 -16 6 -27 3 -38 -7z m40
-24 c10 -16 6 -243 -4 -253 -19 -19 -23 1 -26 132 -2 103 0 131 11 131 7 0 16
-4 19 -10z"/>
<path d="M7410 1045 c-11 -13 -10 -14 4 -9 9 3 16 10 16 15 0 13 -6 11 -20 -6z"/>
<path d="M4752 933 c-1 -88 4 -110 27 -116 15 -4 18 0 16 18 -1 13 2 29 6 37
5 7 1 20 -8 31 -16 17 -16 17 3 12 16 -5 16 -4 -3 11 -15 10 -23 27 -23 45 0
16 -4 29 -8 29 -5 0 -9 -30 -10 -67z"/>
<path d="M6980 829 c0 -5 5 -7 10 -4 6 3 10 8 10 11 0 2 -4 4 -10 4 -5 0 -10
-5 -10 -11z"/>
<path d="M6895 800 c-3 -6 1 -7 9 -4 18 7 21 14 7 14 -6 0 -13 -4 -16 -10z"/>
<path d="M4752 743 c4 -32 38 -46 38 -16 0 20 -18 43 -33 43 -4 0 -7 -12 -5
-27z"/>
<path d="M6760 750 c-8 -5 -10 -10 -5 -10 6 0 17 5 25 10 8 5 11 10 5 10 -5 0
-17 -5 -25 -10z"/>
<path d="M6690 729 c-25 -11 -34 -17 -20 -14 14 4 35 9 48 12 12 3 22 9 22 14
0 11 4 12 -50 -12z"/>
<path d="M4830 699 c0 -9 48 -24 55 -17 2 2 -9 9 -25 15 -17 6 -30 7 -30 2z"/>
<path d="M4932 678 c3 -7 10 -13 16 -13 5 0 14 -3 18 -7 4 -5 23 -7 43 -7 34
2 34 2 6 6 -16 3 -34 8 -40 12 -21 16 -47 21 -43 9z"/>
<path d="M6458 663 c7 -3 16 -2 19 1 4 3 -2 6 -13 5 -11 0 -14 -3 -6 -6z"/>
<path d="M5117 653 c-12 -12 -7 -33 8 -33 17 0 19 9 7 28 -5 7 -11 9 -15 5z"/>
<path d="M5150 630 c0 -5 3 -10 8 -10 4 -1 26 -5 50 -9 56 -11 54 4 -2 18 -55
13 -56 13 -56 1z"/>
<path d="M6270 630 c0 -5 5 -10 11 -10 5 0 7 5 4 10 -3 6 -8 10 -11 10 -2 0
-4 -4 -4 -10z"/>
<path d="M5287 616 c-4 -11 7 -15 49 -18 30 -1 54 0 54 5 0 4 -14 7 -31 7 -17
0 -39 4 -49 10 -13 7 -19 6 -23 -4z"/>
<path d="M6065 600 c-4 -7 3 -8 22 -4 38 9 42 14 10 14 -14 0 -29 -5 -32 -10z"/>
<path d="M5440 590 c18 -12 73 -13 66 -2 -3 5 -22 9 -43 10 -28 1 -34 -1 -23
-8z"/>
<path d="M5540 590 c-12 -8 -10 -10 8 -10 13 0 20 4 17 10 -7 12 -6 12 -25 0z"/>
<path d="M5690 589 c-22 -6 -20 -7 13 -8 38 -1 47 3 25 11 -7 3 -24 1 -38 -3z"/>
<path d="M5760 590 c-12 -8 -9 -10 13 -10 16 0 26 4 22 10 -8 12 -16 12 -35 0z"/>
<path d="M5810 588 c0 -4 16 -8 35 -8 19 0 35 5 35 10 0 6 -16 10 -35 8 -19
-1 -35 -6 -35 -10z"/>
<path d="M5930 590 c-11 -7 -5 -10 23 -10 20 0 37 5 37 10 0 13 -40 13 -60 0z"/>
<path d="M5140 360 c0 -5 5 -10 11 -10 5 0 7 5 4 10 -3 6 -8 10 -11 10 -2 0
-4 -4 -4 -10z"/>
<path d="M5195 360 c-3 -5 -1 -10 4 -10 6 0 11 5 11 10 0 6 -2 10 -4 10 -3 0
-8 -4 -11 -10z"/>
<path d="M5671 344 c0 -11 3 -14 6 -6 3 7 2 16 -1 19 -3 4 -6 -2 -5 -13z"/>
</g>
</svg>
