<?xml version="1.0" standalone="no"?>
<!DOCTYPE svg PUBLIC "-//W3C//DTD SVG 20010904//EN"
 "http://www.w3.org/TR/2001/REC-SVG-20010904/DTD/svg10.dtd">
<svg version="1.0" xmlns="http://www.w3.org/2000/svg"
 width="787.000000pt" height="399.000000pt" viewBox="0 0 787.000000 399.000000"
 preserveAspectRatio="xMidYMid meet">

<g transform="translate(0.000000,399.000000) scale(0.100000,-0.100000)"
fill="#000000" stroke="none">
<path d="M5455 3786 c-95 -23 -173 -90 -223 -191 -126 -251 -93 -693 66 -872
76 -85 190 -117 332 -93 157 26 254 149 301 381 34 168 18 398 -38 542 -73
186 -248 280 -438 233z m165 -151 c88 -45 140 -206 140 -431 0 -198 -36 -334
-104 -399 -30 -28 -41 -32 -96 -34 -86 -3 -117 18 -164 109 -70 136 -67 524 5
660 26 50 40 65 79 89 41 25 99 27 140 6z m-359 -808 c-10 -9 -11 -8 -5 6 3
10 9 15 12 12 3 -3 0 -11 -7 -18z m146 -5 c19 -25 19 -28 3 -28 -10 0 -16 6
-13 12 2 7 0 15 -6 19 -10 5 -16 25 -8 25 2 0 13 -13 24 -28z m334 -14 c5 -10
6 -18 1 -18 -5 0 -14 11 -20 25 -22 49 -11 44 19 -7z m-441 -28 c12 0 17 -5
14 -13 -2 -7 9 -25 24 -40 27 -26 30 -27 46 -12 12 13 26 15 50 11 23 -5 39
-2 48 8 10 9 33 14 65 13 43 -2 48 -4 32 -15 -12 -8 -25 -9 -42 -3 -22 8 -24
7 -20 -10 4 -15 0 -19 -18 -20 -19 -1 -18 -3 9 -10 19 -6 53 -8 75 -6 39 3 38
4 -11 5 -70 3 -58 21 12 21 30 -1 70 5 90 12 30 11 41 11 57 1 16 -10 23 -10
35 3 22 22 30 19 10 -4 -10 -11 -47 -34 -84 -51 -62 -30 -73 -32 -152 -28 -62
3 -97 10 -130 27 -50 25 -110 73 -110 89 0 5 -7 12 -15 16 -8 3 -14 16 -14 28
l2 23 4 -22 c3 -14 12 -23 23 -23z m395 21 c-3 -6 -11 -11 -16 -11 -5 0 -4 6
3 14 14 16 24 13 13 -3z m-340 -21 c3 -6 -1 -7 -9 -4 -18 7 -21 14 -7 14 6 0
13 -4 16 -10z m461 -12 c-6 -10 -13 -18 -16 -18 -3 0 -6 8 -6 18 0 10 8 18 17
18 13 0 14 -4 5 -18z m-343 -25 c-9 -22 -28 -15 -29 11 -2 21 1 23 16 14 10
-7 16 -18 13 -25z m207 27 c0 -5 -7 -10 -16 -10 -8 0 -12 5 -9 10 3 6 10 10
16 10 5 0 9 -4 9 -10z m-325 -21 c11 -16 1 -19 -13 -3 -7 8 -8 14 -3 14 5 0
13 -5 16 -11z m283 -28 c-12 -4 -29 20 -21 32 3 4 11 0 18 -10 9 -12 10 -19 3
-22z"/>
<path d="M5396 2702 c-3 -5 8 -6 25 -4 16 2 29 6 29 8 0 8 -49 4 -54 -4z"/>
<path d="M5680 2693 c0 -7 -5 -13 -12 -13 -6 0 -9 -2 -6 -5 2 -3 22 4 44 15
l39 19 -32 -2 c-19 -1 -33 -7 -33 -14z"/>
<path d="M5638 2693 c7 -3 16 -2 19 1 4 3 -2 6 -13 5 -11 0 -14 -3 -6 -6z"/>
<path d="M5418 2683 c7 -3 16 -2 19 1 4 3 -2 6 -13 5 -11 0 -14 -3 -6 -6z"/>
<path d="M5488 2663 c6 -2 18 -2 25 0 6 3 1 5 -13 5 -14 0 -19 -2 -12 -5z"/>
<path d="M5610 2660 c-13 -8 -13 -10 2 -10 9 0 20 5 23 10 8 13 -5 13 -25 0z"/>
<path d="M6381 3784 c-129 -36 -210 -131 -262 -309 -21 -71 -23 -101 -23 -265
-1 -195 9 -255 54 -355 11 -24 20 -47 20 -50 0 -4 20 -31 45 -62 25 -30 42
-60 38 -65 -3 -7 -1 -8 5 -4 6 4 37 -5 69 -20 48 -22 73 -27 148 -28 86 -1
160 14 194 39 19 14 94 89 106 106 77 110 113 294 101 510 -10 188 -55 316
-144 411 -52 56 -84 75 -157 94 -63 17 -125 16 -194 -2z m169 -147 c38 -19 86
-89 111 -164 21 -62 23 -85 24 -268 0 -170 -3 -208 -19 -255 -47 -138 -89
-180 -181 -181 -66 -1 -94 15 -137 77 -50 73 -63 148 -63 359 0 159 3 201 19
255 23 77 66 144 109 171 36 22 100 25 137 6z m-311 -875 c20 2 30 -5 35 -28
5 -19 10 -24 17 -17 8 8 7 18 -1 33 -6 12 -9 24 -6 28 11 10 19 -8 20 -41 1
-24 6 -33 18 -34 10 -1 17 1 17 5 -3 21 3 32 17 32 13 0 14 -3 5 -14 -8 -10
-9 -16 -1 -21 13 -8 32 3 25 15 -3 5 5 16 17 24 28 20 39 20 32 1 -4 -8 -1
-15 5 -15 6 0 11 5 11 11 0 6 11 8 28 4 16 -3 41 -1 55 4 15 6 27 7 27 1 0 -5
-10 -11 -22 -13 -19 -4 -19 -5 3 -4 14 1 34 -4 43 -12 20 -17 21 -7 0 13 -8 9
-12 21 -9 27 5 6 12 3 22 -10 8 -12 19 -21 26 -21 8 0 8 3 -1 12 -14 14 -16
28 -4 28 5 0 14 -10 20 -22 6 -13 11 -17 11 -10 2 30 -20 53 -42 46 -22 -6
-22 -6 -2 9 18 14 21 14 35 -9 8 -13 20 -24 27 -24 18 0 16 -11 -6 -39 -10
-14 -17 -30 -14 -37 5 -13 -61 -29 -79 -18 -8 5 -9 2 -5 -9 6 -15 -3 -17 -76
-16 -82 0 -189 29 -156 42 8 3 3 6 -12 6 -36 1 -119 87 -119 122 0 8 8 0 16
-18 9 -18 19 -32 23 -31z m139 -1 c-12 -4 -59 44 -51 52 3 3 18 -6 33 -21 15
-15 23 -29 18 -31z m384 27 c-8 -8 -9 -4 -5 13 4 13 8 18 11 10 2 -7 -1 -18
-6 -23z m-82 2 c0 -5 -2 -10 -4 -10 -3 0 -8 5 -11 10 -3 6 -1 10 4 10 6 0 11
-4 11 -10z m58 -18 c9 -6 1 -19 -27 -45 -22 -20 -43 -37 -46 -37 -12 0 30 49
43 50 6 0 12 7 12 15 0 9 -6 12 -17 8 -11 -4 -14 -3 -9 5 8 14 26 15 44 4z"/>
<path d="M6396 2704 c-8 -21 -8 -24 5 -24 5 0 8 4 5 9 -4 5 -1 11 6 13 8 3 9
6 1 11 -6 4 -14 0 -17 -9z"/>
<path d="M6435 2710 c3 -5 8 -10 11 -10 2 0 4 5 4 10 0 6 -5 10 -11 10 -5 0
-7 -4 -4 -10z"/>
<path d="M6508 2713 c6 -2 18 -2 25 0 6 3 1 5 -13 5 -14 0 -19 -2 -12 -5z"/>
<path d="M6620 2710 c-13 -8 -13 -10 2 -10 9 0 20 5 23 10 8 13 -5 13 -25 0z"/>
<path d="M6448 2683 c6 -2 18 -2 25 0 6 3 1 5 -13 5 -14 0 -19 -2 -12 -5z"/>
<path d="M6501 2686 c2 -2 29 -6 59 -9 34 -3 47 -2 35 3 -19 8 -103 14 -94 6z"/>
<path d="M6480 2660 c0 -5 4 -10 9 -10 6 0 13 5 16 10 3 6 -1 10 -9 10 -9 0
-16 -4 -16 -10z"/>
<path d="M4407 3578 c-4 -112 -7 -249 -7 -304 l0 -102 61 19 c79 25 220 27
287 5 183 -61 208 -311 40 -397 -78 -40 -249 -40 -341 0 -57 25 -59 22 -55
-75 l3 -69 50 -13 c29 -8 107 -14 185 -14 119 -1 142 1 195 22 111 43 187 104
223 178 72 149 44 321 -68 425 -30 27 -80 62 -110 76 -50 23 -67 25 -177 25
l-123 0 0 107 c0 58 3 120 6 138 l6 31 237 2 236 3 0 70 0 70 -321 3 -321 2
-6 -202z m403 -803 c-13 -14 -33 -24 -44 -24 -19 2 -19 2 2 6 12 2 27 13 32
24 6 10 16 19 22 19 6 0 1 -11 -12 -25z m-365 -13 c-8 -2 -15 -9 -15 -17 0
-16 35 -26 48 -13 10 10 52 -10 52 -24 0 -5 7 -8 15 -8 8 0 15 5 15 10 0 6 10
10 23 11 12 1 -3 7 -33 15 -30 7 -61 12 -67 9 -7 -2 -13 0 -13 6 0 7 12 9 33
6 17 -3 64 -9 102 -13 49 -5 64 -9 50 -15 -15 -6 -11 -8 19 -8 32 -1 36 1 27
13 -9 11 -7 15 8 19 13 3 18 1 15 -8 -7 -16 51 -25 67 -11 9 8 10 6 5 -9 -6
-16 -5 -18 5 -7 15 14 55 16 64 3 3 -6 -3 -14 -12 -20 -10 -6 -13 -11 -6 -11
6 0 19 7 27 16 9 8 16 13 16 9 0 -3 5 -3 10 0 7 4 3 14 -10 25 -23 20 -28 39
-5 20 11 -9 19 -8 37 4 22 16 78 23 64 9 -4 -4 -13 -8 -19 -9 -25 -2 -57 -17
-57 -25 0 -14 11 -11 32 8 10 9 18 11 18 5 0 -19 -73 -60 -154 -87 -58 -19
-95 -25 -166 -25 -105 0 -252 28 -210 41 16 4 19 7 8 8 -19 1 -21 6 -22 61 -1
34 0 35 21 25 16 -7 18 -11 8 -13z"/>
<path d="M4430 2710 c0 -5 5 -10 10 -10 6 0 10 5 10 10 0 6 -4 10 -10 10 -5 0
-10 -4 -10 -10z"/>
<path d="M4715 2710 c-13 -6 -15 -9 -5 -9 8 0 22 4 30 9 18 12 2 12 -25 0z"/>
<path d="M4790 2700 c-15 -5 -18 -8 -8 -9 9 -1 25 -4 35 -7 13 -4 15 -3 4 4
-11 8 -11 10 0 15 21 8 -3 6 -31 -3z"/>
<path d="M4478 2693 c6 -2 18 -2 25 0 6 3 1 5 -13 5 -14 0 -19 -2 -12 -5z"/>
<path d="M4638 2683 c18 -2 45 -2 60 0 15 2 0 4 -33 4 -33 0 -45 -2 -27 -4z"/>
<path d="M4478 2673 c6 -2 18 -2 25 0 6 3 1 5 -13 5 -14 0 -19 -2 -12 -5z"/>
<path d="M4730 2669 c-11 -7 -4 -8 25 -3 50 8 58 14 19 14 -16 0 -36 -5 -44
-11z"/>
<path d="M4610 2660 c19 -13 30 -13 30 0 0 6 -10 10 -22 10 -19 0 -20 -2 -8
-10z"/>
<path d="M2048 3750 c13 -6 22 -19 23 -32 1 -18 2 -19 6 -5 6 22 -14 47 -36
46 -11 0 -9 -3 7 -9z"/>
<path d="M2019 3723 c7 -27 41 -46 41 -24 0 6 -7 8 -15 5 -10 -4 -15 0 -15 14
0 12 -4 23 -9 26 -5 4 -6 -5 -2 -21z"/>
<path d="M2150 3701 c0 -49 1 -51 29 -51 36 0 47 15 47 60 -1 33 -3 35 -38 38
l-38 3 0 -50z m50 19 c0 -5 -7 -10 -15 -10 -8 0 -15 5 -15 10 0 6 7 10 15 10
8 0 15 -4 15 -10z m0 -40 c0 -5 -7 -10 -15 -10 -8 0 -15 5 -15 10 0 6 7 10 15
10 8 0 15 -4 15 -10z"/>
<path d="M2257 3732 c-10 -10 -17 -25 -17 -34 0 -23 33 -48 63 -48 35 0 35 18
0 22 -18 2 -29 10 -32 22 -4 23 24 47 45 39 8 -3 14 0 14 6 0 18 -56 13 -73
-7z"/>
<path d="M2340 3700 l0 -50 40 0 c22 0 40 5 40 10 0 6 -11 10 -25 10 -14 0
-25 5 -25 10 0 6 9 10 20 10 11 0 20 5 20 10 0 6 -9 10 -20 10 -11 0 -20 5
-20 10 0 6 9 10 20 10 11 0 20 5 20 10 0 6 -16 10 -35 10 l-35 0 0 -50z"/>
<path d="M2520 3700 l0 -50 35 0 c19 0 35 5 35 10 0 6 -11 10 -25 10 -14 0
-25 5 -25 10 0 6 9 10 19 10 11 0 23 5 26 10 4 6 -5 10 -19 10 -14 0 -26 5
-26 10 0 6 9 10 19 10 11 0 23 5 26 10 4 6 -8 10 -29 10 l-36 0 0 -50z"/>
<path d="M2616 3728 c-9 -12 -16 -28 -16 -34 0 -21 37 -44 70 -44 38 0 30 16
-10 22 -19 2 -25 9 -25 28 0 20 6 26 28 28 36 4 35 22 -2 22 -20 0 -35 -8 -45
-22z"/>
<path d="M2708 3711 c-5 -54 -1 -61 32 -61 33 0 47 16 45 51 -2 37 -13 49 -45
49 -25 0 -28 -4 -32 -39z m52 9 c0 -5 -4 -10 -9 -10 -6 0 -13 5 -16 10 -3 6 1
10 9 10 9 0 16 -4 16 -10z m0 -40 c0 -5 -4 -10 -9 -10 -6 0 -13 5 -16 10 -3 6
1 10 9 10 9 0 16 -4 16 -10z"/>
<path d="M2877 3714 c-3 -19 -3 -42 0 -50 6 -16 73 -20 73 -4 0 6 -12 10 -26
10 -16 0 -24 5 -21 13 2 6 9 12 15 12 5 0 14 3 18 8 4 4 -3 7 -15 7 -29 0 -22
22 10 31 20 6 18 7 -12 8 -34 1 -37 -1 -42 -35z"/>
<path d="M2978 3743 c27 -5 28 -24 2 -48 -32 -29 -25 -45 20 -45 22 0 40 5 40
10 0 6 -9 10 -20 10 -11 0 -20 3 -20 6 0 3 9 17 20 31 29 37 25 43 -22 42 -24
-1 -33 -4 -20 -6z"/>
<path d="M3060 3701 c0 -49 1 -51 29 -51 37 0 50 17 48 60 -2 33 -4 35 -39 38
l-38 3 0 -50z m50 25 c0 -11 -19 -15 -25 -6 -3 5 1 10 9 10 9 0 16 -2 16 -4z
m0 -46 c0 -5 -4 -10 -9 -10 -6 0 -13 5 -16 10 -3 6 1 10 9 10 9 0 16 -4 16
-10z"/>
<path d="M3240 3700 l0 -50 35 0 c19 0 35 5 35 10 0 6 -9 10 -19 10 -32 0 -34
19 -4 27 27 7 27 7 5 12 -13 3 -23 11 -23 16 0 6 10 13 23 17 18 5 15 6 -14 7
l-38 1 0 -50z"/>
<path d="M3330 3700 c0 -38 4 -50 15 -50 9 0 15 9 15 22 l0 22 20 -22 c21 -23
40 -29 40 -13 0 5 -7 14 -15 21 -19 16 -19 35 1 54 13 14 13 16 0 16 -8 0 -22
-7 -30 -16 -15 -14 -16 -14 -16 0 0 9 -7 16 -15 16 -11 0 -15 -12 -15 -50z"/>
<path d="M3443 3736 c11 -8 17 -27 17 -50 0 -20 5 -36 10 -36 6 0 10 16 10 36
0 23 6 42 18 50 15 12 12 13 -28 13 -40 0 -43 -1 -27 -13z"/>
<path d="M3580 3716 c0 -19 3 -41 6 -50 7 -18 59 -22 69 -6 4 6 -5 10 -19 10
-32 0 -34 20 -4 28 19 5 20 6 4 12 -24 8 -22 24 6 32 17 4 12 6 -19 7 -42 1
-43 1 -43 -33z"/>
<path d="M3680 3699 c0 -36 4 -49 13 -46 6 2 11 12 11 21 -2 22 4 20 26 -6 24
-30 38 -16 17 16 -14 21 -14 26 -2 36 8 7 15 16 15 21 0 15 -30 10 -36 -6 -4
-8 -11 -15 -16 -15 -6 0 -8 7 -4 15 3 9 0 15 -9 15 -11 0 -15 -13 -15 -51z"/>
<path d="M3790 3701 c0 -28 5 -51 10 -51 6 0 10 9 10 19 0 13 8 21 23 23 16 2
22 10 22 28 0 21 -5 26 -32 28 l-33 3 0 -50z m48 21 c2 -7 -3 -12 -12 -12 -9
0 -16 7 -16 16 0 17 22 14 28 -4z"/>
<path d="M3953 3743 c11 -3 16 -11 13 -19 -3 -9 -1 -12 4 -9 19 12 10 35 -12
34 -19 -1 -19 -2 -5 -6z"/>
<path d="M4008 3738 c-8 -22 4 -58 18 -58 18 0 35 34 28 54 -7 19 -41 21 -46
4z m32 -17 c0 -11 -4 -23 -10 -26 -6 -4 -10 5 -10 19 0 14 5 26 10 26 6 0 10
-9 10 -19z"/>
<path d="M4075 3729 c-8 -24 16 -55 34 -45 6 4 11 20 11 37 0 22 -5 29 -19 29
-11 0 -23 -9 -26 -21z m35 -8 c0 -11 -4 -23 -10 -26 -6 -4 -10 5 -10 19 0 14
5 26 10 26 6 0 10 -9 10 -19z"/>
<path d="M4162 3720 c1 -16 5 -30 10 -30 4 0 8 14 8 30 0 17 -4 30 -9 30 -5 0
-9 -13 -9 -30z"/>
<path d="M7329 3723 c-22 -6 -49 -56 -49 -92 0 -59 41 -109 80 -96 22 7 50 63
50 102 0 27 -22 70 -44 85 -12 8 -12 8 -37 1z m37 -24 c32 -52 18 -139 -22
-139 -28 0 -44 26 -44 72 0 55 45 100 66 67z"/>
<path d="M7487 3723 c-41 -11 -60 -99 -32 -153 22 -43 54 -49 82 -16 13 15 21
31 18 36 -3 5 -1 12 5 15 24 15 -22 129 -49 124 -3 -1 -14 -3 -24 -6z m37 -25
c11 -12 13 -35 8 -110 -1 -19 -8 -28 -19 -28 -15 0 -16 -2 -3 -10 9 -6 10 -10
3 -10 -6 0 -21 12 -33 28 -44 55 -3 177 44 130z"/>
<path d="M7160 3696 c0 -13 -3 -31 -6 -40 -5 -12 0 -16 21 -16 39 0 65 -18 65
-44 0 -31 -20 -46 -54 -40 -20 3 -27 1 -24 -8 12 -35 98 1 98 41 0 28 -30 61
-56 61 -20 0 -24 5 -24 29 0 28 3 30 43 34 40 3 40 4 -10 5 -50 2 -53 1 -53
-22z"/>
<path d="M3940 3690 c0 -5 10 -10 23 -10 18 0 19 2 7 10 -19 13 -30 13 -30 0z"/>
<path d="M4052 3538 c32 -114 24 -108 140 -108 l102 0 -64 -47 c-114 -82 -108
-68 -76 -174 15 -50 25 -93 22 -96 -3 -3 -28 13 -57 36 -28 22 -56 41 -60 41
-12 0 -11 -51 6 -225 8 -82 18 -188 21 -235 3 -47 11 -152 19 -235 8 -82 17
-185 21 -227 3 -43 13 -85 20 -95 10 -12 12 -13 9 -3 -4 13 13 15 116 16 82 1
124 6 129 14 4 6 10 -26 14 -72 4 -45 9 -116 13 -155 3 -40 10 -73 15 -73 5 0
7 19 4 43 -8 57 -24 300 -32 477 -6 142 -19 253 -24 200 -2 -24 -2 -23 -16 8
-8 18 -12 37 -10 41 5 8 -2 11 -159 57 -49 15 -94 31 -99 35 -15 13 13 11 59
-5 108 -37 145 -48 153 -44 8 3 -12 72 -83 296 -12 40 -12 43 3 37 9 -3 29 -9
45 -12 l27 -5 0 143 c0 79 3 185 7 235 7 108 18 97 -146 150 -61 19 -113 39
-116 45 -4 5 -10 9 -15 9 -5 0 1 -33 12 -72z"/>
<path d="M3200 3576 c0 -2 7 -7 16 -10 8 -3 12 -2 9 4 -6 10 -25 14 -25 6z"/>
<path d="M3133 3563 c9 -2 23 -2 30 0 6 3 -1 5 -18 5 -16 0 -22 -2 -12 -5z"/>
<path d="M3031 3545 c-18 -8 -42 -15 -52 -15 -11 0 -19 -4 -19 -10 0 -11 63
-1 68 12 2 4 12 8 22 8 10 0 22 5 25 10 8 13 -4 12 -44 -5z"/>
<path d="M3100 3518 c19 -5 42 -16 51 -24 18 -16 29 -18 29 -4 0 13 -66 40
-94 39 -14 0 -9 -4 14 -11z"/>
<path d="M2920 3495 c-14 -8 -20 -14 -14 -15 5 0 19 7 30 15 24 18 16 19 -16
0z"/>
<path d="M3110 3470 c0 -5 7 -7 15 -4 8 4 15 8 15 10 0 2 -7 4 -15 4 -8 0 -15
-4 -15 -10z"/>
<path d="M2882 3420 c-42 -19 -49 -40 -14 -40 13 0 14 2 4 9 -13 8 13 24 68
44 13 5 13 5 0 6 -8 0 -34 -8 -58 -19z"/>
<path d="M2960 3410 c-6 -11 -15 -20 -21 -20 -6 0 -7 5 -4 10 3 6 -1 10 -9 10
-8 0 -18 -4 -21 -10 -3 -5 1 -10 9 -10 9 0 16 -7 16 -15 0 -17 37 -20 60 -5
11 7 5 8 -20 4 l-35 -6 33 31 c20 19 27 31 18 31 -9 0 -20 -9 -26 -20z"/>
<path d="M2779 3392 c-31 -36 -31 -46 -1 -18 18 17 32 31 32 33 0 9 -18 1 -31
-15z"/>
<path d="M3044 3396 c-3 -9 -13 -12 -22 -9 -9 4 -14 3 -10 -2 4 -4 3 -14 -3
-22 -8 -9 -8 -13 -1 -13 11 0 62 46 62 55 0 12 -21 4 -26 -9z"/>
<path d="M3815 3400 c3 -5 8 -10 11 -10 2 0 4 5 4 10 0 6 -5 10 -11 10 -5 0
-7 -4 -4 -10z"/>
<path d="M3086 3374 c-9 -8 -13 -20 -10 -26 4 -6 11 -3 17 8 6 11 15 22 21 26
8 5 7 8 -1 8 -6 0 -19 -7 -27 -16z"/>
<path d="M3190 3380 c-9 -6 -10 -10 -3 -10 6 0 15 5 18 10 8 12 4 12 -15 0z"/>
<path d="M3120 3360 c-13 -8 -13 -10 2 -10 9 0 20 5 23 10 8 13 -5 13 -25 0z"/>
<path d="M3250 3360 c0 -5 5 -10 10 -10 6 0 10 5 10 10 0 6 -4 10 -10 10 -5 0
-10 -4 -10 -10z"/>
<path d="M2709 3316 c-10 -21 -10 -29 0 -39 10 -9 11 -8 5 6 -3 9 -1 24 6 32
7 9 10 18 7 22 -4 3 -12 -6 -18 -21z"/>
<path d="M3257 3319 c7 -7 15 -10 18 -7 3 3 -2 9 -12 12 -14 6 -15 5 -6 -5z"/>
<path d="M3333 3293 c9 -2 25 -2 35 0 9 3 1 5 -18 5 -19 0 -27 -2 -17 -5z"/>
<path d="M3413 3283 c9 -2 23 -2 30 0 6 3 -1 5 -18 5 -16 0 -22 -2 -12 -5z"/>
<path d="M3976 2945 c4 -8 8 -15 10 -15 2 0 4 7 4 15 0 8 -4 15 -10 15 -5 0
-7 -7 -4 -15z"/>
<path d="M3983 2830 c0 -25 2 -35 4 -22 2 12 2 32 0 45 -2 12 -4 2 -4 -23z"/>
<path d="M3980 2743 c-3 -23 -2 -39 3 -34 5 5 7 24 5 42 -3 33 -4 33 -8 -8z"/>
<path d="M3770 2696 c0 -9 5 -16 10 -16 6 0 10 4 10 9 0 6 -4 13 -10 16 -5 3
-10 -1 -10 -9z"/>
<path d="M4941 2678 c-12 -32 -4 -47 25 -43 31 3 44 15 18 16 -18 0 -18 1 1 9
18 8 17 9 -7 9 -41 1 -34 16 6 16 38 0 33 15 52 -152 l6 -52 -98 30 c-54 16
-102 28 -108 26 -7 -2 92 -44 124 -52 3 -1 22 -5 42 -9 45 -10 43 -4 59 -231
6 -93 17 -235 23 -315 7 -80 12 -147 10 -149 -2 -2 -43 4 -91 13 -92 17 -130
20 -120 10 3 -3 52 -14 109 -23 l103 -18 11 -129 c6 -71 10 -130 9 -131 -1 -2
-35 1 -76 7 -90 11 -145 13 -135 3 4 -5 11 -8 14 -9 143 -10 194 -18 197 -27
2 -7 6 -56 10 -109 6 -95 6 -97 -17 -101 -13 -2 23 -5 80 -6 l102 -1 -1 28 c0
25 -1 25 -9 6 -7 -17 -16 -21 -47 -19 l-38 3 -7 63 c-3 35 -13 161 -22 279 -9
118 -23 301 -31 405 -8 105 -19 255 -25 335 -5 80 -12 189 -16 243 l-7 97 -69
0 c-62 0 -69 -2 -77 -22z"/>
<path d="M5890 2595 l0 -94 -67 -4 -68 -3 68 -2 67 -2 0 -106 c0 -84 -3 -109
-15 -118 -13 -9 -10 -11 14 -11 22 0 27 3 19 12 -7 9 11 13 79 16 l88 3 -88 2
-88 2 3 200 c2 110 0 200 -4 200 -5 0 -8 -43 -8 -95z"/>
<path d="M6080 2600 l0 -90 33 1 c22 1 25 3 10 6 -26 5 -37 46 -32 122 2 28 1
51 -3 51 -5 0 -8 -40 -8 -90z"/>
<path d="M3982 2630 c0 -14 2 -19 5 -12 2 6 2 18 0 25 -3 6 -5 1 -5 -13z"/>
<path d="M6248 2583 l-3 -58 -48 0 c-26 0 -47 -4 -47 -8 0 -5 22 -7 50 -5 38
2 50 -1 54 -12 2 -8 4 20 5 63 1 90 -7 104 -11 20z"/>
<path d="M6646 2608 c-4 -18 -8 -43 -9 -55 -2 -22 -6 -23 -86 -23 -60 0 -82
-3 -74 -11 7 -7 40 -8 97 -3 l86 7 0 58 c0 66 -5 74 -14 27z"/>
<path d="M4798 2595 c2 -19 6 -35 8 -35 2 0 4 16 4 35 0 19 -4 35 -8 35 -4 0
-6 -16 -4 -35z"/>
<path d="M5702 2613 c-1 -12 -6 -24 -11 -27 -5 -3 -9 -21 -9 -40 l0 -34 89 0
c52 0 89 4 89 10 0 6 -25 9 -57 8 -95 -4 -92 -6 -96 53 -2 28 -4 42 -5 30z"/>
<path d="M4575 2603 c40 -10 219 -63 222 -67 4 -4 14 -135 34 -441 6 -104 15
-208 19 -230 l8 -40 1 40 c0 22 -8 155 -19 295 -11 140 -20 284 -20 320 l0 66
-109 32 c-60 18 -120 31 -133 31 -20 -1 -21 -2 -3 -6z"/>
<path d="M3780 2556 c0 -28 4 -45 10 -41 5 3 7 23 4 43 -8 53 -14 53 -14 -2z"/>
<path d="M6063 2545 c0 -33 2 -45 4 -27 2 18 2 45 0 60 -2 15 -4 0 -4 -33z"/>
<path d="M6447 2593 c-8 -18 -7 -73 3 -73 5 0 10 18 10 40 0 38 -4 49 -13 33z"/>
<path d="M6273 2540 c-1 -43 1 -49 7 -27 5 15 5 39 1 55 -7 21 -8 15 -8 -28z"/>
<path d="M3970 2565 c0 -5 5 -17 10 -25 5 -8 10 -10 10 -5 0 6 -5 17 -10 25
-5 8 -10 11 -10 5z"/>
<path d="M5490 2550 c0 -11 4 -20 8 -20 4 0 8 9 9 20 1 11 -2 20 -8 20 -5 0
-9 -9 -9 -20z"/>
<path d="M3950 2545 c0 -12 -14 -15 -64 -15 -36 0 -68 -5 -71 -11 -5 -7 16
-10 69 -7 71 3 76 4 76 26 0 12 -2 22 -5 22 -3 0 -5 -7 -5 -15z"/>
<path d="M4012 2520 c0 -19 2 -27 5 -17 2 9 2 25 0 35 -3 9 -5 1 -5 -18z"/>
<path d="M5872 2530 c0 -14 2 -19 5 -12 2 6 2 18 0 25 -3 6 -5 1 -5 -13z"/>
<path d="M4981 2526 c2 -2 15 -9 29 -15 24 -11 24 -11 6 3 -16 13 -49 24 -35
12z"/>
<path d="M5320 2526 c0 -9 37 -12 55 -5 15 6 11 8 -17 8 -21 1 -38 -1 -38 -3z"/>
<path d="M3970 2510 c0 -5 -47 -11 -107 -13 l-108 -3 116 -2 c97 -2 116 0 116
13 0 8 -4 15 -9 15 -4 0 -8 -4 -8 -10z"/>
<path d="M5300 2162 c0 -226 -3 -341 -10 -337 -5 3 -10 -1 -10 -10 0 -9 5 -13
10 -10 7 4 11 -84 11 -257 1 -145 4 -249 6 -233 3 17 10 36 16 44 9 12 9 13 0
7 -10 -6 -13 22 -13 123 l0 131 70 0 c60 0 70 2 70 18 0 12 -2 14 -8 4 -13
-19 -112 -13 -113 7 0 12 -3 11 -9 -4 -6 -13 -9 12 -9 73 -1 51 3 91 7 88 4
-2 14 -1 22 5 12 7 10 9 -7 9 l-23 0 0 216 c0 185 2 215 14 205 9 -8 44 -11
98 -8 l83 3 -87 2 c-72 2 -88 5 -88 18 0 8 -4 12 -10 9 -6 -4 -10 35 -10 109
0 114 0 116 23 116 12 0 28 4 34 8 7 5 -4 8 -27 7 l-40 0 0 -343z"/>
<path d="M5505 2500 c4 -6 11 -8 16 -5 14 9 11 15 -7 15 -8 0 -12 -5 -9 -10z"/>
<path d="M6450 2500 c0 -6 7 -10 15 -10 8 0 15 2 15 4 0 2 -7 6 -15 10 -8 3
-15 1 -15 -4z"/>
<path d="M6635 2500 c-3 -5 1 -10 9 -10 9 0 16 5 16 10 0 6 -4 10 -9 10 -6 0
-13 -4 -16 -10z"/>
<path d="M5693 2493 c9 -2 23 -2 30 0 6 3 -1 5 -18 5 -16 0 -22 -2 -12 -5z"/>
<path d="M6080 2380 c0 -78 4 -120 11 -120 5 0 7 5 4 10 -4 6 25 10 79 10 83
0 86 1 85 23 -1 16 -2 18 -6 5 -4 -15 -17 -18 -83 -18 l-79 0 0 97 c0 64 5
100 12 105 8 5 6 8 -5 8 -16 0 -18 -12 -18 -120z"/>
<path d="M5703 2445 c0 -22 2 -30 4 -17 2 12 2 30 0 40 -3 9 -5 -1 -4 -23z"/>
<path d="M6650 2379 c0 -65 -4 -109 -11 -116 -9 -9 -7 -11 6 -9 16 2 17 14 16
112 -1 59 -4 111 -7 113 -2 2 -4 -43 -4 -100z"/>
<path d="M4435 2380 c11 -164 18 -225 25 -244 5 -13 7 -1 4 34 l-4 55 15 -33
c9 -18 13 -37 10 -42 -3 -5 -1 -11 4 -14 5 -3 14 8 21 24 14 34 6 85 -12 74
-7 -4 -8 -3 -4 4 9 15 -14 103 -25 96 -5 -3 -9 7 -9 23 -1 15 -7 42 -15 58
-14 29 -14 27 -10 -35z m75 -196 c0 -8 -4 -14 -10 -14 -5 0 -10 9 -10 21 0 11
5 17 10 14 6 -3 10 -13 10 -21z"/>
<path d="M5282 2390 c0 -14 2 -19 5 -12 2 6 2 18 0 25 -3 6 -5 1 -5 -13z"/>
<path d="M3780 2390 c0 -5 5 -10 10 -10 6 0 10 5 10 10 0 6 -4 10 -10 10 -5 0
-10 -4 -10 -10z"/>
<path d="M5330 2388 c0 -5 38 -8 85 -8 47 0 85 3 85 8 0 4 -38 7 -85 7 -47 0
-85 -3 -85 -7z"/>
<path d="M5610 2390 l-75 -6 78 -2 c46 -1 77 2 77 8 0 6 -1 9 -2 8 -2 -1 -37
-4 -78 -8z"/>
<path d="M5700 2390 c0 -5 5 -10 11 -10 5 0 7 5 4 10 -3 6 -8 10 -11 10 -2 0
-4 -4 -4 -10z"/>
<path d="M5800 2390 l-75 -6 78 -2 c46 -1 77 2 77 8 0 6 -1 9 -2 8 -2 -1 -37
-4 -78 -8z"/>
<path d="M6180 2390 l-75 -6 78 -2 c46 -1 77 2 77 8 0 6 -1 9 -2 8 -2 -1 -37
-4 -78 -8z"/>
<path d="M6370 2390 l-75 -6 78 -2 c46 -1 77 2 77 8 0 6 -1 9 -2 8 -2 -1 -37
-4 -78 -8z"/>
<path d="M3858 2383 c18 -2 45 -2 60 0 15 2 0 4 -33 4 -33 0 -45 -2 -27 -4z"/>
<path d="M5947 2383 c18 -2 50 -2 70 0 21 2 7 4 -32 4 -38 0 -55 -2 -38 -4z"/>
<path d="M6488 2383 c7 -3 16 -2 19 1 4 3 -2 6 -13 5 -11 0 -14 -3 -6 -6z"/>
<path d="M5700 2350 c0 -11 4 -20 9 -20 5 0 7 9 4 20 -3 11 -7 20 -9 20 -2 0
-4 -9 -4 -20z"/>
<path d="M5282 2330 c0 -19 2 -27 5 -17 2 9 2 25 0 35 -3 9 -5 1 -5 -18z"/>
<path d="M5670 2340 c-13 -8 -12 -10 3 -10 9 0 17 5 17 10 0 12 -1 12 -20 0z"/>
<path d="M3818 2333 c7 -3 16 -2 19 1 4 3 -2 6 -13 5 -11 0 -14 -3 -6 -6z"/>
<path d="M5618 2333 c7 -3 16 -2 19 1 4 3 -2 6 -13 5 -11 0 -14 -3 -6 -6z"/>
<path d="M5848 2333 c6 -2 18 -2 25 0 6 3 1 5 -13 5 -14 0 -19 -2 -12 -5z"/>
<path d="M6118 2333 c7 -3 16 -2 19 1 4 3 -2 6 -13 5 -11 0 -14 -3 -6 -6z"/>
<path d="M6173 2333 c15 -2 37 -2 50 0 12 2 0 4 -28 4 -27 0 -38 -2 -22 -4z"/>
<path d="M6318 2333 c6 -2 18 -2 25 0 6 3 1 5 -13 5 -14 0 -19 -2 -12 -5z"/>
<path d="M6373 2333 c9 -2 23 -2 30 0 6 3 -1 5 -18 5 -16 0 -22 -2 -12 -5z"/>
<path d="M5701 2303 c-1 -22 1 -23 92 -21 l92 2 -87 3 c-72 3 -87 7 -91 21 -3
12 -5 11 -6 -5z"/>
<path d="M3833 2283 c26 -2 67 -2 90 0 23 2 2 3 -48 3 -49 0 -68 -1 -42 -3z"/>
<path d="M3988 2283 c6 -2 18 -2 25 0 6 3 1 5 -13 5 -14 0 -19 -2 -12 -5z"/>
<path d="M5363 2283 c26 -2 68 -2 95 0 26 2 4 3 -48 3 -52 0 -74 -1 -47 -3z"/>
<path d="M5563 2283 c26 -2 67 -2 90 0 23 2 2 3 -48 3 -49 0 -68 -1 -42 -3z"/>
<path d="M6323 2283 c26 -2 67 -2 90 0 23 2 2 3 -48 3 -49 0 -68 -1 -42 -3z"/>
<path d="M6488 2283 c6 -2 18 -2 25 0 6 3 1 5 -13 5 -14 0 -19 -2 -12 -5z"/>
<path d="M3776 2261 c-15 -23 14 -31 104 -29 l85 2 -87 3 c-72 3 -87 7 -90 21
-3 14 -5 14 -12 3z"/>
<path d="M3958 2263 c6 -2 18 -2 25 0 6 3 1 5 -13 5 -14 0 -19 -2 -12 -5z"/>
<path d="M5282 2245 c0 -16 2 -22 5 -12 2 9 2 23 0 30 -3 6 -5 -1 -5 -18z"/>
<path d="M5498 2263 c6 -2 18 -2 25 0 6 3 1 5 -13 5 -14 0 -19 -2 -12 -5z"/>
<path d="M5688 2263 c6 -2 18 -2 25 0 6 3 1 5 -13 5 -14 0 -19 -2 -12 -5z"/>
<path d="M6258 2263 c6 -2 18 -2 25 0 6 3 1 5 -13 5 -14 0 -19 -2 -12 -5z"/>
<path d="M6448 2263 c6 -2 18 -2 25 0 6 3 1 5 -13 5 -14 0 -19 -2 -12 -5z"/>
<path d="M5520 2238 c0 -5 82 -8 183 -7 100 0 178 2 172 5 -19 7 -355 9 -355
2z"/>
<path d="M5890 1936 c0 -303 0 -308 -20 -303 -11 3 -20 1 -20 -4 0 -5 9 -9 20
-9 19 0 20 -7 20 -125 l0 -125 -89 0 c-85 0 -90 1 -94 23 l-4 22 -2 -22 c-1
-19 -8 -22 -53 -26 -29 -2 24 -4 117 -4 94 0 162 1 153 4 -16 4 -18 18 -18
118 0 81 4 115 13 118 10 4 10 6 0 6 -10 1 -13 27 -13 95 0 94 0 94 28 105 27
11 27 11 1 6 l-26 -5 -2 211 -2 211 85 -4 c53 -2 86 1 86 7 0 6 -37 10 -90 10
l-90 0 0 -309z"/>
<path d="M6270 2238 c0 -5 42 -7 93 -6 94 1 82 5 -31 10 -34 2 -62 0 -62 -4z"/>
<path d="M3986 2231 c-4 -5 3 -7 14 -4 23 6 26 13 6 13 -8 0 -17 -4 -20 -9z"/>
<path d="M6080 2030 c0 -115 3 -210 8 -210 4 0 6 93 5 206 l-2 205 85 -3 c46
-2 84 0 84 5 0 4 -40 7 -90 7 l-90 0 0 -210z"/>
<path d="M6483 2233 c9 -2 23 -2 30 0 6 3 -1 5 -18 5 -16 0 -22 -2 -12 -5z"/>
<path d="M6648 2210 c2 -16 6 -30 8 -30 2 0 4 14 4 30 0 17 -4 30 -8 30 -5 0
-7 -13 -4 -30z"/>
<path d="M5702 2200 c0 -14 2 -19 5 -12 2 6 2 18 0 25 -3 6 -5 1 -5 -13z"/>
<path d="M5284 2100 c0 -63 1 -89 3 -57 2 31 2 83 0 115 -2 31 -3 5 -3 -58z"/>
<path d="M5330 2178 c0 -5 38 -8 85 -8 47 0 85 3 85 8 0 4 -38 7 -85 7 -47 0
-85 -3 -85 -7z"/>
<path d="M6205 2180 l-50 -7 53 -1 c29 -1 52 2 52 8 0 6 -1 9 -2 8 -2 0 -25
-4 -53 -8z"/>
<path d="M3818 2173 c23 -2 61 -2 85 0 23 2 4 4 -43 4 -47 0 -66 -2 -42 -4z"/>
<path d="M5608 2173 c18 -2 45 -2 60 0 15 2 0 4 -33 4 -33 0 -45 -2 -27 -4z"/>
<path d="M5728 2173 c7 -3 16 -2 19 1 4 3 -2 6 -13 5 -11 0 -14 -3 -6 -6z"/>
<path d="M5788 2173 c18 -2 45 -2 60 0 15 2 0 4 -33 4 -33 0 -45 -2 -27 -4z"/>
<path d="M5948 2173 c17 -2 47 -2 65 0 17 2 3 4 -33 4 -36 0 -50 -2 -32 -4z"/>
<path d="M6118 2173 c7 -3 16 -2 19 1 4 3 -2 6 -13 5 -11 0 -14 -3 -6 -6z"/>
<path d="M6277 2173 c-11 -10 -8 -93 2 -93 6 0 8 19 4 45 l-5 44 94 4 93 3
-91 2 c-50 1 -94 -1 -97 -5z"/>
<path d="M6488 2173 c7 -3 16 -2 19 1 4 3 -2 6 -13 5 -11 0 -14 -3 -6 -6z"/>
<path d="M5692 2145 c-16 -34 -15 -65 1 -65 8 0 7 -4 -3 -11 -12 -8 -11 -9 5
-7 13 3 19 10 17 23 -1 11 -3 35 -3 53 -1 39 -3 39 -17 7z"/>
<path d="M4527 2140 c3 -11 7 -20 9 -20 2 0 4 9 4 20 0 11 -4 20 -9 20 -5 0
-7 -9 -4 -20z"/>
<path d="M6063 2110 c0 -30 2 -43 4 -27 2 15 2 39 0 55 -2 15 -4 2 -4 -28z"/>
<path d="M6253 2085 c0 -44 2 -61 4 -37 2 23 2 59 0 80 -2 20 -4 1 -4 -43z"/>
<path d="M6446 2138 c-8 -33 -7 -78 2 -78 5 0 9 23 11 50 2 53 -3 64 -13 28z"/>
<path d="M6639 2158 c-8 -30 -5 -56 5 -52 15 6 19 54 5 54 -5 0 -9 -1 -10 -2z"/>
<path d="M3953 2105 c0 -27 2 -38 4 -22 2 15 2 37 0 50 -2 12 -4 0 -4 -28z"/>
<path d="M5323 2110 l0 -45 64 3 c79 5 83 17 6 17 l-58 0 -6 35 c-7 33 -7 32
-6 -10z"/>
<path d="M5491 2126 c-1 -16 -8 -34 -17 -41 -15 -11 -15 -12 4 -17 16 -5 21 0
24 22 2 15 1 36 -3 46 -6 15 -8 13 -8 -10z"/>
<path d="M7207 2129 c4 -13 8 -18 11 -10 2 7 -1 18 -6 23 -8 8 -9 4 -5 -13z"/>
<path d="M3971 2123 c0 -5 4 -17 9 -28 8 -18 9 -17 9 8 1 15 -3 27 -9 27 -5 0
-10 -3 -9 -7z"/>
<path d="M4012 2105 c0 -16 2 -22 5 -12 2 9 2 23 0 30 -3 6 -5 -1 -5 -18z"/>
<path d="M5872 2080 c0 -14 2 -19 5 -12 2 6 2 18 0 25 -3 6 -5 1 -5 -13z"/>
<path d="M3795 2078 c18 -11 134 -12 145 -1 3 2 -25 3 -63 2 -37 -1 -70 1 -74
4 -3 4 -11 7 -17 7 -6 0 -2 -6 9 -12z"/>
<path d="M6470 2079 c0 -10 81 -15 116 -8 20 4 6 7 -44 10 -39 2 -72 1 -72 -2z"/>
<path d="M5773 2073 c15 -2 37 -2 50 0 12 2 0 4 -28 4 -27 0 -38 -2 -22 -4z"/>
<path d="M6118 2073 c6 -2 18 -2 25 0 6 3 1 5 -13 5 -14 0 -19 -2 -12 -5z"/>
<path d="M6178 2073 c12 -2 32 -2 45 0 12 2 2 4 -23 4 -25 0 -35 -2 -22 -4z"/>
<path d="M4142 2010 c0 -14 2 -19 5 -12 2 6 2 18 0 25 -3 6 -5 1 -5 -13z"/>
<path d="M5701 1984 c0 -11 3 -14 6 -6 3 7 2 16 -1 19 -3 4 -6 -2 -5 -13z"/>
<path d="M5281 1964 c0 -11 3 -14 6 -6 3 7 2 16 -1 19 -3 4 -6 -2 -5 -13z"/>
<path d="M7691 1964 c0 -11 3 -14 6 -6 3 7 2 16 -1 19 -3 4 -6 -2 -5 -13z"/>
<path d="M3858 1963 c12 -2 32 -2 45 0 12 2 2 4 -23 4 -25 0 -35 -2 -22 -4z"/>
<path d="M5338 1963 c6 -2 18 -2 25 0 6 3 1 5 -13 5 -14 0 -19 -2 -12 -5z"/>
<path d="M5768 1963 c23 -2 59 -2 80 0 20 2 1 4 -43 4 -44 0 -61 -2 -37 -4z"/>
<path d="M5938 1963 c12 -2 32 -2 45 0 12 2 2 4 -23 4 -25 0 -35 -2 -22 -4z"/>
<path d="M6163 1963 c15 -2 39 -2 55 0 15 2 2 4 -28 4 -30 0 -43 -2 -27 -4z"/>
<path d="M6343 1963 c15 -2 37 -2 50 0 12 2 0 4 -28 4 -27 0 -38 -2 -22 -4z"/>
<path d="M5703 1915 c0 -22 2 -30 4 -17 2 12 2 30 0 40 -3 9 -5 -1 -4 -23z"/>
<path d="M4150 1923 c0 -4 61 -18 136 -30 74 -11 138 -24 141 -27 3 -3 10 -66
16 -141 5 -74 13 -135 16 -135 7 0 -6 281 -14 288 -4 5 -162 34 -247 46 -27 4
-48 4 -48 -1z"/>
<path d="M5281 1914 c0 -11 3 -14 6 -6 3 7 2 16 -1 19 -3 4 -6 -2 -5 -13z"/>
<path d="M3837 1913 c18 -2 50 -2 70 0 21 2 7 4 -32 4 -38 0 -55 -2 -38 -4z"/>
<path d="M5363 1913 c26 -2 68 -2 95 0 26 2 4 3 -48 3 -52 0 -74 -1 -47 -3z"/>
<path d="M5623 1913 c15 -2 37 -2 50 0 12 2 0 4 -28 4 -27 0 -38 -2 -22 -4z"/>
<path d="M5768 1913 c23 -2 59 -2 80 0 20 2 1 4 -43 4 -44 0 -61 -2 -37 -4z"/>
<path d="M5943 1913 c15 -2 37 -2 50 0 12 2 0 4 -28 4 -27 0 -38 -2 -22 -4z"/>
<path d="M6028 1913 c7 -3 16 -2 19 1 4 3 -2 6 -13 5 -11 0 -14 -3 -6 -6z"/>
<path d="M6178 1913 c12 -2 32 -2 45 0 12 2 2 4 -23 4 -25 0 -35 -2 -22 -4z"/>
<path d="M6343 1913 c20 -2 54 -2 75 0 20 2 3 4 -38 4 -41 0 -58 -2 -37 -4z"/>
<path d="M4465 1873 c12 -12 82 -25 256 -49 l127 -18 6 -44 c3 -25 6 -82 6
-128 0 -45 5 -86 10 -89 6 -3 10 4 10 17 0 41 -19 250 -23 254 -2 2 -77 16
-168 30 -228 37 -236 38 -224 27z"/>
<path d="M5281 1864 c0 -11 3 -14 6 -6 3 7 2 16 -1 19 -3 4 -6 -2 -5 -13z"/>
<path d="M3980 1851 c0 -10 -7 -21 -15 -25 -22 -8 -18 -26 5 -26 16 0 20 7 20
35 0 19 -2 35 -5 35 -3 0 -5 -9 -5 -19z"/>
<path d="M5368 1863 c12 -2 32 -2 45 0 12 2 2 4 -23 4 -25 0 -35 -2 -22 -4z"/>
<path d="M5683 1863 c9 -2 23 -2 30 0 6 3 -1 5 -18 5 -16 0 -22 -2 -12 -5z"/>
<path d="M5758 1863 c17 -2 47 -2 65 0 17 2 3 4 -33 4 -36 0 -50 -2 -32 -4z"/>
<path d="M6651 1855 c0 -12 -7 -27 -13 -34 -10 -11 -10 -14 0 -18 6 -3 13 -17
13 -31 1 -27 1 -26 8 3 5 22 3 31 -8 34 -11 2 -11 5 -2 11 7 4 11 18 8 31 -4
20 -4 21 -6 4z"/>
<path d="M5701 1844 c-1 -6 -11 -16 -23 -21 -23 -11 -23 -11 5 -18 35 -9 43
-2 29 27 -6 13 -11 18 -11 12z"/>
<path d="M3775 1820 c-8 -13 8 -18 29 -10 19 6 19 7 -2 12 -12 4 -24 2 -27 -2z"/>
<path d="M5515 1821 c6 -11 4 -13 -8 -8 -10 3 -17 2 -17 -3 0 -6 19 -9 43 -9
23 1 33 4 22 6 -11 3 -26 10 -34 17 -12 9 -13 8 -6 -3z"/>
<path d="M5870 1823 c0 -5 -22 -6 -49 -5 -27 2 -56 0 -64 -5 -10 -5 11 -8 54
-9 51 0 69 3 69 13 0 7 -2 13 -5 13 -3 0 -5 -3 -5 -7z"/>
<path d="M6061 1814 c0 -11 3 -14 6 -6 3 7 2 16 -1 19 -3 4 -6 -2 -5 -13z"/>
<path d="M6257 1823 c-13 -12 -7 -23 13 -23 11 0 20 7 20 15 0 15 -21 21 -33
8z"/>
<path d="M6458 1823 c7 -3 16 -2 19 1 4 3 -2 6 -13 5 -11 0 -14 -3 -6 -6z"/>
<path d="M3853 1813 c15 -2 37 -2 50 0 12 2 0 4 -28 4 -27 0 -38 -2 -22 -4z"/>
<path d="M4010 1809 c0 -5 5 -7 10 -4 6 3 10 8 10 11 0 2 -4 4 -10 4 -5 0 -10
-5 -10 -11z"/>
<path d="M5373 1813 c9 -2 25 -2 35 0 9 3 1 5 -18 5 -19 0 -27 -2 -17 -5z"/>
<path d="M5590 1810 c-18 -12 -2 -12 25 0 13 6 15 9 5 9 -8 0 -22 -4 -30 -9z"/>
<path d="M5968 1813 c7 -3 16 -2 19 1 4 3 -2 6 -13 5 -11 0 -14 -3 -6 -6z"/>
<path d="M6178 1813 c12 -2 32 -2 45 0 12 2 2 4 -23 4 -25 0 -35 -2 -22 -4z"/>
<path d="M6310 1813 c0 -5 25 -8 55 -8 30 0 55 3 55 8 0 4 -25 7 -55 7 -30 0
-55 -3 -55 -7z"/>
<path d="M6538 1813 c7 -3 16 -2 19 1 4 3 -2 6 -13 5 -11 0 -14 -3 -6 -6z"/>
<path d="M6080 1725 c0 -47 3 -85 8 -85 4 0 7 38 7 85 0 47 -3 85 -7 85 -5 0
-8 -38 -8 -85z"/>
<path d="M6448 1803 c6 -2 18 -2 25 0 6 3 1 5 -13 5 -14 0 -19 -2 -12 -5z"/>
<path d="M3982 1740 c0 -19 2 -27 5 -17 2 9 2 25 0 35 -3 9 -5 1 -5 -18z"/>
<path d="M5281 1754 c0 -11 3 -14 6 -6 3 7 2 16 -1 19 -3 4 -6 -2 -5 -13z"/>
<path d="M3883 1753 c9 -2 23 -2 30 0 6 3 -1 5 -18 5 -16 0 -22 -2 -12 -5z"/>
<path d="M3938 1753 c7 -3 16 -2 19 1 4 3 -2 6 -13 5 -11 0 -14 -3 -6 -6z"/>
<path d="M5363 1753 c9 -2 23 -2 30 0 6 3 -1 5 -18 5 -16 0 -22 -2 -12 -5z"/>
<path d="M5468 1753 c6 -2 18 -2 25 0 6 3 1 5 -13 5 -14 0 -19 -2 -12 -5z"/>
<path d="M5558 1753 c23 -2 61 -2 85 0 23 2 4 4 -43 4 -47 0 -66 -2 -42 -4z"/>
<path d="M5763 1753 c20 -2 54 -2 75 0 20 2 3 4 -38 4 -41 0 -58 -2 -37 -4z"/>
<path d="M6128 1753 c6 -2 18 -2 25 0 6 3 1 5 -13 5 -14 0 -19 -2 -12 -5z"/>
<path d="M6252 1693 c-2 -56 1 -73 12 -73 17 0 24 35 15 75 -6 26 -7 23 -10
-20 -2 -48 -3 -47 -9 20 l-6 70 -2 -72z"/>
<path d="M5283 1655 c0 -38 2 -53 4 -32 2 20 2 52 0 70 -2 17 -4 1 -4 -38z"/>
<path d="M5686 1688 c-10 -69 -11 -68 78 -66 l81 2 -68 5 c-37 3 -67 9 -67 14
1 56 -2 77 -10 77 -5 0 -11 -15 -14 -32z"/>
<path d="M6640 1710 c-13 -8 -12 -10 3 -10 9 0 17 5 17 10 0 12 -1 12 -20 0z"/>
<path d="M3778 1688 c-5 -27 0 -48 11 -48 8 0 6 58 -2 66 -2 3 -7 -6 -9 -18z"/>
<path d="M3951 1672 l-1 -44 -60 4 c-33 1 -60 0 -60 -4 0 -5 34 -8 75 -8 l75
0 1 -37 c1 -26 3 -30 6 -14 6 31 -5 73 -17 66 -6 -3 -10 3 -10 14 0 12 5 21
10 21 6 0 10 -5 10 -12 0 -6 3 -8 7 -4 5 4 1 13 -8 19 -9 7 -18 19 -22 27 -3
8 -6 -5 -6 -28z"/>
<path d="M5490 1699 c0 -5 5 -7 10 -4 6 3 10 8 10 11 0 2 -4 4 -10 4 -5 0 -10
-5 -10 -11z"/>
<path d="M6063 1655 c0 -33 2 -45 4 -27 2 18 2 45 0 60 -2 15 -4 0 -4 -33z"/>
<path d="M6445 1699 c-10 -15 4 -81 16 -74 5 4 6 12 2 18 -4 6 -6 24 -5 39 2
29 -2 35 -13 17z"/>
<path d="M5872 1670 c0 -14 2 -19 5 -12 2 6 2 18 0 25 -3 6 -5 1 -5 -13z"/>
<path d="M6630 1664 c0 -16 4 -23 12 -18 6 4 8 3 4 -4 -4 -6 -38 -11 -82 -11
-42 0 -79 -2 -82 -5 -3 -3 35 -6 85 -6 96 0 105 5 95 53 -6 27 -32 21 -32 -9z"/>
<path d="M5490 1654 c0 -19 -4 -25 -15 -20 -8 3 -15 1 -15 -4 0 -6 15 -10 33
-9 17 0 26 3 20 6 -8 3 -11 14 -7 29 4 15 2 24 -5 24 -6 0 -11 -12 -11 -26z"/>
<path d="M3773 1623 c9 -2 23 -2 30 0 6 3 -1 5 -18 5 -16 0 -22 -2 -12 -5z"/>
<path d="M6118 1623 c23 -2 61 -2 85 0 23 2 4 4 -43 4 -47 0 -66 -2 -42 -4z"/>
<path d="M3797 1603 c-3 -5 33 -8 79 -8 46 0 84 3 84 8 0 4 -36 7 -79 7 -44 0
-82 -3 -84 -7z"/>
<path d="M5330 1601 c0 -7 32 -11 86 -11 47 0 83 4 80 9 -8 12 -166 14 -166 2z"/>
<path d="M5704 1585 c-4 -14 -4 -29 0 -32 3 -4 6 3 6 15 0 21 4 22 88 22 60 0
82 3 72 10 -8 5 -48 10 -87 10 -70 0 -73 -1 -79 -25z"/>
<path d="M6086 1595 c-3 -9 -6 -63 -6 -120 0 -73 -4 -105 -12 -108 -7 -3 -4
-6 7 -6 19 -1 20 5 18 114 -1 114 -1 115 23 121 14 4 52 4 84 2 33 -2 60 -1
60 3 0 3 -38 7 -84 8 -69 2 -85 -1 -90 -14z"/>
<path d="M6477 1603 c-3 -5 18 -7 46 -5 86 5 96 9 25 11 -37 0 -69 -2 -71 -6z"/>
<path d="M6654 1495 c0 -66 1 -92 3 -57 2 34 2 88 0 120 -2 31 -3 3 -3 -63z"/>
<path d="M4176 1591 c10 -9 179 -31 238 -31 44 0 41 11 57 -240 6 -107 15
-213 20 -235 5 -28 6 -14 3 45 -5 116 -26 435 -28 437 -1 2 -278 33 -293 33
-4 0 -3 -4 3 -9z"/>
<path d="M4490 1555 c8 -3 96 -14 194 -25 99 -11 180 -21 181 -23 6 -7 25
-295 25 -364 0 -45 5 -85 10 -88 6 -4 10 7 9 27 -1 75 -26 438 -30 441 -7 5
-247 29 -329 33 -41 2 -68 1 -60 -1z"/>
<path d="M5281 1544 c0 -11 3 -14 6 -6 3 7 2 16 -1 19 -3 4 -6 -2 -5 -13z"/>
<path d="M5703 1470 c0 -30 2 -43 4 -27 2 15 2 39 0 55 -2 15 -4 2 -4 -28z"/>
<path d="M5363 1503 c26 -2 68 -2 95 0 26 2 4 3 -48 3 -52 0 -74 -1 -47 -3z"/>
<path d="M5578 1503 c23 -2 59 -2 80 0 20 2 1 4 -43 4 -44 0 -61 -2 -37 -4z"/>
<path d="M5768 1503 c23 -2 59 -2 80 0 20 2 1 4 -43 4 -44 0 -61 -2 -37 -4z"/>
<path d="M5373 1476 c3 -8 2 -16 -2 -18 -12 -4 23 -103 35 -101 6 1 9 -8 7
-20 -2 -12 0 -34 6 -50 10 -27 11 -27 106 -27 57 0 95 -4 95 -10 0 -5 -4 -10
-8 -10 -5 0 -17 -8 -28 -18 -10 -10 -40 -32 -66 -50 -27 -18 -48 -37 -48 -42
0 -5 11 -44 25 -87 29 -91 31 -113 9 -113 -22 0 -12 -24 12 -27 18 -3 18 -2
-1 7 -15 8 -7 9 30 5 48 -5 49 -5 25 9 -14 9 -22 15 -18 16 4 0 1 18 -7 40 -8
22 -12 40 -8 40 3 0 0 6 -7 14 -6 8 -11 23 -10 33 5 43 1 56 -14 44 -11 -10
-14 -9 -12 3 3 20 36 56 52 56 7 0 14 3 16 8 2 4 27 25 56 46 29 21 51 40 49
42 -2 2 -51 4 -109 5 l-106 2 -18 69 c-10 37 -21 68 -25 68 -3 0 -9 18 -13 40
-3 22 -11 40 -17 40 -6 0 -9 -6 -6 -14z"/>
<path d="M5281 1454 c0 -11 3 -14 6 -6 3 7 2 16 -1 19 -3 4 -6 -2 -5 -13z"/>
<path d="M3982 1410 c0 -14 2 -19 5 -12 2 6 2 18 0 25 -3 6 -5 1 -5 -13z"/>
<path d="M5453 1403 c9 -2 25 -2 35 0 9 3 1 5 -18 5 -19 0 -27 -2 -17 -5z"/>
<path d="M5623 1403 c15 -2 37 -2 50 0 12 2 0 4 -28 4 -27 0 -38 -2 -22 -4z"/>
<path d="M5778 1403 c12 -2 32 -2 45 0 12 2 2 4 -23 4 -25 0 -35 -2 -22 -4z"/>
<path d="M4763 1380 c-1 -35 14 -93 16 -63 0 12 4 29 8 39 4 11 3 15 -5 10 -6
-3 -12 3 -15 16 -4 21 -4 21 -4 -2z"/>
<path d="M4780 1392 c0 -4 10 -9 22 -9 18 -2 20 0 8 7 -18 12 -30 13 -30 2z"/>
<path d="M3780 1359 c0 -5 5 -7 10 -4 6 3 10 8 10 11 0 2 -4 4 -10 4 -5 0 -10
-5 -10 -11z"/>
<path d="M3963 1363 c9 -2 23 -2 30 0 6 3 -1 5 -18 5 -16 0 -22 -2 -12 -5z"/>
<path d="M4797 1357 c-3 -8 -2 -29 3 -48 8 -33 8 -33 9 14 1 48 -3 58 -12 34z"/>
<path d="M4821 1354 c0 -11 3 -14 6 -6 3 7 2 16 -1 19 -3 4 -6 -2 -5 -13z"/>
<path d="M5281 1354 c0 -11 3 -14 6 -6 3 7 2 16 -1 19 -3 4 -6 -2 -5 -13z"/>
<path d="M5498 1363 c12 -2 32 -2 45 0 12 2 2 4 -23 4 -25 0 -35 -2 -22 -4z"/>
<path d="M6263 1363 c9 -2 23 -2 30 0 6 3 -1 5 -18 5 -16 0 -22 -2 -12 -5z"/>
<path d="M6448 1363 c6 -2 18 -2 25 0 6 3 1 5 -13 5 -14 0 -19 -2 -12 -5z"/>
<path d="M6643 1363 c9 -2 23 -2 30 0 6 3 -1 5 -18 5 -16 0 -22 -2 -12 -5z"/>
<path d="M6830 1361 c0 -6 4 -13 10 -16 6 -3 7 1 4 9 -7 18 -14 21 -14 7z"/>
<path d="M5700 1320 c0 -16 4 -30 8 -30 5 0 7 14 4 30 -2 17 -6 30 -8 30 -2 0
-4 -13 -4 -30z"/>
<path d="M5889 1258 c-1 -68 -4 -83 -9 -58 -4 19 -8 27 -9 17 -1 -20 -31 -56
-31 -38 0 7 -25 11 -65 11 l-65 0 0 48 0 47 -15 -29 c-20 -37 -20 -92 0 -100
9 -3 18 1 22 9 4 12 9 13 19 4 8 -6 14 -7 14 -2 0 6 21 6 53 2 28 -4 60 -8 70
-8 15 -1 17 -14 17 -138 0 -75 3 -134 6 -130 9 9 10 457 2 457 -5 0 -9 -42 -9
-92z"/>
<path d="M6080 1107 c1 -136 4 -245 8 -243 4 2 6 72 5 154 l-2 150 74 -4 c49
-2 75 0 75 7 0 6 7 3 16 -5 19 -20 24 -20 24 0 0 8 -4 12 -10 9 -6 -4 -11 13
-12 42 -1 43 -2 44 -5 11 l-4 -38 -78 0 -78 0 -1 76 c0 42 -3 79 -7 82 -3 3
-5 -105 -5 -241z"/>
<path d="M6648 1343 c7 -3 16 -2 19 1 4 3 -2 6 -13 5 -11 0 -14 -3 -6 -6z"/>
<path d="M6251 1294 c0 -11 3 -14 6 -6 3 7 2 16 -1 19 -3 4 -6 -2 -5 -13z"/>
<path d="M5478 1293 c7 -3 16 -2 19 1 4 3 -2 6 -13 5 -11 0 -14 -3 -6 -6z"/>
<path d="M5758 1293 c18 -2 45 -2 60 0 15 2 0 4 -33 4 -33 0 -45 -2 -27 -4z"/>
<path d="M5943 1293 c15 -2 37 -2 50 0 12 2 0 4 -28 4 -27 0 -38 -2 -22 -4z"/>
<path d="M6028 1293 c7 -3 16 -2 19 1 4 3 -2 6 -13 5 -11 0 -14 -3 -6 -6z"/>
<path d="M6158 1293 c12 -2 30 -2 40 0 9 3 -1 5 -23 4 -22 0 -30 -2 -17 -4z"/>
<path d="M6313 1293 c9 -2 23 -2 30 0 6 3 -1 5 -18 5 -16 0 -22 -2 -12 -5z"/>
<path d="M6488 1293 c7 -3 16 -2 19 1 4 3 -2 6 -13 5 -11 0 -14 -3 -6 -6z"/>
<path d="M6651 1284 c0 -11 3 -14 6 -6 3 7 2 16 -1 19 -3 4 -6 -2 -5 -13z"/>
<path d="M4840 1285 c0 -5 5 -17 10 -25 5 -8 10 -10 10 -5 0 6 -5 17 -10 25
-5 8 -10 11 -10 5z"/>
<path d="M3980 1228 c0 -18 -5 -40 -10 -48 -7 -11 -10 -3 -11 30 -2 37 -3 39
-6 13 l-4 -33 -79 0 c-73 0 -79 1 -75 20 2 11 0 22 -6 25 -5 4 -9 -12 -9 -34
l0 -41 83 0 c56 0 77 3 67 10 -13 8 -12 10 3 10 9 0 17 -4 17 -10 0 -5 8 -10
18 -10 16 0 19 9 21 50 1 28 -1 50 -4 50 -3 0 -5 -15 -5 -32z"/>
<path d="M6063 1210 c0 -30 2 -43 4 -27 2 15 2 39 0 55 -2 15 -4 2 -4 -28z"/>
<path d="M6271 1228 c-1 -21 4 -38 9 -38 12 0 12 27 0 55 -7 16 -9 13 -9 -17z"/>
<path d="M6645 1250 c3 -5 1 -10 -4 -10 -6 0 -11 -11 -11 -25 0 -27 -10 -29
-113 -26 -32 1 -47 -2 -42 -9 3 -5 1 -10 -4 -10 -6 0 -11 18 -11 41 0 24 -4
38 -10 34 -5 -3 -10 -24 -10 -45 l0 -39 85 3 c46 1 87 5 91 9 7 7 28 -11 37
-33 3 -8 6 15 6 53 1 41 -3 67 -10 67 -5 0 -7 -4 -4 -10z"/>
<path d="M5143 1129 l6 -94 -104 3 c-65 2 -105 -1 -110 -7 -4 -8 28 -11 103
-11 l110 0 7 -111 c4 -60 4 -113 1 -117 -4 -3 -52 -8 -106 -10 -69 -3 -100 -8
-100 -16 0 -9 14 -10 53 -5 28 4 75 8 103 8 l51 1 12 -113 c6 -62 11 -144 11
-183 0 -38 4 -86 9 -106 10 -44 19 -40 -171 -63 -57 -7 -53 -19 -69 225 -7 96
-15 179 -19 183 -4 4 -5 -5 -4 -20 2 -15 8 -109 15 -208 13 -199 8 -187 96
-248 18 -12 33 -25 33 -29 0 -5 -58 -8 -129 -8 l-128 0 -24 36 c-22 32 -27 35
-59 30 -19 -3 -78 -11 -130 -17 -131 -15 -290 -38 -319 -46 -20 -5 -23 -3 -18
10 4 11 0 15 -14 14 -10 -1 -19 -6 -19 -12 -1 -5 -7 1 -15 15 -11 20 -14 21
-15 7 0 -10 -4 -16 -8 -13 -11 6 -68 174 -62 178 3 2 31 23 63 47 32 23 61 40
64 37 6 -6 21 -150 22 -213 1 -31 3 -33 37 -33 19 0 78 5 131 12 l95 11 -6
146 c-4 80 -9 191 -12 246 l-6 100 -131 -3 c-73 -2 -136 -7 -140 -11 -4 -4 -3
-50 3 -101 13 -117 8 -130 -74 -193 l-63 -47 23 -72 c13 -40 24 -76 24 -80 0
-13 -15 -9 -36 10 -10 9 -38 29 -62 45 l-42 27 -50 -34 c-27 -19 -58 -42 -67
-52 -27 -27 -27 -1 1 81 16 46 21 74 14 82 -5 6 -36 31 -69 55 -32 24 -59 45
-59 48 0 3 39 5 87 5 l86 0 26 77 c14 42 29 79 32 83 3 3 12 -16 19 -42 28
-102 38 -119 73 -120 l32 -1 -32 10 c-18 6 -33 15 -33 21 0 5 -12 49 -27 98
-28 88 -43 111 -43 66 0 -13 -7 -32 -15 -43 -8 -10 -15 -29 -15 -41 0 -12 -3
-29 -6 -38 -5 -13 -8 -14 -15 -3 -6 9 -9 2 -9 -19 l0 -33 -95 0 c-86 0 -113
-8 -85 -25 6 -4 9 -14 8 -23 -2 -12 6 -18 28 -22 17 -3 48 -19 69 -36 l38 -31
-18 -45 c-15 -34 -23 -44 -39 -42 -12 1 -31 3 -43 3 -16 1 -23 8 -26 29 -4 26
-4 26 -3 -3 1 -27 5 -30 44 -38 36 -7 42 -12 42 -33 0 -14 -5 -34 -10 -45 -6
-10 -8 -19 -6 -19 3 0 40 25 82 55 42 30 80 55 84 55 11 0 90 -62 90 -71 0 -5
-7 -9 -16 -9 -8 0 -12 5 -9 10 3 6 1 10 -4 10 -6 0 -11 -4 -11 -9 0 -14 -31
-22 -45 -11 -9 8 -12 4 -11 -12 l1 -23 631 -3 c576 -2 632 -1 638 14 4 12 2
15 -9 10 -12 -4 -15 5 -15 57 0 54 -12 226 -38 555 -8 93 -7 94 18 113 14 10
30 23 37 29 7 5 15 10 18 10 3 0 5 -158 5 -351 l0 -351 23 7 c12 4 58 11 102
14 78 6 80 7 83 34 2 15 -1 27 -7 27 -6 0 -11 -11 -11 -25 0 -25 -1 -25 -79
-25 -68 0 -80 3 -84 18 -2 9 -3 4 -1 -11 2 -17 0 -26 -6 -22 -6 3 -10 44 -10
91 0 54 4 83 10 79 6 -3 10 -1 10 4 0 6 -4 11 -10 11 -6 0 -10 93 -10 258 0
277 -3 259 50 292 8 5 12 12 8 15 -5 6 -53 -19 -68 -35 -6 -7 -72 -55 -85 -62
-6 -4 -11 31 -12 95 -2 124 -6 140 -39 162 l-27 17 6 -93z m-1336 -655 c-3 -3
-12 -4 -19 -1 -8 3 -5 6 6 6 11 1 17 -2 13 -5z"/>
<path d="M3837 1133 c18 -2 50 -2 70 0 21 2 7 4 -32 4 -38 0 -55 -2 -38 -4z"/>
<path d="M5593 1133 c26 -2 67 -2 90 0 23 2 2 3 -48 3 -49 0 -68 -1 -42 -3z"/>
<path d="M5758 1133 c18 -2 45 -2 60 0 15 2 0 4 -33 4 -33 0 -45 -2 -27 -4z"/>
<path d="M5858 1133 c7 -3 16 -2 19 1 4 3 -2 6 -13 5 -11 0 -14 -3 -6 -6z"/>
<path d="M5947 1133 c18 -2 50 -2 70 0 21 2 7 4 -32 4 -38 0 -55 -2 -38 -4z"/>
<path d="M6118 1133 c6 -2 18 -2 25 0 6 3 1 5 -13 5 -14 0 -19 -2 -12 -5z"/>
<path d="M6183 1133 c15 -2 39 -2 55 0 15 2 2 4 -28 4 -30 0 -43 -2 -27 -4z"/>
<path d="M6338 1133 c23 -2 61 -2 85 0 23 2 4 4 -43 4 -47 0 -66 -2 -42 -4z"/>
<path d="M5700 1100 c0 -11 4 -20 9 -20 5 0 7 9 4 20 -3 11 -7 20 -9 20 -2 0
-4 -9 -4 -20z"/>
<path d="M6651 1028 c-1 -64 -5 -98 -13 -100 -14 -5 -2 -28 15 -28 9 0 11 26
9 92 -4 132 -9 149 -11 36z"/>
<path d="M6061 1084 c0 -11 3 -14 6 -6 3 7 2 16 -1 19 -3 4 -6 -2 -5 -13z"/>
<path d="M3813 1083 c20 -2 54 -2 75 0 20 2 3 4 -38 4 -41 0 -58 -2 -37 -4z"/>
<path d="M5947 1083 c18 -2 50 -2 70 0 21 2 7 4 -32 4 -38 0 -55 -2 -38 -4z"/>
<path d="M6143 1083 c15 -2 37 -2 50 0 12 2 0 4 -28 4 -27 0 -38 -2 -22 -4z"/>
<path d="M6318 1083 c7 -3 16 -2 19 1 4 3 -2 6 -13 5 -11 0 -14 -3 -6 -6z"/>
<path d="M5701 1054 c0 -11 3 -14 6 -6 3 7 2 16 -1 19 -3 4 -6 -2 -5 -13z"/>
<path d="M4240 1030 c14 -4 76 -8 138 -9 l112 -1 0 -64 c0 -89 11 -186 21
-180 8 4 6 48 -7 202 l-6 62 -141 -1 c-87 -1 -132 -4 -117 -9z"/>
<path d="M4520 1031 c0 -5 81 -8 184 -8 102 1 187 -1 190 -4 3 -3 8 -55 12
-117 4 -62 11 -112 17 -112 9 0 0 226 -10 243 -6 10 -393 9 -393 -2z"/>
<path d="M5702 973 c-1 -24 -6 -43 -12 -43 -5 0 -10 -6 -10 -14 0 -17 27 -29
35 -16 4 6 -2 10 -12 11 -14 0 -15 2 -3 7 12 5 14 17 9 52 l-6 45 -1 -42z"/>
<path d="M3951 974 c0 -11 3 -14 6 -6 3 7 2 16 -1 19 -3 4 -6 -2 -5 -13z"/>
<path d="M3980 980 c0 -5 5 -10 11 -10 5 0 7 5 4 10 -3 6 -8 10 -11 10 -2 0
-4 -4 -4 -10z"/>
<path d="M3818 973 c23 -2 61 -2 85 0 23 2 4 4 -43 4 -47 0 -66 -2 -42 -4z"/>
<path d="M5658 973 c7 -3 16 -2 19 1 4 3 -2 6 -13 5 -11 0 -14 -3 -6 -6z"/>
<path d="M5947 973 c18 -2 50 -2 70 0 21 2 7 4 -32 4 -38 0 -55 -2 -38 -4z"/>
<path d="M6163 973 c15 -2 39 -2 55 0 15 2 2 4 -28 4 -30 0 -43 -2 -27 -4z"/>
<path d="M6313 973 c9 -2 25 -2 35 0 9 3 1 5 -18 5 -19 0 -27 -2 -17 -5z"/>
<path d="M3780 914 c0 -14 3 -14 15 -4 11 9 15 9 15 1 0 -7 5 -9 10 -6 18 11
10 25 -15 25 -16 0 -25 -6 -25 -16z"/>
<path d="M3841 926 c9 -8 99 -13 99 -5 0 5 -23 9 -52 9 -28 0 -49 -2 -47 -4z"/>
<path d="M3950 915 c0 -8 2 -15 4 -15 2 0 6 7 10 15 3 8 1 15 -4 15 -6 0 -10
-7 -10 -15z"/>
<path d="M3976 914 c-3 -8 -1 -14 4 -14 6 0 10 5 10 11 0 8 5 8 15 -1 12 -10
15 -10 15 2 0 18 -37 21 -44 2z"/>
<path d="M5281 914 c0 -11 3 -14 6 -6 3 7 2 16 -1 19 -3 4 -6 -2 -5 -13z"/>
<path d="M5320 914 c0 -8 5 -12 10 -9 6 3 10 10 10 16 0 5 -4 9 -10 9 -5 0
-10 -7 -10 -16z"/>
<path d="M5356 922 c-2 -4 13 -6 35 -4 21 2 39 6 39 8 0 7 -69 4 -74 -4z"/>
<path d="M5735 920 c-3 -5 -1 -10 4 -10 6 0 11 5 11 10 0 6 -2 10 -4 10 -3 0
-8 -4 -11 -10z"/>
<path d="M5765 925 c23 -8 83 -10 79 -3 -3 4 -24 8 -47 7 -23 0 -37 -2 -32 -4z"/>
<path d="M5925 925 c26 -9 105 -12 105 -4 0 5 -26 9 -57 8 -32 0 -53 -2 -48
-4z"/>
<path d="M6061 914 c0 -11 3 -14 6 -6 3 7 2 16 -1 19 -3 4 -6 -2 -5 -13z"/>
<path d="M6110 920 c0 -5 5 -10 11 -10 5 0 7 5 4 10 -3 6 -8 10 -11 10 -2 0
-4 -4 -4 -10z"/>
<path d="M6161 926 c10 -9 79 -14 79 -5 0 5 -19 9 -42 9 -23 0 -39 -2 -37 -4z"/>
<path d="M6250 915 c0 -11 7 -15 23 -13 12 2 22 8 22 13 0 6 -10 11 -22 13
-16 2 -23 -2 -23 -13z"/>
<path d="M6440 921 c0 -17 15 -19 28 -5 11 12 9 14 -8 14 -11 0 -20 -4 -20 -9z"/>
<path d="M6815 920 c-18 -8 -17 -9 8 -9 16 -1 26 3 22 9 -3 6 -7 10 -8 9 -1 0
-11 -4 -22 -9z"/>
<path d="M5276 877 c3 -10 9 -15 12 -12 3 3 0 11 -7 18 -10 9 -11 8 -5 -6z"/>
<path d="M3783 873 c7 -7 149 -4 156 3 2 2 -33 4 -79 4 -46 0 -80 -3 -77 -7z"/>
<path d="M3951 864 c0 -11 3 -14 6 -6 3 7 2 16 -1 19 -3 4 -6 -2 -5 -13z"/>
<path d="M3980 869 c0 -5 5 -7 10 -4 6 3 10 8 10 11 0 2 -4 4 -10 4 -5 0 -10
-5 -10 -11z"/>
<path d="M5892 678 c2 -203 6 -179 10 70 2 72 0 132 -4 132 -5 0 -7 -91 -6
-202z"/>
<path d="M5940 874 c60 -8 130 -8 130 -1 0 4 -35 6 -77 6 -43 -1 -67 -3 -53
-5z"/>
<path d="M6252 860 c0 -14 2 -19 5 -12 2 6 2 18 0 25 -3 6 -5 1 -5 -13z"/>
<path d="M3982 830 c0 -14 2 -19 5 -12 2 6 2 18 0 25 -3 6 -5 1 -5 -13z"/>
<path d="M5700 836 c0 -8 -6 -17 -12 -19 -8 -3 -6 -6 5 -6 11 -1 17 6 17 19 0
11 -2 20 -5 20 -3 0 -5 -6 -5 -14z"/>
<path d="M6060 660 l0 -190 -85 0 -85 0 2 -97 2 -98 3 93 4 92 79 0 79 0 4
-77 c1 -43 4 45 5 195 1 149 0 272 -3 272 -3 0 -5 -85 -5 -190z"/>
<path d="M6080 796 c0 -31 4 -55 9 -52 8 6 4 96 -5 105 -2 2 -4 -21 -4 -53z"/>
<path d="M3950 777 c0 -53 2 -57 23 -56 16 1 18 2 5 6 -10 2 -18 8 -18 13 0 5
8 11 18 13 15 4 15 5 0 6 -12 1 -16 10 -16 31 1 17 -2 33 -5 37 -4 3 -7 -19
-7 -50z"/>
<path d="M6253 775 c0 -33 2 -45 4 -27 2 18 2 45 0 60 -2 15 -4 0 -4 -33z"/>
<path d="M3781 804 c0 -11 3 -14 6 -6 3 7 2 16 -1 19 -3 4 -6 -2 -5 -13z"/>
<path d="M5283 770 c0 -30 2 -43 4 -27 2 15 2 39 0 55 -2 15 -4 2 -4 -28z"/>
<path d="M6633 774 c-1 -24 2 -32 10 -28 7 3 4 -1 -6 -9 -16 -13 -16 -15 -2
-21 14 -5 16 -24 14 -116 -1 -61 1 -114 5 -117 3 -4 6 66 6 154 0 120 -3 162
-12 166 -9 3 -14 -7 -15 -29z"/>
<path d="M5488 788 c-7 -19 2 -38 16 -38 9 0 12 9 8 25 -5 27 -17 33 -24 13z"/>
<path d="M5682 771 c1 -20 5 -28 14 -24 17 6 14 53 -3 53 -6 0 -11 -12 -11
-29z"/>
<path d="M6270 755 c0 -27 2 -46 5 -44 7 8 9 78 2 85 -4 4 -7 -14 -7 -41z"/>
<path d="M6440 760 l0 -40 88 2 87 2 -77 3 -78 4 0 34 c0 19 -4 35 -10 35 -5
0 -10 -18 -10 -40z"/>
<path d="M4012 770 c0 -14 2 -19 5 -12 2 6 2 18 0 25 -3 6 -5 1 -5 -13z"/>
<path d="M5320 779 c0 -5 5 -7 10 -4 6 3 10 8 10 11 0 2 -4 4 -10 4 -5 0 -10
-5 -10 -11z"/>
<path d="M5872 770 c0 -14 2 -19 5 -12 2 6 2 18 0 25 -3 6 -5 1 -5 -13z"/>
<path d="M4860 761 c0 -5 9 -11 20 -14 13 -3 20 0 20 9 0 8 -9 14 -20 14 -11
0 -20 -4 -20 -9z"/>
<path d="M4922 750 c0 -14 2 -19 5 -12 2 6 2 18 0 25 -3 6 -5 1 -5 -13z"/>
<path d="M722 743 c-13 -3 -40 -21 -60 -41 -87 -87 -95 -321 -15 -430 31 -42
72 -62 125 -62 108 0 171 100 170 271 -1 189 -84 288 -220 262z m95 -85 c29
-31 44 -93 44 -181 1 -84 -16 -159 -40 -181 -49 -44 -112 -17 -131 55 -14 53
-15 194 -1 245 21 79 84 109 128 62z"/>
<path d="M1137 742 c-77 -19 -127 -123 -127 -263 0 -173 62 -269 172 -269 63
0 106 31 142 102 26 52 28 67 28 166 1 96 -2 116 -24 164 -14 30 -39 64 -55
76 -33 24 -93 34 -136 24z m83 -72 c34 -18 55 -96 55 -200 -1 -110 -21 -166
-69 -189 -39 -18 -68 -3 -95 51 -30 62 -30 222 0 288 11 24 25 48 32 52 17 11
55 10 77 -2z"/>
<path d="M267 734 c-9 -10 -9 -264 1 -264 4 0 27 5 52 11 35 8 53 7 87 -6 54
-21 73 -48 73 -102 0 -86 -99 -127 -206 -86 -10 4 -14 -4 -14 -30 0 -31 3 -35
31 -41 162 -32 291 64 265 196 -16 82 -84 132 -174 131 l-53 -1 3 66 3 67 105
1 105 2 0 28 0 29 -136 3 c-74 1 -138 -1 -142 -4z"/>
<path d="M4564 628 c3 -62 8 -168 12 -236 5 -107 8 -122 23 -118 9 2 45 8 80
11 l64 7 -6 82 c-4 44 -9 131 -12 191 -3 61 -8 125 -11 143 l-5 32 -76 0 -75
0 6 -112z"/>
<path d="M4860 718 c0 -13 5 -92 12 -175 10 -142 13 -154 36 -175 l25 -23 -6
60 c-4 33 -9 115 -13 183 -5 86 -11 128 -21 138 -21 20 -33 17 -33 -8z m37
-215 c-3 -10 -5 -2 -5 17 0 19 2 27 5 18 2 -10 2 -26 0 -35z m6 -63 c3 -11 1
-23 -4 -26 -5 -3 -9 6 -9 20 0 31 6 34 13 6z m17 -56 c0 -8 -5 -12 -10 -9 -6
4 -8 11 -5 16 9 14 15 11 15 -7z"/>
<path d="M6103 733 c-23 -4 -23 -7 -21 -131 l2 -127 3 123 4 122 24 0 c14 0
25 5 25 10 0 6 -3 9 -7 9 -5 -1 -18 -4 -30 -6z"/>
<path d="M3813 723 c26 -2 67 -2 90 0 23 2 2 3 -48 3 -49 0 -68 -1 -42 -3z"/>
<path d="M5373 723 c15 -2 37 -2 50 0 12 2 0 4 -28 4 -27 0 -38 -2 -22 -4z"/>
<path d="M5498 723 c7 -3 16 -2 19 1 4 3 -2 6 -13 5 -11 0 -14 -3 -6 -6z"/>
<path d="M5687 722 c8 -5 13 -47 16 -127 l3 -120 2 122 c1 86 6 123 15 126 6
3 -1 6 -18 6 -18 0 -25 -2 -18 -7z"/>
<path d="M5768 723 c17 -2 47 -2 65 0 17 2 3 4 -33 4 -36 0 -50 -2 -32 -4z"/>
<path d="M6178 723 c12 -2 32 -2 45 0 12 2 2 4 -23 4 -25 0 -35 -2 -22 -4z"/>
<path d="M2395 713 c-83 -22 -109 -161 -43 -223 46 -42 137 -38 182 9 25 26
28 37 28 91 0 55 -3 66 -29 91 -29 29 -93 44 -138 32z m91 -79 c31 -74 -11
-143 -70 -116 -34 15 -44 72 -22 118 13 28 21 34 46 34 26 0 33 -6 46 -36z"/>
<path d="M4951 704 c0 -11 3 -14 6 -6 3 7 2 16 -1 19 -3 4 -6 -2 -5 -13z"/>
<path d="M1462 588 l3 -123 88 -3 87 -3 0 26 c0 24 -3 25 -55 25 -54 0 -55 0
-55 30 0 29 1 30 50 30 43 0 50 3 50 20 0 17 -7 20 -50 20 -49 0 -50 1 -50 30
0 30 1 30 55 30 48 0 55 2 55 20 0 19 -7 20 -90 20 l-91 0 3 -122z"/>
<path d="M1722 616 c3 -83 6 -97 27 -120 30 -32 81 -42 133 -27 52 16 68 54
68 161 l0 80 -35 0 -35 0 0 -88 c0 -93 -8 -112 -45 -112 -37 0 -45 19 -45 112
l0 88 -36 0 -36 0 4 -94z"/>
<path d="M2036 694 c-8 -20 -8 -81 1 -167 6 -66 7 -68 32 -65 23 3 26 8 29 51
3 41 6 47 26 47 18 0 25 -9 36 -42 13 -47 24 -58 58 -58 28 0 28 17 0 82 -20
46 -20 51 -5 60 11 6 17 22 17 48 0 51 -17 60 -113 60 -59 0 -76 -3 -81 -16z
m128 -40 c9 -22 -11 -44 -40 -44 -20 0 -24 5 -24 30 0 26 3 30 29 30 17 0 31
-6 35 -16z"/>
<path d="M3953 660 c0 -30 2 -43 4 -27 2 15 2 39 0 55 -2 15 -4 2 -4 -28z"/>
<path d="M5273 670 c0 -25 2 -35 4 -22 2 12 2 32 0 45 -2 12 -4 2 -4 -23z"/>
<path d="M4961 589 c0 -24 4 -53 9 -64 6 -13 7 2 3 40 -7 73 -13 85 -12 24z"/>
<path d="M5273 555 c0 -33 2 -45 4 -27 2 18 2 45 0 60 -2 15 -4 0 -4 -33z"/>
<path d="M6251 534 c0 -11 3 -14 6 -6 3 7 2 16 -1 19 -3 4 -6 -2 -5 -13z"/>
<path d="M4220 520 c0 -5 5 -10 11 -10 5 0 7 5 4 10 -3 6 -8 10 -11 10 -2 0
-4 -4 -4 -10z"/>
<path d="M4163 513 c9 -2 23 -2 30 0 6 3 -1 5 -18 5 -16 0 -22 -2 -12 -5z"/>
<path d="M4976 478 c-8 -31 -7 -81 2 -95 4 -6 7 18 7 53 0 35 0 64 -1 64 -1 0
-4 -10 -8 -22z"/>
<path d="M5281 474 c0 -11 3 -14 6 -6 3 7 2 16 -1 19 -3 4 -6 -2 -5 -13z"/>
<path d="M6830 481 c0 -5 5 -13 10 -16 6 -3 10 -2 10 4 0 5 -4 13 -10 16 -5 3
-10 2 -10 -4z"/>
<path d="M5508 463 c7 -3 16 -2 19 1 4 3 -2 6 -13 5 -11 0 -14 -3 -6 -6z"/>
<path d="M5698 463 c7 -3 16 -2 19 1 4 3 -2 6 -13 5 -11 0 -14 -3 -6 -6z"/>
<path d="M6080 386 l0 -85 90 -3 90 -3 -2 50 -1 50 -4 -42 -4 -43 -80 0 -81 0
4 80 c2 44 0 80 -4 80 -5 0 -8 -38 -8 -84z"/>
<path d="M6448 463 c6 -2 18 -2 25 0 6 3 1 5 -13 5 -14 0 -19 -2 -12 -5z"/>
<path d="M6638 463 c6 -2 18 -2 25 0 6 3 1 5 -13 5 -14 0 -19 -2 -12 -5z"/>
<path d="M5272 420 c0 -19 2 -27 5 -17 2 9 2 25 0 35 -3 9 -5 1 -5 -18z"/>
<path d="M5698 415 c-4 -22 -10 -57 -14 -77 l-6 -38 95 0 c67 0 97 -4 100 -12
3 -7 6 -4 6 7 1 19 -4 20 -84 17 l-84 -3 -3 73 c-3 64 -4 68 -10 33z"/>
<path d="M7157 443 c-2 -5 -5 -25 -5 -45 -1 -37 0 -38 32 -38 43 0 60 -19 47
-53 -8 -20 -18 -26 -48 -29 -35 -3 -36 -4 -11 -9 36 -8 70 10 82 43 13 37 -15
64 -71 67 -7 1 -13 12 -13 26 0 23 4 25 40 25 22 0 40 5 40 10 0 11 -87 14
-93 3z"/>
<path d="M7296 425 c-20 -31 -21 -104 0 -133 19 -27 64 -29 86 -4 8 9 18 35
21 57 13 84 -66 143 -107 80z m78 -17 c10 -38 7 -103 -6 -116 -33 -33 -68 -1
-68 63 0 49 16 75 44 75 16 0 26 -7 30 -22z"/>
<path d="M7454 423 c-21 -33 -23 -105 -4 -129 8 -9 26 -20 40 -26 21 -8 28 -5
49 18 20 24 23 35 18 83 -6 59 -23 81 -63 81 -13 0 -29 -11 -40 -27z m74 -47
c4 -64 -4 -96 -25 -96 -24 0 -42 31 -43 73 0 51 16 79 43 75 19 -3 22 -10 25
-52z"/>
<path d="M6646 392 c-2 -4 -7 -24 -11 -45 l-7 -37 -82 -1 c-92 -2 -77 -7 35
-11 l76 -3 2 52 c2 50 -2 63 -13 45z"/>
<path d="M5279 378 c-6 -21 -7 -148 -1 -148 5 0 10 34 11 75 1 41 0 75 -3 75
-4 0 -6 -1 -7 -2z"/>
<path d="M6441 343 c0 -16 4 -37 8 -48 6 -14 8 -7 9 28 1 26 -3 47 -8 47 -6 0
-10 -12 -9 -27z"/>
<path d="M6270 332 c0 -12 4 -22 9 -22 10 0 9 26 -2 36 -4 4 -7 -2 -7 -14z"/>
<path d="M4990 329 c0 -5 5 -7 10 -4 6 3 10 8 10 11 0 2 -4 4 -10 4 -5 0 -10
-5 -10 -11z"/>
<path d="M5048 333 c7 -3 16 -2 19 1 4 3 -2 6 -13 5 -11 0 -14 -3 -6 -6z"/>
<path d="M4045 249 c-4 -6 -5 -12 -2 -15 2 -3 7 2 10 11 7 17 1 20 -8 4z"/>
</g>
</svg>
