<?xml version="1.0" standalone="no"?>
<!DOCTYPE svg PUBLIC "-//W3C//DTD SVG 20010904//EN"
 "http://www.w3.org/TR/2001/REC-SVG-20010904/DTD/svg10.dtd">
<svg version="1.0" xmlns="http://www.w3.org/2000/svg"
 width="640.000000pt" height="346.000000pt" viewBox="0 0 640.000000 346.000000"
 preserveAspectRatio="xMidYMid meet">

<g transform="translate(0.000000,346.000000) scale(0.100000,-0.100000)"
fill="#000000" stroke="none">
<path d="M507 3294 c-4 -4 -7 -14 -7 -23 0 -11 3 -12 11 -4 6 6 10 16 7 23 -2
6 -7 8 -11 4z"/>
<path d="M710 3060 l0 -240 355 0 355 0 0 240 0 240 -355 0 -355 0 0 -240z
m370 160 c0 -5 -7 -10 -15 -10 -8 0 -15 5 -15 10 0 6 7 10 15 10 8 0 15 -4 15
-10z m-85 -30 c-5 -8 -11 -8 -17 -2 -6 6 -7 16 -3 22 5 8 11 8 17 2 6 -6 7
-16 3 -22z m163 8 c-6 -18 -28 -21 -28 -4 0 9 7 16 16 16 9 0 14 -5 12 -12z
m-219 -67 c-3 -6 -10 -7 -18 -2 -7 5 -10 14 -6 21 9 14 29 -2 24 -19z m274 3
c-4 -11 -8 -12 -20 -3 -11 10 -11 14 -1 20 17 10 28 2 21 -17z m-293 -75 c0
-5 -7 -9 -15 -9 -15 0 -20 12 -9 23 8 8 24 -1 24 -14z m315 -9 c-5 -8 -11 -8
-21 1 -12 10 -12 14 -2 20 16 10 33 -5 23 -21z m-290 -59 c7 -12 -12 -24 -25
-16 -11 7 -4 25 10 25 5 0 11 -4 15 -9z m267 -6 c0 -5 -5 -11 -11 -13 -6 -2
-11 4 -11 13 0 9 5 15 11 13 6 -2 11 -8 11 -13z m-212 -66 c0 -5 -7 -9 -15 -9
-15 0 -20 12 -9 23 8 8 24 -1 24 -14z m160 0 c0 -5 -7 -9 -15 -9 -15 0 -20 12
-9 23 8 8 24 -1 24 -14z m-80 -20 c0 -5 -7 -9 -15 -9 -15 0 -20 12 -9 23 8 8
24 -1 24 -14z"/>
<path d="M1730 3261 c0 -39 2 -41 30 -41 29 0 30 2 28 38 -3 32 -7 37 -31 40
-25 3 -27 1 -27 -37z m40 19 c0 -5 -4 -10 -10 -10 -5 0 -10 5 -10 10 0 6 5 10
10 10 6 0 10 -4 10 -10z m5 -40 c-3 -5 -10 -10 -16 -10 -5 0 -9 5 -9 10 0 6 7
10 16 10 8 0 12 -4 9 -10z"/>
<path d="M1822 3288 c-7 -7 -12 -20 -12 -30 0 -22 45 -52 62 -42 9 6 5 10 -12
14 -33 8 -33 40 0 57 l25 13 -25 0 c-15 0 -31 -5 -38 -12z"/>
<path d="M1896 3258 c0 -34 4 -42 22 -44 11 -2 24 1 27 6 3 6 -3 10 -14 10
-12 0 -21 5 -21 10 0 6 9 10 20 10 27 0 25 18 -2 23 -23 4 -23 4 2 15 l25 11
-30 0 c-29 1 -30 -1 -29 -41z"/>
<path d="M2040 3255 c0 -43 1 -45 30 -45 17 0 30 5 30 10 0 6 -9 10 -20 10
-11 0 -20 5 -20 10 0 6 7 10 15 10 8 0 15 5 15 10 0 6 -7 10 -15 10 -23 0 -18
18 8 23 16 3 13 5 -10 6 -33 1 -33 0 -33 -44z"/>
<path d="M2134 3292 c-21 -14 -25 -45 -8 -63 18 -20 54 -26 54 -9 0 6 -9 10
-19 10 -10 0 -22 7 -25 16 -8 20 13 47 31 40 7 -3 13 -1 13 4 0 12 -30 13 -46
2z"/>
<path d="M2202 3258 c3 -44 15 -53 50 -36 11 5 15 17 13 35 -2 16 -4 31 -4 36
-1 4 -15 7 -32 7 -29 0 -30 -1 -27 -42z m41 15 c-7 -2 -19 -2 -25 0 -7 3 -2 5
12 5 14 0 19 -2 13 -5z m7 -33 c0 -5 -7 -10 -15 -10 -8 0 -15 5 -15 10 0 6 7
10 15 10 8 0 15 -4 15 -10z"/>
<path d="M2342 3258 c3 -39 6 -43 31 -46 15 -2 27 1 27 7 0 6 -9 11 -20 11
-11 0 -20 5 -20 10 0 6 9 10 20 10 11 0 20 5 20 10 0 6 -9 10 -20 10 -27 0
-25 18 3 23 15 3 12 5 -11 6 -33 1 -33 1 -30 -41z"/>
<path d="M2428 3293 c27 -5 27 -8 2 -43 l-20 -28 23 -6 c32 -8 47 -7 47 3 0 5
-9 11 -21 13 l-20 3 20 22 c30 32 26 43 -16 42 -24 -1 -29 -3 -15 -6z"/>
<path d="M2500 3261 c0 -45 7 -53 38 -44 17 4 21 12 19 42 -2 31 -6 36 -29 39
-26 3 -28 1 -28 -37z m35 19 c3 -5 -1 -10 -10 -10 -9 0 -13 5 -10 10 3 6 8 10
10 10 2 0 7 -4 10 -10z m5 -40 c0 -5 -4 -10 -10 -10 -5 0 -10 5 -10 10 0 6 5
10 10 10 6 0 10 -4 10 -10z"/>
<path d="M2652 3258 c3 -35 7 -42 26 -43 13 -1 25 2 28 7 3 4 -4 8 -15 8 -12
0 -21 5 -21 10 0 6 7 10 15 10 21 0 19 18 -2 23 -15 3 -14 6 7 15 25 11 25 11
-8 11 -33 1 -33 1 -30 -41z"/>
<path d="M2730 3253 c1 -42 2 -46 14 -31 12 16 14 16 29 1 23 -23 34 -8 12 17
-17 19 -17 21 0 40 22 24 9 27 -17 3 -17 -15 -18 -15 -18 0 0 10 -4 17 -10 17
-5 0 -10 -21 -10 -47z"/>
<path d="M2823 3279 c8 -11 13 -28 10 -39 -3 -10 0 -21 6 -24 7 -5 11 4 11 25
0 19 7 37 18 45 15 12 13 13 -21 14 -37 0 -38 -1 -24 -21z"/>
<path d="M2940 3255 c0 -43 1 -45 30 -45 17 0 30 5 30 10 0 6 -9 10 -20 10
-11 0 -20 5 -20 10 0 6 9 10 20 10 27 0 25 18 -2 23 -23 4 -23 4 2 15 25 11
25 11 -7 11 -32 1 -33 0 -33 -44z"/>
<path d="M3020 3255 c0 -25 5 -45 10 -45 6 0 10 9 10 21 0 21 0 21 19 -2 11
-13 23 -21 27 -17 4 5 0 16 -9 26 -15 16 -15 20 -1 40 18 26 8 29 -18 5 -17
-15 -18 -15 -18 0 0 10 -4 17 -10 17 -5 0 -10 -20 -10 -45z"/>
<path d="M3110 3255 c0 -25 5 -45 10 -45 6 0 10 7 10 15 0 8 6 15 14 15 20 0
32 40 15 51 -34 21 -49 10 -49 -36z m40 15 c0 -5 -4 -10 -10 -10 -5 0 -10 5
-10 10 0 6 5 10 10 10 6 0 10 -4 10 -10z"/>
<path d="M3256 3287 c3 -10 9 -15 12 -12 3 3 0 11 -7 18 -10 9 -11 8 -5 -6z"/>
<path d="M460 3263 c-11 -15 -18 -33 -15 -41 3 -7 5 -19 5 -25 0 -7 4 -6 10 3
5 9 5 19 -1 26 -7 9 -5 13 7 16 10 2 18 13 19 26 2 28 1 28 -25 -5z"/>
<path d="M1660 3278 c0 -9 -6 -19 -12 -21 -10 -4 -10 -6 0 -6 14 -1 28 26 18
36 -3 4 -6 -1 -6 -9z"/>
<path d="M3292 3265 c0 -16 2 -22 5 -12 2 9 2 23 0 30 -3 6 -5 -1 -5 -18z"/>
<path d="M3322 3270 c0 -14 2 -19 5 -12 2 6 2 18 0 25 -3 6 -5 1 -5 -13z"/>
<path d="M5100 3251 c-167 -51 -260 -237 -261 -521 -1 -209 40 -361 121 -448
11 -12 18 -27 14 -34 -4 -7 -3 -8 5 -4 6 4 23 -2 37 -13 70 -55 234 -68 319
-24 96 50 169 165 199 315 18 89 21 286 6 374 -12 65 -45 165 -69 204 -33 56
-106 120 -159 140 -54 21 -162 26 -212 11z m175 -148 c71 -51 110 -216 102
-433 -5 -150 -17 -207 -59 -281 -60 -107 -189 -105 -251 3 -57 98 -78 286 -52
463 23 152 51 213 120 257 36 23 102 18 140 -9z m78 -44 c-8 -8 -13 -7 -18 2
-5 8 -4 10 3 5 7 -4 12 -2 12 5 0 7 3 9 7 6 4 -4 2 -12 -4 -18z m34 -96 c-3
-10 -5 -4 -5 12 0 17 2 24 5 18 2 -7 2 -21 0 -30z m-440 -15 c-3 -8 -6 -5 -6
6 -1 11 2 17 5 13 3 -3 4 -12 1 -19z m460 -30 c-2 -13 -4 -5 -4 17 -1 22 1 32
4 23 2 -10 2 -28 0 -40z m-480 20 c-3 -8 -6 -5 -6 6 -1 11 2 17 5 13 3 -3 4
-12 1 -19z m70 0 c-3 -8 -6 -5 -6 6 -1 11 2 17 5 13 3 -3 4 -12 1 -19z m-120
-30 c-3 -8 -6 -5 -6 6 -1 11 2 17 5 13 3 -3 4 -12 1 -19z m90 -10 c-3 -8 -6
-5 -6 6 -1 11 2 17 5 13 3 -3 4 -12 1 -19z m-30 -50 c-3 -7 -5 -2 -5 12 0 14
2 19 5 13 2 -7 2 -19 0 -25z m-70 0 c-3 -8 -6 -5 -6 6 -1 11 2 17 5 13 3 -3 4
-12 1 -19z m39 -25 c-2 -10 -7 -38 -10 -63 l-5 -45 14 40 c16 42 16 42 1 -60
l-6 -40 14 45 c11 35 14 39 16 20 1 -17 7 -6 20 35 13 41 19 52 20 35 l2 -25
8 25 c5 16 8 -4 8 -60 2 -121 10 -186 33 -258 40 -127 101 -180 194 -169 114
12 182 165 187 419 1 62 4 103 6 90 2 -12 7 -20 12 -17 4 3 10 -1 13 -9 3 -8
-1 -17 -9 -20 -19 -7 -18 -30 3 -47 15 -13 16 -12 10 9 -3 13 -3 21 0 18 4 -3
15 1 25 11 21 18 23 12 6 -16 -9 -15 -9 -23 1 -35 7 -9 17 -14 21 -11 5 3 11
-1 13 -7 4 -10 6 -10 6 0 1 8 -8 16 -19 19 -27 7 -25 25 6 52 32 27 44 21 15
-8 -16 -16 -17 -21 -6 -21 9 0 15 -9 15 -24 0 -14 5 -28 10 -31 6 -4 7 -12 3
-18 -4 -7 -8 -39 -9 -73 -4 -156 -86 -309 -195 -365 -57 -29 -161 -36 -230
-15 -128 37 -227 193 -238 376 -1 8 -4 50 -7 93 -4 52 -2 77 6 77 6 0 8 -11 5
-27 -5 -28 -5 -28 5 -4 6 14 8 31 5 38 -2 8 0 11 5 8 6 -3 10 5 10 19 0 26 9
56 17 56 2 0 2 -8 -1 -17z m549 -23 c3 -5 1 -10 -4 -10 -6 0 -11 5 -11 10 0 6
2 10 4 10 3 0 8 -4 11 -10z m-575 -4 c0 -3 -4 -8 -10 -11 -5 -3 -10 -1 -10 4
0 6 5 11 10 11 6 0 10 -2 10 -4z m63 -36 c-3 -11 -7 -20 -9 -20 -2 0 -4 9 -4
20 0 11 4 20 9 20 5 0 7 -9 4 -20z"/>
<path d="M5020 2596 c0 -8 5 -18 10 -21 6 -4 8 -11 4 -16 -8 -14 33 -56 62
-63 13 -4 24 -11 24 -16 0 -6 6 -10 13 -10 20 0 60 -38 64 -59 3 -22 -37 -37
-49 -18 -5 8 -8 7 -8 -5 0 -14 9 -18 38 -19 20 -1 42 -1 49 0 7 1 9 -7 6 -19
-5 -20 11 -28 22 -10 3 6 0 10 -7 10 -7 0 2 12 20 26 27 22 32 31 27 52 -5 22
-4 24 9 13 9 -8 16 -9 16 -3 0 5 -21 22 -47 37 -27 15 -63 36 -80 47 -18 11
-33 16 -33 11 0 -4 18 -18 40 -31 22 -12 39 -26 39 -30 -3 -20 2 -33 11 -27 6
3 10 1 10 -5 0 -22 -34 -5 -41 20 -5 17 -7 19 -8 7 -1 -10 -4 -17 -8 -15 -30
14 -73 44 -73 51 0 5 16 -1 35 -13 25 -15 35 -18 34 -8 0 14 -129 84 -129 70
0 -5 11 -15 25 -22 14 -7 23 -15 21 -17 -6 -6 -76 30 -76 39 0 4 3 7 8 6 4 -2
7 2 7 7 0 6 -3 9 -7 8 -5 -2 -8 2 -8 7 0 15 14 12 41 -7 40 -30 69 -44 69 -34
0 12 -96 71 -115 71 -8 0 -15 -6 -15 -14z m255 -137 c11 -17 2 -18 -19 -3 -17
12 -17 14 -4 14 9 0 20 -5 23 -11z m-25 -44 c14 0 28 5 32 10 5 6 8 5 8 -3 0
-19 -23 -39 -39 -34 -9 3 -11 0 -6 -9 5 -8 -4 -3 -18 10 -15 13 -24 28 -20 34
3 5 8 5 12 0 3 -5 17 -9 31 -8z"/>
<path d="M5050 2458 c1 -16 29 -67 30 -52 0 7 13 10 30 8 53 -6 35 12 -52 54
-5 2 -8 -2 -8 -10z"/>
<path d="M5150 2423 c0 -8 4 -12 9 -9 5 4 11 1 13 -6 3 -8 6 -6 10 4 5 11 0
18 -13 21 -12 3 -19 0 -19 -10z"/>
<path d="M5130 2340 c19 -13 30 -13 30 0 0 6 -10 10 -22 10 -19 0 -20 -2 -8
-10z"/>
<path d="M5190 2335 c0 -9 5 -15 11 -13 6 2 11 8 11 13 0 5 -5 11 -11 13 -6 2
-11 -4 -11 -13z"/>
<path d="M4956 2724 c-4 -20 -5 -38 -3 -40 3 -3 8 11 11 32 4 20 5 38 3 40 -3
3 -8 -11 -11 -32z"/>
<path d="M4881 2684 c0 -11 3 -14 6 -6 3 7 2 16 -1 19 -3 4 -6 -2 -5 -13z"/>
<path d="M5411 2684 c0 -11 3 -14 6 -6 3 7 2 16 -1 19 -3 4 -6 -2 -5 -13z"/>
<path d="M4155 3241 c-2 -2 -4 -127 -5 -278 0 -260 1 -275 17 -268 76 32 185
42 262 24 45 -10 107 -47 97 -57 -3 -3 -15 3 -26 13 -14 13 -23 15 -32 7 -16
-13 -188 -112 -194 -112 -3 0 -2 4 1 10 3 6 -1 7 -10 3 -12 -4 -13 -8 -5 -13
9 -5 6 -10 -9 -15 -11 -3 -21 -11 -21 -16 0 -14 4 -12 94 41 47 28 89 50 95
50 6 0 11 5 11 11 0 5 5 7 10 4 6 -3 10 -1 10 4 0 6 7 11 15 11 8 0 15 5 15
12 0 6 3 8 8 4 7 -7 8 -11 11 -37 0 -6 8 -3 17 5 23 23 28 21 54 -26 37 -66
35 -152 -5 -210 -17 -23 -51 -54 -75 -68 -40 -22 -57 -25 -145 -25 -83 0 -108
4 -149 23 -27 12 -50 21 -52 20 -1 -2 -4 -34 -6 -72 l-3 -69 40 -14 c62 -22
250 -28 305 -9 l45 15 -45 -7 c-74 -11 -252 -6 -295 9 l-39 14 3 55 c1 30 4
56 5 57 1 1 31 -7 66 -18 140 -45 298 -7 359 85 22 34 26 51 27 123 1 45 -2
81 -6 78 -5 -3 -12 5 -16 17 -3 12 -13 28 -20 36 -17 16 -18 41 -3 62 8 12 9
9 4 -10 -5 -19 -4 -22 4 -10 14 19 14 53 1 45 -6 -4 -7 1 -3 11 5 15 7 15 15
0 13 -23 23 -20 25 6 2 18 0 20 -7 8 -8 -12 -10 -11 -10 7 0 30 30 19 31 -11
0 -11 3 -15 6 -8 2 6 9 12 14 12 6 0 7 -5 4 -10 -4 -6 -1 -9 7 -8 7 2 12 -3
10 -10 -1 -6 4 -11 10 -10 7 2 12 -5 12 -14 -1 -10 3 -16 10 -15 6 1 10 -6 10
-15 -1 -10 2 -16 6 -13 19 12 42 -97 38 -174 -7 -122 -56 -198 -168 -261 -46
-26 -43 -32 8 -13 6 3 12 0 12 -6 0 -6 -7 -11 -16 -11 -8 0 -12 -5 -8 -11 4
-7 0 -9 -13 -5 -11 3 -28 -1 -39 -9 -18 -14 -18 -15 7 -6 15 5 32 5 42 0 13
-7 17 -6 17 4 0 9 12 17 29 19 29 4 29 4 13 -20 -15 -23 -19 -24 -114 -20 -74
2 -98 0 -98 -9 0 -10 -38 -13 -156 -13 -132 0 -155 -2 -151 -14 3 -8 1 -17 -6
-19 -17 -6 -58 14 -51 24 3 5 -40 9 -95 9 -61 0 -101 -4 -101 -10 0 -5 -5 -10
-11 -10 -5 0 -7 5 -4 10 4 6 -13 10 -44 10 -28 0 -51 4 -51 10 0 17 34 26 95
24 84 -3 231 -4 290 -2 28 1 60 -2 73 -6 13 -5 22 -3 22 3 0 6 -3 10 -7 9 -27
-5 -115 31 -107 44 3 4 1 8 -5 8 -5 0 -11 8 -14 18 -2 9 -3 4 -3 -13 1 -16 8
-33 16 -37 8 -4 -10 -6 -40 -6 -33 1 -42 3 -22 5 43 6 41 23 -3 23 -21 0 -35
5 -35 13 0 8 -4 7 -10 -3 -9 -13 -11 -13 -20 0 -5 8 -10 10 -10 4 0 -15 -34
-24 -50 -14 -7 4 -9 13 -5 20 6 9 4 11 -4 6 -7 -5 -10 -14 -7 -21 3 -9 -11
-13 -55 -13 l-60 0 33 23 c18 12 35 22 38 21 3 0 26 14 52 32 26 18 50 32 54
32 4 0 22 11 39 25 31 23 33 23 49 6 9 -10 16 -26 17 -37 0 -18 1 -18 8 0 7
17 8 17 24 2 21 -21 22 -8 2 18 -11 14 -12 23 -4 33 14 17 29 16 65 -1 36 -18
81 -31 72 -21 -3 3 -39 26 -80 50 l-73 43 -37 -21 c-20 -12 -58 -35 -85 -51
-26 -16 -102 -61 -168 -99 -141 -83 -130 -75 -122 -83 4 -4 14 -1 24 7 9 8 14
9 10 3 -4 -7 0 -14 8 -18 9 -3 15 0 15 9 0 11 13 15 52 15 61 0 60 -9 -1 -12
-24 -1 -37 -5 -29 -9 8 -5 2 -10 -18 -14 -47 -11 -51 -13 -20 -14 28 -1 29 -2
10 -16 -10 -8 -23 -14 -29 -15 -5 0 -3 5 5 10 11 7 -4 10 -50 11 l-65 2 50 7
50 7 -40 2 c-79 5 -119 20 -101 38 4 4 11 1 16 -7 7 -11 11 -11 24 -1 11 9 16
10 16 2 0 -6 14 -10 33 -10 30 2 30 2 5 6 -16 2 -28 8 -28 13 0 4 47 36 105
70 58 33 105 63 105 66 0 3 -16 -3 -35 -15 -19 -11 -35 -17 -35 -13 0 4 24 21
52 37 69 39 78 42 48 16 l-25 -22 40 20 c23 10 78 42 125 70 46 28 89 51 97
51 7 0 74 -36 149 -81 74 -45 138 -79 141 -75 3 3 -3 9 -13 13 -10 4 -60 32
-110 63 -73 45 -88 58 -78 68 17 15 32 16 16 0 -8 -8 9 -23 71 -61 45 -27 93
-57 107 -66 17 -12 33 -15 50 -10 14 4 19 7 11 8 -8 1 -19 8 -26 18 -7 9 -21
17 -31 18 -10 1 -38 13 -61 28 -24 15 -47 27 -53 27 -6 0 -9 4 -6 9 3 5 -1 12
-10 15 -10 4 -13 2 -8 -7 3 -6 -5 1 -18 17 -17 20 -30 27 -41 23 -10 -4 -16
-2 -14 6 1 6 -18 22 -42 34 l-44 23 -76 -42 c-42 -23 -94 -53 -116 -68 -22
-14 -53 -31 -68 -38 -15 -7 -25 -17 -22 -22 3 -5 0 -7 -8 -4 -8 3 -21 -2 -30
-10 -9 -9 -20 -16 -26 -16 -6 0 -11 -5 -11 -11 0 -5 -20 -19 -44 -29 -24 -11
-49 -26 -55 -34 -6 -7 -34 -24 -61 -37 -46 -22 -64 -39 -40 -39 6 0 10 -8 10
-17 0 -10 7 -27 15 -37 12 -16 12 -22 2 -35 -9 -12 -9 -13 1 -7 12 7 16 -7 13
-50 -1 -12 5 -24 13 -27 9 -4 16 -17 15 -29 -1 -22 -1 -22 -9 2 -5 18 -9 21
-13 10 -8 -22 -1 -1006 7 -1065 4 -28 4 -74 -2 -101 -5 -28 -5 -60 -1 -72 5
-13 4 -22 -1 -22 -6 0 -10 -9 -10 -20 0 -11 5 -20 10 -20 6 0 10 -5 10 -11 0
-5 -4 -7 -10 -4 -6 4 -9 -22 -8 -72 l2 -78 5 70 6 70 7 -50 c4 -27 4 -112 2
-187 l-6 -138 46 0 c30 0 46 4 46 13 0 7 3 8 8 2 4 -5 14 -12 22 -14 32 -8
206 -7 222 1 10 5 19 4 24 -4 4 -6 3 -8 -3 -5 -5 3 -10 0 -10 -8 0 -11 4 -11
21 -1 15 10 70 13 198 12 97 -1 179 -4 182 -7 3 -3 34 -3 68 -1 35 2 122 4
193 5 72 1 131 5 133 10 7 22 1 137 -8 137 -5 0 -10 -6 -10 -14 0 -8 -5 -18
-12 -22 -6 -4 -8 -3 -4 4 3 6 2 13 -4 17 -6 4 -10 -5 -10 -19 0 -18 -4 -24
-15 -20 -8 3 -14 9 -13 12 0 4 0 16 -2 27 l-1 20 -8 -20 c-5 -11 -7 -23 -4
-27 2 -5 0 -8 -5 -8 -5 0 -10 30 -11 67 -2 61 -1 65 16 52 11 -9 14 -10 9 -1
-6 9 28 12 158 12 l165 0 3 106 c2 58 0 111 -4 118 -4 6 -9 -38 -10 -99 l-3
-109 -110 -1 -110 0 -3 70 c-3 71 -21 116 -23 59 -1 -16 -1 -34 0 -40 1 -6 -6
-18 -16 -25 -15 -12 -16 -12 -11 2 3 9 2 22 -3 30 -6 9 -9 -5 -9 -41 -1 -42
-3 -51 -11 -37 -5 9 -7 22 -3 29 4 7 3 8 -4 4 -7 -4 -12 -17 -13 -29 -1 -18
-2 -17 -9 7 -13 42 -10 167 4 165 26 -3 46 2 46 11 0 6 -19 10 -42 11 -24 0
-37 3 -30 6 6 2 9 9 6 14 -11 18 6 61 21 55 8 -3 15 -1 15 4 0 6 5 10 10 10 6
0 10 -6 10 -14 0 -11 7 -12 27 -7 20 5 29 16 34 39 4 19 2 35 -4 39 -6 4 -7 1
-3 -8 4 -8 0 -5 -8 5 -9 11 -16 28 -16 39 0 10 -4 15 -10 12 -5 -3 -10 -17
-10 -31 0 -13 5 -24 10 -24 20 0 10 -26 -11 -27 -17 -2 -18 1 -9 13 12 14 8
17 -20 15 -36 -2 -44 21 -41 122 1 40 18 49 45 21 9 -8 16 -13 16 -9 0 3 10
-1 23 -10 22 -14 24 -14 23 7 -1 19 4 23 27 21 15 -1 25 2 22 8 -4 5 -13 9
-21 9 -8 0 -14 7 -14 15 0 12 -13 15 -59 15 -38 0 -61 4 -64 13 -3 6 -6 1 -6
-12 -1 -13 -4 -22 -7 -18 -7 7 -5 609 1 616 3 2 6 -119 7 -270 2 -230 4 -201
8 176 l5 450 68 -1 c60 -1 66 0 55 14 -10 12 -10 14 0 8 7 -4 12 -1 12 8 0 9
-3 15 -7 15 -29 -5 -63 3 -60 14 1 6 -5 11 -14 9 -9 -1 -19 6 -22 17 -10 40 5
44 160 49 139 4 179 11 154 26 -6 4 -11 2 -11 -3 0 -12 -27 -10 -47 2 -8 5
-13 3 -13 -5 0 -9 -3 -9 -10 2 -8 12 -10 12 -10 1 0 -11 -3 -11 -15 -1 -8 7
-15 8 -15 4 0 -17 -114 -8 -150 11 -32 16 -34 16 -21 1 13 -15 12 -17 -10 -14
-13 2 -32 9 -43 14 -17 10 -15 14 22 40 145 105 169 329 51 477 -23 28 -26 37
-14 37 9 0 13 5 10 10 -4 6 -11 7 -17 4 -7 -4 -8 -2 -4 4 13 21 36 1 29 -26
-4 -19 -3 -23 7 -17 8 5 11 4 7 -2 -4 -6 2 -18 13 -28 22 -20 28 -7 8 14 -11
11 -10 12 1 6 11 -6 13 -4 8 8 -3 10 -2 17 4 17 13 0 -10 23 -38 38 -33 18
-52 15 -48 -8 5 -25 0 -25 -34 -1 -60 43 -112 56 -218 56 l-103 -1 0 128 0
128 218 2 217 3 0 63 0 63 -288 2 c-159 1 -290 0 -292 -2z m132 -173 c-3 -7
-5 -2 -5 12 0 14 2 19 5 13 2 -7 2 -19 0 -25z m-90 -45 c-3 -10 -5 -4 -5 12 0
17 2 24 5 18 2 -7 2 -21 0 -30z m70 -85 c-2 -18 -4 -4 -4 32 0 36 2 50 4 33 2
-18 2 -48 0 -65z m-20 15 c-3 -10 -5 -4 -5 12 0 17 2 24 5 18 2 -7 2 -21 0
-30z m-56 -44 c-5 -16 -8 -36 -5 -43 3 -8 0 -17 -7 -21 -12 -8 -11 2 8 103 6
29 8 32 11 14 2 -13 -1 -37 -7 -53z m28 11 c-5 -30 -11 -77 -13 -105 l-5 -50
9 45 c5 25 14 61 19 80 l10 35 -4 -40 c-2 -22 -7 -58 -9 -80 -4 -31 -3 -34 3
-15 5 14 10 18 11 10 1 -11 4 -9 10 5 12 27 12 43 0 25 -8 -13 -10 -12 -10 3
0 9 6 17 14 17 8 0 17 12 20 28 2 15 3 3 2 -27 -2 -36 0 -48 6 -37 5 9 17 16
26 16 16 -1 16 -2 -1 -14 -11 -9 -16 -23 -13 -42 2 -16 1 -24 -1 -17 -2 7 -11
9 -20 6 -8 -3 -19 0 -23 7 -6 10 -11 3 -18 -21 -6 -19 -11 -26 -11 -17 -1 15
-36 35 -53 30 -12 -3 -5 21 9 33 6 5 17 39 23 75 20 107 21 113 24 109 2 -2 0
-29 -5 -59z m38 -52 c-3 -7 -5 -2 -5 12 0 14 2 19 5 13 2 -7 2 -19 0 -25z
m138 -59 c4 -17 4 -33 1 -36 -3 -4 -6 2 -7 13 0 12 -6 7 -15 -16 -8 -19 -12
-25 -10 -12 2 12 0 22 -5 22 -5 0 -9 -6 -9 -14 0 -7 -9 -16 -21 -19 -18 -5
-20 -2 -15 20 5 16 3 22 -4 18 -17 -10 -12 2 13 29 31 36 64 34 72 -5z m12 9
c-3 -8 -6 -5 -6 6 -1 11 2 17 5 13 3 -3 4 -12 1 -19z m14 -45 c-9 -33 -8 -36
4 -20 13 18 13 18 18 0 3 -10 3 6 0 35 -5 50 -5 52 18 52 21 -1 22 -2 7 -11
-10 -5 -18 -20 -17 -32 1 -21 1 -21 10 3 7 21 8 20 4 -9 -3 -18 -5 -39 -5 -46
0 -7 -14 -12 -31 -13 -28 -1 -30 1 -24 25 3 14 9 39 13 57 3 18 8 24 10 14 2
-9 -1 -34 -7 -55z m79 52 c0 -8 -4 -15 -10 -15 -5 0 -7 7 -4 15 4 8 8 15 10
15 2 0 4 -7 4 -15z m42 -45 c4 -24 3 -58 -2 -74 l-10 -31 3 33 c2 17 0 32 -5
32 -4 0 -8 -4 -8 -9 0 -15 -33 -22 -44 -10 -8 9 -8 10 2 5 7 -5 12 -1 12 9 0
9 -4 13 -10 10 -5 -3 -10 3 -10 14 0 33 18 33 25 0 5 -23 9 -28 16 -18 5 8 9
21 9 29 0 13 -1 13 -10 0 -8 -12 -10 -11 -10 7 0 16 4 21 15 17 10 -4 15 0 15
11 0 9 -4 13 -10 10 -5 -3 -10 -1 -10 5 0 7 6 10 12 8 7 -3 16 -24 20 -48z
m35 16 c0 -7 -6 -13 -14 -13 -7 0 -13 8 -13 18 0 11 5 16 13 13 8 -3 14 -11
14 -18z m148 -16 c3 -5 1 -10 -4 -10 -6 0 -11 5 -11 10 0 6 2 10 4 10 3 0 8
-4 11 -10z m-445 -34 c0 -2 -9 -6 -20 -9 -11 -3 -20 -1 -20 4 0 5 9 9 20 9 11
0 20 -2 20 -4z m-76 -15 c3 -5 -6 -11 -21 -14 -26 -5 -26 -4 -8 9 22 17 22 17
29 5z m-284 -325 c0 -2 -7 -7 -16 -10 -8 -3 -12 -2 -9 4 6 10 25 14 25 6z
m180 -19 c0 -2 -9 -12 -20 -22 -19 -17 -20 -17 -20 -1 0 9 5 14 10 11 6 -3 10
-1 10 4 0 6 5 11 10 11 6 0 10 -2 10 -3z m-390 -109 c-90 -55 -140 -79 -134
-63 3 8 10 15 15 15 4 0 34 16 66 35 32 19 65 35 73 35 8 0 -1 -10 -20 -22z
m297 -85 c-8 -7 -157 -6 -165 2 -3 3 34 5 83 5 49 0 85 -3 82 -7z m551 -50
c-32 -2 -58 -8 -58 -13 0 -6 -5 -10 -11 -10 -5 0 -7 5 -4 10 9 14 -8 12 -24
-2 -9 -9 -12 -9 -7 -1 3 6 0 14 -6 16 -7 3 28 5 77 4 62 0 72 -2 33 -4z m-308
-17 c0 -2 -7 -7 -16 -10 -8 -3 -12 -2 -9 4 6 10 25 14 25 6z m-562 -68 c3 -48
3 -48 -29 -48 -24 0 -30 4 -25 15 7 18 -5 20 -23 3 -10 -11 -11 -5 -5 27 8 46
13 51 51 50 26 0 28 -3 31 -47z m860 38 c5 -3 8 -15 7 -28 -1 -13 3 -26 9 -30
7 -5 7 -11 -3 -20 -8 -7 -11 -8 -8 -2 4 7 1 14 -7 17 -10 4 -12 0 -9 -14 3
-10 9 -19 13 -19 13 0 5 -53 -9 -58 -11 -4 -11 -6 0 -13 10 -6 5 -9 -16 -9
-41 0 -56 16 -45 46 6 15 5 24 -3 28 -7 2 4 5 23 6 l35 1 -38 17 c-20 9 -35
22 -33 28 2 6 -2 11 -9 11 -10 0 -11 -7 -5 -23 8 -20 7 -147 -5 -784 -2 -102
-4 -240 -4 -307 l0 -123 -75 0 c-41 0 -78 5 -81 10 -3 6 2 10 12 11 10 0 41 1
70 3 53 2 88 16 40 16 -26 0 -27 2 -27 59 0 48 3 60 18 64 9 3 -3 5 -28 6 -38
0 -43 -2 -28 -12 10 -8 18 -31 20 -63 3 -44 1 -49 -19 -52 -22 -3 -23 0 -23
62 0 53 -3 65 -17 69 -10 3 10 5 45 6 34 0 62 6 62 11 0 6 -7 10 -16 10 -14 0
-16 9 -10 58 3 31 6 202 7 380 2 315 10 418 16 205 1 -58 5 -108 8 -111 12
-13 4 245 -9 283 l-14 40 -5 -30 c-3 -21 -4 -16 -6 18 0 29 -5 46 -11 42 -5
-3 -10 1 -10 10 0 8 -11 33 -25 55 -14 22 -25 42 -25 45 0 12 -43 46 -59 48
-10 0 -18 6 -18 12 0 9 19 10 105 6 13 -1 21 -5 18 -10 -4 -5 -2 -20 4 -33 9
-22 9 -21 7 7 -2 29 -1 30 47 33 27 2 55 9 62 16 12 13 53 14 72 2z m-618 -29
c0 -6 -3 -7 -6 -4 -10 10 -44 -12 -44 -27 0 -8 -8 -13 -17 -12 -12 1 -20 -9
-24 -29 -5 -21 -7 -24 -9 -10 -1 11 -8 -2 -16 -30 -13 -48 -13 -48 -9 -10 2
22 1 32 -1 23 -3 -10 -9 -18 -13 -18 -4 0 -6 -26 -5 -57 2 -53 2 -54 -6 -18
-4 23 -7 -154 -6 -404 1 -348 -2 -445 -11 -448 -18 -6 -16 -43 2 -43 12 0 15
-14 15 -64 0 -59 2 -64 23 -68 23 -4 24 -3 23 69 l-1 73 -33 0 c-20 0 -31 4
-27 10 4 6 29 9 56 7 52 -4 80 -17 38 -17 -18 0 -20 -3 -10 -9 10 -6 12 -20 8
-45 -3 -20 -2 -36 2 -36 5 0 6 -11 3 -25 -2 -14 -8 -22 -13 -19 -5 3 -9 0 -9
-6 0 -6 7 -10 16 -8 10 2 19 -3 21 -9 3 -10 -11 -13 -54 -12 -50 0 -112 14
-90 20 4 1 12 3 17 4 6 1 13 3 18 4 4 2 -2 6 -13 10 -18 7 -20 19 -22 117 -1
60 -2 132 -2 159 2 310 5 435 9 435 3 0 4 32 2 70 -3 47 0 70 7 70 6 0 11 9
11 21 0 11 -4 18 -9 15 -5 -3 -11 4 -13 17 -4 19 -3 268 1 305 1 16 191 16
191 -1z m238 3 c2 0 1 -4 -3 -10 -7 -12 52 -43 67 -34 6 4 8 3 5 -3 -4 -6 5
-21 20 -34 23 -21 25 -21 19 -5 -6 19 -6 19 11 4 10 -9 26 -32 37 -50 l18 -33
-26 30 -27 30 16 -34 c36 -74 45 -126 47 -286 l2 -160 6 180 c4 135 6 76 8
-232 l2 -413 -200 0 c-110 0 -200 -4 -200 -8 0 -5 61 -8 135 -8 75 1 143 -2
153 -6 16 -6 16 -7 0 -7 -19 -1 -26 -21 -8 -21 6 0 10 -11 10 -25 0 -14 -5
-25 -12 -25 -9 0 -9 -3 0 -12 19 -19 15 -57 -5 -52 -15 4 -18 16 -18 70 0 43
-4 64 -12 64 -6 0 -15 -5 -18 -10 -3 -6 -2 -10 4 -10 5 0 9 -25 9 -55 -1 -46
-4 -55 -17 -53 -13 3 -16 15 -15 66 l2 62 -147 0 c-88 0 -140 4 -132 9 8 5 24
8 37 6 13 -1 24 2 24 6 0 5 -31 9 -70 9 -49 0 -70 4 -71 13 0 9 -2 10 -6 0 -2
-7 -9 -13 -14 -13 -13 0 -11 737 2 806 9 51 39 123 39 96 0 -7 -5 -22 -10 -33
-6 -10 -7 -19 -2 -19 5 0 18 19 30 43 12 24 31 52 42 62 23 21 28 44 5 25 -24
-20 -18 -5 7 16 12 10 18 13 14 7 -10 -18 -6 -17 55 12 40 18 55 21 61 12 4
-7 8 -7 8 -2 0 6 5 3 10 -5 6 -10 10 -11 10 -2 0 6 9 12 20 12 30 0 24 15 -7
18 -14 1 -29 5 -32 8 -5 5 49 2 117 -6z m429 -27 c-3 -10 -5 -4 -5 12 0 17 2
24 5 18 2 -7 2 -21 0 -30z m-1010 5 c-3 -8 -6 -5 -6 6 -1 11 2 17 5 13 3 -3 4
-12 1 -19z m83 -58 c-23 -7 -23 -8 -3 -9 15 -1 21 -7 20 -21 -1 -11 -6 -20
-12 -20 -5 0 -3 -5 5 -10 12 -7 8 -10 -15 -10 -22 0 -33 7 -42 26 -10 21 -9
26 4 31 14 6 14 8 -3 14 -13 5 -4 7 26 7 37 0 41 -1 20 -8z m198 -30 c-7 -10
-14 -17 -17 -15 -4 4 18 35 25 35 2 0 -1 -9 -8 -20z m-281 -42 c-2 -13 -4 -5
-4 17 -1 22 1 32 4 23 2 -10 2 -28 0 -40z m104 -31 c0 -12 3 -195 5 -405 3
-270 2 -388 -6 -397 -8 -10 -7 -16 6 -23 12 -7 4 -9 -32 -8 -27 1 -55 5 -62
10 -14 8 -7 26 11 26 7 0 6 -4 -3 -10 -16 -10 -13 -11 31 -14 19 -1 25 2 22
12 -4 8 -9 10 -15 4 -7 -7 -16 -4 -27 6 -15 15 -15 18 -1 30 13 11 13 11 -1 7
-12 -5 -16 0 -15 20 1 14 8 30 15 34 10 6 9 10 -5 15 -16 6 -16 8 0 25 13 14
14 21 5 27 -7 4 -10 3 -5 -4 3 -6 2 -13 -3 -16 -11 -7 -9 13 2 32 5 7 3 12 -5
12 -9 0 -9 3 2 10 13 9 13 10 0 10 -13 0 -13 2 -1 9 18 11 24 41 8 35 -7 -2
-12 6 -12 20 0 13 4 21 10 18 6 -3 4 1 -2 10 -7 8 -10 18 -6 22 12 11 12 37 1
30 -7 -5 -8 -2 -2 7 13 21 14 39 1 39 -7 0 -6 4 2 9 21 13 22 39 3 51 -10 5
-12 10 -7 10 6 0 11 9 12 20 1 11 -2 18 -6 16 -4 -3 -8 1 -8 8 0 8 6 12 14 9
9 -4 11 0 7 11 -3 9 -10 16 -15 16 -5 0 -9 5 -9 11 0 5 4 8 8 5 4 -3 7 16 7
42 -1 26 3 53 9 61 9 12 7 13 -7 8 -15 -6 -16 -4 -7 14 8 15 8 24 0 34 -7 8
-7 15 -1 19 5 4 8 15 6 26 -2 11 2 20 8 20 8 0 8 3 2 8 -22 16 -12 29 26 30
34 2 39 -1 40 -21z m867 -69 c-2 -48 0 -88 3 -88 3 0 3 -20 -1 -45 -4 -25 -4
-48 0 -50 13 -8 9 -275 -4 -275 -7 0 -8 -3 -1 -8 7 -4 11 -64 11 -154 l0 -146
-44 -4 c-30 -2 -47 1 -58 13 -8 8 -11 19 -7 22 11 11 23 8 20 -5 -1 -7 9 -13
24 -13 14 -1 26 5 26 12 0 6 -4 10 -8 7 -4 -2 -18 1 -31 6 -21 10 -23 17 -24
100 -1 61 2 90 10 90 7 0 6 4 -2 9 -8 4 -14 12 -14 16 0 4 6 12 14 16 7 5 8 9
3 9 -7 0 -11 34 -10 90 0 70 3 89 13 85 8 -3 10 0 5 8 -18 28 -20 132 -3 152
6 7 6 15 2 19 -4 4 -7 56 -8 115 l0 108 43 -1 44 0 -3 -88z m39 15 c-2 -16 -4
-5 -4 22 0 28 2 40 4 28 2 -13 2 -35 0 -50z m-1010 0 c-3 -10 -5 -4 -5 12 0
17 2 24 5 18 2 -7 2 -21 0 -30z m1010 -100 c-2 -16 -4 -5 -4 22 0 28 2 40 4
28 2 -13 2 -35 0 -50z m-1010 25 c-3 -8 -6 -5 -6 6 -1 11 2 17 5 13 3 -3 4
-12 1 -19z m0 -70 c-2 -13 -4 -5 -4 17 -1 22 1 32 4 23 2 -10 2 -28 0 -40z
m-5 -75 c-5 -76 -10 -83 -11 -15 0 34 2 62 7 62 4 0 6 -21 4 -47z m1 -317 c0
-124 -2 -229 -6 -232 -4 -4 -7 100 -7 231 0 131 3 236 6 233 3 -3 6 -108 7
-232z m127 -265 c0 -5 3 -16 6 -25 4 -11 -2 -15 -26 -14 -18 1 -26 4 -19 9 7
4 19 5 28 1 9 -3 13 -1 8 4 -5 5 -23 10 -40 10 -70 3 -77 4 -77 12 0 4 27 9
60 10 33 1 60 -2 60 -7z m860 -7 c0 -10 -16 -13 -60 -12 -38 1 -60 6 -60 13 0
8 22 12 60 12 43 0 60 -3 60 -13z m-920 -25 c0 -4 -14 -7 -31 -7 -16 1 -26 4
-20 7 14 9 51 8 51 0z m935 1 c-3 -5 -36 -9 -73 -8 l-67 2 70 6 c39 4 71 7 73
8 2 1 0 -2 -3 -8z m-875 -79 l0 -59 -57 2 -58 1 -1 50 c-1 28 0 53 2 56 2 3
28 7 59 8 l55 2 0 -60z m200 42 c1 -17 1 -17 11 0 13 23 26 22 39 -4 9 -15 8
-24 -2 -36 -9 -11 -10 -17 -2 -20 6 -2 9 -15 6 -28 -3 -19 -8 -23 -21 -15 -13
6 -16 18 -13 47 4 34 3 36 -11 24 -11 -9 -14 -22 -10 -42 4 -24 2 -29 -13 -29
-17 0 -19 8 -20 60 -1 52 2 60 18 60 10 0 18 -7 18 -17z m97 -46 c2 -49 0 -58
-14 -55 -12 2 -16 17 -18 61 -2 48 1 57 14 55 12 -2 17 -17 18 -61z m102 44
c7 -11 7 -89 -1 -96 -2 -2 -21 -5 -43 -7 l-40 -3 -2 62 -2 62 40 -3 c22 -1 44
-8 48 -15z m50 -3 c5 -13 5 -25 0 -29 -5 -3 -5 -19 0 -36 7 -24 6 -33 -5 -37
-7 -3 -15 -2 -18 2 -4 6 -9 95 -7 115 2 16 22 6 30 -15z m135 16 c19 -7 22
-54 4 -54 -9 0 -9 -3 0 -12 19 -19 15 -48 -6 -48 -16 0 -19 9 -19 60 0 33 1
60 2 60 2 0 10 -3 19 -6z m276 -55 l0 -59 -55 0 c-48 0 -55 3 -56 20 -5 71 -5
86 -2 92 2 4 28 7 58 7 l55 -1 0 -59z m-762 -9 c1 -27 -3 -50 -8 -50 -5 0 -9
25 -8 55 2 67 16 63 16 -5z m789 13 c-3 -10 -5 -2 -5 17 0 19 2 27 5 18 2 -10
2 -26 0 -35z m4 -46 c-10 -9 -11 -8 -5 6 3 10 9 15 12 12 3 -3 0 -11 -7 -18z
m109 -27 c0 -5 -5 -10 -11 -10 -5 0 -7 5 -4 10 3 6 8 10 11 10 2 0 4 -4 4 -10z
m-1021 -24 c0 -12 -3 -15 -6 -8 -4 10 -8 10 -21 0 -12 -10 -14 -10 -8 0 4 6 3
12 -3 12 -5 0 -15 -8 -20 -17 -10 -17 -10 -17 -11 0 0 17 28 34 57 34 7 0 13
-10 12 -21z m509 14 c41 0 72 -4 72 -10 0 -13 -367 -14 -375 -1 -7 12 52 17
155 14 41 -1 108 -2 148 -3z m359 -3 c6 -4 13 -1 16 5 3 10 7 10 17 1 11 -10
11 -15 0 -28 -9 -10 -31 -15 -75 -15 -59 0 -63 1 -61 23 1 20 6 23 47 21 25 0
50 -4 56 -7z m-947 -4 c0 -5 -5 -15 -10 -23 -7 -12 -9 -10 -7 8 1 19 17 33 17
15z m110 -24 c0 -6 -4 -7 -10 -4 -5 3 -10 11 -10 16 0 6 5 7 10 4 6 -3 10 -11
10 -16z m517 -22 c3 -4 13 -2 22 2 14 8 55 8 157 2 18 -1 23 -10 30 -58 4 -32
8 -118 8 -190 1 -123 7 -160 19 -114 4 18 8 18 95 12 7 -1 12 -16 12 -41 0
-41 -7 -49 -28 -28 -9 9 -12 7 -12 -9 0 -26 -16 -38 -27 -21 -4 7 -16 14 -26
14 -13 2 -15 -1 -8 -10 8 -9 6 -13 -4 -13 -14 0 -19 10 -16 29 0 4 -6 5 -14 2
-8 -4 -13 -10 -10 -14 3 -4 -9 -7 -26 -6 -16 1 -34 8 -39 16 -8 13 -10 12 -10
-2 0 -14 -4 -16 -24 -8 -30 11 -55 7 -67 -11 -7 -11 -9 -9 -9 8 0 19 -3 20
-24 10 -15 -7 -22 -17 -18 -27 3 -8 -4 -5 -16 8 -17 19 -24 21 -41 13 -27 -15
-30 -14 -41 12 -6 16 -9 17 -9 5 -1 -25 -40 -34 -55 -12 -12 16 -13 15 -19 -7
-6 -20 -9 -21 -17 -9 -9 13 -10 13 -10 0 -1 -12 -4 -11 -15 4 -13 17 -18 18
-40 8 -31 -14 -38 -15 -31 -3 3 5 -1 11 -9 15 -8 3 -15 1 -15 -5 0 -7 -14 -10
-35 -7 -20 2 -35 0 -35 -7 0 -5 -5 -3 -10 5 -8 13 -10 12 -11 -5 -1 -17 -2
-17 -6 -2 -5 18 -23 24 -23 6 0 -5 -8 -9 -17 -8 -10 2 -28 -2 -39 -9 -12 -6
-25 -8 -29 -4 -10 11 -59 8 -68 -3 -4 -5 -5 2 -1 18 6 27 -9 39 -19 15 -3 -7
-6 11 -6 40 l-1 52 50 0 c44 0 50 -3 50 -21 0 -14 5 -19 18 -17 9 2 16 9 15
16 -2 6 -4 64 -6 128 -3 108 3 166 24 221 l8 23 236 -4 c129 -2 238 -6 242 -9z
m-527 -49 l0 -48 -60 0 -60 0 0 48 0 48 60 0 60 0 0 -48z m854 46 c11 -4 16
-19 16 -50 l0 -44 -60 0 -60 0 0 44 0 45 43 4 c23 2 43 4 44 5 1 1 8 -1 17 -4z
m35 -221 c-1 -114 -3 -128 -10 -82 -7 48 -7 91 0 197 0 12 3 22 6 22 3 0 4
-62 4 -137z m-899 72 c0 -30 -3 -35 -22 -34 -13 0 -17 3 -10 6 6 2 11 14 11
26 -1 19 -2 19 -6 4 -3 -13 -11 -17 -25 -14 -14 4 -18 2 -14 -9 4 -11 1 -14
-12 -12 -10 2 -17 13 -18 28 -1 37 3 40 52 40 44 0 44 0 44 -35z m848 29 c19
-5 23 -12 20 -38 -2 -22 -9 -32 -23 -34 -16 -3 -18 -1 -7 9 6 7 12 22 12 34
-1 18 -1 18 -11 3 -5 -10 -16 -18 -24 -18 -9 0 -12 -6 -9 -15 4 -9 0 -15 -9
-15 -10 0 -16 12 -19 35 -2 20 -2 38 1 40 6 7 41 6 69 -1z m159 -79 c0 -8 -6
-15 -14 -15 -17 0 -17 17 0 23 6 3 12 6 13 6 0 1 1 -6 1 -14z m-1016 -13 c5
-27 6 -70 2 -84 -3 -14 -15 -18 -49 -18 -41 0 -57 11 -34 25 6 3 10 2 10 -4 0
-6 7 -8 15 -5 12 5 13 10 4 20 -6 8 -15 11 -20 8 -5 -3 -9 10 -8 28 0 27 2 30
9 13 5 -11 9 -17 11 -12 1 4 3 12 4 17 1 6 3 11 4 13 3 6 51 6 52 -1z m876
-43 c-4 -57 -14 -67 -57 -61 -29 4 -30 7 -30 53 l0 48 38 4 c20 2 40 4 45 5 4
1 6 -21 4 -49z m30 -161 c-3 -7 -5 -2 -5 12 0 14 2 19 5 13 2 -7 2 -19 0 -25z"/>
<path d="M4360 2815 c0 -8 2 -15 4 -15 2 0 6 7 10 15 3 8 1 15 -4 15 -6 0 -10
-7 -10 -15z"/>
<path d="M4335 2806 c-3 -9 -7 -23 -10 -31 -2 -8 -1 -15 4 -15 5 0 11 12 14
28 6 30 0 44 -8 18z"/>
<path d="M4492 1951 c-11 -6 -10 -10 4 -15 20 -8 32 0 18 14 -5 5 -15 5 -22 1z"/>
<path d="M3752 1830 c0 -14 2 -19 5 -12 2 6 2 18 0 25 -3 6 -5 1 -5 -13z"/>
<path d="M3752 1780 c0 -14 2 -19 5 -12 2 6 2 18 0 25 -3 6 -5 1 -5 -13z"/>
<path d="M3816 1845 c-3 -9 -5 -125 -4 -258 l2 -242 6 255 c3 140 4 256 4 258
-1 2 -4 -4 -8 -13z"/>
<path d="M4353 1395 c0 -27 2 -38 4 -22 2 15 2 37 0 50 -2 12 -4 0 -4 -28z"/>
<path d="M4353 1285 c0 -27 2 -38 4 -22 2 15 2 37 0 50 -2 12 -4 0 -4 -28z"/>
<path d="M3814 1235 c0 -49 1 -71 3 -48 2 23 2 64 0 90 -2 26 -3 8 -3 -42z"/>
<path d="M4353 1140 c0 -41 2 -58 4 -37 2 20 2 54 0 75 -2 20 -4 3 -4 -38z"/>
<path d="M3812 1085 c0 -16 2 -22 5 -12 2 9 2 23 0 30 -3 6 -5 -1 -5 -18z"/>
<path d="M4351 1044 c0 -11 3 -14 6 -6 3 7 2 16 -1 19 -3 4 -6 -2 -5 -13z"/>
<path d="M3818 732 c-13 -3 -16 -22 -17 -112 l-2 -109 266 -3 c147 -2 273 0
280 5 10 5 13 35 13 112 l1 104 -263 3 c-145 2 -270 2 -278 0z m522 -107 c0
-90 -1 -95 -23 -100 -12 -4 -130 -5 -262 -3 l-239 4 1 27 c1 15 1 59 2 97 l1
70 260 0 260 0 0 -95z"/>
<path d="M4168 603 c6 -2 18 -2 25 0 6 3 1 5 -13 5 -14 0 -19 -2 -12 -5z"/>
<path d="M4207 596 c-4 -10 -1 -13 7 -10 7 3 21 -2 30 -11 9 -9 16 -13 16 -8
0 4 5 0 11 -9 5 -10 17 -18 25 -18 12 0 11 3 -3 18 -18 18 -68 52 -77 52 -2 0
-6 -7 -9 -14z"/>
<path d="M4340 429 c0 -6 -7 -9 -15 -5 -8 3 -15 1 -15 -4 0 -6 9 -10 20 -10
11 0 20 7 20 15 0 8 -2 15 -5 15 -3 0 -5 -5 -5 -11z"/>
<path d="M3900 420 c0 -5 5 -10 10 -10 6 0 10 5 10 10 0 6 -4 10 -10 10 -5 0
-10 -4 -10 -10z"/>
<path d="M3934 418 c-3 -4 11 -8 30 -8 20 0 36 2 36 4 0 8 -61 12 -66 4z"/>
<path d="M4225 420 c3 -5 8 -10 11 -10 2 0 4 5 4 10 0 6 -5 10 -11 10 -5 0 -7
-4 -4 -10z"/>
<path d="M4048 413 c6 -2 18 -2 25 0 6 3 1 5 -13 5 -14 0 -19 -2 -12 -5z"/>
<path d="M4118 413 c17 -2 47 -2 65 0 17 2 3 4 -33 4 -36 0 -50 -2 -32 -4z"/>
<path d="M421 3165 c0 -12 5 -27 12 -34 7 -9 7 -11 1 -8 -7 4 -14 0 -18 -8 -4
-10 1 -15 14 -15 17 0 20 7 19 38 0 29 -2 33 -8 17 -8 -19 -9 -18 -13 5 -4 20
-6 21 -7 5z"/>
<path d="M3758 3122 l-88 -3 0 -54 c0 -30 4 -56 9 -59 5 -3 9 0 8 7 0 6 1 26
3 42 3 26 4 23 10 -15 l7 -45 2 45 c2 35 4 41 11 25 8 -18 13 -74 8 -75 -2 -1
-35 -3 -75 -7 l-72 -5 -7 28 c-4 16 -9 34 -13 39 -3 6 -7 18 -8 29 -8 50 -20
44 -41 -23 -12 -38 -30 -75 -39 -82 -9 -8 -14 -9 -10 -2 5 8 -10 11 -54 11
l-61 -1 29 -23 c15 -14 40 -32 56 -41 32 -21 33 -23 7 -103 -11 -34 -20 -65
-20 -67 0 -3 16 9 36 27 60 52 77 56 121 29 21 -13 46 -32 56 -43 11 -12 17
-14 17 -6 0 21 -23 80 -32 80 -4 0 -5 7 -1 16 7 19 -22 45 -42 38 -7 -3 -16
-1 -19 4 -6 10 36 8 53 -3 6 -3 11 0 11 8 0 8 8 17 18 21 9 3 22 8 27 11 7 4
10 -18 9 -62 l-3 -68 11 63 c7 40 16 62 24 62 8 0 14 4 14 10 0 5 -8 6 -17 3
-16 -6 -16 -5 -4 10 7 9 17 17 22 17 10 0 12 -322 3 -357 -4 -13 -10 -20 -15
-17 -5 3 -9 -2 -9 -10 0 -9 -5 -16 -11 -16 -5 0 -8 4 -5 9 4 5 2 20 -3 33 -8
18 -10 12 -10 -34 l-1 -56 58 30 c31 17 78 44 105 61 l47 30 0 243 c0 279 14
251 -122 246z m45 -143 c-4 -4 -6 13 -3 39 l5 47 3 -39 c2 -21 0 -42 -5 -47z
m54 -41 c-2 -24 -4 -7 -4 37 0 44 2 63 4 43 2 -21 2 -57 0 -80z m-104 72 c3
-11 1 -20 -4 -20 -5 0 -9 9 -9 20 0 11 2 20 4 20 2 0 6 -9 9 -20z m24 -147
c-2 -32 -3 -6 -3 57 0 63 1 89 3 58 2 -32 2 -84 0 -115z m-30 70 c-3 -10 -5
-4 -5 12 0 17 2 24 5 18 2 -7 2 -21 0 -30z m-272 7 c-3 -5 -12 -10 -18 -10 -7
0 -6 4 3 10 19 12 23 12 15 0z m332 -112 c-2 -24 -4 -5 -4 42 0 47 2 66 4 43
2 -24 2 -62 0 -85z m-55 47 c-6 -34 -12 -32 -12 6 0 16 4 28 9 25 4 -3 6 -17
3 -31z m75 -12 c-3 -10 -5 -4 -5 12 0 17 2 24 5 18 2 -7 2 -21 0 -30z m30 -50
c-3 -10 -5 -4 -5 12 0 17 2 24 5 18 2 -7 2 -21 0 -30z m-110 -55 c-2 -13 -4
-3 -4 22 0 25 2 35 4 23 2 -13 2 -33 0 -45z m60 -70 c-2 -18 -4 -4 -4 32 0 36
2 50 4 33 2 -18 2 -48 0 -65z m-30 -15 c-2 -16 -4 -5 -4 22 0 28 2 40 4 28 2
-13 2 -35 0 -50z m-30 -5 c-3 -8 -6 -5 -6 6 -1 11 2 17 5 13 3 -3 4 -12 1 -19z
m93 6 c0 -8 -4 -12 -10 -9 -5 3 -10 10 -10 16 0 5 5 9 10 9 6 0 10 -7 10 -16z"/>
<path d="M622 3040 c0 -14 2 -19 5 -12 2 6 2 18 0 25 -3 6 -5 1 -5 -13z"/>
<path d="M2778 3043 c6 -2 18 -2 25 0 6 3 1 5 -13 5 -14 0 -19 -2 -12 -5z"/>
<path d="M353 3006 c12 -25 27 -26 27 -1 0 7 -7 16 -16 19 -23 9 -23 8 -11
-18z"/>
<path d="M2508 3023 c6 -2 18 -2 25 0 6 3 1 5 -13 5 -14 0 -19 -2 -12 -5z"/>
<path d="M2570 3020 c0 -9 25 -20 46 -20 9 0 13 4 10 9 -7 11 -56 21 -56 11z"/>
<path d="M2855 3022 c-3 -3 -5 -11 -5 -17 0 -12 14 -12 104 0 37 5 61 14 40
16 -60 5 -134 5 -139 1z"/>
<path d="M597 3013 c-4 -3 -7 -13 -7 -22 1 -13 3 -13 11 2 11 19 8 33 -4 20z"/>
<path d="M2718 3013 c12 -2 32 -2 45 0 12 2 2 4 -23 4 -25 0 -35 -2 -22 -4z"/>
<path d="M2340 3003 c26 -13 24 -36 -2 -29 -13 3 -30 6 -38 7 -10 0 -9 3 5 10
16 7 14 8 -10 4 -16 -2 -51 -7 -77 -11 -27 -3 -48 -10 -48 -15 0 -8 23 -6 85
6 12 3 34 1 50 -4 34 -10 31 -11 -59 -36 -32 -9 -56 -18 -54 -20 2 -3 21 0 42
6 27 8 42 7 49 0 15 -15 30 -14 21 2 -4 6 -4 9 1 5 4 -4 22 0 39 9 17 10 33
17 36 18 3 0 24 6 48 14 46 16 56 31 18 31 -13 0 -45 2 -72 5 -27 3 -42 2 -34
-2z"/>
<path d="M2480 2990 c0 -5 7 -10 16 -10 8 0 12 5 9 10 -3 6 -10 10 -16 10 -5
0 -9 -4 -9 -10z"/>
<path d="M347 2959 c3 -10 9 -16 14 -13 13 8 11 21 -5 27 -10 4 -12 0 -9 -14z"/>
<path d="M597 2969 c-21 -12 -22 -26 -2 -26 8 0 17 7 20 15 7 20 3 22 -18 11z"/>
<path d="M316 2941 c-11 -12 -25 -21 -31 -21 -7 0 -15 -6 -18 -14 -3 -8 -16
-16 -29 -19 -20 -4 -20 -4 5 -6 29 -1 91 21 100 35 2 5 2 17 -2 27 -6 17 -8
17 -25 -2z m6 -23 c-7 -7 -12 -8 -12 -2 0 14 12 26 19 19 2 -3 -1 -11 -7 -17z"/>
<path d="M2485 2950 c-11 -5 -33 -11 -49 -15 -15 -3 -26 -8 -23 -11 7 -7 96
17 103 27 6 11 -4 11 -31 -1z"/>
<path d="M2340 2914 c-14 -7 -33 -14 -42 -14 -10 0 -18 -4 -18 -9 0 -5 10 -7
22 -3 14 3 19 2 14 -6 -11 -18 8 -14 30 6 10 10 28 24 39 30 20 11 20 11 0 11
-11 -1 -31 -7 -45 -15z"/>
<path d="M190 2905 c0 -8 4 -15 10 -15 5 0 7 7 4 15 -4 8 -8 15 -10 15 -2 0
-4 -7 -4 -15z"/>
<path d="M220 2909 c0 -5 9 -9 20 -9 11 0 20 2 20 4 0 2 -9 6 -20 9 -11 3 -20
1 -20 -4z"/>
<path d="M556 2909 c3 -5 12 -9 21 -9 19 0 9 13 -12 16 -8 1 -13 -2 -9 -7z"/>
<path d="M2230 2900 c-9 -6 -10 -10 -3 -10 6 0 15 5 18 10 8 12 4 12 -15 0z"/>
<path d="M3700 2750 c0 -84 3 -151 6 -147 7 6 6 289 -1 296 -3 2 -5 -65 -5
-149z"/>
<path d="M2040 2875 c-19 -7 -28 -13 -20 -13 8 0 31 6 50 13 19 7 28 13 20 13
-8 0 -31 -6 -50 -13z"/>
<path d="M2127 2844 c-16 -9 -27 -18 -24 -20 7 -7 57 18 57 28 0 10 1 10 -33
-8z"/>
<path d="M3672 2770 c0 -14 2 -19 5 -12 2 6 2 18 0 25 -3 6 -5 1 -5 -13z"/>
<path d="M4754 2745 c-8 -34 -2 -47 35 -68 l31 -18 0 26 c0 18 -9 31 -32 45
-35 21 -31 28 4 9 11 -6 22 -8 25 -6 3 3 -9 13 -26 21 -30 16 -31 16 -37 -9z
m52 -52 c-7 -7 -26 7 -26 19 0 6 6 6 15 -2 9 -7 13 -15 11 -17z"/>
<path d="M3672 2710 c0 -17 4 -30 9 -30 11 0 12 47 1 54 -5 3 -9 -8 -10 -24z"/>
<path d="M4588 2707 c-3 -19 -2 -25 4 -19 6 6 8 18 6 28 -3 14 -5 12 -10 -9z"/>
<path d="M4636 2714 c-4 -9 -4 -19 -1 -22 2 -3 7 3 11 12 4 9 4 19 1 22 -2 3
-7 -3 -11 -12z"/>
<path d="M3670 2649 c0 -11 4 -18 10 -14 5 3 7 12 3 20 -7 21 -13 19 -13 -6z"/>
<path d="M4395 2660 c-3 -5 -1 -10 4 -10 6 0 11 5 11 10 0 6 -2 10 -4 10 -3 0
-8 -4 -11 -10z"/>
<path d="M4455 2639 c-4 -5 -18 -14 -32 -20 -13 -5 -22 -13 -19 -18 4 -5 -3
-7 -14 -4 -11 3 -20 0 -20 -6 0 -6 -7 -11 -15 -11 -8 0 -15 -5 -15 -11 0 -5
-4 -7 -10 -4 -5 3 -10 2 -10 -3 0 -5 -15 -15 -32 -23 -18 -7 -40 -21 -49 -31
-9 -10 -19 -16 -23 -13 -3 3 -2 0 4 -7 7 -9 14 -7 28 5 10 9 22 14 25 10 4 -3
7 -1 7 5 0 6 16 16 35 22 19 6 35 16 35 21 0 5 7 9 15 9 8 0 15 5 15 10 0 6 9
10 20 10 11 0 20 5 20 11 0 5 16 17 35 25 19 8 35 19 35 24 0 13 -27 13 -35
-1z"/>
<path d="M4766 2623 c11 -25 14 -182 3 -189 -23 -14 -4 -24 45 -24 l53 0 -13
52 c-8 28 -17 73 -20 98 -5 37 -12 50 -34 63 -36 22 -44 21 -34 0z"/>
<path d="M4517 2600 c-14 -11 -28 -20 -31 -20 -3 0 -30 -16 -61 -35 -30 -19
-65 -39 -77 -45 -13 -5 -35 -17 -50 -27 l-27 -18 37 -21 c28 -16 52 -21 102
-19 70 1 90 -3 69 -16 -8 -4 1 -7 22 -6 52 3 69 26 76 102 5 62 -8 125 -27
125 -4 0 -19 -9 -33 -20z m42 -87 c0 -25 -1 -26 -9 -8 -12 27 -12 35 0 35 6 0
10 -12 9 -27z m-37 -15 c-8 -8 -9 -4 -5 13 4 13 8 18 11 10 2 -7 -1 -18 -6
-23z m-35 -10 c-3 -7 -5 -2 -5 12 0 14 2 19 5 13 2 -7 2 -19 0 -25z m-17 2 c0
-5 -4 -10 -10 -10 -5 0 -10 5 -10 10 0 6 5 10 10 10 6 0 10 -4 10 -10z m-33
-32 c-3 -7 -5 -2 -5 12 0 14 2 19 5 13 2 -7 2 -19 0 -25z m113 12 c0 -5 -4
-10 -10 -10 -5 0 -10 5 -10 10 0 6 5 10 10 10 6 0 10 -4 10 -10z m-83 -22 c-3
-8 -6 -5 -6 6 -1 11 2 17 5 13 3 -3 4 -12 1 -19z m33 12 c0 -5 -4 -10 -10 -10
-5 0 -10 5 -10 10 0 6 5 10 10 10 6 0 10 -4 10 -10z"/>
<path d="M4176 2532 c-9 -14 10 -33 27 -26 25 9 21 27 -4 19 -15 -5 -19 -4
-15 4 4 6 5 11 2 11 -3 0 -7 -4 -10 -8z"/>
<path d="M4438 2393 c7 -3 16 -2 19 1 4 3 -2 6 -13 5 -11 0 -14 -3 -6 -6z"/>
<path d="M4768 2393 c7 -3 16 -2 19 1 4 3 -2 6 -13 5 -11 0 -14 -3 -6 -6z"/>
<path d="M4858 2393 c7 -3 16 -2 19 1 4 3 -2 6 -13 5 -11 0 -14 -3 -6 -6z"/>
<path d="M4776 2338 c3 -4 -8 -8 -24 -8 -16 0 -37 -9 -47 -20 -10 -11 -16 -21
-14 -21 2 -1 55 -3 117 -4 73 -2 118 -7 128 -16 10 -8 8 0 -6 24 -22 36 -23
37 -83 37 -43 0 -57 3 -47 10 12 7 10 9 -7 7 -12 0 -19 -5 -17 -9z"/>
<path d="M4977 2223 c-8 -17 0 -38 13 -34 19 4 29 4 60 -3 19 -5 18 -3 -7 9
-17 8 -34 19 -38 25 -7 12 -22 13 -28 3z"/>
<path d="M5089 2178 c0 -2 -2 -205 -5 -453 -2 -247 -6 -485 -8 -527 -4 -75 -1
-84 27 -79 4 0 7 -4 7 -9 0 -6 -15 -11 -32 -11 -31 -2 -31 -2 7 -8 22 -3 54
-4 70 -1 l30 4 -35 7 c-43 8 -39 10 23 13 46 3 64 -8 30 -17 -13 -3 -12 -5 5
-6 14 -1 22 -6 20 -13 -3 -9 -31 -13 -86 -14 -45 -1 -81 -5 -80 -9 2 -4 37 -7
79 -6 l75 2 -2 -48 c-3 -37 -1 -43 6 -25 5 12 7 29 4 37 -3 8 1 23 9 35 12 17
12 28 1 70 -9 35 -13 149 -15 382 -1 183 -5 396 -9 472 -4 77 -4 151 0 166 7
24 5 27 -14 25 -36 -4 -37 -5 -31 -15 3 -6 -5 -10 -19 -10 -14 0 -27 4 -31 9
-3 6 4 8 15 6 12 -2 18 0 14 6 -3 6 -8 8 -11 5 -3 -3 -14 -1 -24 5 -11 5 -19
8 -20 7z m72 -57 c-12 -8 -51 -4 -51 5 0 2 15 4 33 4 22 0 28 -3 18 -9z m2
-27 c9 -3 12 -14 9 -30 -2 -14 0 -24 7 -24 7 0 11 -20 11 -52 0 -41 -3 -49
-11 -38 -9 12 -10 11 -4 -5 16 -49 18 -77 4 -86 -12 -8 -12 -11 1 -19 13 -9
13 -10 0 -10 -13 0 -13 -1 0 -10 12 -8 12 -10 1 -10 -11 0 -11 -3 -1 -15 7 -8
10 -32 8 -55 -2 -22 0 -40 4 -40 3 0 6 -121 6 -270 0 -149 -4 -270 -9 -270 -5
0 -9 6 -10 13 0 8 -2 8 -5 1 -3 -6 -18 -10 -35 -8 -18 2 -28 0 -24 -6 3 -6 1
-10 -4 -10 -17 0 -17 352 0 358 14 5 11 22 -3 20 -7 -2 -12 2 -11 8 1 7 3 64
4 128 1 64 6 116 11 116 4 0 8 5 8 11 0 5 -4 7 -10 4 -5 -3 -10 1 -10 9 0 9 5
16 12 16 9 0 9 3 0 12 -14 14 -16 32 -2 23 6 -4 7 2 2 17 -9 26 -8 118 3 166
5 21 4 32 -4 32 -20 0 -11 19 12 23 12 2 23 5 24 6 1 0 8 -1 16 -5z m47 -960
c0 -2 -30 -3 -67 -2 -62 1 -64 2 -23 7 43 6 90 3 90 -5z"/>
<path d="M5172 2005 c0 -16 2 -22 5 -12 2 9 2 23 0 30 -3 6 -5 -1 -5 -18z"/>
<path d="M5171 1554 c0 -11 3 -14 6 -6 3 7 2 16 -1 19 -3 4 -6 -2 -5 -13z"/>
<path d="M5235 2160 c-3 -5 -2 -10 3 -10 4 0 9 -52 10 -117 1 -64 4 -119 7
-121 3 -3 5 54 5 126 0 120 -7 152 -25 122z"/>
<path d="M4780 2091 c-8 -3 -16 -13 -18 -22 -2 -14 10 -17 80 -17 46 0 93 -1
106 -1 l22 -1 2 -337 c1 -186 3 -312 5 -280 3 45 7 57 18 53 9 -3 15 4 17 22
4 40 -3 102 -12 102 -5 0 -6 -25 -4 -55 3 -33 0 -55 -6 -55 -6 0 -10 41 -10
105 0 58 4 105 9 105 5 0 11 -6 14 -12 2 -7 4 13 3 44 0 32 -2 53 -4 48 -2 -6
-7 -10 -11 -10 -10 0 -7 31 6 55 6 11 10 73 11 138 0 109 -1 117 -19 117 -10
0 -19 -4 -19 -10 0 -5 -8 -10 -17 -10 -15 0 -16 2 -3 10 9 6 10 10 3 10 -6 0
-15 -4 -18 -10 -3 -5 -12 -10 -18 -9 -8 0 -7 3 2 6 8 3 9 8 3 12 -14 9 -113 1
-107 -9 2 -4 18 -6 35 -4 16 2 30 0 30 -4 0 -7 -31 -8 -72 -3 -3 1 -8 7 -10
15 -2 7 -9 11 -18 7z m219 -116 c-1 -30 -7 -55 -12 -55 -5 0 -6 7 -3 16 3 9 6
33 6 55 0 21 2 39 6 39 3 0 4 -25 3 -55z m-12 -122 c-3 -10 -5 -2 -5 17 0 19
2 27 5 18 2 -10 2 -26 0 -35z m0 -120 c-3 -10 -5 -4 -5 12 0 17 2 24 5 18 2
-7 2 -21 0 -30z"/>
<path d="M5253 1820 c0 -25 2 -35 4 -22 2 12 2 32 0 45 -2 12 -4 2 -4 -23z"/>
<path d="M4992 1645 c0 -16 2 -22 5 -12 2 9 2 23 0 30 -3 6 -5 -1 -5 -18z"/>
<path d="M5709 1500 c-43 -45 -54 -49 -62 -20 -5 18 -14 20 -76 20 l-71 0 0
-70 c0 -63 2 -70 20 -70 31 0 24 -40 -14 -83 -58 -64 -57 -134 4 -192 20 -19
30 -39 30 -57 0 -16 6 -39 14 -51 9 -14 11 -29 6 -42 -9 -19 -9 -19 -16 3 -3
12 -14 22 -25 22 -16 0 -19 -8 -19 -47 l0 -48 53 0 52 0 3 48 c2 28 -1 47 -7
47 -6 0 -11 4 -11 10 0 5 7 7 15 4 11 -5 15 -21 15 -60 0 -54 17 -74 27 -34 7
28 20 25 57 -14 57 -61 149 -57 192 9 19 28 42 33 51 9 4 -12 7 -13 14 -3 6
11 9 10 15 -4 5 -13 18 -17 60 -17 l54 0 0 70 c0 53 -3 70 -14 70 -7 0 -16 9
-19 21 -6 24 1 49 14 49 4 0 20 17 34 37 39 59 30 128 -24 177 -12 11 -21 31
-21 48 0 24 -4 28 -27 28 -19 0 -24 3 -15 9 8 4 27 7 43 5 31 -4 31 -2 31 76
0 51 1 50 -72 50 -63 0 -70 -2 -70 -20 0 -30 -32 -25 -55 9 -24 37 -54 51
-107 51 -35 0 -47 -6 -79 -40z m111 6 c0 -18 -10 -25 -26 -19 -21 8 -17 29 6
30 11 1 20 -4 20 -11z m155 -56 c3 -5 1 -10 -4 -10 -6 0 -11 5 -11 10 0 6 2
10 4 10 3 0 8 -4 11 -10z m-132 -86 c33 -12 16 -19 -48 -20 -36 0 -65 3 -65 8
0 4 6 8 14 8 7 0 19 6 26 14 8 11 17 12 33 5 12 -5 30 -12 40 -15z m154 0 c-3
-3 -12 -4 -19 -1 -8 3 -5 6 6 6 11 1 17 -2 13 -5z m-132 -39 c30 -4 43 -12 52
-30 6 -14 7 -25 2 -25 -5 0 -9 -13 -9 -30 0 -16 -5 -30 -11 -30 -5 0 -8 4 -5
9 3 4 -1 17 -9 27 -13 17 -14 15 -15 -28 0 -29 4 -48 11 -48 6 0 9 7 5 15 -3
9 0 15 10 15 11 0 14 -6 10 -16 -3 -9 -6 -23 -6 -31 0 -12 -3 -13 -13 -4 -10
8 -14 7 -14 -4 0 -8 4 -15 9 -15 4 0 8 -5 8 -11 0 -5 -4 -7 -10 -4 -5 3 -10 0
-11 -7 0 -7 -4 -4 -9 7 -4 12 -7 46 -6 78 2 40 -1 54 -8 47 -10 -10 -13 -137
-3 -146 10 -10 67 -22 62 -13 -4 5 -3 18 0 30 7 19 7 20 21 2 13 -18 15 -17
19 25 1 12 5 25 8 28 3 4 5 -4 3 -17 -5 -49 -19 -78 -37 -84 -12 -4 -19 -16
-19 -33 -1 -26 -1 -27 -17 -7 -12 16 -14 16 -10 3 3 -10 2 -20 -3 -23 -5 -3
-7 -12 -4 -19 7 -17 -17 -23 -91 -21 l-60 1 -1 34 c0 55 -24 49 -26 -7 l-2
-48 -3 47 c-3 39 -8 47 -25 50 -12 2 -23 9 -24 16 -1 7 0 8 3 2 6 -13 83 -13
83 1 0 5 -4 8 -9 4 -6 -3 -6 6 -1 24 9 33 3 71 -12 71 -5 0 -6 -9 -3 -20 6
-19 4 -19 -21 -8 -21 10 -24 14 -11 16 10 2 15 7 12 12 -8 14 -35 0 -35 -18 0
-8 -3 -12 -7 -9 -11 11 -6 146 6 161 11 14 39 15 59 2 8 -5 12 -1 12 11 0 15
10 19 58 21 31 2 75 0 97 -3z m87 -130 c-3 -5 -7 -4 -10 3 -2 7 -9 9 -15 5 -7
-4 -8 0 -4 11 4 10 7 25 8 34 0 10 6 5 14 -13 7 -16 10 -34 7 -40z m-262 -125
c0 -5 -4 -10 -10 -10 -5 0 -10 5 -10 10 0 6 5 10 10 10 6 0 10 -4 10 -10z
m207 -92 c-3 -8 -6 -5 -6 6 -1 11 2 17 5 13 3 -3 4 -12 1 -19z m-97 -110 c0 7
5 10 11 7 14 -9 6 -30 -12 -30 -17 -1 -30 16 -22 28 3 5 9 3 14 -4 7 -11 9
-11 9 -1z"/>
<path d="M5768 1309 c-16 -9 -16 -11 2 -29 24 -24 29 -25 46 -3 22 32 -11 54
-48 32z m42 -3 c0 -3 -4 -8 -10 -11 -5 -3 -10 -1 -10 4 0 6 5 11 10 11 6 0 10
-2 10 -4z"/>
<path d="M5658 1273 c7 -3 16 -2 19 1 4 3 -2 6 -13 5 -11 0 -14 -3 -6 -6z"/>
<path d="M5732 1241 c-1 -20 3 -38 10 -43 10 -6 10 -8 1 -8 -7 0 -13 -9 -13
-20 0 -11 7 -20 15 -20 9 0 12 6 9 15 -5 11 -2 13 10 9 13 -5 15 0 12 25 -3
31 2 35 37 32 9 -1 17 4 17 13 0 9 -4 16 -10 16 -5 0 -10 -4 -10 -8 0 -4 -9
-8 -20 -9 -11 -1 -19 1 -19 5 3 19 -3 28 -18 28 -13 0 -19 -10 -21 -35z"/>
<path d="M5702 1253 c-6 -2 -10 -9 -6 -14 8 -14 21 -11 21 6 0 8 -1 15 -1 14
-1 0 -7 -3 -14 -6z"/>
<path d="M5690 1210 c0 -5 5 -10 11 -10 5 0 7 5 4 10 -3 6 -8 10 -11 10 -2 0
-4 -4 -4 -10z"/>
<path d="M5648 1183 c6 -2 18 -2 25 0 6 3 1 5 -13 5 -14 0 -19 -2 -12 -5z"/>
<path d="M5690 1179 c0 -5 5 -7 10 -4 6 3 10 8 10 11 0 2 -4 4 -10 4 -5 0 -10
-5 -10 -11z"/>
<path d="M5798 1183 c7 -3 16 -2 19 1 4 3 -2 6 -13 5 -11 0 -14 -3 -6 -6z"/>
<path d="M5744 1125 c-3 -8 -3 -19 1 -25 11 -18 25 -11 25 15 0 27 -17 34 -26
10z"/>
<path d="M5800 1128 c0 -29 13 -58 26 -58 10 0 11 6 2 30 -11 32 -28 49 -28
28z"/>
<path d="M5771 1084 c-14 -31 -14 -29 21 -38 l26 -6 -15 33 c-9 17 -17 33 -18
35 -1 1 -7 -10 -14 -24z"/>
<path d="M5730 1080 c0 -5 5 -10 10 -10 6 0 10 5 10 10 0 6 -4 10 -10 10 -5 0
-10 -4 -10 -10z"/>
<path d="M5860 1060 c-23 -7 -23 -8 -3 -9 12 -1 25 4 28 9 3 6 5 10 3 9 -2 -1
-14 -5 -28 -9z"/>
<path d="M5736 1021 c-4 -5 -3 -16 0 -25 5 -12 20 -16 60 -16 50 0 71 12 42
23 -10 4 -10 6 0 6 6 1 12 6 12 11 0 12 -107 13 -114 1z"/>
<path d="M4990 1440 c0 -16 2 -30 4 -30 2 0 6 14 8 30 3 17 1 30 -4 30 -4 0
-8 -13 -8 -30z"/>
<path d="M6120 1420 c0 -5 5 -10 11 -10 5 0 7 5 4 10 -3 6 -8 10 -11 10 -2 0
-4 -4 -4 -10z"/>
<path d="M4994 1388 c3 -12 0 -18 -9 -18 -13 0 -15 -21 -13 -127 1 -102 3
-116 8 -68 4 38 8 49 10 30 2 -27 3 -27 7 -6 3 13 0 28 -6 34 -6 6 -10 36 -10
67 1 48 2 50 8 20 l7 -35 6 45 c4 25 2 51 -3 60 -9 13 -10 12 -5 -2z"/>
<path d="M4833 1093 c9 -2 23 -2 30 0 6 3 -1 5 -18 5 -16 0 -22 -2 -12 -5z"/>
<path d="M4884 1092 c5 -8 76 -4 76 4 0 2 -18 4 -41 4 -22 0 -38 -4 -35 -8z"/>
<path d="M4930 1060 c0 -5 5 -10 11 -10 5 0 7 5 4 10 -3 6 -8 10 -11 10 -2 0
-4 -4 -4 -10z"/>
<path d="M4988 1053 c7 -3 16 -2 19 1 4 3 -2 6 -13 5 -11 0 -14 -3 -6 -6z"/>
<path d="M4680 989 c0 -5 5 -7 10 -4 6 3 10 8 10 11 0 2 -4 4 -10 4 -5 0 -10
-5 -10 -11z"/>
<path d="M5500 990 c0 -5 7 -10 16 -10 8 0 12 5 9 10 -3 6 -10 10 -16 10 -5 0
-9 -4 -9 -10z"/>
<path d="M4645 980 c-3 -6 1 -7 9 -4 18 7 21 14 7 14 -6 0 -13 -4 -16 -10z"/>
<path d="M5072 960 c0 -14 2 -19 5 -12 2 6 2 18 0 25 -3 6 -5 1 -5 -13z"/>
<path d="M5213 844 c0 -104 0 -106 7 -35 4 43 12 77 18 79 7 2 12 10 12 18 0
9 -5 12 -10 9 -6 -3 -14 4 -18 16 -5 13 -9 -20 -9 -87z"/>
<path d="M5110 912 c0 -4 9 -8 20 -9 11 -1 20 2 20 8 0 5 -9 9 -20 9 -11 0
-20 -4 -20 -8z"/>
<path d="M5160 911 c0 -6 9 -9 20 -8 11 1 20 5 20 9 0 4 -9 8 -20 8 -11 0 -20
-4 -20 -9z"/>
<path d="M4752 871 c-11 -7 -10 -10 3 -15 23 -9 25 -8 25 9 0 17 -9 19 -28 6z"/>
<path d="M4790 865 c0 -8 28 -13 88 -14 48 -1 108 -3 135 -4 47 -2 59 5 35 20
-22 13 -258 11 -258 -2z"/>
<path d="M5066 865 c4 -8 10 -12 15 -9 14 8 10 24 -6 24 -9 0 -12 -6 -9 -15z"/>
<path d="M5100 872 c0 -4 9 -8 20 -8 11 0 20 4 20 8 0 4 -9 8 -20 8 -11 0 -20
-4 -20 -8z"/>
<path d="M5150 870 c0 -5 9 -9 20 -7 31 5 36 17 7 17 -15 0 -27 -4 -27 -10z"/>
<path d="M5241 844 c0 -11 3 -14 6 -6 3 7 2 16 -1 19 -3 4 -6 -2 -5 -13z"/>
<path d="M5625 830 c3 -5 8 -10 11 -10 2 0 4 5 4 10 0 6 -5 10 -11 10 -5 0 -7
-4 -4 -10z"/>
<path d="M6006 831 c-4 -5 1 -8 9 -7 21 3 31 16 12 16 -9 0 -18 -4 -21 -9z"/>
<path d="M5241 784 c0 -11 3 -14 6 -6 3 7 2 16 -1 19 -3 4 -6 -2 -5 -13z"/>
<path d="M4690 750 c0 -5 9 -10 20 -10 11 0 20 5 20 10 0 6 -9 10 -20 10 -11
0 -20 -4 -20 -10z"/>
<path d="M4671 704 c0 -11 3 -14 6 -6 3 7 2 16 -1 19 -3 4 -6 -2 -5 -13z"/>
<path d="M5120 716 c0 -8 71 -12 76 -4 3 4 -13 8 -35 8 -23 0 -41 -2 -41 -4z"/>
<path d="M4640 700 c-13 -8 -12 -10 3 -10 9 0 17 5 17 10 0 12 -1 12 -20 0z"/>
<path d="M4691 684 c0 -11 3 -14 6 -6 3 7 2 16 -1 19 -3 4 -6 -2 -5 -13z"/>
<path d="M4642 650 c-15 -25 -16 -43 -1 -38 7 2 13 16 15 31 3 32 2 33 -14 7z"/>
<path d="M5242 640 c0 -19 2 -27 5 -17 2 9 2 25 0 35 -3 9 -5 1 -5 -18z"/>
<path d="M800 628 c0 -4 11 -29 25 -55 20 -37 25 -56 20 -84 -4 -25 -2 -40 6
-45 9 -5 10 -2 6 11 -4 9 -3 23 2 29 11 13 -21 112 -44 135 -8 9 -15 12 -15 9z"/>
<path d="M5196 621 c-6 -9 0 -51 9 -59 3 -3 5 11 5 31 0 37 -4 45 -14 28z"/>
<path d="M5097 608 c-7 -4 9 -8 36 -8 26 0 47 5 47 10 0 12 -64 10 -83 -2z"/>
<path d="M766 585 c4 -8 8 -15 10 -15 2 0 4 7 4 15 0 8 -4 15 -10 15 -5 0 -7
-7 -4 -15z"/>
<path d="M1010 505 c0 -84 2 -95 18 -95 14 0 17 9 18 48 1 29 0 34 -3 14 -7
-54 -23 -25 -23 42 l0 64 60 -5 c51 -5 60 -3 60 11 0 13 -12 16 -65 16 l-65 0
0 -95z"/>
<path d="M1210 586 c0 -9 7 -12 19 -9 14 4 21 -1 24 -19 3 -18 5 -16 6 10 1
28 -2 32 -24 32 -15 0 -25 -6 -25 -14z"/>
<path d="M1332 528 l1 -73 6 63 c7 77 25 82 27 6 3 -82 14 -79 14 4 0 70 -1
72 -25 72 -25 0 -25 -1 -23 -72z"/>
<path d="M1442 566 c1 -29 4 -33 22 -28 12 3 25 11 29 19 4 7 15 13 22 13 8 0
15 6 15 13 0 6 6 1 13 -13 8 -14 19 -24 25 -22 17 3 15 -13 -3 -28 -10 -8 -15
-9 -15 -2 0 6 -7 9 -15 6 -8 -4 -15 -12 -15 -20 0 -11 -7 -13 -27 -8 -38 9
-45 18 -10 12 18 -4 26 -1 24 6 -2 6 -16 11 -31 11 -26 0 -28 -2 -30 -57 -3
-55 -2 -56 23 -53 21 2 26 8 26 31 1 19 7 30 18 32 9 2 17 -1 17 -7 0 -6 8
-11 17 -11 13 0 14 3 5 12 -21 21 -13 32 10 12 21 -19 21 -19 14 0 -4 12 0 26
9 36 21 23 10 66 -18 74 -12 3 -45 6 -74 6 l-52 0 1 -34z m38 20 c0 -3 -4 -8
-10 -11 -5 -3 -10 -1 -10 4 0 6 5 11 10 11 6 0 10 -2 10 -4z m100 -16 c0 -5
-7 -10 -16 -10 -8 0 -12 5 -9 10 3 6 10 10 16 10 5 0 9 -4 9 -10z m-93 -86
c-3 -3 -12 -4 -19 -1 -8 3 -5 6 6 6 11 1 17 -2 13 -5z m-18 -55 c-7 -4 -16 -6
-18 -3 -3 3 1 9 9 14 8 6 11 10 7 10 -5 0 -5 6 0 13 5 8 9 7 11 -7 2 -10 -2
-22 -9 -27z"/>
<path d="M1699 587 c-44 -34 -52 -110 -16 -152 17 -20 33 -26 67 -28 29 -1 44
2 43 9 -1 7 5 10 15 7 12 -3 22 4 30 22 14 29 16 99 4 91 -5 -3 -8 5 -8 16 2
40 -96 65 -135 35z m64 -4 c-7 -2 -19 -2 -25 0 -7 3 -2 5 12 5 14 0 19 -2 13
-5z m-49 -18 c-4 -8 -10 -15 -15 -15 -4 0 -6 7 -3 15 4 8 10 15 15 15 4 0 6
-7 3 -15z m77 -29 c7 -14 9 -40 5 -61 -7 -35 -8 -36 -49 -33 -41 3 -42 4 -39
38 5 71 10 80 42 80 22 0 33 -6 41 -24z m-94 -38 c-3 -8 -6 -5 -6 6 -1 11 2
17 5 13 3 -3 4 -12 1 -19z m136 5 c-3 -7 -8 -13 -12 -13 -4 0 -8 6 -8 13 0 8
6 14 13 14 7 0 10 -6 7 -14z m-53 -77 c0 -11 -19 -15 -25 -6 -3 5 1 10 9 10 9
0 16 -2 16 -4z"/>
<path d="M786 562 c-8 -13 5 -82 15 -82 13 0 11 37 -1 45 -6 4 -8 15 -5 26 6
19 1 26 -9 11z"/>
<path d="M1210 506 c0 -51 12 -77 28 -61 3 3 0 10 -7 14 -9 6 -12 22 -8 55 4
26 2 46 -4 46 -5 0 -9 -24 -9 -54z"/>
<path d="M5202 520 c0 -19 2 -27 5 -17 2 9 2 25 0 35 -3 9 -5 1 -5 -18z"/>
<path d="M1040 525 c0 -3 7 -13 15 -21 8 -9 15 -11 15 -5 0 15 47 14 53 -1 3
-8 6 -6 6 5 1 12 -7 17 -28 17 -16 0 -36 3 -45 6 -9 3 -16 3 -16 -1z"/>
<path d="M1252 510 c0 -14 2 -19 5 -12 2 6 2 18 0 25 -3 6 -5 1 -5 -13z"/>
<path d="M1088 493 c7 -3 16 -2 19 1 4 3 -2 6 -13 5 -11 0 -14 -3 -6 -6z"/>
<path d="M4825 490 c3 -5 8 -10 11 -10 2 0 4 5 4 10 0 6 -5 10 -11 10 -5 0 -7
-4 -4 -10z"/>
<path d="M4641 474 c0 -11 3 -14 6 -6 3 7 2 16 -1 19 -3 4 -6 -2 -5 -13z"/>
<path d="M4895 474 c28 -7 57 -13 65 -13 8 0 -7 7 -35 15 -27 7 -57 13 -65 13
-8 0 8 -7 35 -15z"/>
<path d="M4670 460 c0 -5 5 -10 11 -10 5 0 7 5 4 10 -3 6 -8 10 -11 10 -2 0
-4 -4 -4 -10z"/>
<path d="M4842 465 c11 -12 68 -23 68 -14 0 5 -6 9 -12 10 -7 0 -24 3 -37 5
-14 2 -22 2 -19 -1z"/>
<path d="M5092 458 c-9 -4 6 -7 36 -7 28 -1 52 3 52 7 0 10 -63 10 -88 0z"/>
<path d="M5190 461 c0 -6 5 -11 10 -11 6 0 10 -9 10 -20 0 -11 4 -20 9 -20 13
0 -3 53 -17 58 -7 2 -12 -1 -12 -7z"/>
<path d="M1350 444 c0 -8 5 -12 10 -9 6 4 8 11 5 16 -9 14 -15 11 -15 -7z"/>
<path d="M1570 451 c-8 -6 -17 -8 -21 -5 -4 2 -5 -5 -2 -16 3 -13 14 -20 28
-20 18 0 21 4 17 25 -2 14 -5 25 -6 25 0 0 -8 -4 -16 -9z"/>
<path d="M802 413 c0 -28 2 -33 8 -18 6 17 3 55 -5 55 -2 0 -3 -17 -3 -37z"/>
<path d="M820 440 c0 -8 5 -22 10 -30 9 -13 10 -13 10 0 0 8 -5 22 -10 30 -9
13 -10 13 -10 0z"/>
<path d="M4985 422 c74 -30 179 -91 171 -99 -2 -2 -38 14 -78 36 -65 36 -203
81 -246 81 -22 0 -9 -10 19 -15 65 -12 120 -28 125 -36 3 -5 9 -7 13 -5 4 3
34 -11 67 -29 32 -19 53 -35 47 -35 -7 0 -13 -5 -13 -10 0 -7 6 -7 20 0 17 9
20 8 20 -7 0 -13 2 -15 8 -5 5 7 17 10 28 6 16 -5 16 -4 4 5 -13 9 -12 11 5
12 11 1 28 1 37 0 14 -2 17 6 15 38 -1 47 -17 56 -17 11 0 -35 -10 -38 -34
-11 -10 11 -34 28 -53 38 -19 10 -49 26 -67 35 -17 9 -37 17 -45 18 -7 0 13
-14 45 -31 33 -17 64 -35 69 -41 12 -12 13 -13 -78 30 -38 18 -83 35 -100 38
-19 3 -5 -7 38 -24z m182 -72 c14 -11 22 -20 17 -20 -12 1 -61 39 -51 40 5 0
20 -9 34 -20z"/>
<path d="M1062 428 c2 -6 11 -13 19 -16 12 -3 12 -2 0 7 -11 7 -5 11 25 14
l39 4 -43 1 c-30 1 -42 -2 -40 -10z"/>
<path d="M1320 420 c-13 -8 -12 -10 3 -10 9 0 17 5 17 10 0 12 -1 12 -20 0z"/>
<path d="M847 400 c-9 -11 -17 -27 -17 -35 0 -22 -18 -27 -29 -8 -9 16 -10 16
-11 -4 0 -20 20 -26 36 -10 4 4 12 7 18 7 6 0 5 -5 -2 -12 -7 -7 -12 -19 -12
-28 0 -9 -8 -16 -20 -16 -13 0 -19 5 -16 13 3 7 2 13 -3 13 -14 0 -21 -54 -9
-65 8 -7 9 -5 5 7 -5 14 -1 17 18 16 27 -3 35 -18 9 -18 -8 0 -12 -4 -9 -10 3
-5 1 -10 -5 -10 -6 0 -8 -5 -5 -10 7 -12 36 21 49 55 6 16 25 135 21 135 0 0
-8 -9 -18 -20z"/>
<path d="M1108 413 c6 -2 18 -2 25 0 6 3 1 5 -13 5 -14 0 -19 -2 -12 -5z"/>
<path d="M1260 410 c20 -13 40 -13 40 0 0 6 -12 10 -27 10 -22 0 -25 -2 -13
-10z"/>
<path d="M597 375 c-4 -8 -2 -17 3 -20 6 -4 10 3 10 14 0 25 -6 27 -13 6z"/>
<path d="M4840 384 c0 -5 16 -10 36 -11 37 -2 74 -26 74 -50 0 -7 5 -13 11
-13 5 0 7 -4 4 -10 -3 -5 -1 -10 4 -10 6 0 11 6 11 13 0 8 4 7 10 -3 8 -13 10
-12 10 4 0 12 5 16 16 12 9 -3 19 -6 22 -7 4 0 -2 -4 -13 -9 -17 -7 -15 -9 13
-9 29 -1 31 1 20 18 -15 24 -56 44 -70 35 -7 -4 -8 -2 -4 4 4 7 -8 15 -31 21
-68 18 -113 23 -113 15z"/>
<path d="M5240 336 c0 -20 2 -36 4 -36 8 0 12 61 4 66 -4 3 -8 -11 -8 -30z"/>
<path d="M4835 351 c-3 -5 -1 -12 5 -16 5 -3 10 1 10 9 0 18 -6 21 -15 7z"/>
<path d="M552 330 c0 -14 2 -19 5 -12 2 6 2 18 0 25 -3 6 -5 1 -5 -13z"/>
<path d="M4770 316 c0 -16 18 -31 27 -22 3 3 -2 12 -11 21 -14 14 -16 14 -16
1z"/>
<path d="M4888 323 c7 -3 16 -2 19 1 4 3 -2 6 -13 5 -11 0 -14 -3 -6 -6z"/>
<path d="M472 272 l-22 -47 25 28 c14 15 25 37 25 48 0 26 -2 24 -28 -29z"/>
<path d="M4815 310 c4 -6 11 -8 16 -5 14 9 11 15 -7 15 -8 0 -12 -5 -9 -10z"/>
<path d="M4852 300 c0 -14 2 -19 5 -12 2 6 2 18 0 25 -3 6 -5 1 -5 -13z"/>
<path d="M426 293 c-6 -14 -5 -15 5 -6 7 7 10 15 7 18 -3 3 -9 -2 -12 -12z"/>
<path d="M560 290 c0 -18 48 -80 62 -80 7 0 7 4 -1 13 -6 8 -8 17 -4 20 3 4
-1 7 -10 7 -9 0 -17 6 -17 14 0 7 -7 19 -15 26 -12 10 -15 10 -15 0z"/>
<path d="M5107 287 c-3 -8 1 -14 8 -14 7 0 11 6 8 14 -6 16 -10 16 -16 0z"/>
<path d="M4486 263 c-6 -14 -5 -15 5 -6 7 7 10 15 7 18 -3 3 -9 -2 -12 -12z"/>
<path d="M5015 230 c0 -27 3 -50 8 -50 8 0 8 -1 10 58 1 23 -2 42 -8 42 -5 0
-10 -22 -10 -50z"/>
<path d="M5198 273 c7 -3 16 -2 19 1 4 3 -2 6 -13 5 -11 0 -14 -3 -6 -6z"/>
<path d="M630 260 c0 -5 5 -10 11 -10 5 0 7 5 4 10 -3 6 -8 10 -11 10 -2 0 -4
-4 -4 -10z"/>
<path d="M4311 254 c0 -11 3 -14 6 -6 3 7 2 16 -1 19 -3 4 -6 -2 -5 -13z"/>
<path d="M4661 244 c0 -11 3 -14 6 -6 3 7 2 16 -1 19 -3 4 -6 -2 -5 -13z"/>
<path d="M4778 253 c7 -3 16 -2 19 1 4 3 -2 6 -13 5 -11 0 -14 -3 -6 -6z"/>
<path d="M410 241 c0 -5 6 -11 13 -14 7 -2 -1 -11 -18 -20 -16 -9 -25 -16 -20
-17 21 0 54 31 49 45 -7 16 -24 21 -24 6z"/>
<path d="M3751 234 c0 -11 3 -14 6 -6 3 7 2 16 -1 19 -3 4 -6 -2 -5 -13z"/>
<path d="M732 228 c5 -14 -15 -38 -31 -38 -18 0 -12 28 7 33 13 4 11 5 -5 6
-18 1 -23 -4 -23 -25 0 -24 2 -25 41 -20 23 3 48 11 55 17 14 12 10 29 -7 29
-6 0 -7 -5 -3 -11 4 -7 1 -10 -7 -7 -8 3 -13 11 -11 17 1 6 -3 11 -9 11 -6 0
-9 -6 -7 -12z"/>
<path d="M4430 228 c0 -9 5 -20 11 -23 17 -11 20 0 4 21 -13 17 -14 17 -15 2z"/>
<path d="M4521 224 c0 -11 3 -14 6 -6 3 7 2 16 -1 19 -3 4 -6 -2 -5 -13z"/>
<path d="M4771 224 c0 -11 3 -14 6 -6 3 7 2 16 -1 19 -3 4 -6 -2 -5 -13z"/>
<path d="M300 223 c8 -3 20 -10 26 -14 7 -5 11 -3 11 6 0 10 -10 15 -26 14
-16 0 -20 -3 -11 -6z"/>
<path d="M5355 220 c3 -5 8 -10 11 -10 2 0 4 5 4 10 0 6 -5 10 -11 10 -5 0 -7
-4 -4 -10z"/>
<path d="M270 211 c0 -8 -8 -11 -20 -8 -11 3 -20 1 -20 -4 0 -13 37 -11 45 2
4 6 4 13 1 16 -3 4 -6 1 -6 -6z"/>
<path d="M640 200 c0 -5 7 -10 16 -10 8 0 12 5 9 10 -3 6 -10 10 -16 10 -5 0
-9 -4 -9 -10z"/>
<path d="M4991 194 c0 -11 3 -14 6 -6 3 7 2 16 -1 19 -3 4 -6 -2 -5 -13z"/>
<path d="M5269 183 c-13 -17 -13 -17 6 -3 11 8 22 16 24 17 2 2 0 3 -6 3 -6 0
-17 -8 -24 -17z"/>
<path d="M5320 196 c0 -8 60 -12 72 -4 8 4 -4 8 -29 8 -24 0 -43 -2 -43 -4z"/>
</g>
</svg>
